ISO-10303-21;
HEADER;
FILE_DESCRIPTION((''),'2;1');
FILE_NAME('PRT0007','2026-06-30T15:12:56',('Administrator'),(''),
'CREO PARAMETRIC BY PTC INC, 2019010','CREO PARAMETRIC BY PTC INC, 2019010','');
FILE_SCHEMA(('CONFIG_CONTROL_DESIGN'));
ENDSEC;
DATA;
#1=CARTESIAN_POINT('',(0.E0,0.E0,0.E0));
#2=DIRECTION('',(0.E0,0.E0,1.E0));
#3=DIRECTION('',(0.E0,1.E0,0.E0));
#4=AXIS2_PLACEMENT_3D('',#1,#2,#3);
#6=CARTESIAN_POINT('',(0.E0,0.E0,0.E0));
#7=DIRECTION('',(0.E0,0.E0,1.E0));
#8=DIRECTION('',(0.E0,-1.E0,0.E0));
#9=AXIS2_PLACEMENT_3D('',#6,#7,#8);
#11=CARTESIAN_POINT('',(1.349792499994E-11,4.165E0,-6.E-1));
#12=DIRECTION('',(-1.E0,3.240799989479E-12,0.E0));
#13=DIRECTION('',(0.E0,0.E0,1.E0));
#14=AXIS2_PLACEMENT_3D('',#11,#12,#13);
#16=CARTESIAN_POINT('',(-1.349800826667E-11,-4.165E0,-6.E-1));
#17=DIRECTION('',(1.E0,-3.240817336714E-12,0.E0));
#18=DIRECTION('',(0.E0,0.E0,1.E0));
#19=AXIS2_PLACEMENT_3D('',#16,#17,#18);
#21=CARTESIAN_POINT('',(0.E0,0.E0,-6.E-1));
#22=DIRECTION('',(0.E0,0.E0,1.E0));
#23=DIRECTION('',(0.E0,-1.E0,0.E0));
#24=AXIS2_PLACEMENT_3D('',#21,#22,#23);
#26=CARTESIAN_POINT('',(0.E0,0.E0,-1.12E1));
#27=DIRECTION('',(0.E0,0.E0,-1.E0));
#28=DIRECTION('',(0.E0,1.E0,0.E0));
#29=AXIS2_PLACEMENT_3D('',#26,#27,#28);
#31=CARTESIAN_POINT('',(0.E0,0.E0,-6.E-1));
#32=DIRECTION('',(0.E0,0.E0,1.E0));
#33=DIRECTION('',(0.E0,1.E0,0.E0));
#34=AXIS2_PLACEMENT_3D('',#31,#32,#33);
#36=DIRECTION('',(-1.659092858719E-13,0.E0,1.E0));
#37=VECTOR('',#36,1.06E1);
#38=CARTESIAN_POINT('',(0.E0,-4.765E0,-1.12E1));
#39=LINE('',#38,#37);
#40=CARTESIAN_POINT('',(0.E0,0.E0,-1.12E1));
#41=DIRECTION('',(0.E0,0.E0,1.E0));
#42=DIRECTION('',(0.E0,1.E0,0.E0));
#43=AXIS2_PLACEMENT_3D('',#40,#41,#42);
#45=DIRECTION('',(1.659095972086E-13,0.E0,1.E0));
#46=VECTOR('',#45,1.06E1);
#47=CARTESIAN_POINT('',(0.E0,4.765E0,-1.12E1));
#48=LINE('',#47,#46);
#49=CARTESIAN_POINT('',(0.E0,0.E0,-1.12E1));
#50=DIRECTION('',(0.E0,0.E0,-1.E0));
#51=DIRECTION('',(0.E0,1.E0,0.E0));
#52=AXIS2_PLACEMENT_3D('',#49,#50,#51);
#54=CARTESIAN_POINT('',(0.E0,0.E0,-1.12E1));
#55=DIRECTION('',(0.E0,0.E0,1.E0));
#56=DIRECTION('',(0.E0,1.E0,0.E0));
#57=AXIS2_PLACEMENT_3D('',#54,#55,#56);
#59=CARTESIAN_POINT('',(0.E0,0.E0,-1.27E1));
#60=DIRECTION('',(0.E0,0.E0,-1.E0));
#61=DIRECTION('',(0.E0,1.E0,0.E0));
#62=AXIS2_PLACEMENT_3D('',#59,#60,#61);
#64=DIRECTION('',(0.E0,0.E0,1.E0));
#65=VECTOR('',#64,1.5E0);
#66=CARTESIAN_POINT('',(0.E0,4.665E0,-1.27E1));
#67=LINE('',#66,#65);
#68=DIRECTION('',(0.E0,0.E0,1.E0));
#69=VECTOR('',#68,1.5E0);
#70=CARTESIAN_POINT('',(0.E0,-4.665E0,-1.27E1));
#71=LINE('',#70,#69);
#72=CARTESIAN_POINT('',(0.E0,0.E0,-1.27E1));
#73=DIRECTION('',(0.E0,0.E0,1.E0));
#74=DIRECTION('',(0.E0,1.E0,0.E0));
#75=AXIS2_PLACEMENT_3D('',#72,#73,#74);
#77=CARTESIAN_POINT('',(0.E0,0.E0,-1.27E1));
#78=DIRECTION('',(0.E0,0.E0,-1.E0));
#79=DIRECTION('',(0.E0,1.E0,0.E0));
#80=AXIS2_PLACEMENT_3D('',#77,#78,#79);
#82=CARTESIAN_POINT('',(0.E0,0.E0,-1.27E1));
#83=DIRECTION('',(0.E0,0.E0,1.E0));
#84=DIRECTION('',(0.E0,1.E0,0.E0));
#85=AXIS2_PLACEMENT_3D('',#82,#83,#84);
#87=CARTESIAN_POINT('',(0.E0,0.E0,-2.44E1));
#88=DIRECTION('',(0.E0,0.E0,-1.E0));
#89=DIRECTION('',(0.E0,1.E0,0.E0));
#90=AXIS2_PLACEMENT_3D('',#87,#88,#89);
#92=CARTESIAN_POINT('',(-9.289902180853E-12,5.365E0,-2.44E1));
#93=DIRECTION('',(1.E0,1.731576687591E-12,0.E0));
#94=DIRECTION('',(1.731576687591E-12,-1.E0,0.E0));
#95=AXIS2_PLACEMENT_3D('',#92,#93,#94);
#97=CARTESIAN_POINT('',(9.289236047039E-12,-5.365E0,-2.44E1));
#98=DIRECTION('',(-1.E0,-1.731451787501E-12,0.E0));
#99=DIRECTION('',(-1.731451787501E-12,1.E0,0.E0));
#100=AXIS2_PLACEMENT_3D('',#97,#98,#99);
#102=CARTESIAN_POINT('',(0.E0,0.E0,-2.44E1));
#103=DIRECTION('',(0.E0,0.E0,-1.E0));
#104=DIRECTION('',(0.E0,-1.E0,0.E0));
#105=AXIS2_PLACEMENT_3D('',#102,#103,#104);
#107=DIRECTION('',(2.591129249890E-14,0.E0,1.E0));
#108=VECTOR('',#107,1.17E1);
#109=CARTESIAN_POINT('',(-3.027730927706E-13,4.765E0,-2.44E1));
#110=LINE('',#109,#108);
#111=DIRECTION('',(-2.585389871573E-14,0.E0,1.E0));
#112=VECTOR('',#111,1.17E1);
#113=CARTESIAN_POINT('',(3.021015855075E-13,-4.765E0,-2.44E1));
#114=LINE('',#113,#112);
#115=CARTESIAN_POINT('',(0.E0,0.E0,-2.5E1));
#116=DIRECTION('',(0.E0,0.E0,-1.E0));
#117=DIRECTION('',(0.E0,-1.E0,0.E0));
#118=AXIS2_PLACEMENT_3D('',#115,#116,#117);
#120=CARTESIAN_POINT('',(0.E0,0.E0,-2.5E1));
#121=DIRECTION('',(0.E0,0.E0,-1.E0));
#122=DIRECTION('',(0.E0,1.E0,0.E0));
#123=AXIS2_PLACEMENT_3D('',#120,#121,#122);
#125=CARTESIAN_POINT('',(0.E0,0.E0,-2.5E1));
#126=DIRECTION('',(0.E0,0.E0,1.E0));
#127=DIRECTION('',(0.E0,1.E0,0.E0));
#128=AXIS2_PLACEMENT_3D('',#125,#126,#127);
#130=CARTESIAN_POINT('',(0.E0,0.E0,-2.5E1));
#131=DIRECTION('',(0.E0,0.E0,1.E0));
#132=DIRECTION('',(0.E0,-1.E0,0.E0));
#133=AXIS2_PLACEMENT_3D('',#130,#131,#132);
#135=CARTESIAN_POINT('',(3.350500432653E-12,8.95E0,-2.55E1));
#136=DIRECTION('',(-1.E0,3.743585302862E-13,0.E0));
#137=DIRECTION('',(0.E0,0.E0,1.E0));
#138=AXIS2_PLACEMENT_3D('',#135,#136,#137);
#140=CARTESIAN_POINT('',(-3.353942124029E-12,-8.95E0,-2.55E1));
#141=DIRECTION('',(1.E0,-3.747419041744E-13,0.E0));
#142=DIRECTION('',(0.E0,0.E0,1.E0));
#143=AXIS2_PLACEMENT_3D('',#140,#141,#142);
#145=CARTESIAN_POINT('',(0.E0,0.E0,-2.6E1));
#146=DIRECTION('',(0.E0,0.E0,1.E0));
#147=DIRECTION('',(0.E0,-1.E0,0.E0));
#148=AXIS2_PLACEMENT_3D('',#145,#146,#147);
#150=CARTESIAN_POINT('',(0.E0,0.E0,-2.55E1));
#151=DIRECTION('',(0.E0,0.E0,1.E0));
#152=DIRECTION('',(0.E0,-1.E0,0.E0));
#153=AXIS2_PLACEMENT_3D('',#150,#151,#152);
#155=CARTESIAN_POINT('',(-1.074751398988E-12,-7.45E0,-2.6E1));
#156=DIRECTION('',(1.E0,-1.442630737092E-13,0.E0));
#157=DIRECTION('',(-1.442630737092E-13,-1.E0,0.E0));
#158=AXIS2_PLACEMENT_3D('',#155,#156,#157);
#160=CARTESIAN_POINT('',(1.071247257567E-12,7.45E0,-2.6E1));
#161=DIRECTION('',(-1.E0,1.437929636472E-13,0.E0));
#162=DIRECTION('',(1.437929636472E-13,1.E0,0.E0));
#163=AXIS2_PLACEMENT_3D('',#160,#161,#162);
#165=CARTESIAN_POINT('',(0.E0,0.E0,-2.6E1));
#166=DIRECTION('',(0.E0,0.E0,1.E0));
#167=DIRECTION('',(0.E0,1.E0,0.E0));
#168=AXIS2_PLACEMENT_3D('',#165,#166,#167);
#170=DIRECTION('',(9.512009235824E-13,0.E0,1.E0));
#171=VECTOR('',#170,5.E-1);
#172=CARTESIAN_POINT('',(-4.640633973423E-14,9.45E0,-2.6E1));
#173=LINE('',#172,#171);
#174=CARTESIAN_POINT('',(0.E0,0.E0,-2.55E1));
#175=DIRECTION('',(0.E0,0.E0,1.E0));
#176=DIRECTION('',(0.E0,1.E0,0.E0));
#177=AXIS2_PLACEMENT_3D('',#174,#175,#176);
#179=DIRECTION('',(-9.586952298099E-13,0.E0,1.E0));
#180=VECTOR('',#179,5.E-1);
#181=CARTESIAN_POINT('',(4.790740196082E-14,-9.45E0,-2.6E1));
#182=LINE('',#181,#180);
#183=CARTESIAN_POINT('',(0.E0,0.E0,-2.8E1));
#184=DIRECTION('',(0.E0,0.E0,1.E0));
#185=DIRECTION('',(0.E0,1.E0,0.E0));
#186=AXIS2_PLACEMENT_3D('',#183,#184,#185);
#188=CARTESIAN_POINT('',(0.E0,0.E0,-2.8E1));
#189=DIRECTION('',(0.E0,0.E0,1.E0));
#190=DIRECTION('',(0.E0,-1.E0,0.E0));
#191=AXIS2_PLACEMENT_3D('',#188,#189,#190);
#193=CARTESIAN_POINT('',(0.E0,0.E0,-2.8E1));
#194=DIRECTION('',(0.E0,0.E0,1.E0));
#195=DIRECTION('',(0.E0,1.E0,0.E0));
#196=AXIS2_PLACEMENT_3D('',#193,#194,#195);
#198=CARTESIAN_POINT('',(0.E0,0.E0,-2.8E1));
#199=DIRECTION('',(0.E0,0.E0,1.E0));
#200=DIRECTION('',(0.E0,-1.E0,0.E0));
#201=AXIS2_PLACEMENT_3D('',#198,#199,#200);
#203=CARTESIAN_POINT('',(4.542789894257E-10,3.75E0,-2.75E1));
#204=DIRECTION('',(-1.E0,1.211410624591E-10,0.E0));
#205=DIRECTION('',(0.E0,-5.061018271135E-11,-1.E0));
#206=AXIS2_PLACEMENT_3D('',#203,#204,#205);
#208=CARTESIAN_POINT('',(-4.542800718932E-10,-3.75E0,-2.75E1));
#209=DIRECTION('',(1.E0,-1.211413504232E-10,0.E0));
#210=DIRECTION('',(0.E0,5.060929453293E-11,-1.E0));
#211=AXIS2_PLACEMENT_3D('',#208,#209,#210);
#213=CARTESIAN_POINT('',(0.E0,0.E0,-2.5E0));
#214=DIRECTION('',(0.E0,0.E0,-1.E0));
#215=DIRECTION('',(0.E0,1.E0,0.E0));
#216=AXIS2_PLACEMENT_3D('',#213,#214,#215);
#218=CARTESIAN_POINT('',(0.E0,0.E0,-2.75E1));
#219=DIRECTION('',(0.E0,0.E0,1.E0));
#220=DIRECTION('',(0.E0,-1.E0,0.E0));
#221=AXIS2_PLACEMENT_3D('',#218,#219,#220);
#223=CARTESIAN_POINT('',(-1.649345174326E-10,2.75E0,-2.5E0));
#224=DIRECTION('',(1.E0,5.997618721110E-11,0.E0));
#225=DIRECTION('',(-5.997618721110E-11,1.E0,0.E0));
#226=AXIS2_PLACEMENT_3D('',#223,#224,#225);
#228=CARTESIAN_POINT('',(1.649341427323E-10,-2.75E0,-2.5E0));
#229=DIRECTION('',(-1.E0,-5.997604843322E-11,0.E0));
#230=DIRECTION('',(5.997604843322E-11,-1.E0,0.E0));
#231=AXIS2_PLACEMENT_3D('',#228,#229,#230);
#233=CARTESIAN_POINT('',(0.E0,0.E0,-2.5E0));
#234=DIRECTION('',(0.E0,0.E0,-1.E0));
#235=DIRECTION('',(0.E0,-1.E0,0.E0));
#236=AXIS2_PLACEMENT_3D('',#233,#234,#235);
#238=DIRECTION('',(1.987895889566E-12,0.E0,-1.E0));
#239=VECTOR('',#238,2.5E1);
#240=CARTESIAN_POINT('',(-6.946388397418E-12,3.25E0,-2.5E0));
#241=LINE('',#240,#239);
#242=CARTESIAN_POINT('',(0.E0,0.E0,-2.75E1));
#243=DIRECTION('',(0.E0,0.E0,1.E0));
#244=DIRECTION('',(0.E0,1.E0,0.E0));
#245=AXIS2_PLACEMENT_3D('',#242,#243,#244);
#247=DIRECTION('',(-1.987939704355E-12,0.E0,-1.E0));
#248=VECTOR('',#247,2.5E1);
#249=CARTESIAN_POINT('',(6.946277511010E-12,-3.25E0,-2.5E0));
#250=LINE('',#249,#248);
#251=CARTESIAN_POINT('',(0.E0,0.E0,-2.E0));
#252=DIRECTION('',(0.E0,0.E0,-1.E0));
#253=DIRECTION('',(0.E0,-1.E0,0.E0));
#254=AXIS2_PLACEMENT_3D('',#251,#252,#253);
#256=CARTESIAN_POINT('',(0.E0,0.E0,-2.E0));
#257=DIRECTION('',(0.E0,0.E0,-1.E0));
#258=DIRECTION('',(0.E0,1.E0,0.E0));
#259=AXIS2_PLACEMENT_3D('',#256,#257,#258);
#261=CARTESIAN_POINT('',(0.E0,4.665E0,-1.27E1));
#262=CARTESIAN_POINT('',(0.E0,4.665E0,-1.12E1));
#263=VERTEX_POINT('',#261);
#264=VERTEX_POINT('',#262);
#265=CARTESIAN_POINT('',(0.E0,-4.665E0,-1.27E1));
#266=CARTESIAN_POINT('',(0.E0,-4.665E0,-1.12E1));
#267=VERTEX_POINT('',#265);
#268=VERTEX_POINT('',#266);
#269=CARTESIAN_POINT('',(0.E0,4.765E0,-1.27E1));
#270=CARTESIAN_POINT('',(0.E0,-4.765E0,-1.27E1));
#271=VERTEX_POINT('',#269);
#272=VERTEX_POINT('',#270);
#273=CARTESIAN_POINT('',(0.E0,4.765E0,-1.12E1));
#274=CARTESIAN_POINT('',(0.E0,-4.765E0,-1.12E1));
#275=VERTEX_POINT('',#273);
#276=VERTEX_POINT('',#274);
#277=CARTESIAN_POINT('',(0.E0,-4.765E0,-2.44E1));
#278=CARTESIAN_POINT('',(0.E0,4.765E0,-2.44E1));
#279=VERTEX_POINT('',#277);
#280=VERTEX_POINT('',#278);
#281=CARTESIAN_POINT('',(0.E0,-5.365E0,-2.5E1));
#282=CARTESIAN_POINT('',(0.E0,5.365E0,-2.5E1));
#283=VERTEX_POINT('',#281);
#284=VERTEX_POINT('',#282);
#285=CARTESIAN_POINT('',(0.E0,4.165E0,0.E0));
#286=CARTESIAN_POINT('',(0.E0,-4.165E0,0.E0));
#287=VERTEX_POINT('',#285);
#288=VERTEX_POINT('',#286);
#289=CARTESIAN_POINT('',(0.E0,4.765E0,-6.E-1));
#290=CARTESIAN_POINT('',(0.E0,-4.765E0,-6.E-1));
#291=VERTEX_POINT('',#289);
#292=VERTEX_POINT('',#290);
#293=CARTESIAN_POINT('',(0.E0,3.75E0,-2.8E1));
#294=CARTESIAN_POINT('',(0.E0,-3.75E0,-2.8E1));
#295=VERTEX_POINT('',#293);
#296=VERTEX_POINT('',#294);
#297=CARTESIAN_POINT('',(0.E0,3.25E0,-2.75E1));
#298=CARTESIAN_POINT('',(0.E0,-3.25E0,-2.75E1));
#299=VERTEX_POINT('',#297);
#300=VERTEX_POINT('',#298);
#301=CARTESIAN_POINT('',(0.E0,8.95E0,-2.5E1));
#302=CARTESIAN_POINT('',(0.E0,-8.95E0,-2.5E1));
#303=VERTEX_POINT('',#301);
#304=VERTEX_POINT('',#302);
#305=CARTESIAN_POINT('',(0.E0,9.45E0,-2.55E1));
#306=CARTESIAN_POINT('',(0.E0,-9.45E0,-2.55E1));
#307=VERTEX_POINT('',#305);
#308=VERTEX_POINT('',#306);
#309=CARTESIAN_POINT('',(0.E0,9.45E0,-2.6E1));
#310=CARTESIAN_POINT('',(0.E0,-9.45E0,-2.6E1));
#311=VERTEX_POINT('',#309);
#312=VERTEX_POINT('',#310);
#313=CARTESIAN_POINT('',(0.E0,7.45E0,-2.8E1));
#314=CARTESIAN_POINT('',(0.E0,-7.45E0,-2.8E1));
#315=VERTEX_POINT('',#313);
#316=VERTEX_POINT('',#314);
#317=CARTESIAN_POINT('',(0.E0,-3.25E0,-2.5E0));
#318=CARTESIAN_POINT('',(0.E0,3.25E0,-2.5E0));
#319=VERTEX_POINT('',#317);
#320=VERTEX_POINT('',#318);
#321=CARTESIAN_POINT('',(0.E0,-2.75E0,-2.E0));
#322=CARTESIAN_POINT('',(0.E0,2.75E0,-2.E0));
#323=VERTEX_POINT('',#321);
#324=VERTEX_POINT('',#322);
#325=CARTESIAN_POINT('',(0.E0,0.E0,0.E0));
#326=DIRECTION('',(0.E0,0.E0,-1.E0));
#327=DIRECTION('',(0.E0,-1.E0,0.E0));
#328=AXIS2_PLACEMENT_3D('',#325,#326,#327);
#329=PLANE('',#328);
#331=ORIENTED_EDGE('',*,*,#330,.F.);
#333=ORIENTED_EDGE('',*,*,#332,.F.);
#334=EDGE_LOOP('',(#331,#333));
#335=FACE_OUTER_BOUND('',#334,.F.);
#336=ADVANCED_FACE('',(#335),#329,.F.);
#337=CARTESIAN_POINT('',(0.E0,0.E0,-6.E-1));
#338=DIRECTION('',(0.E0,0.E0,-1.E0));
#339=DIRECTION('',(1.774692888777E-2,9.998425108561E-1,0.E0));
#340=AXIS2_PLACEMENT_3D('',#337,#338,#339);
#341=TOROIDAL_SURFACE('',#340,4.165E0,6.E-1);
#342=ORIENTED_EDGE('',*,*,#330,.T.);
#344=ORIENTED_EDGE('',*,*,#343,.T.);
#346=ORIENTED_EDGE('',*,*,#345,.F.);
#348=ORIENTED_EDGE('',*,*,#347,.F.);
#349=EDGE_LOOP('',(#342,#344,#346,#348));
#350=FACE_OUTER_BOUND('',#349,.F.);
#351=ADVANCED_FACE('',(#350),#341,.T.);
#352=CARTESIAN_POINT('',(0.E0,0.E0,-6.E-1));
#353=DIRECTION('',(0.E0,0.E0,-1.E0));
#354=DIRECTION('',(-1.774692888777E-2,-9.998425108561E-1,0.E0));
#355=AXIS2_PLACEMENT_3D('',#352,#353,#354);
#356=TOROIDAL_SURFACE('',#355,4.165E0,6.E-1);
#357=ORIENTED_EDGE('',*,*,#332,.T.);
#358=ORIENTED_EDGE('',*,*,#347,.T.);
#360=ORIENTED_EDGE('',*,*,#359,.F.);
#361=ORIENTED_EDGE('',*,*,#343,.F.);
#362=EDGE_LOOP('',(#357,#358,#360,#361));
#363=FACE_OUTER_BOUND('',#362,.F.);
#364=ADVANCED_FACE('',(#363),#356,.T.);
#365=CARTESIAN_POINT('',(0.E0,0.E0,1.4E0));
#366=DIRECTION('',(0.E0,0.E0,-1.E0));
#367=DIRECTION('',(0.E0,-1.E0,0.E0));
#368=AXIS2_PLACEMENT_3D('',#365,#366,#367);
#369=CYLINDRICAL_SURFACE('',#368,4.765E0);
#370=ORIENTED_EDGE('',*,*,#359,.T.);
#372=ORIENTED_EDGE('',*,*,#371,.F.);
#374=ORIENTED_EDGE('',*,*,#373,.T.);
#376=ORIENTED_EDGE('',*,*,#375,.T.);
#377=EDGE_LOOP('',(#370,#372,#374,#376));
#378=FACE_OUTER_BOUND('',#377,.F.);
#379=ADVANCED_FACE('',(#378),#369,.T.);
#380=CARTESIAN_POINT('',(0.E0,0.E0,1.4E0));
#381=DIRECTION('',(0.E0,0.E0,-1.E0));
#382=DIRECTION('',(0.E0,-1.E0,0.E0));
#383=AXIS2_PLACEMENT_3D('',#380,#381,#382);
#384=CYLINDRICAL_SURFACE('',#383,4.765E0);
#385=ORIENTED_EDGE('',*,*,#345,.T.);
#386=ORIENTED_EDGE('',*,*,#375,.F.);
#388=ORIENTED_EDGE('',*,*,#387,.F.);
#389=ORIENTED_EDGE('',*,*,#371,.T.);
#390=EDGE_LOOP('',(#385,#386,#388,#389));
#391=FACE_OUTER_BOUND('',#390,.F.);
#392=ADVANCED_FACE('',(#391),#384,.T.);
#393=CARTESIAN_POINT('',(0.E0,0.E0,-1.12E1));
#394=DIRECTION('',(0.E0,0.E0,-1.E0));
#395=DIRECTION('',(0.E0,-1.E0,0.E0));
#396=AXIS2_PLACEMENT_3D('',#393,#394,#395);
#397=PLANE('',#396);
#398=ORIENTED_EDGE('',*,*,#387,.T.);
#399=ORIENTED_EDGE('',*,*,#373,.F.);
#400=EDGE_LOOP('',(#398,#399));
#401=FACE_OUTER_BOUND('',#400,.F.);
#403=ORIENTED_EDGE('',*,*,#402,.T.);
#405=ORIENTED_EDGE('',*,*,#404,.F.);
#406=EDGE_LOOP('',(#403,#405));
#407=FACE_BOUND('',#406,.F.);
#408=ADVANCED_FACE('',(#401,#407),#397,.T.);
#409=CARTESIAN_POINT('',(0.E0,0.E0,1.4E0));
#410=DIRECTION('',(0.E0,0.E0,-1.E0));
#411=DIRECTION('',(0.E0,-1.E0,0.E0));
#412=AXIS2_PLACEMENT_3D('',#409,#410,#411);
#413=CYLINDRICAL_SURFACE('',#412,4.665E0);
#415=ORIENTED_EDGE('',*,*,#414,.F.);
#417=ORIENTED_EDGE('',*,*,#416,.T.);
#419=ORIENTED_EDGE('',*,*,#418,.T.);
#420=ORIENTED_EDGE('',*,*,#402,.F.);
#421=EDGE_LOOP('',(#415,#417,#419,#420));
#422=FACE_OUTER_BOUND('',#421,.F.);
#423=ADVANCED_FACE('',(#422),#413,.T.);
#424=CARTESIAN_POINT('',(0.E0,0.E0,1.4E0));
#425=DIRECTION('',(0.E0,0.E0,-1.E0));
#426=DIRECTION('',(0.E0,-1.E0,0.E0));
#427=AXIS2_PLACEMENT_3D('',#424,#425,#426);
#428=CYLINDRICAL_SURFACE('',#427,4.665E0);
#429=ORIENTED_EDGE('',*,*,#414,.T.);
#430=ORIENTED_EDGE('',*,*,#404,.T.);
#431=ORIENTED_EDGE('',*,*,#418,.F.);
#433=ORIENTED_EDGE('',*,*,#432,.F.);
#434=EDGE_LOOP('',(#429,#430,#431,#433));
#435=FACE_OUTER_BOUND('',#434,.F.);
#436=ADVANCED_FACE('',(#435),#428,.T.);
#437=CARTESIAN_POINT('',(0.E0,0.E0,-1.27E1));
#438=DIRECTION('',(0.E0,0.E0,-1.E0));
#439=DIRECTION('',(0.E0,-1.E0,0.E0));
#440=AXIS2_PLACEMENT_3D('',#437,#438,#439);
#441=PLANE('',#440);
#443=ORIENTED_EDGE('',*,*,#442,.T.);
#445=ORIENTED_EDGE('',*,*,#444,.F.);
#446=EDGE_LOOP('',(#443,#445));
#447=FACE_OUTER_BOUND('',#446,.F.);
#448=ORIENTED_EDGE('',*,*,#432,.T.);
#449=ORIENTED_EDGE('',*,*,#416,.F.);
#450=EDGE_LOOP('',(#448,#449));
#451=FACE_BOUND('',#450,.F.);
#452=ADVANCED_FACE('',(#447,#451),#441,.F.);
#453=CARTESIAN_POINT('',(0.E0,0.E0,1.4E0));
#454=DIRECTION('',(0.E0,0.E0,-1.E0));
#455=DIRECTION('',(0.E0,-1.E0,0.E0));
#456=AXIS2_PLACEMENT_3D('',#453,#454,#455);
#457=CYLINDRICAL_SURFACE('',#456,4.765E0);
#459=ORIENTED_EDGE('',*,*,#458,.T.);
#461=ORIENTED_EDGE('',*,*,#460,.T.);
#462=ORIENTED_EDGE('',*,*,#442,.F.);
#464=ORIENTED_EDGE('',*,*,#463,.F.);
#465=EDGE_LOOP('',(#459,#461,#462,#464));
#466=FACE_OUTER_BOUND('',#465,.F.);
#467=ADVANCED_FACE('',(#466),#457,.T.);
#468=CARTESIAN_POINT('',(0.E0,0.E0,-2.44E1));
#469=DIRECTION('',(0.E0,0.E0,-1.E0));
#470=DIRECTION('',(-1.309577812769E-2,9.999142466208E-1,0.E0));
#471=AXIS2_PLACEMENT_3D('',#468,#469,#470);
#472=TOROIDAL_SURFACE('',#471,5.365E0,6.E-1);
#473=ORIENTED_EDGE('',*,*,#458,.F.);
#475=ORIENTED_EDGE('',*,*,#474,.T.);
#477=ORIENTED_EDGE('',*,*,#476,.T.);
#479=ORIENTED_EDGE('',*,*,#478,.F.);
#480=EDGE_LOOP('',(#473,#475,#477,#479));
#481=FACE_OUTER_BOUND('',#480,.F.);
#482=ADVANCED_FACE('',(#481),#472,.F.);
#483=CARTESIAN_POINT('',(0.E0,0.E0,-2.44E1));
#484=DIRECTION('',(0.E0,0.E0,-1.E0));
#485=DIRECTION('',(1.309577812769E-2,-9.999142466208E-1,0.E0));
#486=AXIS2_PLACEMENT_3D('',#483,#484,#485);
#487=TOROIDAL_SURFACE('',#486,5.365E0,6.E-1);
#489=ORIENTED_EDGE('',*,*,#488,.F.);
#490=ORIENTED_EDGE('',*,*,#478,.T.);
#492=ORIENTED_EDGE('',*,*,#491,.T.);
#493=ORIENTED_EDGE('',*,*,#474,.F.);
#494=EDGE_LOOP('',(#489,#490,#492,#493));
#495=FACE_OUTER_BOUND('',#494,.F.);
#496=ADVANCED_FACE('',(#495),#487,.F.);
#497=CARTESIAN_POINT('',(0.E0,0.E0,1.4E0));
#498=DIRECTION('',(0.E0,0.E0,-1.E0));
#499=DIRECTION('',(0.E0,-1.E0,0.E0));
#500=AXIS2_PLACEMENT_3D('',#497,#498,#499);
#501=CYLINDRICAL_SURFACE('',#500,4.765E0);
#502=ORIENTED_EDGE('',*,*,#488,.T.);
#503=ORIENTED_EDGE('',*,*,#463,.T.);
#504=ORIENTED_EDGE('',*,*,#444,.T.);
#505=ORIENTED_EDGE('',*,*,#460,.F.);
#506=EDGE_LOOP('',(#502,#503,#504,#505));
#507=FACE_OUTER_BOUND('',#506,.F.);
#508=ADVANCED_FACE('',(#507),#501,.T.);
#509=CARTESIAN_POINT('',(0.E0,0.E0,-2.5E1));
#510=DIRECTION('',(0.E0,0.E0,-1.E0));
#511=DIRECTION('',(0.E0,-1.E0,0.E0));
#512=AXIS2_PLACEMENT_3D('',#509,#510,#511);
#513=PLANE('',#512);
#515=ORIENTED_EDGE('',*,*,#514,.F.);
#517=ORIENTED_EDGE('',*,*,#516,.F.);
#518=EDGE_LOOP('',(#515,#517));
#519=FACE_OUTER_BOUND('',#518,.F.);
#520=ORIENTED_EDGE('',*,*,#491,.F.);
#521=ORIENTED_EDGE('',*,*,#476,.F.);
#522=EDGE_LOOP('',(#520,#521));
#523=FACE_BOUND('',#522,.F.);
#524=ADVANCED_FACE('',(#519,#523),#513,.F.);
#525=CARTESIAN_POINT('',(0.E0,0.E0,-2.55E1));
#526=DIRECTION('',(0.E0,0.E0,-1.E0));
#527=DIRECTION('',(8.948934069612E-3,9.999599574878E-1,0.E0));
#528=AXIS2_PLACEMENT_3D('',#525,#526,#527);
#529=TOROIDAL_SURFACE('',#528,8.95E0,5.E-1);
#530=ORIENTED_EDGE('',*,*,#514,.T.);
#532=ORIENTED_EDGE('',*,*,#531,.T.);
#534=ORIENTED_EDGE('',*,*,#533,.F.);
#536=ORIENTED_EDGE('',*,*,#535,.F.);
#537=EDGE_LOOP('',(#530,#532,#534,#536));
#538=FACE_OUTER_BOUND('',#537,.F.);
#539=ADVANCED_FACE('',(#538),#529,.T.);
#540=CARTESIAN_POINT('',(0.E0,0.E0,-2.55E1));
#541=DIRECTION('',(0.E0,0.E0,-1.E0));
#542=DIRECTION('',(-8.948934069612E-3,-9.999599574878E-1,0.E0));
#543=AXIS2_PLACEMENT_3D('',#540,#541,#542);
#544=TOROIDAL_SURFACE('',#543,8.95E0,5.E-1);
#545=ORIENTED_EDGE('',*,*,#516,.T.);
#546=ORIENTED_EDGE('',*,*,#535,.T.);
#548=ORIENTED_EDGE('',*,*,#547,.F.);
#549=ORIENTED_EDGE('',*,*,#531,.F.);
#550=EDGE_LOOP('',(#545,#546,#548,#549));
#551=FACE_OUTER_BOUND('',#550,.F.);
#552=ADVANCED_FACE('',(#551),#544,.T.);
#553=CARTESIAN_POINT('',(0.E0,0.E0,1.4E0));
#554=DIRECTION('',(0.E0,0.E0,-1.E0));
#555=DIRECTION('',(0.E0,-1.E0,0.E0));
#556=AXIS2_PLACEMENT_3D('',#553,#554,#555);
#557=CYLINDRICAL_SURFACE('',#556,9.45E0);
#559=ORIENTED_EDGE('',*,*,#558,.F.);
#561=ORIENTED_EDGE('',*,*,#560,.T.);
#562=ORIENTED_EDGE('',*,*,#547,.T.);
#564=ORIENTED_EDGE('',*,*,#563,.F.);
#565=EDGE_LOOP('',(#559,#561,#562,#564));
#566=FACE_OUTER_BOUND('',#565,.F.);
#567=ADVANCED_FACE('',(#566),#557,.T.);
#568=CARTESIAN_POINT('',(0.E0,0.E0,-2.6E1));
#569=DIRECTION('',(0.E0,0.E0,-1.E0));
#570=DIRECTION('',(-6.057277048987E-3,-9.999816545291E-1,0.E0));
#571=AXIS2_PLACEMENT_3D('',#568,#569,#570);
#572=TOROIDAL_SURFACE('',#571,7.45E0,2.E0);
#573=ORIENTED_EDGE('',*,*,#558,.T.);
#575=ORIENTED_EDGE('',*,*,#574,.T.);
#577=ORIENTED_EDGE('',*,*,#576,.F.);
#579=ORIENTED_EDGE('',*,*,#578,.F.);
#580=EDGE_LOOP('',(#573,#575,#577,#579));
#581=FACE_OUTER_BOUND('',#580,.F.);
#582=ADVANCED_FACE('',(#581),#572,.T.);
#583=CARTESIAN_POINT('',(0.E0,0.E0,-2.6E1));
#584=DIRECTION('',(0.E0,0.E0,-1.E0));
#585=DIRECTION('',(6.057277048987E-3,9.999816545291E-1,0.E0));
#586=AXIS2_PLACEMENT_3D('',#583,#584,#585);
#587=TOROIDAL_SURFACE('',#586,7.45E0,2.E0);
#589=ORIENTED_EDGE('',*,*,#588,.T.);
#590=ORIENTED_EDGE('',*,*,#578,.T.);
#592=ORIENTED_EDGE('',*,*,#591,.F.);
#593=ORIENTED_EDGE('',*,*,#574,.F.);
#594=EDGE_LOOP('',(#589,#590,#592,#593));
#595=FACE_OUTER_BOUND('',#594,.F.);
#596=ADVANCED_FACE('',(#595),#587,.T.);
#597=CARTESIAN_POINT('',(0.E0,0.E0,1.4E0));
#598=DIRECTION('',(0.E0,0.E0,-1.E0));
#599=DIRECTION('',(0.E0,-1.E0,0.E0));
#600=AXIS2_PLACEMENT_3D('',#597,#598,#599);
#601=CYLINDRICAL_SURFACE('',#600,9.45E0);
#602=ORIENTED_EDGE('',*,*,#588,.F.);
#603=ORIENTED_EDGE('',*,*,#563,.T.);
#604=ORIENTED_EDGE('',*,*,#533,.T.);
#605=ORIENTED_EDGE('',*,*,#560,.F.);
#606=EDGE_LOOP('',(#602,#603,#604,#605));
#607=FACE_OUTER_BOUND('',#606,.F.);
#608=ADVANCED_FACE('',(#607),#601,.T.);
#609=CARTESIAN_POINT('',(0.E0,0.E0,-2.8E1));
#610=DIRECTION('',(0.E0,0.E0,-1.E0));
#611=DIRECTION('',(0.E0,-1.E0,0.E0));
#612=AXIS2_PLACEMENT_3D('',#609,#610,#611);
#613=PLANE('',#612);
#614=ORIENTED_EDGE('',*,*,#591,.T.);
#615=ORIENTED_EDGE('',*,*,#576,.T.);
#616=EDGE_LOOP('',(#614,#615));
#617=FACE_OUTER_BOUND('',#616,.F.);
#619=ORIENTED_EDGE('',*,*,#618,.F.);
#621=ORIENTED_EDGE('',*,*,#620,.F.);
#622=EDGE_LOOP('',(#619,#621));
#623=FACE_BOUND('',#622,.F.);
#624=ADVANCED_FACE('',(#617,#623),#613,.T.);
#625=CARTESIAN_POINT('',(0.E0,0.E0,-2.75E1));
#626=DIRECTION('',(0.E0,0.E0,-1.E0));
#627=DIRECTION('',(2.601815770434E-2,9.996614704337E-1,0.E0));
#628=AXIS2_PLACEMENT_3D('',#625,#626,#627);
#629=TOROIDAL_SURFACE('',#628,3.75E0,5.E-1);
#630=ORIENTED_EDGE('',*,*,#618,.T.);
#632=ORIENTED_EDGE('',*,*,#631,.T.);
#634=ORIENTED_EDGE('',*,*,#633,.F.);
#636=ORIENTED_EDGE('',*,*,#635,.F.);
#637=EDGE_LOOP('',(#630,#632,#634,#636));
#638=FACE_OUTER_BOUND('',#637,.F.);
#639=ADVANCED_FACE('',(#638),#629,.T.);
#640=CARTESIAN_POINT('',(0.E0,0.E0,-2.75E1));
#641=DIRECTION('',(0.E0,0.E0,-1.E0));
#642=DIRECTION('',(-2.601815770434E-2,-9.996614704337E-1,0.E0));
#643=AXIS2_PLACEMENT_3D('',#640,#641,#642);
#644=TOROIDAL_SURFACE('',#643,3.75E0,5.E-1);
#645=ORIENTED_EDGE('',*,*,#620,.T.);
#646=ORIENTED_EDGE('',*,*,#635,.T.);
#648=ORIENTED_EDGE('',*,*,#647,.F.);
#649=ORIENTED_EDGE('',*,*,#631,.F.);
#650=EDGE_LOOP('',(#645,#646,#648,#649));
#651=FACE_OUTER_BOUND('',#650,.F.);
#652=ADVANCED_FACE('',(#651),#644,.T.);
#653=CARTESIAN_POINT('',(0.E0,0.E0,1.4E0));
#654=DIRECTION('',(0.E0,0.E0,-1.E0));
#655=DIRECTION('',(0.E0,-1.E0,0.E0));
#656=AXIS2_PLACEMENT_3D('',#653,#654,#655);
#657=CYLINDRICAL_SURFACE('',#656,3.25E0);
#659=ORIENTED_EDGE('',*,*,#658,.T.);
#661=ORIENTED_EDGE('',*,*,#660,.T.);
#662=ORIENTED_EDGE('',*,*,#647,.T.);
#664=ORIENTED_EDGE('',*,*,#663,.F.);
#665=EDGE_LOOP('',(#659,#661,#662,#664));
#666=FACE_OUTER_BOUND('',#665,.F.);
#667=ADVANCED_FACE('',(#666),#657,.F.);
#668=CARTESIAN_POINT('',(0.E0,0.E0,-2.5E0));
#669=DIRECTION('',(0.E0,0.E0,-1.E0));
#670=DIRECTION('',(-1.919979451706E-2,9.998156669559E-1,0.E0));
#671=AXIS2_PLACEMENT_3D('',#668,#669,#670);
#672=TOROIDAL_SURFACE('',#671,2.75E0,5.E-1);
#673=ORIENTED_EDGE('',*,*,#658,.F.);
#675=ORIENTED_EDGE('',*,*,#674,.T.);
#677=ORIENTED_EDGE('',*,*,#676,.T.);
#679=ORIENTED_EDGE('',*,*,#678,.F.);
#680=EDGE_LOOP('',(#673,#675,#677,#679));
#681=FACE_OUTER_BOUND('',#680,.F.);
#682=ADVANCED_FACE('',(#681),#672,.F.);
#683=CARTESIAN_POINT('',(0.E0,0.E0,-2.5E0));
#684=DIRECTION('',(0.E0,0.E0,-1.E0));
#685=DIRECTION('',(1.919979451706E-2,-9.998156669559E-1,0.E0));
#686=AXIS2_PLACEMENT_3D('',#683,#684,#685);
#687=TOROIDAL_SURFACE('',#686,2.75E0,5.E-1);
#689=ORIENTED_EDGE('',*,*,#688,.F.);
#690=ORIENTED_EDGE('',*,*,#678,.T.);
#692=ORIENTED_EDGE('',*,*,#691,.T.);
#693=ORIENTED_EDGE('',*,*,#674,.F.);
#694=EDGE_LOOP('',(#689,#690,#692,#693));
#695=FACE_OUTER_BOUND('',#694,.F.);
#696=ADVANCED_FACE('',(#695),#687,.F.);
#697=CARTESIAN_POINT('',(0.E0,0.E0,1.4E0));
#698=DIRECTION('',(0.E0,0.E0,-1.E0));
#699=DIRECTION('',(0.E0,-1.E0,0.E0));
#700=AXIS2_PLACEMENT_3D('',#697,#698,#699);
#701=CYLINDRICAL_SURFACE('',#700,3.25E0);
#702=ORIENTED_EDGE('',*,*,#688,.T.);
#703=ORIENTED_EDGE('',*,*,#663,.T.);
#704=ORIENTED_EDGE('',*,*,#633,.T.);
#705=ORIENTED_EDGE('',*,*,#660,.F.);
#706=EDGE_LOOP('',(#702,#703,#704,#705));
#707=FACE_OUTER_BOUND('',#706,.F.);
#708=ADVANCED_FACE('',(#707),#701,.F.);
#709=CARTESIAN_POINT('',(0.E0,0.E0,-2.E0));
#710=DIRECTION('',(0.E0,0.E0,-1.E0));
#711=DIRECTION('',(0.E0,-1.E0,0.E0));
#712=AXIS2_PLACEMENT_3D('',#709,#710,#711);
#713=PLANE('',#712);
#714=ORIENTED_EDGE('',*,*,#691,.F.);
#715=ORIENTED_EDGE('',*,*,#676,.F.);
#716=EDGE_LOOP('',(#714,#715));
#717=FACE_OUTER_BOUND('',#716,.F.);
#718=ADVANCED_FACE('',(#717),#713,.T.);
#719=CLOSED_SHELL('',(#336,#351,#364,#379,#392,#408,#423,#436,#452,#467,#482,
#496,#508,#524,#539,#552,#567,#582,#596,#608,#624,#639,#652,#667,#682,#696,#708,
#718));
#720=MANIFOLD_SOLID_BREP('',#719);
#722=DIMENSIONAL_EXPONENTS(0.E0,0.E0,0.E0,0.E0,0.E0,0.E0,0.E0);
#724=PLANE_ANGLE_MEASURE_WITH_UNIT(PLANE_ANGLE_MEASURE(1.745329251994E-2),#723);
#725=(CONVERSION_BASED_UNIT('DEGREE',#724)NAMED_UNIT(*)PLANE_ANGLE_UNIT());
#727=UNCERTAINTY_MEASURE_WITH_UNIT(LENGTH_MEASURE(3.871548450804E-3),#721,
'closure',
'Maximum model space distance between geometric entities at asserted connectivities');
#728=(GEOMETRIC_REPRESENTATION_CONTEXT(3)GLOBAL_UNCERTAINTY_ASSIGNED_CONTEXT((
#727))GLOBAL_UNIT_ASSIGNED_CONTEXT((#721,#725,#726))REPRESENTATION_CONTEXT
('ID1','3'));
#730=APPLICATION_CONTEXT(
'CONFIGURATION CONTROLLED 3D DESIGNS OF MECHANICAL PARTS AND ASSEMBLIES');
#731=APPLICATION_PROTOCOL_DEFINITION('international standard',
'config_control_design',1994,#730);
#732=DESIGN_CONTEXT('',#730,'design');
#733=MECHANICAL_CONTEXT('',#730,'mechanical');
#734=PRODUCT('PRT0007','PRT0007','NOT SPECIFIED',(#733));
#735=PRODUCT_DEFINITION_FORMATION_WITH_SPECIFIED_SOURCE('1','LAST_VERSION',#734,
.MADE.);
#739=PRODUCT_CATEGORY('part','');
#740=PRODUCT_RELATED_PRODUCT_CATEGORY('detail','',(#734));
#741=PRODUCT_CATEGORY_RELATIONSHIP('','',#739,#740);
#742=SECURITY_CLASSIFICATION_LEVEL('unclassified');
#743=SECURITY_CLASSIFICATION('','',#742);
#744=CC_DESIGN_SECURITY_CLASSIFICATION(#743,(#735));
#745=APPROVAL_STATUS('approved');
#746=APPROVAL(#745,'');
#747=CC_DESIGN_APPROVAL(#746,(#743,#735,#736));
#748=CALENDAR_DATE(126,30,6);
#749=COORDINATED_UNIVERSAL_TIME_OFFSET(8,0,.AHEAD.);
#750=LOCAL_TIME(15,12,5.6E1,#749);
#751=DATE_AND_TIME(#748,#750);
#752=APPROVAL_DATE_TIME(#751,#746);
#753=DATE_TIME_ROLE('creation_date');
#754=CC_DESIGN_DATE_AND_TIME_ASSIGNMENT(#751,#753,(#736));
#755=DATE_TIME_ROLE('classification_date');
#756=CC_DESIGN_DATE_AND_TIME_ASSIGNMENT(#751,#755,(#743));
#757=PERSON('UNSPECIFIED','UNSPECIFIED',$,$,$,$);
#758=ORGANIZATION('UNSPECIFIED','UNSPECIFIED','UNSPECIFIED');
#759=PERSON_AND_ORGANIZATION(#757,#758);
#760=APPROVAL_ROLE('approver');
#761=APPROVAL_PERSON_ORGANIZATION(#759,#746,#760);
#762=PERSON_AND_ORGANIZATION_ROLE('creator');
#763=CC_DESIGN_PERSON_AND_ORGANIZATION_ASSIGNMENT(#759,#762,(#735,#736));
#764=PERSON_AND_ORGANIZATION_ROLE('design_supplier');
#765=CC_DESIGN_PERSON_AND_ORGANIZATION_ASSIGNMENT(#759,#764,(#735));
#766=PERSON_AND_ORGANIZATION_ROLE('classification_officer');
#767=CC_DESIGN_PERSON_AND_ORGANIZATION_ASSIGNMENT(#759,#766,(#743));
#768=PERSON_AND_ORGANIZATION_ROLE('design_owner');
#769=CC_DESIGN_PERSON_AND_ORGANIZATION_ASSIGNMENT(#759,#768,(#734));
#5=CIRCLE('',#4,4.165E0);
#10=CIRCLE('',#9,4.165E0);
#15=CIRCLE('',#14,6.E-1);
#20=CIRCLE('',#19,6.E-1);
#25=CIRCLE('',#24,4.765E0);
#30=CIRCLE('',#29,4.765E0);
#35=CIRCLE('',#34,4.765E0);
#44=CIRCLE('',#43,4.765E0);
#53=CIRCLE('',#52,4.665E0);
#58=CIRCLE('',#57,4.665E0);
#63=CIRCLE('',#62,4.665E0);
#76=CIRCLE('',#75,4.665E0);
#81=CIRCLE('',#80,4.765E0);
#86=CIRCLE('',#85,4.765E0);
#91=CIRCLE('',#90,4.765E0);
#96=CIRCLE('',#95,6.E-1);
#101=CIRCLE('',#100,6.E-1);
#106=CIRCLE('',#105,4.765E0);
#119=CIRCLE('',#118,5.365E0);
#124=CIRCLE('',#123,5.365E0);
#129=CIRCLE('',#128,8.95E0);
#134=CIRCLE('',#133,8.95E0);
#139=CIRCLE('',#138,5.E-1);
#144=CIRCLE('',#143,5.E-1);
#149=CIRCLE('',#148,9.45E0);
#154=CIRCLE('',#153,9.45E0);
#159=CIRCLE('',#158,2.E0);
#164=CIRCLE('',#163,2.E0);
#169=CIRCLE('',#168,9.45E0);
#178=CIRCLE('',#177,9.45E0);
#187=CIRCLE('',#186,3.75E0);
#192=CIRCLE('',#191,3.75E0);
#197=CIRCLE('',#196,7.45E0);
#202=CIRCLE('',#201,7.45E0);
#207=CIRCLE('',#206,5.E-1);
#212=CIRCLE('',#211,5.E-1);
#217=CIRCLE('',#216,3.25E0);
#222=CIRCLE('',#221,3.25E0);
#227=CIRCLE('',#226,5.E-1);
#232=CIRCLE('',#231,5.E-1);
#237=CIRCLE('',#236,3.25E0);
#246=CIRCLE('',#245,3.25E0);
#255=CIRCLE('',#254,2.75E0);
#260=CIRCLE('',#259,2.75E0);
#330=EDGE_CURVE('',#287,#288,#5,.T.);
#332=EDGE_CURVE('',#288,#287,#10,.T.);
#343=EDGE_CURVE('',#288,#292,#20,.T.);
#345=EDGE_CURVE('',#291,#292,#35,.T.);
#347=EDGE_CURVE('',#287,#291,#15,.T.);
#359=EDGE_CURVE('',#292,#291,#25,.T.);
#371=EDGE_CURVE('',#275,#291,#48,.T.);
#373=EDGE_CURVE('',#275,#276,#30,.T.);
#375=EDGE_CURVE('',#276,#292,#39,.T.);
#387=EDGE_CURVE('',#275,#276,#44,.T.);
#402=EDGE_CURVE('',#264,#268,#53,.T.);
#404=EDGE_CURVE('',#264,#268,#58,.T.);
#414=EDGE_CURVE('',#263,#264,#67,.T.);
#416=EDGE_CURVE('',#263,#267,#63,.T.);
#418=EDGE_CURVE('',#267,#268,#71,.T.);
#432=EDGE_CURVE('',#263,#267,#76,.T.);
#442=EDGE_CURVE('',#271,#272,#81,.T.);
#444=EDGE_CURVE('',#271,#272,#86,.T.);
#458=EDGE_CURVE('',#280,#279,#91,.T.);
#460=EDGE_CURVE('',#279,#272,#114,.T.);
#463=EDGE_CURVE('',#280,#271,#110,.T.);
#474=EDGE_CURVE('',#280,#284,#96,.T.);
#476=EDGE_CURVE('',#284,#283,#124,.T.);
#478=EDGE_CURVE('',#279,#283,#101,.T.);
#488=EDGE_CURVE('',#279,#280,#106,.T.);
#491=EDGE_CURVE('',#283,#284,#119,.T.);
#514=EDGE_CURVE('',#303,#304,#129,.T.);
#516=EDGE_CURVE('',#304,#303,#134,.T.);
#531=EDGE_CURVE('',#304,#308,#144,.T.);
#533=EDGE_CURVE('',#307,#308,#178,.T.);
#535=EDGE_CURVE('',#303,#307,#139,.T.);
#547=EDGE_CURVE('',#308,#307,#154,.T.);
#558=EDGE_CURVE('',#312,#311,#149,.T.);
#560=EDGE_CURVE('',#312,#308,#182,.T.);
#563=EDGE_CURVE('',#311,#307,#173,.T.);
#574=EDGE_CURVE('',#311,#315,#164,.T.);
#576=EDGE_CURVE('',#316,#315,#202,.T.);
#578=EDGE_CURVE('',#312,#316,#159,.T.);
#588=EDGE_CURVE('',#311,#312,#169,.T.);
#591=EDGE_CURVE('',#315,#316,#197,.T.);
#618=EDGE_CURVE('',#295,#296,#187,.T.);
#620=EDGE_CURVE('',#296,#295,#192,.T.);
#631=EDGE_CURVE('',#296,#300,#212,.T.);
#633=EDGE_CURVE('',#299,#300,#246,.T.);
#635=EDGE_CURVE('',#295,#299,#207,.T.);
#647=EDGE_CURVE('',#300,#299,#222,.T.);
#658=EDGE_CURVE('',#320,#319,#217,.T.);
#660=EDGE_CURVE('',#319,#300,#250,.T.);
#663=EDGE_CURVE('',#320,#299,#241,.T.);
#674=EDGE_CURVE('',#320,#324,#227,.T.);
#676=EDGE_CURVE('',#324,#323,#260,.T.);
#678=EDGE_CURVE('',#319,#323,#232,.T.);
#688=EDGE_CURVE('',#319,#320,#237,.T.);
#691=EDGE_CURVE('',#323,#324,#255,.T.);
#721=(LENGTH_UNIT()NAMED_UNIT(*)SI_UNIT(.MILLI.,.METRE.));
#723=(NAMED_UNIT(*)PLANE_ANGLE_UNIT()SI_UNIT($,.RADIAN.));
#726=(NAMED_UNIT(*)SI_UNIT($,.STERADIAN.)SOLID_ANGLE_UNIT());
#729=ADVANCED_BREP_SHAPE_REPRESENTATION('',(#720),#728);
#736=PRODUCT_DEFINITION('design','',#735,#732);
#737=PRODUCT_DEFINITION_SHAPE('','SHAPE FOR PRT0007.',#736);
#738=SHAPE_DEFINITION_REPRESENTATION(#737,#729);
ENDSEC;
END-ISO-10303-21;
