ISO-10303-21;
HEADER;
FILE_DESCRIPTION((''),'2;1');
FILE_NAME('FTY-04-027','2026-06-29T16:14:37',('Administrator'),(''),
'CREO PARAMETRIC BY PTC INC, 2019010','CREO PARAMETRIC BY PTC INC, 2019010','');
FILE_SCHEMA(('AUTOMOTIVE_DESIGN { 1 0 10303 214 1 1 1 1 }'));
ENDSEC;
DATA;
#211=CARTESIAN_POINT('',(0.E0,0.E0,-2.4E1));
#212=DIRECTION('',(0.E0,0.E0,1.E0));
#213=DIRECTION('',(1.E0,0.E0,0.E0));
#214=AXIS2_PLACEMENT_3D('',#211,#212,#213);
#216=DRAUGHTING_PRE_DEFINED_CURVE_FONT('continuous');
#217=CURVE_STYLE('',#216,POSITIVE_LENGTH_MEASURE(2.E-2),#23);
#218=PRESENTATION_STYLE_ASSIGNMENT((#217));
#219=STYLED_ITEM('',(#218),#215);
#220=CARTESIAN_POINT('',(0.E0,0.E0,-2.4E1));
#221=DIRECTION('',(0.E0,0.E0,1.E0));
#222=DIRECTION('',(-1.E0,0.E0,0.E0));
#223=AXIS2_PLACEMENT_3D('',#220,#221,#222);
#225=CURVE_STYLE('',#216,POSITIVE_LENGTH_MEASURE(2.E-2),#23);
#226=PRESENTATION_STYLE_ASSIGNMENT((#225));
#227=STYLED_ITEM('',(#226),#224);
#228=CARTESIAN_POINT('',(0.E0,0.E0,-2.4E1));
#229=DIRECTION('',(0.E0,0.E0,-1.E0));
#230=DIRECTION('',(0.E0,-1.E0,0.E0));
#231=AXIS2_PLACEMENT_3D('',#228,#229,#230);
#233=CURVE_STYLE('',#216,POSITIVE_LENGTH_MEASURE(2.E-2),#23);
#234=PRESENTATION_STYLE_ASSIGNMENT((#233));
#235=STYLED_ITEM('',(#234),#232);
#236=CARTESIAN_POINT('',(0.E0,0.E0,-2.4E1));
#237=DIRECTION('',(0.E0,0.E0,-1.E0));
#238=DIRECTION('',(0.E0,1.E0,0.E0));
#239=AXIS2_PLACEMENT_3D('',#236,#237,#238);
#241=CURVE_STYLE('',#216,POSITIVE_LENGTH_MEASURE(2.E-2),#23);
#242=PRESENTATION_STYLE_ASSIGNMENT((#241));
#243=STYLED_ITEM('',(#242),#240);
#244=CARTESIAN_POINT('',(6.5E0,-5.420192072947E-12,-2.35E1));
#245=DIRECTION('',(8.338755033699E-13,1.E0,0.E0));
#246=DIRECTION('',(1.E0,-8.338755033699E-13,0.E0));
#247=AXIS2_PLACEMENT_3D('',#244,#245,#246);
#249=CURVE_STYLE('',#216,POSITIVE_LENGTH_MEASURE(2.E-2),#23);
#250=PRESENTATION_STYLE_ASSIGNMENT((#249));
#251=STYLED_ITEM('',(#250),#248);
#252=CARTESIAN_POINT('',(0.E0,0.E0,-2.15E1));
#253=DIRECTION('',(0.E0,0.E0,1.E0));
#254=DIRECTION('',(1.E0,0.E0,0.E0));
#255=AXIS2_PLACEMENT_3D('',#252,#253,#254);
#257=CURVE_STYLE('',#216,POSITIVE_LENGTH_MEASURE(2.E-2),#23);
#258=PRESENTATION_STYLE_ASSIGNMENT((#257));
#259=STYLED_ITEM('',(#258),#256);
#260=DIRECTION('',(0.E0,7.703638074674E-13,1.E0));
#261=VECTOR('',#260,2.E0);
#262=CARTESIAN_POINT('',(-7.E0,2.592162595683E-13,-2.35E1));
#263=LINE('',#262,#261);
#264=CURVE_STYLE('',#216,POSITIVE_LENGTH_MEASURE(2.E-2),#23);
#265=PRESENTATION_STYLE_ASSIGNMENT((#264));
#266=STYLED_ITEM('',(#265),#263);
#267=CARTESIAN_POINT('',(0.E0,0.E0,-2.35E1));
#268=DIRECTION('',(0.E0,0.E0,1.E0));
#269=DIRECTION('',(1.E0,0.E0,0.E0));
#270=AXIS2_PLACEMENT_3D('',#267,#268,#269);
#272=CURVE_STYLE('',#216,POSITIVE_LENGTH_MEASURE(2.E-2),#23);
#273=PRESENTATION_STYLE_ASSIGNMENT((#272));
#274=STYLED_ITEM('',(#273),#271);
#275=DIRECTION('',(0.E0,-7.694565470895E-13,1.E0));
#276=VECTOR('',#275,2.E0);
#277=CARTESIAN_POINT('',(7.E0,-2.607705718027E-13,-2.35E1));
#278=LINE('',#277,#276);
#279=CURVE_STYLE('',#216,POSITIVE_LENGTH_MEASURE(2.E-2),#23);
#280=PRESENTATION_STYLE_ASSIGNMENT((#279));
#281=STYLED_ITEM('',(#280),#278);
#282=CARTESIAN_POINT('',(6.5E0,0.E0,-2.15E1));
#283=DIRECTION('',(0.E0,1.E0,0.E0));
#284=DIRECTION('',(0.E0,0.E0,1.E0));
#285=AXIS2_PLACEMENT_3D('',#282,#283,#284);
#287=CURVE_STYLE('',#216,POSITIVE_LENGTH_MEASURE(2.E-2),#23);
#288=PRESENTATION_STYLE_ASSIGNMENT((#287));
#289=STYLED_ITEM('',(#288),#286);
#290=CARTESIAN_POINT('',(0.E0,0.E0,-2.1E1));
#291=DIRECTION('',(0.E0,0.E0,1.E0));
#292=DIRECTION('',(1.E0,0.E0,0.E0));
#293=AXIS2_PLACEMENT_3D('',#290,#291,#292);
#295=CURVE_STYLE('',#216,POSITIVE_LENGTH_MEASURE(2.E-2),#23);
#296=PRESENTATION_STYLE_ASSIGNMENT((#295));
#297=STYLED_ITEM('',(#296),#294);
#298=CARTESIAN_POINT('',(0.E0,0.E0,-2.1E1));
#299=DIRECTION('',(0.E0,0.E0,1.E0));
#300=DIRECTION('',(-1.E0,0.E0,0.E0));
#301=AXIS2_PLACEMENT_3D('',#298,#299,#300);
#303=CURVE_STYLE('',#216,POSITIVE_LENGTH_MEASURE(2.E-2),#23);
#304=PRESENTATION_STYLE_ASSIGNMENT((#303));
#305=STYLED_ITEM('',(#304),#302);
#306=CARTESIAN_POINT('',(0.E0,0.E0,-2.1E1));
#307=DIRECTION('',(0.E0,0.E0,-1.E0));
#308=DIRECTION('',(-1.E0,0.E0,0.E0));
#309=AXIS2_PLACEMENT_3D('',#306,#307,#308);
#311=CURVE_STYLE('',#216,POSITIVE_LENGTH_MEASURE(2.E-2),#23);
#312=PRESENTATION_STYLE_ASSIGNMENT((#311));
#313=STYLED_ITEM('',(#312),#310);
#314=CARTESIAN_POINT('',(0.E0,0.E0,-2.1E1));
#315=DIRECTION('',(0.E0,0.E0,-1.E0));
#316=DIRECTION('',(1.E0,0.E0,0.E0));
#317=AXIS2_PLACEMENT_3D('',#314,#315,#316);
#319=CURVE_STYLE('',#216,POSITIVE_LENGTH_MEASURE(2.E-2),#23);
#320=PRESENTATION_STYLE_ASSIGNMENT((#319));
#321=STYLED_ITEM('',(#320),#318);
#322=CARTESIAN_POINT('',(-6.5E0,0.E0,-2.15E1));
#323=DIRECTION('',(0.E0,-1.E0,0.E0));
#324=DIRECTION('',(0.E0,0.E0,1.E0));
#325=AXIS2_PLACEMENT_3D('',#322,#323,#324);
#327=CURVE_STYLE('',#216,POSITIVE_LENGTH_MEASURE(2.E-2),#23);
#328=PRESENTATION_STYLE_ASSIGNMENT((#327));
#329=STYLED_ITEM('',(#328),#326);
#330=CARTESIAN_POINT('',(0.E0,0.E0,-2.15E1));
#331=DIRECTION('',(0.E0,0.E0,1.E0));
#332=DIRECTION('',(-1.E0,0.E0,0.E0));
#333=AXIS2_PLACEMENT_3D('',#330,#331,#332);
#335=CURVE_STYLE('',#216,POSITIVE_LENGTH_MEASURE(2.E-2),#23);
#336=PRESENTATION_STYLE_ASSIGNMENT((#335));
#337=STYLED_ITEM('',(#336),#334);
#338=CARTESIAN_POINT('',(0.E0,0.E0,-2.35E1));
#339=DIRECTION('',(0.E0,0.E0,1.E0));
#340=DIRECTION('',(-1.E0,0.E0,0.E0));
#341=AXIS2_PLACEMENT_3D('',#338,#339,#340);
#343=CURVE_STYLE('',#216,POSITIVE_LENGTH_MEASURE(2.E-2),#23);
#344=PRESENTATION_STYLE_ASSIGNMENT((#343));
#345=STYLED_ITEM('',(#344),#342);
#346=CARTESIAN_POINT('',(-6.5E0,5.416785076040E-12,-2.35E1));
#347=DIRECTION('',(-8.333516168801E-13,-1.E0,0.E0));
#348=DIRECTION('',(-1.E0,8.333516168801E-13,0.E0));
#349=AXIS2_PLACEMENT_3D('',#346,#347,#348);
#351=CURVE_STYLE('',#216,POSITIVE_LENGTH_MEASURE(2.E-2),#23);
#352=PRESENTATION_STYLE_ASSIGNMENT((#351));
#353=STYLED_ITEM('',(#352),#350);
#354=CARTESIAN_POINT('',(-3.675E0,-1.025059204185E-11,-2.05E1));
#355=DIRECTION('',(-2.789275754811E-12,1.E0,0.E0));
#356=DIRECTION('',(1.E0,2.789275754811E-12,0.E0));
#357=AXIS2_PLACEMENT_3D('',#354,#355,#356);
#359=CURVE_STYLE('',#216,POSITIVE_LENGTH_MEASURE(2.E-2),#23);
#360=PRESENTATION_STYLE_ASSIGNMENT((#359));
#361=STYLED_ITEM('',(#360),#358);
#362=CARTESIAN_POINT('',(0.E0,0.E0,-2.05E1));
#363=DIRECTION('',(0.E0,0.E0,-1.E0));
#364=DIRECTION('',(-1.E0,0.E0,0.E0));
#365=AXIS2_PLACEMENT_3D('',#362,#363,#364);
#367=CURVE_STYLE('',#216,POSITIVE_LENGTH_MEASURE(2.E-2),#23);
#368=PRESENTATION_STYLE_ASSIGNMENT((#367));
#369=STYLED_ITEM('',(#368),#366);
#370=DIRECTION('',(0.E0,2.679185921611E-14,1.E0));
#371=VECTOR('',#370,1.05E1);
#372=CARTESIAN_POINT('',(3.175E0,-2.816549077300E-13,-2.05E1));
#373=LINE('',#372,#371);
#374=CURVE_STYLE('',#216,POSITIVE_LENGTH_MEASURE(2.E-2),#23);
#375=PRESENTATION_STYLE_ASSIGNMENT((#374));
#376=STYLED_ITEM('',(#375),#373);
#377=DIRECTION('',(0.E0,-2.682708552658E-14,1.E0));
#378=VECTOR('',#377,1.05E1);
#379=CARTESIAN_POINT('',(-3.175E0,2.816843980291E-13,-2.05E1));
#380=LINE('',#379,#378);
#381=CURVE_STYLE('',#216,POSITIVE_LENGTH_MEASURE(2.E-2),#23);
#382=PRESENTATION_STYLE_ASSIGNMENT((#381));
#383=STYLED_ITEM('',(#382),#380);
#384=CARTESIAN_POINT('',(0.E0,0.E0,-2.05E1));
#385=DIRECTION('',(0.E0,0.E0,-1.E0));
#386=DIRECTION('',(1.E0,0.E0,0.E0));
#387=AXIS2_PLACEMENT_3D('',#384,#385,#386);
#389=CURVE_STYLE('',#216,POSITIVE_LENGTH_MEASURE(2.E-2),#23);
#390=PRESENTATION_STYLE_ASSIGNMENT((#389));
#391=STYLED_ITEM('',(#390),#388);
#392=CARTESIAN_POINT('',(3.675E0,1.025059204185E-11,-2.05E1));
#393=DIRECTION('',(2.789275754811E-12,-1.E0,0.E0));
#394=DIRECTION('',(-1.E0,-2.789275754811E-12,0.E0));
#395=AXIS2_PLACEMENT_3D('',#392,#393,#394);
#397=CURVE_STYLE('',#216,POSITIVE_LENGTH_MEASURE(2.E-2),#23);
#398=PRESENTATION_STYLE_ASSIGNMENT((#397));
#399=STYLED_ITEM('',(#398),#396);
#400=CARTESIAN_POINT('',(0.E0,0.E0,-1.E1));
#401=DIRECTION('',(0.E0,0.E0,-1.E0));
#402=DIRECTION('',(-1.E0,0.E0,0.E0));
#403=AXIS2_PLACEMENT_3D('',#400,#401,#402);
#405=CURVE_STYLE('',#216,POSITIVE_LENGTH_MEASURE(2.E-2),#23);
#406=PRESENTATION_STYLE_ASSIGNMENT((#405));
#407=STYLED_ITEM('',(#406),#404);
#408=CARTESIAN_POINT('',(0.E0,0.E0,-1.E1));
#409=DIRECTION('',(0.E0,0.E0,1.E0));
#410=DIRECTION('',(-1.E0,0.E0,0.E0));
#411=AXIS2_PLACEMENT_3D('',#408,#409,#410);
#413=CURVE_STYLE('',#216,POSITIVE_LENGTH_MEASURE(2.E-2),#23);
#414=PRESENTATION_STYLE_ASSIGNMENT((#413));
#415=STYLED_ITEM('',(#414),#412);
#416=CARTESIAN_POINT('',(0.E0,0.E0,-1.E1));
#417=DIRECTION('',(0.E0,0.E0,1.E0));
#418=DIRECTION('',(-1.E0,0.E0,0.E0));
#419=AXIS2_PLACEMENT_3D('',#416,#417,#418);
#421=CURVE_STYLE('',#216,POSITIVE_LENGTH_MEASURE(2.E-2),#23);
#422=PRESENTATION_STYLE_ASSIGNMENT((#421));
#423=STYLED_ITEM('',(#422),#420);
#424=DIRECTION('',(0.E0,0.E0,1.E0));
#425=VECTOR('',#424,2.E0);
#426=CARTESIAN_POINT('',(-3.075E0,0.E0,-1.E1));
#427=LINE('',#426,#425);
#428=CURVE_STYLE('',#216,POSITIVE_LENGTH_MEASURE(2.E-2),#23);
#429=PRESENTATION_STYLE_ASSIGNMENT((#428));
#430=STYLED_ITEM('',(#429),#427);
#431=CARTESIAN_POINT('',(0.E0,0.E0,-1.E1));
#432=DIRECTION('',(0.E0,0.E0,-1.E0));
#433=DIRECTION('',(-1.E0,0.E0,0.E0));
#434=AXIS2_PLACEMENT_3D('',#431,#432,#433);
#436=CURVE_STYLE('',#216,POSITIVE_LENGTH_MEASURE(2.E-2),#23);
#437=PRESENTATION_STYLE_ASSIGNMENT((#436));
#438=STYLED_ITEM('',(#437),#435);
#439=DIRECTION('',(0.E0,0.E0,1.E0));
#440=VECTOR('',#439,2.E0);
#441=CARTESIAN_POINT('',(3.075E0,0.E0,-1.E1));
#442=LINE('',#441,#440);
#443=CURVE_STYLE('',#216,POSITIVE_LENGTH_MEASURE(2.E-2),#23);
#444=PRESENTATION_STYLE_ASSIGNMENT((#443));
#445=STYLED_ITEM('',(#444),#442);
#446=CARTESIAN_POINT('',(0.E0,0.E0,-8.E0));
#447=DIRECTION('',(0.E0,0.E0,-1.E0));
#448=DIRECTION('',(-1.E0,0.E0,0.E0));
#449=AXIS2_PLACEMENT_3D('',#446,#447,#448);
#451=CURVE_STYLE('',#216,POSITIVE_LENGTH_MEASURE(2.E-2),#23);
#452=PRESENTATION_STYLE_ASSIGNMENT((#451));
#453=STYLED_ITEM('',(#452),#450);
#454=CARTESIAN_POINT('',(0.E0,0.E0,-8.E0));
#455=DIRECTION('',(0.E0,0.E0,1.E0));
#456=DIRECTION('',(-1.E0,0.E0,0.E0));
#457=AXIS2_PLACEMENT_3D('',#454,#455,#456);
#459=CURVE_STYLE('',#216,POSITIVE_LENGTH_MEASURE(2.E-2),#23);
#460=PRESENTATION_STYLE_ASSIGNMENT((#459));
#461=STYLED_ITEM('',(#460),#458);
#462=CARTESIAN_POINT('',(0.E0,0.E0,-5.E-1));
#463=DIRECTION('',(0.E0,0.E0,1.E0));
#464=DIRECTION('',(-1.E0,0.E0,0.E0));
#465=AXIS2_PLACEMENT_3D('',#462,#463,#464);
#467=CURVE_STYLE('',#216,POSITIVE_LENGTH_MEASURE(2.E-2),#23);
#468=PRESENTATION_STYLE_ASSIGNMENT((#467));
#469=STYLED_ITEM('',(#468),#466);
#470=DIRECTION('',(0.E0,-1.859157999279E-13,-1.E0));
#471=VECTOR('',#470,7.5E0);
#472=CARTESIAN_POINT('',(3.175E0,1.394238891006E-12,-5.E-1));
#473=LINE('',#472,#471);
#474=CURVE_STYLE('',#216,POSITIVE_LENGTH_MEASURE(2.E-2),#23);
#475=PRESENTATION_STYLE_ASSIGNMENT((#474));
#476=STYLED_ITEM('',(#475),#473);
#477=CARTESIAN_POINT('',(0.E0,0.E0,-8.E0));
#478=DIRECTION('',(0.E0,0.E0,1.E0));
#479=DIRECTION('',(-1.E0,0.E0,0.E0));
#480=AXIS2_PLACEMENT_3D('',#477,#478,#479);
#482=CURVE_STYLE('',#216,POSITIVE_LENGTH_MEASURE(2.E-2),#23);
#483=PRESENTATION_STYLE_ASSIGNMENT((#482));
#484=STYLED_ITEM('',(#483),#481);
#485=DIRECTION('',(0.E0,-1.858455519107E-13,1.E0));
#486=VECTOR('',#485,7.5E0);
#487=CARTESIAN_POINT('',(-3.175E0,0.E0,-8.E0));
#488=LINE('',#487,#486);
#489=CURVE_STYLE('',#216,POSITIVE_LENGTH_MEASURE(2.E-2),#23);
#490=PRESENTATION_STYLE_ASSIGNMENT((#489));
#491=STYLED_ITEM('',(#490),#488);
#492=CARTESIAN_POINT('',(-2.675E0,6.654586603982E-12,-5.E-1));
#493=DIRECTION('',(-2.487697547959E-12,-1.E0,0.E0));
#494=DIRECTION('',(0.E0,0.E0,1.E0));
#495=AXIS2_PLACEMENT_3D('',#492,#493,#494);
#497=CURVE_STYLE('',#216,POSITIVE_LENGTH_MEASURE(2.E-2),#23);
#498=PRESENTATION_STYLE_ASSIGNMENT((#497));
#499=STYLED_ITEM('',(#498),#496);
#500=CARTESIAN_POINT('',(0.E0,0.E0,0.E0));
#501=DIRECTION('',(0.E0,0.E0,1.E0));
#502=DIRECTION('',(-1.E0,0.E0,0.E0));
#503=AXIS2_PLACEMENT_3D('',#500,#501,#502);
#505=CURVE_STYLE('',#216,POSITIVE_LENGTH_MEASURE(2.E-2),#23);
#506=PRESENTATION_STYLE_ASSIGNMENT((#505));
#507=STYLED_ITEM('',(#506),#504);
#508=CARTESIAN_POINT('',(0.E0,0.E0,0.E0));
#509=DIRECTION('',(0.E0,0.E0,1.E0));
#510=DIRECTION('',(1.E0,0.E0,0.E0));
#511=AXIS2_PLACEMENT_3D('',#508,#509,#510);
#513=CURVE_STYLE('',#216,POSITIVE_LENGTH_MEASURE(2.E-2),#23);
#514=PRESENTATION_STYLE_ASSIGNMENT((#513));
#515=STYLED_ITEM('',(#514),#512);
#516=CARTESIAN_POINT('',(2.675E0,-6.654364559378E-12,-5.E-1));
#517=DIRECTION('',(2.487616015956E-12,1.E0,0.E0));
#518=DIRECTION('',(0.E0,0.E0,1.E0));
#519=AXIS2_PLACEMENT_3D('',#516,#517,#518);
#521=CURVE_STYLE('',#216,POSITIVE_LENGTH_MEASURE(2.E-2),#23);
#522=PRESENTATION_STYLE_ASSIGNMENT((#521));
#523=STYLED_ITEM('',(#522),#520);
#524=CARTESIAN_POINT('',(0.E0,0.E0,-5.E-1));
#525=DIRECTION('',(0.E0,0.E0,1.E0));
#526=DIRECTION('',(1.E0,0.E0,0.E0));
#527=AXIS2_PLACEMENT_3D('',#524,#525,#526);
#529=CURVE_STYLE('',#216,POSITIVE_LENGTH_MEASURE(2.E-2),#23);
#530=PRESENTATION_STYLE_ASSIGNMENT((#529));
#531=STYLED_ITEM('',(#530),#528);
#532=CARTESIAN_POINT('',(0.E0,0.E0,-8.E0));
#533=DIRECTION('',(0.E0,0.E0,-1.E0));
#534=DIRECTION('',(-1.E0,0.E0,0.E0));
#535=AXIS2_PLACEMENT_3D('',#532,#533,#534);
#537=CURVE_STYLE('',#216,POSITIVE_LENGTH_MEASURE(2.E-2),#23);
#538=PRESENTATION_STYLE_ASSIGNMENT((#537));
#539=STYLED_ITEM('',(#538),#536);
#540=DIRECTION('',(0.E0,0.E0,1.E0));
#541=VECTOR('',#540,2.27E1);
#542=CARTESIAN_POINT('',(0.E0,-1.9E0,-2.4E1));
#543=LINE('',#542,#541);
#544=CURVE_STYLE('',#216,POSITIVE_LENGTH_MEASURE(2.E-2),#23);
#545=PRESENTATION_STYLE_ASSIGNMENT((#544));
#546=STYLED_ITEM('',(#545),#543);
#547=DIRECTION('',(0.E0,0.E0,1.E0));
#548=VECTOR('',#547,2.27E1);
#549=CARTESIAN_POINT('',(0.E0,1.9E0,-2.4E1));
#550=LINE('',#549,#548);
#551=CURVE_STYLE('',#216,POSITIVE_LENGTH_MEASURE(2.E-2),#23);
#552=PRESENTATION_STYLE_ASSIGNMENT((#551));
#553=STYLED_ITEM('',(#552),#550);
#554=CARTESIAN_POINT('',(0.E0,0.E0,-1.3E0));
#555=DIRECTION('',(0.E0,0.E0,-1.E0));
#556=DIRECTION('',(0.E0,-1.E0,0.E0));
#557=AXIS2_PLACEMENT_3D('',#554,#555,#556);
#559=CURVE_STYLE('',#216,POSITIVE_LENGTH_MEASURE(2.E-2),#23);
#560=PRESENTATION_STYLE_ASSIGNMENT((#559));
#561=STYLED_ITEM('',(#560),#558);
#562=CARTESIAN_POINT('',(0.E0,0.E0,-1.3E0));
#563=DIRECTION('',(0.E0,0.E0,-1.E0));
#564=DIRECTION('',(0.E0,1.E0,0.E0));
#565=AXIS2_PLACEMENT_3D('',#562,#563,#564);
#567=CURVE_STYLE('',#216,POSITIVE_LENGTH_MEASURE(2.E-2),#23);
#568=PRESENTATION_STYLE_ASSIGNMENT((#567));
#569=STYLED_ITEM('',(#568),#566);
#570=CARTESIAN_POINT('',(6.5E0,0.E0,-2.1E1));
#571=CARTESIAN_POINT('',(-6.5E0,0.E0,-2.1E1));
#572=VERTEX_POINT('',#570);
#573=VERTEX_POINT('',#571);
#574=CARTESIAN_POINT('',(7.E0,0.E0,-2.15E1));
#575=CARTESIAN_POINT('',(-7.E0,0.E0,-2.15E1));
#576=VERTEX_POINT('',#574);
#577=VERTEX_POINT('',#575);
#578=CARTESIAN_POINT('',(7.E0,0.E0,-2.35E1));
#579=CARTESIAN_POINT('',(-7.E0,0.E0,-2.35E1));
#580=VERTEX_POINT('',#578);
#581=VERTEX_POINT('',#579);
#582=CARTESIAN_POINT('',(6.5E0,0.E0,-2.4E1));
#583=CARTESIAN_POINT('',(-6.5E0,0.E0,-2.4E1));
#584=VERTEX_POINT('',#582);
#585=VERTEX_POINT('',#583);
#586=CARTESIAN_POINT('',(0.E0,-1.9E0,-1.3E0));
#587=CARTESIAN_POINT('',(0.E0,1.9E0,-1.3E0));
#588=VERTEX_POINT('',#586);
#589=VERTEX_POINT('',#587);
#590=CARTESIAN_POINT('',(0.E0,-1.9E0,-2.4E1));
#591=CARTESIAN_POINT('',(0.E0,1.9E0,-2.4E1));
#592=VERTEX_POINT('',#590);
#593=VERTEX_POINT('',#591);
#594=CARTESIAN_POINT('',(-3.075E0,0.E0,-1.E1));
#595=CARTESIAN_POINT('',(-3.075E0,0.E0,-8.E0));
#596=VERTEX_POINT('',#594);
#597=VERTEX_POINT('',#595);
#598=CARTESIAN_POINT('',(3.075E0,0.E0,-1.E1));
#599=CARTESIAN_POINT('',(3.075E0,0.E0,-8.E0));
#600=VERTEX_POINT('',#598);
#601=VERTEX_POINT('',#599);
#602=CARTESIAN_POINT('',(-3.175E0,0.E0,-1.E1));
#603=CARTESIAN_POINT('',(3.175E0,0.E0,-1.E1));
#604=VERTEX_POINT('',#602);
#605=VERTEX_POINT('',#603);
#606=CARTESIAN_POINT('',(-3.175E0,0.E0,-8.E0));
#607=CARTESIAN_POINT('',(3.175E0,0.E0,-8.E0));
#608=VERTEX_POINT('',#606);
#609=VERTEX_POINT('',#607);
#610=CARTESIAN_POINT('',(-2.675E0,0.E0,0.E0));
#611=CARTESIAN_POINT('',(2.675E0,0.E0,0.E0));
#612=VERTEX_POINT('',#610);
#613=VERTEX_POINT('',#611);
#614=CARTESIAN_POINT('',(-3.175E0,0.E0,-5.E-1));
#615=CARTESIAN_POINT('',(3.175E0,0.E0,-5.E-1));
#616=VERTEX_POINT('',#614);
#617=VERTEX_POINT('',#615);
#618=CARTESIAN_POINT('',(-3.175E0,0.E0,-2.05E1));
#619=CARTESIAN_POINT('',(3.175E0,0.E0,-2.05E1));
#620=VERTEX_POINT('',#618);
#621=VERTEX_POINT('',#619);
#622=CARTESIAN_POINT('',(-3.675E0,0.E0,-2.1E1));
#623=CARTESIAN_POINT('',(3.675E0,0.E0,-2.1E1));
#624=VERTEX_POINT('',#622);
#625=VERTEX_POINT('',#623);
#626=CARTESIAN_POINT('',(0.E0,0.E0,-2.4E1));
#627=DIRECTION('',(0.E0,0.E0,1.E0));
#628=DIRECTION('',(-1.E0,0.E0,0.E0));
#629=AXIS2_PLACEMENT_3D('',#626,#627,#628);
#630=PLANE('',#629);
#632=ORIENTED_EDGE('',*,*,#631,.T.);
#634=ORIENTED_EDGE('',*,*,#633,.T.);
#635=EDGE_LOOP('',(#632,#634));
#636=FACE_OUTER_BOUND('',#635,.F.);
#638=ORIENTED_EDGE('',*,*,#637,.T.);
#640=ORIENTED_EDGE('',*,*,#639,.T.);
#641=EDGE_LOOP('',(#638,#640));
#642=FACE_BOUND('',#641,.F.);
#644=CARTESIAN_POINT('',(0.E0,0.E0,-2.35E1));
#645=DIRECTION('',(0.E0,0.E0,1.E0));
#646=DIRECTION('',(9.999743314447E-1,-7.164946036602E-3,0.E0));
#647=AXIS2_PLACEMENT_3D('',#644,#645,#646);
#648=TOROIDAL_SURFACE('',#647,6.5E0,5.E-1);
#650=ORIENTED_EDGE('',*,*,#649,.T.);
#652=ORIENTED_EDGE('',*,*,#651,.T.);
#653=ORIENTED_EDGE('',*,*,#631,.F.);
#655=ORIENTED_EDGE('',*,*,#654,.F.);
#656=EDGE_LOOP('',(#650,#652,#653,#655));
#657=FACE_OUTER_BOUND('',#656,.F.);
#659=CARTESIAN_POINT('',(0.E0,0.E0,-2.52E1));
#660=DIRECTION('',(0.E0,0.E0,1.E0));
#661=DIRECTION('',(-1.E0,0.E0,0.E0));
#662=AXIS2_PLACEMENT_3D('',#659,#660,#661);
#663=CYLINDRICAL_SURFACE('',#662,7.E0);
#665=ORIENTED_EDGE('',*,*,#664,.T.);
#667=ORIENTED_EDGE('',*,*,#666,.F.);
#668=ORIENTED_EDGE('',*,*,#649,.F.);
#670=ORIENTED_EDGE('',*,*,#669,.T.);
#671=EDGE_LOOP('',(#665,#667,#668,#670));
#672=FACE_OUTER_BOUND('',#671,.F.);
#674=CARTESIAN_POINT('',(0.E0,0.E0,-2.15E1));
#675=DIRECTION('',(0.E0,0.E0,1.E0));
#676=DIRECTION('',(9.999766390949E-1,-6.835295498577E-3,0.E0));
#677=AXIS2_PLACEMENT_3D('',#674,#675,#676);
#678=TOROIDAL_SURFACE('',#677,6.5E0,5.E-1);
#680=ORIENTED_EDGE('',*,*,#679,.T.);
#682=ORIENTED_EDGE('',*,*,#681,.T.);
#683=ORIENTED_EDGE('',*,*,#664,.F.);
#685=ORIENTED_EDGE('',*,*,#684,.F.);
#686=EDGE_LOOP('',(#680,#682,#683,#685));
#687=FACE_OUTER_BOUND('',#686,.F.);
#689=CARTESIAN_POINT('',(0.E0,0.E0,-2.1E1));
#690=DIRECTION('',(0.E0,0.E0,1.E0));
#691=DIRECTION('',(-1.E0,0.E0,0.E0));
#692=AXIS2_PLACEMENT_3D('',#689,#690,#691);
#693=PLANE('',#692);
#694=ORIENTED_EDGE('',*,*,#679,.F.);
#696=ORIENTED_EDGE('',*,*,#695,.F.);
#697=EDGE_LOOP('',(#694,#696));
#698=FACE_OUTER_BOUND('',#697,.F.);
#700=ORIENTED_EDGE('',*,*,#699,.F.);
#702=ORIENTED_EDGE('',*,*,#701,.F.);
#703=EDGE_LOOP('',(#700,#702));
#704=FACE_BOUND('',#703,.F.);
#706=CARTESIAN_POINT('',(0.E0,0.E0,-2.15E1));
#707=DIRECTION('',(0.E0,0.E0,1.E0));
#708=DIRECTION('',(-9.999766390949E-1,6.835295498576E-3,0.E0));
#709=AXIS2_PLACEMENT_3D('',#706,#707,#708);
#710=TOROIDAL_SURFACE('',#709,6.5E0,5.E-1);
#711=ORIENTED_EDGE('',*,*,#695,.T.);
#712=ORIENTED_EDGE('',*,*,#684,.T.);
#714=ORIENTED_EDGE('',*,*,#713,.F.);
#715=ORIENTED_EDGE('',*,*,#681,.F.);
#716=EDGE_LOOP('',(#711,#712,#714,#715));
#717=FACE_OUTER_BOUND('',#716,.F.);
#719=CARTESIAN_POINT('',(0.E0,0.E0,-2.52E1));
#720=DIRECTION('',(0.E0,0.E0,1.E0));
#721=DIRECTION('',(-1.E0,0.E0,0.E0));
#722=AXIS2_PLACEMENT_3D('',#719,#720,#721);
#723=CYLINDRICAL_SURFACE('',#722,7.E0);
#724=ORIENTED_EDGE('',*,*,#713,.T.);
#725=ORIENTED_EDGE('',*,*,#669,.F.);
#727=ORIENTED_EDGE('',*,*,#726,.F.);
#728=ORIENTED_EDGE('',*,*,#666,.T.);
#729=EDGE_LOOP('',(#724,#725,#727,#728));
#730=FACE_OUTER_BOUND('',#729,.F.);
#732=CARTESIAN_POINT('',(0.E0,0.E0,-2.35E1));
#733=DIRECTION('',(0.E0,0.E0,1.E0));
#734=DIRECTION('',(-9.999743314447E-1,7.164946036602E-3,0.E0));
#735=AXIS2_PLACEMENT_3D('',#732,#733,#734);
#736=TOROIDAL_SURFACE('',#735,6.5E0,5.E-1);
#737=ORIENTED_EDGE('',*,*,#726,.T.);
#738=ORIENTED_EDGE('',*,*,#654,.T.);
#739=ORIENTED_EDGE('',*,*,#633,.F.);
#740=ORIENTED_EDGE('',*,*,#651,.F.);
#741=EDGE_LOOP('',(#737,#738,#739,#740));
#742=FACE_OUTER_BOUND('',#741,.F.);
#744=CARTESIAN_POINT('',(0.E0,0.E0,-2.05E1));
#745=DIRECTION('',(0.E0,0.E0,1.E0));
#746=DIRECTION('',(-9.998950179970E-1,-1.448975447406E-2,0.E0));
#747=AXIS2_PLACEMENT_3D('',#744,#745,#746);
#748=TOROIDAL_SURFACE('',#747,3.675E0,5.E-1);
#750=ORIENTED_EDGE('',*,*,#749,.F.);
#752=ORIENTED_EDGE('',*,*,#751,.T.);
#753=ORIENTED_EDGE('',*,*,#699,.T.);
#755=ORIENTED_EDGE('',*,*,#754,.F.);
#756=EDGE_LOOP('',(#750,#752,#753,#755));
#757=FACE_OUTER_BOUND('',#756,.F.);
#759=CARTESIAN_POINT('',(0.E0,0.E0,-2.52E1));
#760=DIRECTION('',(0.E0,0.E0,1.E0));
#761=DIRECTION('',(-1.E0,0.E0,0.E0));
#762=AXIS2_PLACEMENT_3D('',#759,#760,#761);
#763=CYLINDRICAL_SURFACE('',#762,3.175E0);
#764=ORIENTED_EDGE('',*,*,#749,.T.);
#766=ORIENTED_EDGE('',*,*,#765,.T.);
#768=ORIENTED_EDGE('',*,*,#767,.F.);
#770=ORIENTED_EDGE('',*,*,#769,.F.);
#771=EDGE_LOOP('',(#764,#766,#768,#770));
#772=FACE_OUTER_BOUND('',#771,.F.);
#774=CARTESIAN_POINT('',(0.E0,0.E0,-2.52E1));
#775=DIRECTION('',(0.E0,0.E0,1.E0));
#776=DIRECTION('',(-1.E0,0.E0,0.E0));
#777=AXIS2_PLACEMENT_3D('',#774,#775,#776);
#778=CYLINDRICAL_SURFACE('',#777,3.175E0);
#780=ORIENTED_EDGE('',*,*,#779,.T.);
#781=ORIENTED_EDGE('',*,*,#769,.T.);
#783=ORIENTED_EDGE('',*,*,#782,.T.);
#784=ORIENTED_EDGE('',*,*,#765,.F.);
#785=EDGE_LOOP('',(#780,#781,#783,#784));
#786=FACE_OUTER_BOUND('',#785,.F.);
#788=CARTESIAN_POINT('',(0.E0,0.E0,-2.05E1));
#789=DIRECTION('',(0.E0,0.E0,1.E0));
#790=DIRECTION('',(9.998950179970E-1,1.448975447406E-2,0.E0));
#791=AXIS2_PLACEMENT_3D('',#788,#789,#790);
#792=TOROIDAL_SURFACE('',#791,3.675E0,5.E-1);
#793=ORIENTED_EDGE('',*,*,#779,.F.);
#794=ORIENTED_EDGE('',*,*,#754,.T.);
#795=ORIENTED_EDGE('',*,*,#701,.T.);
#796=ORIENTED_EDGE('',*,*,#751,.F.);
#797=EDGE_LOOP('',(#793,#794,#795,#796));
#798=FACE_OUTER_BOUND('',#797,.F.);
#800=CARTESIAN_POINT('',(0.E0,0.E0,-1.E1));
#801=DIRECTION('',(0.E0,0.E0,1.E0));
#802=DIRECTION('',(-1.E0,0.E0,0.E0));
#803=AXIS2_PLACEMENT_3D('',#800,#801,#802);
#804=PLANE('',#803);
#805=ORIENTED_EDGE('',*,*,#767,.T.);
#806=ORIENTED_EDGE('',*,*,#782,.F.);
#807=EDGE_LOOP('',(#805,#806));
#808=FACE_OUTER_BOUND('',#807,.F.);
#810=ORIENTED_EDGE('',*,*,#809,.T.);
#812=ORIENTED_EDGE('',*,*,#811,.F.);
#813=EDGE_LOOP('',(#810,#812));
#814=FACE_BOUND('',#813,.F.);
#816=CARTESIAN_POINT('',(0.E0,0.E0,-2.52E1));
#817=DIRECTION('',(0.E0,0.E0,1.E0));
#818=DIRECTION('',(-1.E0,0.E0,0.E0));
#819=AXIS2_PLACEMENT_3D('',#816,#817,#818);
#820=CYLINDRICAL_SURFACE('',#819,3.075E0);
#822=ORIENTED_EDGE('',*,*,#821,.T.);
#824=ORIENTED_EDGE('',*,*,#823,.T.);
#826=ORIENTED_EDGE('',*,*,#825,.F.);
#827=ORIENTED_EDGE('',*,*,#809,.F.);
#828=EDGE_LOOP('',(#822,#824,#826,#827));
#829=FACE_OUTER_BOUND('',#828,.F.);
#831=CARTESIAN_POINT('',(0.E0,0.E0,-2.52E1));
#832=DIRECTION('',(0.E0,0.E0,1.E0));
#833=DIRECTION('',(-1.E0,0.E0,0.E0));
#834=AXIS2_PLACEMENT_3D('',#831,#832,#833);
#835=CYLINDRICAL_SURFACE('',#834,3.075E0);
#836=ORIENTED_EDGE('',*,*,#821,.F.);
#837=ORIENTED_EDGE('',*,*,#811,.T.);
#838=ORIENTED_EDGE('',*,*,#825,.T.);
#840=ORIENTED_EDGE('',*,*,#839,.F.);
#841=EDGE_LOOP('',(#836,#837,#838,#840));
#842=FACE_OUTER_BOUND('',#841,.F.);
#844=CARTESIAN_POINT('',(0.E0,0.E0,-8.E0));
#845=DIRECTION('',(0.E0,0.E0,1.E0));
#846=DIRECTION('',(-1.E0,0.E0,0.E0));
#847=AXIS2_PLACEMENT_3D('',#844,#845,#846);
#848=PLANE('',#847);
#850=ORIENTED_EDGE('',*,*,#849,.T.);
#852=ORIENTED_EDGE('',*,*,#851,.F.);
#853=EDGE_LOOP('',(#850,#852));
#854=FACE_OUTER_BOUND('',#853,.F.);
#855=ORIENTED_EDGE('',*,*,#839,.T.);
#856=ORIENTED_EDGE('',*,*,#823,.F.);
#857=EDGE_LOOP('',(#855,#856));
#858=FACE_BOUND('',#857,.F.);
#860=CARTESIAN_POINT('',(0.E0,0.E0,-2.52E1));
#861=DIRECTION('',(0.E0,0.E0,1.E0));
#862=DIRECTION('',(-1.E0,0.E0,0.E0));
#863=AXIS2_PLACEMENT_3D('',#860,#861,#862);
#864=CYLINDRICAL_SURFACE('',#863,3.175E0);
#866=ORIENTED_EDGE('',*,*,#865,.T.);
#868=ORIENTED_EDGE('',*,*,#867,.T.);
#869=ORIENTED_EDGE('',*,*,#849,.F.);
#871=ORIENTED_EDGE('',*,*,#870,.T.);
#872=EDGE_LOOP('',(#866,#868,#869,#871));
#873=FACE_OUTER_BOUND('',#872,.F.);
#875=CARTESIAN_POINT('',(0.E0,0.E0,-5.E-1));
#876=DIRECTION('',(0.E0,0.E0,1.E0));
#877=DIRECTION('',(-9.998864487921E-1,1.506948976961E-2,0.E0));
#878=AXIS2_PLACEMENT_3D('',#875,#876,#877);
#879=TOROIDAL_SURFACE('',#878,2.675E0,5.E-1);
#881=ORIENTED_EDGE('',*,*,#880,.T.);
#883=ORIENTED_EDGE('',*,*,#882,.T.);
#884=ORIENTED_EDGE('',*,*,#865,.F.);
#886=ORIENTED_EDGE('',*,*,#885,.F.);
#887=EDGE_LOOP('',(#881,#883,#884,#886));
#888=FACE_OUTER_BOUND('',#887,.F.);
#890=CARTESIAN_POINT('',(0.E0,0.E0,0.E0));
#891=DIRECTION('',(0.E0,0.E0,1.E0));
#892=DIRECTION('',(-1.E0,0.E0,0.E0));
#893=AXIS2_PLACEMENT_3D('',#890,#891,#892);
#894=PLANE('',#893);
#895=ORIENTED_EDGE('',*,*,#880,.F.);
#897=ORIENTED_EDGE('',*,*,#896,.F.);
#898=EDGE_LOOP('',(#895,#897));
#899=FACE_OUTER_BOUND('',#898,.F.);
#901=CARTESIAN_POINT('',(0.E0,0.E0,-5.E-1));
#902=DIRECTION('',(0.E0,0.E0,1.E0));
#903=DIRECTION('',(9.998864487921E-1,-1.506948976961E-2,0.E0));
#904=AXIS2_PLACEMENT_3D('',#901,#902,#903);
#905=TOROIDAL_SURFACE('',#904,2.675E0,5.E-1);
#906=ORIENTED_EDGE('',*,*,#896,.T.);
#907=ORIENTED_EDGE('',*,*,#885,.T.);
#909=ORIENTED_EDGE('',*,*,#908,.F.);
#910=ORIENTED_EDGE('',*,*,#882,.F.);
#911=EDGE_LOOP('',(#906,#907,#909,#910));
#912=FACE_OUTER_BOUND('',#911,.F.);
#914=CARTESIAN_POINT('',(0.E0,0.E0,-2.52E1));
#915=DIRECTION('',(0.E0,0.E0,1.E0));
#916=DIRECTION('',(-1.E0,0.E0,0.E0));
#917=AXIS2_PLACEMENT_3D('',#914,#915,#916);
#918=CYLINDRICAL_SURFACE('',#917,3.175E0);
#919=ORIENTED_EDGE('',*,*,#908,.T.);
#920=ORIENTED_EDGE('',*,*,#870,.F.);
#921=ORIENTED_EDGE('',*,*,#851,.T.);
#922=ORIENTED_EDGE('',*,*,#867,.F.);
#923=EDGE_LOOP('',(#919,#920,#921,#922));
#924=FACE_OUTER_BOUND('',#923,.F.);
#926=CARTESIAN_POINT('',(0.E0,0.E0,-2.4E1));
#927=DIRECTION('',(0.E0,0.E0,-1.E0));
#928=DIRECTION('',(0.E0,-1.E0,0.E0));
#929=AXIS2_PLACEMENT_3D('',#926,#927,#928);
#930=CYLINDRICAL_SURFACE('',#929,1.9E0);
#931=ORIENTED_EDGE('',*,*,#637,.F.);
#933=ORIENTED_EDGE('',*,*,#932,.T.);
#935=ORIENTED_EDGE('',*,*,#934,.T.);
#937=ORIENTED_EDGE('',*,*,#936,.F.);
#938=EDGE_LOOP('',(#931,#933,#935,#937));
#939=FACE_OUTER_BOUND('',#938,.F.);
#941=CARTESIAN_POINT('',(0.E0,0.E0,-2.4E1));
#942=DIRECTION('',(0.E0,0.E0,-1.E0));
#943=DIRECTION('',(0.E0,-1.E0,0.E0));
#944=AXIS2_PLACEMENT_3D('',#941,#942,#943);
#945=CYLINDRICAL_SURFACE('',#944,1.9E0);
#946=ORIENTED_EDGE('',*,*,#639,.F.);
#947=ORIENTED_EDGE('',*,*,#936,.T.);
#949=ORIENTED_EDGE('',*,*,#948,.T.);
#950=ORIENTED_EDGE('',*,*,#932,.F.);
#951=EDGE_LOOP('',(#946,#947,#949,#950));
#952=FACE_OUTER_BOUND('',#951,.F.);
#954=CARTESIAN_POINT('',(0.E0,0.E0,-1.3E0));
#955=DIRECTION('',(0.E0,0.E0,-1.E0));
#956=DIRECTION('',(0.E0,-1.E0,0.E0));
#957=AXIS2_PLACEMENT_3D('',#954,#955,#956);
#958=PLANE('',#957);
#959=ORIENTED_EDGE('',*,*,#934,.F.);
#960=ORIENTED_EDGE('',*,*,#948,.F.);
#961=EDGE_LOOP('',(#959,#960));
#962=FACE_OUTER_BOUND('',#961,.F.);
#964=CLOSED_SHELL('',(#643,#658,#673,#688,#705,#718,#731,#743,#758,#773,#787,
#799,#815,#830,#843,#859,#874,#889,#900,#913,#925,#940,#953,#963));
#965=MANIFOLD_SOLID_BREP('',#964);
#966=FILL_AREA_STYLE_COLOUR('',#23);
#967=FILL_AREA_STYLE('',(#966));
#968=SURFACE_STYLE_FILL_AREA(#967);
#969=SURFACE_SIDE_STYLE('',(#968));
#970=SURFACE_STYLE_USAGE(.BOTH.,#969);
#971=PRESENTATION_STYLE_ASSIGNMENT((#970));
#210=STYLED_ITEM('',(#971),#965);
#974=PLANE_ANGLE_MEASURE_WITH_UNIT(PLANE_ANGLE_MEASURE(1.745329251994E-2),#973);
#975=(CONVERSION_BASED_UNIT('DEGREE',#974)NAMED_UNIT(*)PLANE_ANGLE_UNIT());
#977=UNCERTAINTY_MEASURE_WITH_UNIT(LENGTH_MEASURE(3.111664395526E-3),#972,
'distance_accuracy_value',
'Maximum model space distance between geometric entities at asserted connectivities');
#980=MECHANICAL_DESIGN_GEOMETRIC_PRESENTATION_REPRESENTATION('',(#219,#227,#235,
#243,#251,#259,#266,#274,#281,#289,#297,#305,#313,#321,#329,#337,#345,#353,#361,
#369,#376,#383,#391,#399,#407,#415,#423,#430,#438,#445,#453,#461,#469,#476,#484,
#491,#499,#507,#515,#523,#531,#539,#546,#553,#561,#569,#210),#978);
#981=APPLICATION_CONTEXT('automotive_design');
#982=APPLICATION_PROTOCOL_DEFINITION('international standard',
'automotive_design',2001,#981);
#983=PRODUCT_DEFINITION_CONTEXT('part definition',#981,'design');
#984=PRODUCT_CONTEXT('',#981,'mechanical');
#985=PRODUCT('FTY-04-027','FTY-04-027','NOT SPECIFIED',(#984));
#986=PRODUCT_DEFINITION_FORMATION('6','LAST_VERSION',#985);
#994=DERIVED_UNIT_ELEMENT(#993,2.E0);
#995=DERIVED_UNIT((#994));
#996=MEASURE_REPRESENTATION_ITEM('surface area measure',AREA_MEASURE(
1.104756478461E3),#995);
#1001=DERIVED_UNIT_ELEMENT(#1000,3.E0);
#1002=DERIVED_UNIT((#1001));
#1003=MEASURE_REPRESENTATION_ITEM('volume measure',VOLUME_MEASURE(
8.609278540100E2),#1002);
#1007=CARTESIAN_POINT('centre point',(0.E0,0.E0,-1.626199662263E1));
#1012=DERIVED_UNIT_ELEMENT(#1011,2.E0);
#1013=DERIVED_UNIT((#1012));
#1014=MEASURE_REPRESENTATION_ITEM('surface area measure',AREA_MEASURE(
1.104756478461E3),#1013);
#1019=DERIVED_UNIT_ELEMENT(#1018,3.E0);
#1020=DERIVED_UNIT((#1019));
#1021=MEASURE_REPRESENTATION_ITEM('volume measure',VOLUME_MEASURE(
8.609278540100E2),#1020);
#1025=CARTESIAN_POINT('centre point',(0.E0,0.E0,-1.626199662263E1));
#1030=PRODUCT_RELATED_PRODUCT_CATEGORY('part','',(#985));
#1=DRAUGHTING_PRE_DEFINED_COLOUR('black');
#2=COLOUR_RGB('',0.E0,0.E0,3.960784313725E-1);
#3=COLOUR_RGB('',0.E0,1.960784313725E-1,8.392156862745E-1);
#4=COLOUR_RGB('',0.E0,3.450980392157E-1,1.568627450980E-1);
#5=COLOUR_RGB('',0.E0,3.921568627451E-1,1.E0);
#6=COLOUR_RGB('',0.E0,4.E-1,4.E-1);
#7=COLOUR_RGB('',0.E0,4.E-1,6.E-1);
#8=COLOUR_RGB('',0.E0,5.882352941176E-1,4.352941176471E-1);
#9=COLOUR_RGB('',0.E0,6.E-1,0.E0);
#10=COLOUR_RGB('',0.E0,6.E-1,6.E-1);
#11=COLOUR_RGB('',0.E0,6.E-1,1.E0);
#12=COLOUR_RGB('',0.E0,6.549019607843E-1,8.313725490196E-1);
#13=COLOUR_RGB('',0.E0,6.901960784314E-1,9.411764705882E-1);
#14=COLOUR_RGB('',0.E0,8.039215686275E-1,5.254901960784E-1);
#15=COLOUR_RGB('',0.E0,8.117647058824E-1,8.117647058824E-1);
#16=DRAUGHTING_PRE_DEFINED_COLOUR('green');
#17=COLOUR_RGB('',0.E0,1.E0,8.E-1);
#18=DRAUGHTING_PRE_DEFINED_COLOUR('cyan');
#19=COLOUR_RGB('',1.1E-2,1.2E-2,1.E0);
#20=COLOUR_RGB('',1.960784313725E-2,7.490196078431E-1,3.411764705882E-1);
#21=COLOUR_RGB('',2.745098039216E-2,1.E0,1.019607843137E-1);
#22=COLOUR_RGB('',3.137254901961E-2,3.882352941176E-1,0.E0);
#23=COLOUR_RGB('',3.6967E-2,1.24762E-1,1.E0);
#24=COLOUR_RGB('',5.882352941176E-2,1.E0,4.666666666667E-1);
#25=COLOUR_RGB('',1.098039215686E-1,2.862745098039E-1,1.176470588235E-2);
#26=COLOUR_RGB('',1.176470588235E-1,1.176470588235E-1,1.176470588235E-1);
#27=COLOUR_RGB('',1.294117647059E-1,4.470588235294E-1,7.882352941176E-1);
#28=COLOUR_RGB('',1.450980392157E-1,6.235294117647E-1,6.470588235294E-1);
#29=COLOUR_RGB('',1.921568627451E-1,5.215686274510E-1,6.078431372549E-1);
#30=COLOUR_RGB('',1.960784313725E-1,2.078431372549E-1,1.960784313725E-1);
#31=COLOUR_RGB('',2.E-1,0.E0,0.E0);
#32=COLOUR_RGB('',2.E-1,2.E-1,6.E-1);
#33=COLOUR_RGB('',2.E-1,2.E-1,1.E0);
#34=COLOUR_RGB('',2.E-1,4.E-1,2.E-1);
#35=COLOUR_RGB('',2.E-1,6.E-1,2.E-1);
#36=COLOUR_RGB('',2.E-1,6.E-1,1.E0);
#37=COLOUR_RGB('',2.E-1,8.E-1,6.E-1);
#38=COLOUR_RGB('',2.E-1,1.E0,2.E-1);
#39=COLOUR_RGB('',2.117647058824E-1,3.764705882353E-1,5.725490196078E-1);
#40=COLOUR_RGB('',2.117647058824E-1,8.E-1,8.549019607843E-1);
#41=COLOUR_RGB('',2.156862745098E-1,6.666666666667E-1,5.333333333333E-1);
#42=COLOUR_RGB('',2.431372549020E-1,5.176470588235E-1,9.490196078431E-1);
#43=COLOUR_RGB('',2.470588235294E-1,9.647058823529E-1,1.E0);
#44=COLOUR_RGB('',2.549019607843E-1,0.E0,2.745098039216E-1);
#45=COLOUR_RGB('',2.549019607843E-1,3.764705882353E-1,1.E0);
#46=COLOUR_RGB('',2.823529411765E-1,5.647058823529E-1,4.156862745098E-1);
#47=COLOUR_RGB('',2.862745098039E-1,2.705882352941E-1,1.803921568627E-1);
#48=COLOUR_RGB('',2.901960784314E-1,4.509803921569E-1,1.058823529412E-1);
#49=COLOUR_RGB('',3.098039215686E-1,3.098039215686E-1,0.E0);
#50=COLOUR_RGB('',3.098039215686E-1,6.509803921569E-1,0.E0);
#51=COLOUR_RGB('',3.176470588235E-1,1.215686274510E-1,4.980392156863E-1);
#52=COLOUR_RGB('',3.254901960784E-1,5.764705882353E-1,8.117647058824E-1);
#53=COLOUR_RGB('',3.333333333333E-1,1.E0,2.156862745098E-1);
#54=COLOUR_RGB('',3.372549019608E-1,6.941176470588E-1,1.E0);
#55=COLOUR_RGB('',3.529411764706E-1,3.568627450980E-1,3.176470588235E-1);
#56=COLOUR_RGB('',3.607843137255E-1,2.862745098039E-1,5.019607843137E-1);
#57=COLOUR_RGB('',3.607843137255E-1,4.784313725490E-1,8.E-1);
#58=COLOUR_RGB('',3.607843137255E-1,6.705882352941E-1,8.E-1);
#59=COLOUR_RGB('',3.607843137255E-1,8.E-1,4.470588235294E-1);
#60=COLOUR_RGB('',3.607843137255E-1,8.E-1,5.803921568627E-1);
#61=COLOUR_RGB('',3.607843137255E-1,8.E-1,7.137254901961E-1);
#62=COLOUR_RGB('',3.686274509804E-1,5.215686274510E-1,2.470588235294E-1);
#63=COLOUR_RGB('',3.764705882353E-1,8.039215686275E-1,8.235294117647E-1);
#64=COLOUR_RGB('',3.921568627451E-1,1.176470588235E-2,1.176470588235E-2);
#65=COLOUR_RGB('',4.E-1,0.E0,6.E-1);
#66=COLOUR_RGB('',4.E-1,0.E0,8.E-1);
#67=COLOUR_RGB('',4.E-1,2.E-1,6.E-1);
#68=COLOUR_RGB('',4.E-1,2.E-1,8.E-1);
#69=COLOUR_RGB('',4.E-1,4.E-1,2.E-1);
#70=COLOUR_RGB('',4.E-1,4.E-1,4.E-1);
#71=COLOUR_RGB('',4.E-1,8.E-1,0.E0);
#72=COLOUR_RGB('',4.E-1,8.E-1,1.E0);
#73=COLOUR_RGB('',4.117647058824E-1,0.E0,2.196078431373E-1);
#74=COLOUR_RGB('',4.1E-1,2.61589E-1,1.12848E-1);
#75=COLOUR_RGB('',4.156862745098E-1,1.E0,0.E0);
#76=COLOUR_RGB('',4.274509803922E-1,3.607843137255E-1,8.E-1);
#77=COLOUR_RGB('',4.313725490196E-1,7.019607843137E-1,3.803921568627E-1);
#78=COLOUR_RGB('',4.352941176471E-1,4.078431372549E-1,0.E0);
#79=COLOUR_RGB('',4.470588235294E-1,4.156862745098E-1,1.E0);
#80=COLOUR_RGB('',4.470588235294E-1,8.E-1,3.607843137255E-1);
#81=COLOUR_RGB('',4.470588235294E-1,1.E0,8.039215686275E-1);
#82=COLOUR_RGB('',4.627450980392E-1,4.156862745098E-1,5.882352941176E-1);
#83=COLOUR_RGB('',4.627450980392E-1,6.235294117647E-1,1.647058823529E-1);
#84=COLOUR_RGB('',4.705882352941E-1,3.137254901961E-1,3.333333333333E-1);
#85=COLOUR_RGB('',4.705882352941E-1,7.529411764706E-1,5.490196078431E-1);
#86=COLOUR_RGB('',4.784313725490E-1,4.509803921569E-1,7.098039215686E-1);
#87=COLOUR_RGB('',4.901960784314E-1,4.627450980392E-1,1.843137254902E-1);
#88=COLOUR_RGB('',4.901960784314E-1,4.901960784314E-1,4.901960784314E-1);
#89=COLOUR_RGB('',4.941176470588E-1,4.980392156863E-1,0.E0);
#90=COLOUR_RGB('',4.941176470588E-1,1.E0,4.117647058824E-1);
#91=COLOUR_RGB('',5.019607843137E-1,6.352941176471E-1,7.058823529412E-1);
#92=COLOUR_RGB('',5.04854E-1,1.5455E-2,1.5455E-2);
#93=COLOUR_RGB('',5.098039215686E-1,0.E0,5.098039215686E-1);
#94=COLOUR_RGB('',5.098039215686E-1,7.137254901961E-1,7.686274509804E-1);
#95=COLOUR_RGB('',5.176470588235E-1,6.784313725490E-1,6.078431372549E-1);
#96=COLOUR_RGB('',5.176470588235E-1,1.E0,6.862745098039E-1);
#97=COLOUR_RGB('',5.294117647059E-1,8.274509803922E-1,0.E0);
#98=COLOUR_RGB('',5.333333333333E-1,7.333333333333E-1,4.392156862745E-1);
#99=COLOUR_RGB('',5.372549019608E-1,7.137254901961E-1,1.E0);
#100=COLOUR_RGB('',5.529411764706E-1,2.549019607843E-1,1.960784313725E-2);
#101=COLOUR_RGB('',5.529411764706E-1,5.803921568627E-1,2.039215686275E-1);
#102=COLOUR_RGB('',5.607843137255E-1,3.607843137255E-1,8.E-1);
#103=COLOUR_RGB('',5.764705882353E-1,5.411764705882E-1,3.921568627451E-1);
#104=COLOUR_RGB('',5.882352941176E-1,5.686274509804E-1,5.490196078431E-1);
#105=COLOUR_RGB('',5.921568627451E-1,5.843137254902E-1,7.725490196078E-1);
#106=COLOUR_RGB('',5.960784313725E-1,6.901960784314E-1,8.470588235294E-1);
#107=COLOUR_RGB('',6.E-1,2.E-1,2.E-1);
#108=COLOUR_RGB('',6.E-1,2.E-1,4.E-1);
#109=COLOUR_RGB('',6.E-1,2.E-1,8.E-1);
#110=COLOUR_RGB('',6.E-1,2.E-1,1.E0);
#111=COLOUR_RGB('',6.E-1,3.294117647059E-1,2.E-1);
#112=COLOUR_RGB('',6.E-1,4.E-1,4.E-1);
#113=COLOUR_RGB('',6.E-1,8.E-1,1.E0);
#114=COLOUR_RGB('',6.E-1,1.E0,4.E-1);
#115=COLOUR_RGB('',6.E-1,1.E0,6.E-1);
#116=COLOUR_RGB('',6.E-1,1.E0,8.E-1);
#117=COLOUR_RGB('',6.E-1,1.E0,1.E0);
#118=COLOUR_RGB('',6.039215686275E-1,8.117647058824E-1,6.588235294118E-1);
#119=COLOUR_RGB('',6.117647058824E-1,4.549019607843E-1,1.607843137255E-1);
#120=COLOUR_RGB('',6.117647058824E-1,8.156862745098E-1,4.941176470588E-1);
#121=COLOUR_RGB('',6.196078431373E-1,7.921568627451E-1,2.392156862745E-1);
#122=COLOUR_RGB('',6.35294E-1,6.86275E-1,7.4902E-1);
#123=COLOUR_RGB('',6.40777E-1,6.40777E-1,6.40777E-1);
#124=COLOUR_RGB('',6.431372549020E-1,4.E-1,0.E0);
#125=COLOUR_RGB('',6.470588235294E-1,5.176470588235E-1,0.E0);
#126=COLOUR_RGB('',6.509803921569E-1,7.803921568627E-1,8.705882352941E-1);
#127=COLOUR_RGB('',6.509803921569E-1,8.705882352941E-1,8.117647058824E-1);
#128=COLOUR_RGB('',6.627450980392E-1,8.901960784314E-1,0.E0);
#129=COLOUR_RGB('',6.705882352941E-1,5.960784313725E-1,3.215686274510E-1);
#130=COLOUR_RGB('',6.69062E-1,6.69903E-1,6.55217E-1);
#131=COLOUR_RGB('',6.745098039216E-1,8.E-1,3.607843137255E-1);
#132=COLOUR_RGB('',6.823529411765E-1,1.960784313725E-2,0.E0);
#133=COLOUR_RGB('',6.941176470588E-1,4.588235294118E-1,5.764705882353E-1);
#134=COLOUR_RGB('',6.941176470588E-1,6.509803921569E-1,8.705882352941E-1);
#135=COLOUR_RGB('',6.980392156863E-1,6.941176470588E-1,4.039215686275E-1);
#136=COLOUR_RGB('',7.019607843137E-1,5.058823529412E-1,3.647058823529E-1);
#137=COLOUR_RGB('',7.098039215686E-1,7.098039215686E-1,1.E0);
#138=COLOUR_RGB('',7.176470588235E-1,8.705882352941E-1,6.509803921569E-1);
#139=COLOUR_RGB('',7.372549019608E-1,9.294117647059E-1,2.039215686275E-1);
#140=COLOUR_RGB('',7.411764705882E-1,1.E0,1.E0);
#141=COLOUR_RGB('',7.490196078431E-1,7.215686274510E-1,1.215686274510E-1);
#142=COLOUR_RGB('',7.490196078431E-1,7.490196078431E-1,7.490196078431E-1);
#143=COLOUR_RGB('',7.529411764706E-1,1.882352941176E-1,6.431372549020E-1);
#144=COLOUR_RGB('',7.529411764706E-1,8.235294117647E-1,8.823529411765E-1);
#145=COLOUR_RGB('',7.607843137255E-1,1.E0,5.882352941176E-2);
#146=COLOUR_RGB('',7.647058823529E-1,8.823529411765E-1,7.450980392157E-1);
#147=COLOUR_RGB('',7.764705882353E-1,8.E-1,3.607843137255E-1);
#148=COLOUR_RGB('',7.960784313725E-1,3.607843137255E-1,8.E-1);
#149=COLOUR_RGB('',7.960784313725E-1,6.509803921569E-1,8.705882352941E-1);
#150=COLOUR_RGB('',8.E-1,2.E-1,2.E-1);
#151=COLOUR_RGB('',8.E-1,2.E-1,8.E-1);
#152=COLOUR_RGB('',8.E-1,3.607843137255E-1,4.470588235294E-1);
#153=COLOUR_RGB('',8.E-1,3.607843137255E-1,6.078431372549E-1);
#154=COLOUR_RGB('',8.E-1,4.549019607843E-1,3.607843137255E-1);
#155=COLOUR_RGB('',8.E-1,5.725490196078E-1,3.607843137255E-1);
#156=COLOUR_RGB('',8.E-1,6.E-1,2.E-1);
#157=COLOUR_RGB('',8.E-1,6.E-1,6.E-1);
#158=COLOUR_RGB('',8.E-1,6.980392156863E-1,3.607843137255E-1);
#159=COLOUR_RGB('',8.E-1,8.E-1,2.E-1);
#160=COLOUR_RGB('',8.E-1,1.E0,4.E-1);
#161=COLOUR_RGB('',8.E-1,1.E0,6.E-1);
#162=COLOUR_RGB('',8.235294117647E-1,4.196078431373E-1,2.156862745098E-1);
#163=COLOUR_RGB('',8.274509803922E-1,5.215686274510E-1,7.843137254902E-1);
#164=COLOUR_RGB('',8.274509803922E-1,8.705882352941E-1,6.509803921569E-1);
#165=COLOUR_RGB('',8.431372549020E-1,1.E0,7.803921568627E-1);
#166=COLOUR_RGB('',8.509803921569E-1,3.372549019608E-1,2.980392156863E-1);
#167=COLOUR_RGB('',8.666666666667E-1,8.549019607843E-1,7.882352941176E-1);
#168=COLOUR_RGB('',8.705882352941E-1,6.509803921569E-1,7.921568627451E-1);
#169=COLOUR_RGB('',8.705882352941E-1,6.901960784314E-1,6.509803921569E-1);
#170=COLOUR_RGB('',8.823529411765E-1,7.607843137255E-1,2.823529411765E-1);
#171=COLOUR_RGB('',8.823529411765E-1,9.607843137255E-1,1.E0);
#172=COLOUR_RGB('',8.901960784314E-1,1.333333333333E-1,0.E0);
#173=COLOUR_RGB('',9.019607843137E-1,4.823529411765E-1,7.058823529412E-2);
#174=COLOUR_RGB('',9.019607843137E-1,8.588235294118E-1,2.862745098039E-1);
#175=COLOUR_RGB('',9.176470588235E-1,4.313725490196E-1,6.470588235294E-1);
#176=COLOUR_RGB('',9.21569E-1,7.05882E-1,4.70588E-1);
#177=COLOUR_RGB('',9.333333333333E-1,5.843137254902E-1,7.411764705882E-1);
#178=COLOUR_RGB('',9.607843137255E-1,7.490196078431E-1,8.470588235294E-1);
#179=COLOUR_RGB('',9.607843137255E-1,8.313725490196E-1,7.254901960784E-1);
#180=COLOUR_RGB('',9.607843137255E-1,9.254901960784E-1,3.843137254902E-1);
#181=COLOUR_RGB('',9.647058823529E-1,6.274509803922E-1,2.862745098039E-1);
#182=COLOUR_RGB('',9.647058823529E-1,6.274509803922E-1,4.078431372549E-1);
#183=COLOUR_RGB('',9.843137254902E-1,7.803921568627E-1,6.274509803922E-1);
#184=DRAUGHTING_PRE_DEFINED_COLOUR('red');
#185=COLOUR_RGB('',1.E0,0.E0,2.E-1);
#186=COLOUR_RGB('',1.E0,0.E0,4.980392156863E-1);
#187=DRAUGHTING_PRE_DEFINED_COLOUR('magenta');
#188=COLOUR_RGB('',1.E0,2.274509803922E-1,8.823529411765E-1);
#189=COLOUR_RGB('',1.E0,2.745098039216E-1,0.E0);
#190=COLOUR_RGB('',1.E0,2.784313725490E-1,1.529411764706E-1);
#191=COLOUR_RGB('',1.E0,3.411764705882E-1,3.725490196078E-1);
#192=COLOUR_RGB('',1.E0,4.E-1,0.E0);
#193=COLOUR_RGB('',1.E0,4.E-1,1.E0);
#194=COLOUR_RGB('',1.E0,4.588235294118E-1,8.352941176471E-1);
#195=COLOUR_RGB('',1.E0,5.529411764706E-1,9.176470588235E-1);
#196=COLOUR_RGB('',1.E0,5.647058823529E-1,5.647058823529E-1);
#197=COLOUR_RGB('',1.E0,6.E-1,0.E0);
#198=COLOUR_RGB('',1.E0,7.019607843137E-1,7.058823529412E-1);
#199=COLOUR_RGB('',1.E0,7.529411764706E-1,2.E-1);
#200=COLOUR_RGB('',1.E0,8.E-1,1.E0);
#201=COLOUR_RGB('',1.E0,8.078431372549E-1,4.980392156863E-1);
#202=COLOUR_RGB('',1.E0,8.196078431373E-1,0.E0);
#203=COLOUR_RGB('',1.E0,8.627450980392E-1,2.274509803922E-1);
#204=COLOUR_RGB('',1.E0,9.411764705882E-1,6.627450980392E-1);
#205=DRAUGHTING_PRE_DEFINED_COLOUR('yellow');
#206=COLOUR_RGB('',1.E0,1.E0,5.3E-1);
#207=COLOUR_RGB('',1.E0,1.E0,8.E-1);
#208=COLOUR_RGB('',1.E0,1.E0,9.49E-1);
#209=DRAUGHTING_PRE_DEFINED_COLOUR('white');
#215=CIRCLE('',#214,6.5E0);
#224=CIRCLE('',#223,6.5E0);
#232=CIRCLE('',#231,1.9E0);
#240=CIRCLE('',#239,1.9E0);
#248=CIRCLE('',#247,5.E-1);
#256=CIRCLE('',#255,7.E0);
#271=CIRCLE('',#270,7.E0);
#286=CIRCLE('',#285,5.E-1);
#294=CIRCLE('',#293,6.5E0);
#302=CIRCLE('',#301,6.5E0);
#310=CIRCLE('',#309,3.675E0);
#318=CIRCLE('',#317,3.675E0);
#326=CIRCLE('',#325,5.E-1);
#334=CIRCLE('',#333,7.E0);
#342=CIRCLE('',#341,7.E0);
#350=CIRCLE('',#349,5.E-1);
#358=CIRCLE('',#357,5.E-1);
#366=CIRCLE('',#365,3.175E0);
#388=CIRCLE('',#387,3.175E0);
#396=CIRCLE('',#395,5.E-1);
#404=CIRCLE('',#403,3.175E0);
#412=CIRCLE('',#411,3.175E0);
#420=CIRCLE('',#419,3.075E0);
#435=CIRCLE('',#434,3.075E0);
#450=CIRCLE('',#449,3.075E0);
#458=CIRCLE('',#457,3.075E0);
#466=CIRCLE('',#465,3.175E0);
#481=CIRCLE('',#480,3.175E0);
#496=CIRCLE('',#495,5.E-1);
#504=CIRCLE('',#503,2.675E0);
#512=CIRCLE('',#511,2.675E0);
#520=CIRCLE('',#519,5.E-1);
#528=CIRCLE('',#527,3.175E0);
#536=CIRCLE('',#535,3.175E0);
#558=CIRCLE('',#557,1.9E0);
#566=CIRCLE('',#565,1.9E0);
#631=EDGE_CURVE('',#584,#585,#215,.T.);
#633=EDGE_CURVE('',#585,#584,#224,.T.);
#637=EDGE_CURVE('',#592,#593,#232,.T.);
#639=EDGE_CURVE('',#593,#592,#240,.T.);
#643=ADVANCED_FACE('',(#636,#642),#630,.F.);
#649=EDGE_CURVE('',#580,#581,#271,.T.);
#651=EDGE_CURVE('',#581,#585,#350,.T.);
#654=EDGE_CURVE('',#580,#584,#248,.T.);
#658=ADVANCED_FACE('',(#657),#648,.T.);
#664=EDGE_CURVE('',#576,#577,#256,.T.);
#666=EDGE_CURVE('',#581,#577,#263,.T.);
#669=EDGE_CURVE('',#580,#576,#278,.T.);
#673=ADVANCED_FACE('',(#672),#663,.T.);
#679=EDGE_CURVE('',#572,#573,#294,.T.);
#681=EDGE_CURVE('',#573,#577,#326,.T.);
#684=EDGE_CURVE('',#572,#576,#286,.T.);
#688=ADVANCED_FACE('',(#687),#678,.T.);
#695=EDGE_CURVE('',#573,#572,#302,.T.);
#699=EDGE_CURVE('',#624,#625,#310,.T.);
#701=EDGE_CURVE('',#625,#624,#318,.T.);
#705=ADVANCED_FACE('',(#698,#704),#693,.T.);
#713=EDGE_CURVE('',#577,#576,#334,.T.);
#718=ADVANCED_FACE('',(#717),#710,.T.);
#726=EDGE_CURVE('',#581,#580,#342,.T.);
#731=ADVANCED_FACE('',(#730),#723,.T.);
#743=ADVANCED_FACE('',(#742),#736,.T.);
#749=EDGE_CURVE('',#620,#621,#366,.T.);
#751=EDGE_CURVE('',#620,#624,#358,.T.);
#754=EDGE_CURVE('',#621,#625,#396,.T.);
#758=ADVANCED_FACE('',(#757),#748,.F.);
#765=EDGE_CURVE('',#621,#605,#373,.T.);
#767=EDGE_CURVE('',#604,#605,#404,.T.);
#769=EDGE_CURVE('',#620,#604,#380,.T.);
#773=ADVANCED_FACE('',(#772),#763,.T.);
#779=EDGE_CURVE('',#621,#620,#388,.T.);
#782=EDGE_CURVE('',#604,#605,#412,.T.);
#787=ADVANCED_FACE('',(#786),#778,.T.);
#799=ADVANCED_FACE('',(#798),#792,.F.);
#809=EDGE_CURVE('',#596,#600,#420,.T.);
#811=EDGE_CURVE('',#596,#600,#435,.T.);
#815=ADVANCED_FACE('',(#808,#814),#804,.T.);
#821=EDGE_CURVE('',#596,#597,#427,.T.);
#823=EDGE_CURVE('',#597,#601,#458,.T.);
#825=EDGE_CURVE('',#600,#601,#442,.T.);
#830=ADVANCED_FACE('',(#829),#820,.T.);
#839=EDGE_CURVE('',#597,#601,#450,.T.);
#843=ADVANCED_FACE('',(#842),#835,.T.);
#849=EDGE_CURVE('',#608,#609,#481,.T.);
#851=EDGE_CURVE('',#608,#609,#536,.T.);
#859=ADVANCED_FACE('',(#854,#858),#848,.F.);
#865=EDGE_CURVE('',#616,#617,#466,.T.);
#867=EDGE_CURVE('',#617,#609,#473,.T.);
#870=EDGE_CURVE('',#608,#616,#488,.T.);
#874=ADVANCED_FACE('',(#873),#864,.T.);
#880=EDGE_CURVE('',#612,#613,#504,.T.);
#882=EDGE_CURVE('',#613,#617,#520,.T.);
#885=EDGE_CURVE('',#612,#616,#496,.T.);
#889=ADVANCED_FACE('',(#888),#879,.T.);
#896=EDGE_CURVE('',#613,#612,#512,.T.);
#900=ADVANCED_FACE('',(#899),#894,.T.);
#908=EDGE_CURVE('',#617,#616,#528,.T.);
#913=ADVANCED_FACE('',(#912),#905,.T.);
#925=ADVANCED_FACE('',(#924),#918,.T.);
#932=EDGE_CURVE('',#592,#588,#543,.T.);
#934=EDGE_CURVE('',#588,#589,#558,.T.);
#936=EDGE_CURVE('',#593,#589,#550,.T.);
#940=ADVANCED_FACE('',(#939),#930,.F.);
#948=EDGE_CURVE('',#589,#588,#566,.T.);
#953=ADVANCED_FACE('',(#952),#945,.F.);
#963=ADVANCED_FACE('',(#962),#958,.T.);
#972=(LENGTH_UNIT()NAMED_UNIT(*)SI_UNIT(.MILLI.,.METRE.));
#973=(NAMED_UNIT(*)PLANE_ANGLE_UNIT()SI_UNIT($,.RADIAN.));
#976=(NAMED_UNIT(*)SI_UNIT($,.STERADIAN.)SOLID_ANGLE_UNIT());
#978=(GEOMETRIC_REPRESENTATION_CONTEXT(3)GLOBAL_UNCERTAINTY_ASSIGNED_CONTEXT((
#977))GLOBAL_UNIT_ASSIGNED_CONTEXT((#972,#975,#976))REPRESENTATION_CONTEXT
('ID1','3'));
#979=ADVANCED_BREP_SHAPE_REPRESENTATION('',(#965),#978);
#987=PRODUCT_DEFINITION('part definition','',#986,#983);
#988=PRODUCT_DEFINITION_SHAPE('','SHAPE FOR FTY-04-027.',#987);
#989=SHAPE_ASPECT('','solid data associated with FTY-04-027',#988,.F.);
#990=PROPERTY_DEFINITION('',
'shape for solid data with which properties are associated',#989);
#991=SHAPE_REPRESENTATION('',(#965),#978);
#992=SHAPE_DEFINITION_REPRESENTATION(#990,#991);
#993=(LENGTH_UNIT()NAMED_UNIT(*)SI_UNIT(.MILLI.,.METRE.));
#997=PROPERTY_DEFINITION('geometric validation property','area of FTY-04-027',
#989);
#998=REPRESENTATION('surface area',(#996),#978);
#999=PROPERTY_DEFINITION_REPRESENTATION(#997,#998);
#1000=(LENGTH_UNIT()NAMED_UNIT(*)SI_UNIT(.MILLI.,.METRE.));
#1004=PROPERTY_DEFINITION('geometric validation property',
'volume of FTY-04-027',#989);
#1005=REPRESENTATION('volume',(#1003),#978);
#1006=PROPERTY_DEFINITION_REPRESENTATION(#1004,#1005);
#1008=PROPERTY_DEFINITION('geometric validation property',
'centroid of FTY-04-027',#989);
#1009=REPRESENTATION('centroid',(#1007),#978);
#1010=PROPERTY_DEFINITION_REPRESENTATION(#1008,#1009);
#1011=(LENGTH_UNIT()NAMED_UNIT(*)SI_UNIT(.MILLI.,.METRE.));
#1015=PROPERTY_DEFINITION('geometric validation property','area of FTY-04-027',
#988);
#1016=REPRESENTATION('surface area',(#1014),#978);
#1017=PROPERTY_DEFINITION_REPRESENTATION(#1015,#1016);
#1018=(LENGTH_UNIT()NAMED_UNIT(*)SI_UNIT(.MILLI.,.METRE.));
#1022=PROPERTY_DEFINITION('geometric validation property',
'volume of FTY-04-027',#988);
#1023=REPRESENTATION('volume',(#1021),#978);
#1024=PROPERTY_DEFINITION_REPRESENTATION(#1022,#1023);
#1026=PROPERTY_DEFINITION('geometric validation property',
'centroid of FTY-04-027',#988);
#1027=REPRESENTATION('centroid',(#1025),#978);
#1028=PROPERTY_DEFINITION_REPRESENTATION(#1026,#1027);
#1029=SHAPE_DEFINITION_REPRESENTATION(#988,#979);
ENDSEC;
END-ISO-10303-21;
