ISO-10303-21;
HEADER;
FILE_DESCRIPTION((''),'2;1');
FILE_NAME('ERFEN-ZT_1_1_1','2026-06-30T15:27:29',('Administrator'),(''),
'CREO PARAMETRIC BY PTC INC, 2019010','CREO PARAMETRIC BY PTC INC, 2019010','');
FILE_SCHEMA(('CONFIG_CONTROL_DESIGN'));
ENDSEC;
DATA;
#1=CARTESIAN_POINT('',(0.E0,6.E0,1.75E1));
#2=CARTESIAN_POINT('',(5.656854249492E-1,6.E0,1.75E1));
#3=CARTESIAN_POINT('',(1.481839169215E0,5.805835179134E0,1.75E1));
#4=CARTESIAN_POINT('',(2.642270060683E0,5.059797453900E0,1.75E1));
#5=CARTESIAN_POINT('',(3.418613762677E0,4.273322840444E0,1.75E1));
#6=CARTESIAN_POINT('',(4.047950186781E0,3.302755307038E0,1.75E1));
#7=CARTESIAN_POINT('',(4.495056213295E0,2.215207053268E0,1.75E1));
#8=CARTESIAN_POINT('',(4.707282727745E0,1.275722862309E0,1.75E1));
#9=CARTESIAN_POINT('',(4.787477152598E0,5.359923806083E-1,1.75E1));
#10=CARTESIAN_POINT('',(4.806261423701E0,0.E0,1.75E1));
#11=CARTESIAN_POINT('',(4.787477152598E0,-5.359923806083E-1,1.75E1));
#12=CARTESIAN_POINT('',(4.707282727745E0,-1.275722862309E0,1.75E1));
#13=CARTESIAN_POINT('',(4.495056213295E0,-2.215207053268E0,1.75E1));
#14=CARTESIAN_POINT('',(4.047950186781E0,-3.302755307038E0,1.75E1));
#15=CARTESIAN_POINT('',(3.418613762677E0,-4.273322840444E0,1.75E1));
#16=CARTESIAN_POINT('',(2.642270060683E0,-5.059797453900E0,1.75E1));
#17=CARTESIAN_POINT('',(1.481839169215E0,-5.805835179134E0,1.75E1));
#18=CARTESIAN_POINT('',(5.656854249492E-1,-6.E0,1.75E1));
#19=CARTESIAN_POINT('',(0.E0,-6.E0,1.75E1));
#21=CARTESIAN_POINT('',(0.E0,-6.E0,1.75E1));
#22=CARTESIAN_POINT('',(-5.656854249492E-1,-6.E0,1.75E1));
#23=CARTESIAN_POINT('',(-1.481839169215E0,-5.805835179134E0,1.75E1));
#24=CARTESIAN_POINT('',(-2.642270060683E0,-5.059797453900E0,1.75E1));
#25=CARTESIAN_POINT('',(-3.418613762677E0,-4.273322840444E0,1.75E1));
#26=CARTESIAN_POINT('',(-4.047950186781E0,-3.302755307038E0,1.75E1));
#27=CARTESIAN_POINT('',(-4.495056213295E0,-2.215207053268E0,1.75E1));
#28=CARTESIAN_POINT('',(-4.707282727745E0,-1.275722862309E0,1.75E1));
#29=CARTESIAN_POINT('',(-4.787477152598E0,-5.359923806083E-1,1.75E1));
#30=CARTESIAN_POINT('',(-4.806261423701E0,0.E0,1.75E1));
#31=CARTESIAN_POINT('',(-4.787477152598E0,5.359923806083E-1,1.75E1));
#32=CARTESIAN_POINT('',(-4.707282727745E0,1.275722862309E0,1.75E1));
#33=CARTESIAN_POINT('',(-4.495056213295E0,2.215207053268E0,1.75E1));
#34=CARTESIAN_POINT('',(-4.047950186781E0,3.302755307038E0,1.75E1));
#35=CARTESIAN_POINT('',(-3.418613762677E0,4.273322840444E0,1.75E1));
#36=CARTESIAN_POINT('',(-2.642270060683E0,5.059797453900E0,1.75E1));
#37=CARTESIAN_POINT('',(-1.481839169215E0,5.805835179134E0,1.75E1));
#38=CARTESIAN_POINT('',(-5.656854249492E-1,6.E0,1.75E1));
#39=CARTESIAN_POINT('',(0.E0,6.E0,1.75E1));
#41=CARTESIAN_POINT('',(0.E0,0.E0,1.75E1));
#42=DIRECTION('',(0.E0,0.E0,1.E0));
#43=DIRECTION('',(1.E0,0.E0,0.E0));
#44=AXIS2_PLACEMENT_3D('',#41,#42,#43);
#46=CARTESIAN_POINT('',(0.E0,0.E0,1.75E1));
#47=DIRECTION('',(0.E0,0.E0,1.E0));
#48=DIRECTION('',(-1.E0,0.E0,0.E0));
#49=AXIS2_PLACEMENT_3D('',#46,#47,#48);
#51=DIRECTION('',(0.E0,0.E0,1.E0));
#52=VECTOR('',#51,1.5E0);
#53=CARTESIAN_POINT('',(0.E0,-6.E0,1.6E1));
#54=LINE('',#53,#52);
#55=CARTESIAN_POINT('',(0.E0,0.E0,1.6E1));
#56=DIRECTION('',(0.E0,0.E0,-1.E0));
#57=DIRECTION('',(9.999999522198E-1,-3.091284352733E-4,0.E0));
#58=AXIS2_PLACEMENT_3D('',#55,#56,#57);
#60=CARTESIAN_POINT('',(0.E0,0.E0,1.6E1));
#61=DIRECTION('',(0.E0,0.E0,-1.E0));
#62=DIRECTION('',(-9.999999522198E-1,3.091284352733E-4,0.E0));
#63=AXIS2_PLACEMENT_3D('',#60,#61,#62);
#65=CARTESIAN_POINT('',(0.E0,-6.E0,1.6E1));
#66=CARTESIAN_POINT('',(5.656854249492E-1,-6.E0,1.6E1));
#67=CARTESIAN_POINT('',(1.481839169215E0,-5.805835179134E0,1.6E1));
#68=CARTESIAN_POINT('',(2.642270060683E0,-5.059797453900E0,1.6E1));
#69=CARTESIAN_POINT('',(3.418613762677E0,-4.273322840444E0,1.6E1));
#70=CARTESIAN_POINT('',(4.047950186781E0,-3.302755307038E0,1.6E1));
#71=CARTESIAN_POINT('',(4.495056213295E0,-2.215207053268E0,1.6E1));
#72=CARTESIAN_POINT('',(4.707282727745E0,-1.275722862309E0,1.6E1));
#73=CARTESIAN_POINT('',(4.787477152598E0,-5.359923806083E-1,1.6E1));
#74=CARTESIAN_POINT('',(4.806261423701E0,0.E0,1.6E1));
#75=CARTESIAN_POINT('',(4.787477152598E0,5.359923806083E-1,1.6E1));
#76=CARTESIAN_POINT('',(4.707282727745E0,1.275722862309E0,1.6E1));
#77=CARTESIAN_POINT('',(4.495056213295E0,2.215207053268E0,1.6E1));
#78=CARTESIAN_POINT('',(4.047950186781E0,3.302755307038E0,1.6E1));
#79=CARTESIAN_POINT('',(3.418613762677E0,4.273322840444E0,1.6E1));
#80=CARTESIAN_POINT('',(2.642270060683E0,5.059797453900E0,1.6E1));
#81=CARTESIAN_POINT('',(1.481839169215E0,5.805835179134E0,1.6E1));
#82=CARTESIAN_POINT('',(5.656854249492E-1,6.E0,1.6E1));
#83=CARTESIAN_POINT('',(0.E0,6.E0,1.6E1));
#85=CARTESIAN_POINT('',(0.E0,6.E0,1.6E1));
#86=CARTESIAN_POINT('',(-5.656854249492E-1,6.E0,1.6E1));
#87=CARTESIAN_POINT('',(-1.481839169215E0,5.805835179134E0,1.6E1));
#88=CARTESIAN_POINT('',(-2.642270060683E0,5.059797453900E0,1.6E1));
#89=CARTESIAN_POINT('',(-3.418613762677E0,4.273322840444E0,1.6E1));
#90=CARTESIAN_POINT('',(-4.047950186781E0,3.302755307038E0,1.6E1));
#91=CARTESIAN_POINT('',(-4.495056213295E0,2.215207053268E0,1.6E1));
#92=CARTESIAN_POINT('',(-4.707282727745E0,1.275722862309E0,1.6E1));
#93=CARTESIAN_POINT('',(-4.787477152598E0,5.359923806083E-1,1.6E1));
#94=CARTESIAN_POINT('',(-4.806261423701E0,0.E0,1.6E1));
#95=CARTESIAN_POINT('',(-4.787477152598E0,-5.359923806083E-1,1.6E1));
#96=CARTESIAN_POINT('',(-4.707282727745E0,-1.275722862309E0,1.6E1));
#97=CARTESIAN_POINT('',(-4.495056213295E0,-2.215207053268E0,1.6E1));
#98=CARTESIAN_POINT('',(-4.047950186781E0,-3.302755307038E0,1.6E1));
#99=CARTESIAN_POINT('',(-3.418613762677E0,-4.273322840444E0,1.6E1));
#100=CARTESIAN_POINT('',(-2.642270060683E0,-5.059797453900E0,1.6E1));
#101=CARTESIAN_POINT('',(-1.481839169215E0,-5.805835179134E0,1.6E1));
#102=CARTESIAN_POINT('',(-5.656854249492E-1,-6.E0,1.6E1));
#103=CARTESIAN_POINT('',(0.E0,-6.E0,1.6E1));
#105=CARTESIAN_POINT('',(0.E0,0.E0,1.55E1));
#106=DIRECTION('',(0.E0,0.E0,-1.E0));
#107=DIRECTION('',(1.E0,5.952020058790E-13,0.E0));
#108=AXIS2_PLACEMENT_3D('',#105,#106,#107);
#110=CARTESIAN_POINT('',(0.E0,0.E0,1.55E1));
#111=DIRECTION('',(0.E0,0.E0,-1.E0));
#112=DIRECTION('',(-9.999568291051E-1,-9.291928009582E-3,0.E0));
#113=AXIS2_PLACEMENT_3D('',#110,#111,#112);
#115=CARTESIAN_POINT('',(0.E0,0.E0,1.6E1));
#116=DIRECTION('',(0.E0,0.E0,1.E0));
#117=DIRECTION('',(-9.999999522198E-1,3.091284352733E-4,0.E0));
#118=AXIS2_PLACEMENT_3D('',#115,#116,#117);
#120=CARTESIAN_POINT('',(6.6E0,9.704077819084E-12,1.55E1));
#121=DIRECTION('',(-1.470315189045E-12,1.E0,0.E0));
#122=DIRECTION('',(0.E0,0.E0,1.E0));
#123=AXIS2_PLACEMENT_3D('',#120,#121,#122);
#125=DIRECTION('',(0.E0,-2.609955988861E-12,1.E0));
#126=VECTOR('',#125,2.E0);
#127=CARTESIAN_POINT('',(-7.1E0,0.E0,1.35E1));
#128=LINE('',#127,#126);
#129=DIRECTION('',(1.199040866595E-14,2.096060976990E-12,1.E0));
#130=VECTOR('',#129,2.E0);
#131=CARTESIAN_POINT('',(7.1E0,3.140461572651E-12,1.35E1));
#132=LINE('',#131,#130);
#133=CARTESIAN_POINT('',(0.E0,0.E0,1.55E1));
#134=DIRECTION('',(0.E0,0.E0,-1.E0));
#135=DIRECTION('',(-1.E0,0.E0,0.E0));
#136=AXIS2_PLACEMENT_3D('',#133,#134,#135);
#138=CARTESIAN_POINT('',(0.E0,0.E0,1.55E1));
#139=DIRECTION('',(0.E0,0.E0,-1.E0));
#140=DIRECTION('',(9.999568291051E-1,9.291928009580E-3,0.E0));
#141=AXIS2_PLACEMENT_3D('',#138,#139,#140);
#143=CARTESIAN_POINT('',(0.E0,0.E0,1.6E1));
#144=DIRECTION('',(0.E0,0.E0,1.E0));
#145=DIRECTION('',(9.999999522198E-1,-3.091284352733E-4,0.E0));
#146=AXIS2_PLACEMENT_3D('',#143,#144,#145);
#148=CARTESIAN_POINT('',(-6.6E0,-9.704077819084E-12,1.55E1));
#149=DIRECTION('',(1.470315189045E-12,-1.E0,0.E0));
#150=DIRECTION('',(0.E0,0.E0,1.E0));
#151=AXIS2_PLACEMENT_3D('',#148,#149,#150);
#153=CARTESIAN_POINT('',(0.E0,0.E0,1.35E1));
#154=DIRECTION('',(0.E0,0.E0,-1.E0));
#155=DIRECTION('',(1.E0,0.E0,0.E0));
#156=AXIS2_PLACEMENT_3D('',#153,#154,#155);
#158=CARTESIAN_POINT('',(0.E0,0.E0,1.35E1));
#159=DIRECTION('',(0.E0,0.E0,-1.E0));
#160=DIRECTION('',(-1.E0,0.E0,0.E0));
#161=AXIS2_PLACEMENT_3D('',#158,#159,#160);
#163=CARTESIAN_POINT('',(0.E0,0.E0,1.35E1));
#164=DIRECTION('',(0.E0,0.E0,1.E0));
#165=DIRECTION('',(1.E0,1.365515823200E-13,0.E0));
#166=AXIS2_PLACEMENT_3D('',#163,#164,#165);
#168=CARTESIAN_POINT('',(0.E0,0.E0,1.35E1));
#169=DIRECTION('',(0.E0,0.E0,1.E0));
#170=DIRECTION('',(-1.E0,0.E0,0.E0));
#171=AXIS2_PLACEMENT_3D('',#168,#169,#170);
#173=DIRECTION('',(0.E0,0.E0,1.E0));
#174=VECTOR('',#173,4.5E0);
#175=CARTESIAN_POINT('',(-7.5E0,0.E0,9.E0));
#176=LINE('',#175,#174);
#177=DIRECTION('',(0.E0,0.E0,1.E0));
#178=VECTOR('',#177,4.5E0);
#179=CARTESIAN_POINT('',(7.5E0,0.E0,9.E0));
#180=LINE('',#179,#178);
#181=CARTESIAN_POINT('',(0.E0,0.E0,9.E0));
#182=DIRECTION('',(0.E0,0.E0,1.E0));
#183=DIRECTION('',(1.E0,0.E0,0.E0));
#184=AXIS2_PLACEMENT_3D('',#181,#182,#183);
#186=CARTESIAN_POINT('',(0.E0,0.E0,9.E0));
#187=DIRECTION('',(0.E0,0.E0,1.E0));
#188=DIRECTION('',(-1.E0,0.E0,0.E0));
#189=AXIS2_PLACEMENT_3D('',#186,#187,#188);
#191=CARTESIAN_POINT('',(0.E0,0.E0,9.E0));
#192=DIRECTION('',(0.E0,0.E0,-1.E0));
#193=DIRECTION('',(1.E0,0.E0,0.E0));
#194=AXIS2_PLACEMENT_3D('',#191,#192,#193);
#196=CARTESIAN_POINT('',(0.E0,0.E0,9.E0));
#197=DIRECTION('',(0.E0,0.E0,-1.E0));
#198=DIRECTION('',(-1.E0,0.E0,0.E0));
#199=AXIS2_PLACEMENT_3D('',#196,#197,#198);
#201=DIRECTION('',(0.E0,0.E0,1.E0));
#202=VECTOR('',#201,4.5E0);
#203=CARTESIAN_POINT('',(-7.1E0,0.E0,4.5E0));
#204=LINE('',#203,#202);
#205=DIRECTION('',(0.E0,0.E0,1.E0));
#206=VECTOR('',#205,4.5E0);
#207=CARTESIAN_POINT('',(7.1E0,0.E0,4.5E0));
#208=LINE('',#207,#206);
#209=DIRECTION('',(9.103664774626E-1,0.E0,4.138029443012E-1));
#210=VECTOR('',#209,1.208304597359E0);
#211=CARTESIAN_POINT('',(6.E0,0.E0,4.E0));
#212=LINE('',#211,#210);
#213=CARTESIAN_POINT('',(0.E0,0.E0,4.5E0));
#214=DIRECTION('',(0.E0,0.E0,1.E0));
#215=DIRECTION('',(1.E0,0.E0,0.E0));
#216=AXIS2_PLACEMENT_3D('',#213,#214,#215);
#218=DIRECTION('',(-9.103664774626E-1,0.E0,4.138029443012E-1));
#219=VECTOR('',#218,1.208304597359E0);
#220=CARTESIAN_POINT('',(-6.E0,0.E0,4.E0));
#221=LINE('',#220,#219);
#222=CARTESIAN_POINT('',(0.E0,0.E0,4.5E0));
#223=DIRECTION('',(0.E0,0.E0,1.E0));
#224=DIRECTION('',(-1.E0,0.E0,0.E0));
#225=AXIS2_PLACEMENT_3D('',#222,#223,#224);
#227=CARTESIAN_POINT('',(0.E0,0.E0,4.E0));
#228=DIRECTION('',(0.E0,0.E0,1.E0));
#229=DIRECTION('',(1.E0,0.E0,0.E0));
#230=AXIS2_PLACEMENT_3D('',#227,#228,#229);
#232=CARTESIAN_POINT('',(0.E0,0.E0,4.E0));
#233=DIRECTION('',(0.E0,0.E0,1.E0));
#234=DIRECTION('',(-1.E0,0.E0,0.E0));
#235=AXIS2_PLACEMENT_3D('',#232,#233,#234);
#237=CARTESIAN_POINT('',(0.E0,0.E0,4.E0));
#238=DIRECTION('',(0.E0,0.E0,-1.E0));
#239=DIRECTION('',(1.E0,0.E0,0.E0));
#240=AXIS2_PLACEMENT_3D('',#237,#238,#239);
#242=CARTESIAN_POINT('',(0.E0,0.E0,4.E0));
#243=DIRECTION('',(0.E0,0.E0,-1.E0));
#244=DIRECTION('',(-1.E0,0.E0,0.E0));
#245=AXIS2_PLACEMENT_3D('',#242,#243,#244);
#247=DIRECTION('',(0.E0,0.E0,1.E0));
#248=VECTOR('',#247,8.E0);
#249=CARTESIAN_POINT('',(-4.75E0,0.E0,-4.E0));
#250=LINE('',#249,#248);
#251=DIRECTION('',(0.E0,0.E0,1.E0));
#252=VECTOR('',#251,8.E0);
#253=CARTESIAN_POINT('',(4.75E0,0.E0,-4.E0));
#254=LINE('',#253,#252);
#255=CARTESIAN_POINT('',(0.E0,0.E0,-4.E0));
#256=DIRECTION('',(0.E0,0.E0,-1.E0));
#257=DIRECTION('',(1.E0,0.E0,0.E0));
#258=AXIS2_PLACEMENT_3D('',#255,#256,#257);
#260=CARTESIAN_POINT('',(0.E0,0.E0,-4.E0));
#261=DIRECTION('',(0.E0,0.E0,-1.E0));
#262=DIRECTION('',(-1.E0,0.E0,0.E0));
#263=AXIS2_PLACEMENT_3D('',#260,#261,#262);
#265=CARTESIAN_POINT('',(0.E0,0.E0,-4.E0));
#266=DIRECTION('',(0.E0,0.E0,1.E0));
#267=DIRECTION('',(1.E0,0.E0,0.E0));
#268=AXIS2_PLACEMENT_3D('',#265,#266,#267);
#270=CARTESIAN_POINT('',(0.E0,0.E0,-4.E0));
#271=DIRECTION('',(0.E0,0.E0,1.E0));
#272=DIRECTION('',(-1.E0,0.E0,0.E0));
#273=AXIS2_PLACEMENT_3D('',#270,#271,#272);
#275=DIRECTION('',(9.103664774626E-1,0.E0,4.138029443012E-1));
#276=VECTOR('',#275,1.208304597359E0);
#277=CARTESIAN_POINT('',(-7.1E0,0.E0,-4.5E0));
#278=LINE('',#277,#276);
#279=CARTESIAN_POINT('',(0.E0,0.E0,-4.5E0));
#280=DIRECTION('',(0.E0,0.E0,-1.E0));
#281=DIRECTION('',(1.E0,0.E0,0.E0));
#282=AXIS2_PLACEMENT_3D('',#279,#280,#281);
#284=CARTESIAN_POINT('',(0.E0,0.E0,-4.5E0));
#285=DIRECTION('',(0.E0,0.E0,-1.E0));
#286=DIRECTION('',(-1.E0,0.E0,0.E0));
#287=AXIS2_PLACEMENT_3D('',#284,#285,#286);
#289=DIRECTION('',(-9.103664774626E-1,0.E0,4.138029443012E-1));
#290=VECTOR('',#289,1.208304597359E0);
#291=CARTESIAN_POINT('',(7.1E0,0.E0,-4.5E0));
#292=LINE('',#291,#290);
#293=DIRECTION('',(0.E0,0.E0,1.E0));
#294=VECTOR('',#293,4.5E0);
#295=CARTESIAN_POINT('',(7.1E0,0.E0,-9.E0));
#296=LINE('',#295,#294);
#297=DIRECTION('',(0.E0,0.E0,1.E0));
#298=VECTOR('',#297,4.5E0);
#299=CARTESIAN_POINT('',(-7.1E0,0.E0,-9.E0));
#300=LINE('',#299,#298);
#301=CARTESIAN_POINT('',(0.E0,0.E0,-9.E0));
#302=DIRECTION('',(0.E0,0.E0,-1.E0));
#303=DIRECTION('',(1.E0,0.E0,0.E0));
#304=AXIS2_PLACEMENT_3D('',#301,#302,#303);
#306=CARTESIAN_POINT('',(0.E0,0.E0,-9.E0));
#307=DIRECTION('',(0.E0,0.E0,-1.E0));
#308=DIRECTION('',(-1.E0,0.E0,0.E0));
#309=AXIS2_PLACEMENT_3D('',#306,#307,#308);
#311=CARTESIAN_POINT('',(0.E0,0.E0,-9.E0));
#312=DIRECTION('',(0.E0,0.E0,1.E0));
#313=DIRECTION('',(1.E0,0.E0,0.E0));
#314=AXIS2_PLACEMENT_3D('',#311,#312,#313);
#316=CARTESIAN_POINT('',(0.E0,0.E0,-9.E0));
#317=DIRECTION('',(0.E0,0.E0,1.E0));
#318=DIRECTION('',(-1.E0,0.E0,0.E0));
#319=AXIS2_PLACEMENT_3D('',#316,#317,#318);
#321=DIRECTION('',(0.E0,0.E0,1.E0));
#322=VECTOR('',#321,4.5E0);
#323=CARTESIAN_POINT('',(-7.5E0,0.E0,-1.35E1));
#324=LINE('',#323,#322);
#325=DIRECTION('',(0.E0,0.E0,1.E0));
#326=VECTOR('',#325,4.5E0);
#327=CARTESIAN_POINT('',(7.5E0,0.E0,-1.35E1));
#328=LINE('',#327,#326);
#329=CARTESIAN_POINT('',(0.E0,0.E0,-1.35E1));
#330=DIRECTION('',(0.E0,0.E0,1.E0));
#331=DIRECTION('',(1.E0,0.E0,0.E0));
#332=AXIS2_PLACEMENT_3D('',#329,#330,#331);
#334=CARTESIAN_POINT('',(0.E0,0.E0,-1.35E1));
#335=DIRECTION('',(0.E0,0.E0,1.E0));
#336=DIRECTION('',(-1.E0,0.E0,0.E0));
#337=AXIS2_PLACEMENT_3D('',#334,#335,#336);
#339=CARTESIAN_POINT('',(0.E0,0.E0,-1.35E1));
#340=DIRECTION('',(0.E0,0.E0,-1.E0));
#341=DIRECTION('',(1.E0,0.E0,0.E0));
#342=AXIS2_PLACEMENT_3D('',#339,#340,#341);
#344=CARTESIAN_POINT('',(0.E0,0.E0,-1.35E1));
#345=DIRECTION('',(0.E0,0.E0,-1.E0));
#346=DIRECTION('',(-1.E0,0.E0,0.E0));
#347=AXIS2_PLACEMENT_3D('',#344,#345,#346);
#349=DIRECTION('',(0.E0,0.E0,1.E0));
#350=VECTOR('',#349,2.E0);
#351=CARTESIAN_POINT('',(-7.1E0,0.E0,-1.55E1));
#352=LINE('',#351,#350);
#353=CARTESIAN_POINT('',(0.E0,0.E0,-1.55E1));
#354=DIRECTION('',(0.E0,0.E0,1.E0));
#355=DIRECTION('',(-1.E0,0.E0,0.E0));
#356=AXIS2_PLACEMENT_3D('',#353,#354,#355);
#358=CARTESIAN_POINT('',(0.E0,0.E0,-1.55E1));
#359=DIRECTION('',(0.E0,0.E0,1.E0));
#360=DIRECTION('',(-9.999607102373E-1,-8.864422242095E-3,0.E0));
#361=AXIS2_PLACEMENT_3D('',#358,#359,#360);
#363=CARTESIAN_POINT('',(6.6E0,0.E0,-1.55E1));
#364=DIRECTION('',(0.E0,1.E0,0.E0));
#365=DIRECTION('',(1.E0,0.E0,0.E0));
#366=AXIS2_PLACEMENT_3D('',#363,#364,#365);
#368=CARTESIAN_POINT('',(0.E0,0.E0,-1.6E1));
#369=DIRECTION('',(0.E0,0.E0,1.E0));
#370=DIRECTION('',(-1.E0,0.E0,0.E0));
#371=AXIS2_PLACEMENT_3D('',#368,#369,#370);
#373=CARTESIAN_POINT('',(0.E0,0.E0,-1.6E1));
#374=DIRECTION('',(0.E0,0.E0,1.E0));
#375=DIRECTION('',(1.E0,0.E0,0.E0));
#376=AXIS2_PLACEMENT_3D('',#373,#374,#375);
#378=CARTESIAN_POINT('',(0.E0,6.E0,-1.6E1));
#379=CARTESIAN_POINT('',(5.656854249492E-1,6.E0,-1.6E1));
#380=CARTESIAN_POINT('',(1.481839169215E0,5.805835179134E0,-1.6E1));
#381=CARTESIAN_POINT('',(2.642270060683E0,5.059797453900E0,-1.6E1));
#382=CARTESIAN_POINT('',(3.418613762677E0,4.273322840444E0,-1.6E1));
#383=CARTESIAN_POINT('',(4.047950186781E0,3.302755307038E0,-1.6E1));
#384=CARTESIAN_POINT('',(4.495056213295E0,2.215207053268E0,-1.6E1));
#385=CARTESIAN_POINT('',(4.707282727745E0,1.275722862309E0,-1.6E1));
#386=CARTESIAN_POINT('',(4.787477152598E0,5.359923806083E-1,-1.6E1));
#387=CARTESIAN_POINT('',(4.806261423701E0,0.E0,-1.6E1));
#388=CARTESIAN_POINT('',(4.787477152598E0,-5.359923806083E-1,-1.6E1));
#389=CARTESIAN_POINT('',(4.707282727745E0,-1.275722862309E0,-1.6E1));
#390=CARTESIAN_POINT('',(4.495056213295E0,-2.215207053268E0,-1.6E1));
#391=CARTESIAN_POINT('',(4.047950186781E0,-3.302755307038E0,-1.6E1));
#392=CARTESIAN_POINT('',(3.418613762677E0,-4.273322840444E0,-1.6E1));
#393=CARTESIAN_POINT('',(2.642270060683E0,-5.059797453900E0,-1.6E1));
#394=CARTESIAN_POINT('',(1.481839169215E0,-5.805835179134E0,-1.6E1));
#395=CARTESIAN_POINT('',(5.656854249492E-1,-6.E0,-1.6E1));
#396=CARTESIAN_POINT('',(0.E0,-6.E0,-1.6E1));
#398=CARTESIAN_POINT('',(0.E0,-6.E0,-1.6E1));
#399=CARTESIAN_POINT('',(-5.656854249492E-1,-6.E0,-1.6E1));
#400=CARTESIAN_POINT('',(-1.481839169215E0,-5.805835179134E0,-1.6E1));
#401=CARTESIAN_POINT('',(-2.642270060683E0,-5.059797453900E0,-1.6E1));
#402=CARTESIAN_POINT('',(-3.418613762677E0,-4.273322840444E0,-1.6E1));
#403=CARTESIAN_POINT('',(-4.047950186781E0,-3.302755307038E0,-1.6E1));
#404=CARTESIAN_POINT('',(-4.495056213295E0,-2.215207053268E0,-1.6E1));
#405=CARTESIAN_POINT('',(-4.707282727745E0,-1.275722862309E0,-1.6E1));
#406=CARTESIAN_POINT('',(-4.787477152598E0,-5.359923806083E-1,-1.6E1));
#407=CARTESIAN_POINT('',(-4.806261423701E0,0.E0,-1.6E1));
#408=CARTESIAN_POINT('',(-4.787477152598E0,5.359923806083E-1,-1.6E1));
#409=CARTESIAN_POINT('',(-4.707282727745E0,1.275722862309E0,-1.6E1));
#410=CARTESIAN_POINT('',(-4.495056213295E0,2.215207053268E0,-1.6E1));
#411=CARTESIAN_POINT('',(-4.047950186781E0,3.302755307038E0,-1.6E1));
#412=CARTESIAN_POINT('',(-3.418613762677E0,4.273322840444E0,-1.6E1));
#413=CARTESIAN_POINT('',(-2.642270060683E0,5.059797453900E0,-1.6E1));
#414=CARTESIAN_POINT('',(-1.481839169215E0,5.805835179134E0,-1.6E1));
#415=CARTESIAN_POINT('',(-5.656854249492E-1,6.E0,-1.6E1));
#416=CARTESIAN_POINT('',(0.E0,6.E0,-1.6E1));
#418=CARTESIAN_POINT('',(0.E0,0.E0,-1.55E1));
#419=DIRECTION('',(0.E0,0.E0,1.E0));
#420=DIRECTION('',(1.E0,7.694989798398E-14,0.E0));
#421=AXIS2_PLACEMENT_3D('',#418,#419,#420);
#423=CARTESIAN_POINT('',(0.E0,0.E0,-1.55E1));
#424=DIRECTION('',(0.E0,0.E0,1.E0));
#425=DIRECTION('',(9.999607102373E-1,8.864422242094E-3,0.E0));
#426=AXIS2_PLACEMENT_3D('',#423,#424,#425);
#428=CARTESIAN_POINT('',(-6.6E0,0.E0,-1.55E1));
#429=DIRECTION('',(0.E0,-1.E0,0.E0));
#430=DIRECTION('',(-1.E0,0.E0,0.E0));
#431=AXIS2_PLACEMENT_3D('',#428,#429,#430);
#433=DIRECTION('',(0.E0,4.594138602486E-14,1.E0));
#434=VECTOR('',#433,2.E0);
#435=CARTESIAN_POINT('',(7.1E0,2.724921262405E-13,-1.55E1));
#436=LINE('',#435,#434);
#437=DIRECTION('',(0.E0,0.E0,-1.E0));
#438=VECTOR('',#437,1.5E0);
#439=CARTESIAN_POINT('',(0.E0,6.E0,-1.6E1));
#440=LINE('',#439,#438);
#441=DIRECTION('',(0.E0,0.E0,-1.E0));
#442=VECTOR('',#441,1.5E0);
#443=CARTESIAN_POINT('',(0.E0,-6.E0,-1.6E1));
#444=LINE('',#443,#442);
#445=CARTESIAN_POINT('',(0.E0,-6.E0,-1.75E1));
#446=CARTESIAN_POINT('',(5.656854249492E-1,-6.E0,-1.75E1));
#447=CARTESIAN_POINT('',(1.481839169215E0,-5.805835179134E0,-1.75E1));
#448=CARTESIAN_POINT('',(2.642270060683E0,-5.059797453900E0,-1.75E1));
#449=CARTESIAN_POINT('',(3.418613762677E0,-4.273322840444E0,-1.75E1));
#450=CARTESIAN_POINT('',(4.047950186781E0,-3.302755307038E0,-1.75E1));
#451=CARTESIAN_POINT('',(4.495056213295E0,-2.215207053268E0,-1.75E1));
#452=CARTESIAN_POINT('',(4.707282727745E0,-1.275722862309E0,-1.75E1));
#453=CARTESIAN_POINT('',(4.787477152598E0,-5.359923806083E-1,-1.75E1));
#454=CARTESIAN_POINT('',(4.806261423701E0,0.E0,-1.75E1));
#455=CARTESIAN_POINT('',(4.787477152598E0,5.359923806083E-1,-1.75E1));
#456=CARTESIAN_POINT('',(4.707282727745E0,1.275722862309E0,-1.75E1));
#457=CARTESIAN_POINT('',(4.495056213295E0,2.215207053268E0,-1.75E1));
#458=CARTESIAN_POINT('',(4.047950186781E0,3.302755307038E0,-1.75E1));
#459=CARTESIAN_POINT('',(3.418613762677E0,4.273322840444E0,-1.75E1));
#460=CARTESIAN_POINT('',(2.642270060683E0,5.059797453900E0,-1.75E1));
#461=CARTESIAN_POINT('',(1.481839169215E0,5.805835179134E0,-1.75E1));
#462=CARTESIAN_POINT('',(5.656854249492E-1,6.E0,-1.75E1));
#463=CARTESIAN_POINT('',(0.E0,6.E0,-1.75E1));
#465=CARTESIAN_POINT('',(0.E0,6.E0,-1.75E1));
#466=CARTESIAN_POINT('',(-5.656854249492E-1,6.E0,-1.75E1));
#467=CARTESIAN_POINT('',(-1.481839169215E0,5.805835179134E0,-1.75E1));
#468=CARTESIAN_POINT('',(-2.642270060683E0,5.059797453900E0,-1.75E1));
#469=CARTESIAN_POINT('',(-3.418613762677E0,4.273322840444E0,-1.75E1));
#470=CARTESIAN_POINT('',(-4.047950186781E0,3.302755307038E0,-1.75E1));
#471=CARTESIAN_POINT('',(-4.495056213295E0,2.215207053268E0,-1.75E1));
#472=CARTESIAN_POINT('',(-4.707282727745E0,1.275722862309E0,-1.75E1));
#473=CARTESIAN_POINT('',(-4.787477152598E0,5.359923806083E-1,-1.75E1));
#474=CARTESIAN_POINT('',(-4.806261423701E0,0.E0,-1.75E1));
#475=CARTESIAN_POINT('',(-4.787477152598E0,-5.359923806083E-1,-1.75E1));
#476=CARTESIAN_POINT('',(-4.707282727745E0,-1.275722862309E0,-1.75E1));
#477=CARTESIAN_POINT('',(-4.495056213295E0,-2.215207053268E0,-1.75E1));
#478=CARTESIAN_POINT('',(-4.047950186781E0,-3.302755307038E0,-1.75E1));
#479=CARTESIAN_POINT('',(-3.418613762677E0,-4.273322840444E0,-1.75E1));
#480=CARTESIAN_POINT('',(-2.642270060683E0,-5.059797453900E0,-1.75E1));
#481=CARTESIAN_POINT('',(-1.481839169215E0,-5.805835179134E0,-1.75E1));
#482=CARTESIAN_POINT('',(-5.656854249492E-1,-6.E0,-1.75E1));
#483=CARTESIAN_POINT('',(0.E0,-6.E0,-1.75E1));
#485=CARTESIAN_POINT('',(0.E0,0.E0,-1.75E1));
#486=DIRECTION('',(0.E0,0.E0,-1.E0));
#487=DIRECTION('',(1.E0,0.E0,0.E0));
#488=AXIS2_PLACEMENT_3D('',#485,#486,#487);
#490=CARTESIAN_POINT('',(0.E0,0.E0,-1.75E1));
#491=DIRECTION('',(0.E0,0.E0,-1.E0));
#492=DIRECTION('',(-1.E0,0.E0,0.E0));
#493=AXIS2_PLACEMENT_3D('',#490,#491,#492);
#495=DIRECTION('',(0.E0,0.E0,-1.E0));
#496=VECTOR('',#495,3.5E1);
#497=CARTESIAN_POINT('',(-3.25E0,0.E0,1.75E1));
#498=LINE('',#497,#496);
#499=DIRECTION('',(0.E0,0.E0,-1.E0));
#500=VECTOR('',#499,3.5E1);
#501=CARTESIAN_POINT('',(3.25E0,0.E0,1.75E1));
#502=LINE('',#501,#500);
#503=DIRECTION('',(0.E0,0.E0,1.E0));
#504=VECTOR('',#503,1.5E0);
#505=CARTESIAN_POINT('',(0.E0,6.E0,1.6E1));
#506=LINE('',#505,#504);
#507=VERTEX_POINT('',#1);
#508=VERTEX_POINT('',#19);
#509=CARTESIAN_POINT('',(3.25E0,0.E0,1.75E1));
#510=CARTESIAN_POINT('',(-3.25E0,0.E0,1.75E1));
#511=VERTEX_POINT('',#509);
#512=VERTEX_POINT('',#510);
#513=VERTEX_POINT('',#65);
#514=VERTEX_POINT('',#83);
#515=CARTESIAN_POINT('',(6.599999684651E0,-2.040247672804E-3,1.6E1));
#516=CARTESIAN_POINT('',(-6.599735293255E0,-5.911056555875E-2,1.6E1));
#517=VERTEX_POINT('',#515);
#518=VERTEX_POINT('',#516);
#519=CARTESIAN_POINT('',(-6.599999684651E0,2.040247672804E-3,1.6E1));
#520=VERTEX_POINT('',#519);
#521=CARTESIAN_POINT('',(6.599735293255E0,5.911056555875E-2,1.6E1));
#522=VERTEX_POINT('',#521);
#523=CARTESIAN_POINT('',(7.1E0,4.225934241741E-12,1.55E1));
#524=CARTESIAN_POINT('',(-7.099693486646E0,-6.597268886803E-2,1.55E1));
#525=VERTEX_POINT('',#523);
#526=VERTEX_POINT('',#524);
#527=CARTESIAN_POINT('',(-7.1E0,0.E0,1.55E1));
#528=VERTEX_POINT('',#527);
#529=CARTESIAN_POINT('',(7.1E0,3.140461572651E-12,1.35E1));
#530=VERTEX_POINT('',#529);
#531=CARTESIAN_POINT('',(-7.1E0,0.E0,1.35E1));
#532=VERTEX_POINT('',#531);
#533=CARTESIAN_POINT('',(7.099693486646E0,6.597268886802E-2,1.55E1));
#534=VERTEX_POINT('',#533);
#535=CARTESIAN_POINT('',(7.5E0,0.E0,1.35E1));
#536=CARTESIAN_POINT('',(-7.5E0,0.E0,1.35E1));
#537=VERTEX_POINT('',#535);
#538=VERTEX_POINT('',#536);
#539=CARTESIAN_POINT('',(-7.5E0,0.E0,9.E0));
#540=VERTEX_POINT('',#539);
#541=CARTESIAN_POINT('',(7.5E0,0.E0,9.E0));
#542=VERTEX_POINT('',#541);
#543=CARTESIAN_POINT('',(7.1E0,0.E0,9.E0));
#544=CARTESIAN_POINT('',(-7.1E0,0.E0,9.E0));
#545=VERTEX_POINT('',#543);
#546=VERTEX_POINT('',#544);
#547=CARTESIAN_POINT('',(-7.1E0,0.E0,4.5E0));
#548=VERTEX_POINT('',#547);
#549=CARTESIAN_POINT('',(7.1E0,0.E0,4.5E0));
#550=VERTEX_POINT('',#549);
#551=CARTESIAN_POINT('',(-6.E0,0.E0,4.E0));
#552=VERTEX_POINT('',#551);
#553=CARTESIAN_POINT('',(6.E0,0.E0,4.E0));
#554=VERTEX_POINT('',#553);
#555=CARTESIAN_POINT('',(4.75E0,0.E0,4.E0));
#556=CARTESIAN_POINT('',(-4.75E0,0.E0,4.E0));
#557=VERTEX_POINT('',#555);
#558=VERTEX_POINT('',#556);
#559=CARTESIAN_POINT('',(-4.75E0,0.E0,-4.E0));
#560=VERTEX_POINT('',#559);
#561=CARTESIAN_POINT('',(4.75E0,0.E0,-4.E0));
#562=VERTEX_POINT('',#561);
#563=CARTESIAN_POINT('',(6.E0,0.E0,-4.E0));
#564=CARTESIAN_POINT('',(-6.E0,0.E0,-4.E0));
#565=VERTEX_POINT('',#563);
#566=VERTEX_POINT('',#564);
#567=CARTESIAN_POINT('',(-7.1E0,0.E0,-4.5E0));
#568=VERTEX_POINT('',#567);
#569=CARTESIAN_POINT('',(7.1E0,0.E0,-4.5E0));
#570=VERTEX_POINT('',#569);
#571=CARTESIAN_POINT('',(-7.1E0,0.E0,-9.E0));
#572=VERTEX_POINT('',#571);
#573=CARTESIAN_POINT('',(7.1E0,0.E0,-9.E0));
#574=VERTEX_POINT('',#573);
#575=CARTESIAN_POINT('',(7.5E0,0.E0,-9.E0));
#576=CARTESIAN_POINT('',(-7.5E0,0.E0,-9.E0));
#577=VERTEX_POINT('',#575);
#578=VERTEX_POINT('',#576);
#579=CARTESIAN_POINT('',(-7.5E0,0.E0,-1.35E1));
#580=VERTEX_POINT('',#579);
#581=CARTESIAN_POINT('',(7.5E0,0.E0,-1.35E1));
#582=VERTEX_POINT('',#581);
#583=CARTESIAN_POINT('',(7.1E0,0.E0,-1.35E1));
#584=CARTESIAN_POINT('',(-7.1E0,0.E0,-1.35E1));
#585=VERTEX_POINT('',#583);
#586=VERTEX_POINT('',#584);
#587=CARTESIAN_POINT('',(-7.099721042685E0,-6.293739791887E-2,-1.55E1));
#588=CARTESIAN_POINT('',(7.1E0,5.463546282058E-13,-1.55E1));
#589=VERTEX_POINT('',#587);
#590=VERTEX_POINT('',#588);
#591=CARTESIAN_POINT('',(-7.1E0,0.E0,-1.55E1));
#592=VERTEX_POINT('',#591);
#593=CARTESIAN_POINT('',(-6.6E0,0.E0,-1.6E1));
#594=CARTESIAN_POINT('',(6.6E0,0.E0,-1.6E1));
#595=VERTEX_POINT('',#593);
#596=VERTEX_POINT('',#594);
#597=VERTEX_POINT('',#378);
#598=VERTEX_POINT('',#396);
#599=CARTESIAN_POINT('',(7.099721042685E0,6.293739791887E-2,-1.55E1));
#600=VERTEX_POINT('',#599);
#601=CARTESIAN_POINT('',(0.E0,-6.E0,-1.75E1));
#602=VERTEX_POINT('',#601);
#603=CARTESIAN_POINT('',(0.E0,6.E0,-1.75E1));
#604=VERTEX_POINT('',#603);
#605=CARTESIAN_POINT('',(3.25E0,0.E0,-1.75E1));
#606=CARTESIAN_POINT('',(-3.25E0,0.E0,-1.75E1));
#607=VERTEX_POINT('',#605);
#608=VERTEX_POINT('',#606);
#609=CARTESIAN_POINT('',(0.E0,0.E0,1.75E1));
#610=DIRECTION('',(0.E0,0.E0,-1.E0));
#611=DIRECTION('',(-1.E0,0.E0,0.E0));
#612=AXIS2_PLACEMENT_3D('',#609,#610,#611);
#613=PLANE('',#612);
#615=ORIENTED_EDGE('',*,*,#614,.T.);
#617=ORIENTED_EDGE('',*,*,#616,.T.);
#618=EDGE_LOOP('',(#615,#617));
#619=FACE_OUTER_BOUND('',#618,.F.);
#621=ORIENTED_EDGE('',*,*,#620,.T.);
#623=ORIENTED_EDGE('',*,*,#622,.T.);
#624=EDGE_LOOP('',(#621,#623));
#625=FACE_BOUND('',#624,.F.);
#626=ADVANCED_FACE('',(#619,#625),#613,.F.);
#627=CARTESIAN_POINT('',(0.E0,0.E0,1.75E1));
#628=DIRECTION('',(0.E0,0.E0,1.E0));
#629=DIRECTION('',(0.E0,-1.E0,0.E0));
#630=AXIS2_PLACEMENT_3D('',#627,#628,#629);
#633=DIRECTION('',(0.E0,0.E0,1.E0));
#634=VECTOR('',#633,1.E0);
#635=SURFACE_OF_LINEAR_EXTRUSION('',#632,#634);
#637=ORIENTED_EDGE('',*,*,#636,.F.);
#639=ORIENTED_EDGE('',*,*,#638,.T.);
#640=ORIENTED_EDGE('',*,*,#614,.F.);
#642=ORIENTED_EDGE('',*,*,#641,.F.);
#643=EDGE_LOOP('',(#637,#639,#640,#642));
#644=FACE_OUTER_BOUND('',#643,.F.);
#645=ADVANCED_FACE('',(#644),#635,.T.);
#646=CARTESIAN_POINT('',(0.E0,0.E0,1.6E1));
#647=DIRECTION('',(0.E0,0.E0,-1.E0));
#648=DIRECTION('',(-1.E0,0.E0,0.E0));
#649=AXIS2_PLACEMENT_3D('',#646,#647,#648);
#650=PLANE('',#649);
#652=ORIENTED_EDGE('',*,*,#651,.T.);
#654=ORIENTED_EDGE('',*,*,#653,.F.);
#656=ORIENTED_EDGE('',*,*,#655,.T.);
#658=ORIENTED_EDGE('',*,*,#657,.F.);
#659=EDGE_LOOP('',(#652,#654,#656,#658));
#660=FACE_OUTER_BOUND('',#659,.F.);
#661=ORIENTED_EDGE('',*,*,#636,.T.);
#663=ORIENTED_EDGE('',*,*,#662,.T.);
#664=EDGE_LOOP('',(#661,#663));
#665=FACE_BOUND('',#664,.F.);
#666=ADVANCED_FACE('',(#660,#665),#650,.F.);
#667=CARTESIAN_POINT('',(0.E0,0.E0,1.55E1));
#668=DIRECTION('',(0.E0,0.E0,-1.E0));
#669=DIRECTION('',(9.999568291051E-1,9.291928009581E-3,0.E0));
#670=AXIS2_PLACEMENT_3D('',#667,#668,#669);
#671=TOROIDAL_SURFACE('',#670,6.6E0,5.E-1);
#673=ORIENTED_EDGE('',*,*,#672,.T.);
#675=ORIENTED_EDGE('',*,*,#674,.T.);
#677=ORIENTED_EDGE('',*,*,#676,.F.);
#678=ORIENTED_EDGE('',*,*,#653,.T.);
#679=ORIENTED_EDGE('',*,*,#651,.F.);
#681=ORIENTED_EDGE('',*,*,#680,.T.);
#682=EDGE_LOOP('',(#673,#675,#677,#678,#679,#681));
#683=FACE_OUTER_BOUND('',#682,.F.);
#684=ADVANCED_FACE('',(#683),#671,.T.);
#685=CARTESIAN_POINT('',(0.E0,0.E0,1.925E1));
#686=DIRECTION('',(0.E0,0.E0,-1.E0));
#687=DIRECTION('',(-1.E0,0.E0,0.E0));
#688=AXIS2_PLACEMENT_3D('',#685,#686,#687);
#689=CYLINDRICAL_SURFACE('',#688,7.1E0);
#690=ORIENTED_EDGE('',*,*,#674,.F.);
#691=ORIENTED_EDGE('',*,*,#672,.F.);
#693=ORIENTED_EDGE('',*,*,#692,.F.);
#695=ORIENTED_EDGE('',*,*,#694,.F.);
#697=ORIENTED_EDGE('',*,*,#696,.T.);
#698=EDGE_LOOP('',(#690,#691,#693,#695,#697));
#699=FACE_OUTER_BOUND('',#698,.F.);
#700=ADVANCED_FACE('',(#699),#689,.T.);
#701=CARTESIAN_POINT('',(0.E0,0.E0,1.925E1));
#702=DIRECTION('',(0.E0,0.E0,-1.E0));
#703=DIRECTION('',(-1.E0,0.E0,0.E0));
#704=AXIS2_PLACEMENT_3D('',#701,#702,#703);
#705=CYLINDRICAL_SURFACE('',#704,7.1E0);
#707=ORIENTED_EDGE('',*,*,#706,.F.);
#709=ORIENTED_EDGE('',*,*,#708,.F.);
#710=ORIENTED_EDGE('',*,*,#696,.F.);
#712=ORIENTED_EDGE('',*,*,#711,.F.);
#713=ORIENTED_EDGE('',*,*,#692,.T.);
#714=EDGE_LOOP('',(#707,#709,#710,#712,#713));
#715=FACE_OUTER_BOUND('',#714,.F.);
#716=ADVANCED_FACE('',(#715),#705,.T.);
#717=CARTESIAN_POINT('',(0.E0,0.E0,1.55E1));
#718=DIRECTION('',(0.E0,0.E0,-1.E0));
#719=DIRECTION('',(-9.999568291051E-1,-9.291928009581E-3,0.E0));
#720=AXIS2_PLACEMENT_3D('',#717,#718,#719);
#721=TOROIDAL_SURFACE('',#720,6.6E0,5.E-1);
#722=ORIENTED_EDGE('',*,*,#708,.T.);
#723=ORIENTED_EDGE('',*,*,#706,.T.);
#724=ORIENTED_EDGE('',*,*,#680,.F.);
#725=ORIENTED_EDGE('',*,*,#657,.T.);
#726=ORIENTED_EDGE('',*,*,#655,.F.);
#727=ORIENTED_EDGE('',*,*,#676,.T.);
#728=EDGE_LOOP('',(#722,#723,#724,#725,#726,#727));
#729=FACE_OUTER_BOUND('',#728,.F.);
#730=ADVANCED_FACE('',(#729),#721,.T.);
#731=CARTESIAN_POINT('',(0.E0,0.E0,1.35E1));
#732=DIRECTION('',(0.E0,0.E0,-1.E0));
#733=DIRECTION('',(-1.E0,0.E0,0.E0));
#734=AXIS2_PLACEMENT_3D('',#731,#732,#733);
#735=PLANE('',#734);
#737=ORIENTED_EDGE('',*,*,#736,.T.);
#739=ORIENTED_EDGE('',*,*,#738,.T.);
#740=EDGE_LOOP('',(#737,#739));
#741=FACE_OUTER_BOUND('',#740,.F.);
#742=ORIENTED_EDGE('',*,*,#711,.T.);
#743=ORIENTED_EDGE('',*,*,#694,.T.);
#744=EDGE_LOOP('',(#742,#743));
#745=FACE_BOUND('',#744,.F.);
#746=ADVANCED_FACE('',(#741,#745),#735,.F.);
#747=CARTESIAN_POINT('',(0.E0,0.E0,1.925E1));
#748=DIRECTION('',(0.E0,0.E0,-1.E0));
#749=DIRECTION('',(-1.E0,0.E0,0.E0));
#750=AXIS2_PLACEMENT_3D('',#747,#748,#749);
#751=CYLINDRICAL_SURFACE('',#750,7.5E0);
#753=ORIENTED_EDGE('',*,*,#752,.T.);
#754=ORIENTED_EDGE('',*,*,#736,.F.);
#756=ORIENTED_EDGE('',*,*,#755,.F.);
#758=ORIENTED_EDGE('',*,*,#757,.F.);
#759=EDGE_LOOP('',(#753,#754,#756,#758));
#760=FACE_OUTER_BOUND('',#759,.F.);
#761=ADVANCED_FACE('',(#760),#751,.T.);
#762=CARTESIAN_POINT('',(0.E0,0.E0,1.925E1));
#763=DIRECTION('',(0.E0,0.E0,-1.E0));
#764=DIRECTION('',(-1.E0,0.E0,0.E0));
#765=AXIS2_PLACEMENT_3D('',#762,#763,#764);
#766=CYLINDRICAL_SURFACE('',#765,7.5E0);
#767=ORIENTED_EDGE('',*,*,#752,.F.);
#769=ORIENTED_EDGE('',*,*,#768,.F.);
#770=ORIENTED_EDGE('',*,*,#755,.T.);
#771=ORIENTED_EDGE('',*,*,#738,.F.);
#772=EDGE_LOOP('',(#767,#769,#770,#771));
#773=FACE_OUTER_BOUND('',#772,.F.);
#774=ADVANCED_FACE('',(#773),#766,.T.);
#775=CARTESIAN_POINT('',(0.E0,0.E0,9.E0));
#776=DIRECTION('',(0.E0,0.E0,-1.E0));
#777=DIRECTION('',(-1.E0,0.E0,0.E0));
#778=AXIS2_PLACEMENT_3D('',#775,#776,#777);
#779=PLANE('',#778);
#780=ORIENTED_EDGE('',*,*,#768,.T.);
#781=ORIENTED_EDGE('',*,*,#757,.T.);
#782=EDGE_LOOP('',(#780,#781));
#783=FACE_OUTER_BOUND('',#782,.F.);
#785=ORIENTED_EDGE('',*,*,#784,.T.);
#787=ORIENTED_EDGE('',*,*,#786,.T.);
#788=EDGE_LOOP('',(#785,#787));
#789=FACE_BOUND('',#788,.F.);
#790=ADVANCED_FACE('',(#783,#789),#779,.T.);
#791=CARTESIAN_POINT('',(0.E0,0.E0,1.925E1));
#792=DIRECTION('',(0.E0,0.E0,-1.E0));
#793=DIRECTION('',(-1.E0,0.E0,0.E0));
#794=AXIS2_PLACEMENT_3D('',#791,#792,#793);
#795=CYLINDRICAL_SURFACE('',#794,7.1E0);
#797=ORIENTED_EDGE('',*,*,#796,.T.);
#798=ORIENTED_EDGE('',*,*,#784,.F.);
#800=ORIENTED_EDGE('',*,*,#799,.F.);
#802=ORIENTED_EDGE('',*,*,#801,.F.);
#803=EDGE_LOOP('',(#797,#798,#800,#802));
#804=FACE_OUTER_BOUND('',#803,.F.);
#805=ADVANCED_FACE('',(#804),#795,.T.);
#806=CARTESIAN_POINT('',(0.E0,0.E0,1.925E1));
#807=DIRECTION('',(0.E0,0.E0,-1.E0));
#808=DIRECTION('',(-1.E0,0.E0,0.E0));
#809=AXIS2_PLACEMENT_3D('',#806,#807,#808);
#810=CYLINDRICAL_SURFACE('',#809,7.1E0);
#811=ORIENTED_EDGE('',*,*,#796,.F.);
#813=ORIENTED_EDGE('',*,*,#812,.F.);
#814=ORIENTED_EDGE('',*,*,#799,.T.);
#815=ORIENTED_EDGE('',*,*,#786,.F.);
#816=EDGE_LOOP('',(#811,#813,#814,#815));
#817=FACE_OUTER_BOUND('',#816,.F.);
#818=ADVANCED_FACE('',(#817),#810,.T.);
#819=CARTESIAN_POINT('',(0.E0,0.E0,4.25E0));
#820=DIRECTION('',(0.E0,0.E0,1.E0));
#821=DIRECTION('',(1.E0,0.E0,0.E0));
#822=AXIS2_PLACEMENT_3D('',#819,#820,#821);
#823=CONICAL_SURFACE('',#822,6.55E0,6.555604521958E1);
#825=ORIENTED_EDGE('',*,*,#824,.F.);
#827=ORIENTED_EDGE('',*,*,#826,.F.);
#829=ORIENTED_EDGE('',*,*,#828,.T.);
#830=ORIENTED_EDGE('',*,*,#812,.T.);
#831=EDGE_LOOP('',(#825,#827,#829,#830));
#832=FACE_OUTER_BOUND('',#831,.F.);
#833=ADVANCED_FACE('',(#832),#823,.T.);
#834=CARTESIAN_POINT('',(0.E0,0.E0,4.25E0));
#835=DIRECTION('',(0.E0,0.E0,1.E0));
#836=DIRECTION('',(1.E0,0.E0,0.E0));
#837=AXIS2_PLACEMENT_3D('',#834,#835,#836);
#838=CONICAL_SURFACE('',#837,6.55E0,6.555604521958E1);
#839=ORIENTED_EDGE('',*,*,#824,.T.);
#840=ORIENTED_EDGE('',*,*,#801,.T.);
#841=ORIENTED_EDGE('',*,*,#828,.F.);
#843=ORIENTED_EDGE('',*,*,#842,.F.);
#844=EDGE_LOOP('',(#839,#840,#841,#843));
#845=FACE_OUTER_BOUND('',#844,.F.);
#846=ADVANCED_FACE('',(#845),#838,.T.);
#847=CARTESIAN_POINT('',(0.E0,0.E0,4.E0));
#848=DIRECTION('',(0.E0,0.E0,-1.E0));
#849=DIRECTION('',(-1.E0,0.E0,0.E0));
#850=AXIS2_PLACEMENT_3D('',#847,#848,#849);
#851=PLANE('',#850);
#852=ORIENTED_EDGE('',*,*,#826,.T.);
#853=ORIENTED_EDGE('',*,*,#842,.T.);
#854=EDGE_LOOP('',(#852,#853));
#855=FACE_OUTER_BOUND('',#854,.F.);
#857=ORIENTED_EDGE('',*,*,#856,.T.);
#859=ORIENTED_EDGE('',*,*,#858,.T.);
#860=EDGE_LOOP('',(#857,#859));
#861=FACE_BOUND('',#860,.F.);
#862=ADVANCED_FACE('',(#855,#861),#851,.T.);
#863=CARTESIAN_POINT('',(0.E0,0.E0,1.925E1));
#864=DIRECTION('',(0.E0,0.E0,-1.E0));
#865=DIRECTION('',(-1.E0,0.E0,0.E0));
#866=AXIS2_PLACEMENT_3D('',#863,#864,#865);
#867=CYLINDRICAL_SURFACE('',#866,4.75E0);
#869=ORIENTED_EDGE('',*,*,#868,.T.);
#870=ORIENTED_EDGE('',*,*,#856,.F.);
#872=ORIENTED_EDGE('',*,*,#871,.F.);
#874=ORIENTED_EDGE('',*,*,#873,.F.);
#875=EDGE_LOOP('',(#869,#870,#872,#874));
#876=FACE_OUTER_BOUND('',#875,.F.);
#877=ADVANCED_FACE('',(#876),#867,.T.);
#878=CARTESIAN_POINT('',(0.E0,0.E0,1.925E1));
#879=DIRECTION('',(0.E0,0.E0,-1.E0));
#880=DIRECTION('',(-1.E0,0.E0,0.E0));
#881=AXIS2_PLACEMENT_3D('',#878,#879,#880);
#882=CYLINDRICAL_SURFACE('',#881,4.75E0);
#883=ORIENTED_EDGE('',*,*,#868,.F.);
#885=ORIENTED_EDGE('',*,*,#884,.F.);
#886=ORIENTED_EDGE('',*,*,#871,.T.);
#887=ORIENTED_EDGE('',*,*,#858,.F.);
#888=EDGE_LOOP('',(#883,#885,#886,#887));
#889=FACE_OUTER_BOUND('',#888,.F.);
#890=ADVANCED_FACE('',(#889),#882,.T.);
#891=CARTESIAN_POINT('',(0.E0,0.E0,-4.E0));
#892=DIRECTION('',(0.E0,0.E0,-1.E0));
#893=DIRECTION('',(-1.E0,0.E0,0.E0));
#894=AXIS2_PLACEMENT_3D('',#891,#892,#893);
#895=PLANE('',#894);
#897=ORIENTED_EDGE('',*,*,#896,.T.);
#899=ORIENTED_EDGE('',*,*,#898,.T.);
#900=EDGE_LOOP('',(#897,#899));
#901=FACE_OUTER_BOUND('',#900,.F.);
#902=ORIENTED_EDGE('',*,*,#884,.T.);
#903=ORIENTED_EDGE('',*,*,#873,.T.);
#904=EDGE_LOOP('',(#902,#903));
#905=FACE_BOUND('',#904,.F.);
#906=ADVANCED_FACE('',(#901,#905),#895,.F.);
#907=CARTESIAN_POINT('',(0.E0,0.E0,-4.25E0));
#908=DIRECTION('',(0.E0,0.E0,-1.E0));
#909=DIRECTION('',(-1.E0,0.E0,0.E0));
#910=AXIS2_PLACEMENT_3D('',#907,#908,#909);
#911=CONICAL_SURFACE('',#910,6.55E0,6.555604521958E1);
#913=ORIENTED_EDGE('',*,*,#912,.T.);
#914=ORIENTED_EDGE('',*,*,#896,.F.);
#916=ORIENTED_EDGE('',*,*,#915,.F.);
#918=ORIENTED_EDGE('',*,*,#917,.T.);
#919=EDGE_LOOP('',(#913,#914,#916,#918));
#920=FACE_OUTER_BOUND('',#919,.F.);
#921=ADVANCED_FACE('',(#920),#911,.T.);
#922=CARTESIAN_POINT('',(0.E0,0.E0,-4.25E0));
#923=DIRECTION('',(0.E0,0.E0,-1.E0));
#924=DIRECTION('',(-1.E0,0.E0,0.E0));
#925=AXIS2_PLACEMENT_3D('',#922,#923,#924);
#926=CONICAL_SURFACE('',#925,6.55E0,6.555604521958E1);
#927=ORIENTED_EDGE('',*,*,#912,.F.);
#929=ORIENTED_EDGE('',*,*,#928,.T.);
#930=ORIENTED_EDGE('',*,*,#915,.T.);
#931=ORIENTED_EDGE('',*,*,#898,.F.);
#932=EDGE_LOOP('',(#927,#929,#930,#931));
#933=FACE_OUTER_BOUND('',#932,.F.);
#934=ADVANCED_FACE('',(#933),#926,.T.);
#935=CARTESIAN_POINT('',(0.E0,0.E0,1.925E1));
#936=DIRECTION('',(0.E0,0.E0,-1.E0));
#937=DIRECTION('',(-1.E0,0.E0,0.E0));
#938=AXIS2_PLACEMENT_3D('',#935,#936,#937);
#939=CYLINDRICAL_SURFACE('',#938,7.1E0);
#941=ORIENTED_EDGE('',*,*,#940,.F.);
#943=ORIENTED_EDGE('',*,*,#942,.F.);
#945=ORIENTED_EDGE('',*,*,#944,.T.);
#946=ORIENTED_EDGE('',*,*,#928,.F.);
#947=EDGE_LOOP('',(#941,#943,#945,#946));
#948=FACE_OUTER_BOUND('',#947,.F.);
#949=ADVANCED_FACE('',(#948),#939,.T.);
#950=CARTESIAN_POINT('',(0.E0,0.E0,1.925E1));
#951=DIRECTION('',(0.E0,0.E0,-1.E0));
#952=DIRECTION('',(-1.E0,0.E0,0.E0));
#953=AXIS2_PLACEMENT_3D('',#950,#951,#952);
#954=CYLINDRICAL_SURFACE('',#953,7.1E0);
#955=ORIENTED_EDGE('',*,*,#940,.T.);
#956=ORIENTED_EDGE('',*,*,#917,.F.);
#957=ORIENTED_EDGE('',*,*,#944,.F.);
#959=ORIENTED_EDGE('',*,*,#958,.F.);
#960=EDGE_LOOP('',(#955,#956,#957,#959));
#961=FACE_OUTER_BOUND('',#960,.F.);
#962=ADVANCED_FACE('',(#961),#954,.T.);
#963=CARTESIAN_POINT('',(0.E0,0.E0,-9.E0));
#964=DIRECTION('',(0.E0,0.E0,-1.E0));
#965=DIRECTION('',(-1.E0,0.E0,0.E0));
#966=AXIS2_PLACEMENT_3D('',#963,#964,#965);
#967=PLANE('',#966);
#969=ORIENTED_EDGE('',*,*,#968,.T.);
#971=ORIENTED_EDGE('',*,*,#970,.T.);
#972=EDGE_LOOP('',(#969,#971));
#973=FACE_OUTER_BOUND('',#972,.F.);
#974=ORIENTED_EDGE('',*,*,#942,.T.);
#975=ORIENTED_EDGE('',*,*,#958,.T.);
#976=EDGE_LOOP('',(#974,#975));
#977=FACE_BOUND('',#976,.F.);
#978=ADVANCED_FACE('',(#973,#977),#967,.F.);
#979=CARTESIAN_POINT('',(0.E0,0.E0,1.925E1));
#980=DIRECTION('',(0.E0,0.E0,-1.E0));
#981=DIRECTION('',(-1.E0,0.E0,0.E0));
#982=AXIS2_PLACEMENT_3D('',#979,#980,#981);
#983=CYLINDRICAL_SURFACE('',#982,7.5E0);
#985=ORIENTED_EDGE('',*,*,#984,.T.);
#986=ORIENTED_EDGE('',*,*,#968,.F.);
#988=ORIENTED_EDGE('',*,*,#987,.F.);
#990=ORIENTED_EDGE('',*,*,#989,.F.);
#991=EDGE_LOOP('',(#985,#986,#988,#990));
#992=FACE_OUTER_BOUND('',#991,.F.);
#993=ADVANCED_FACE('',(#992),#983,.T.);
#994=CARTESIAN_POINT('',(0.E0,0.E0,1.925E1));
#995=DIRECTION('',(0.E0,0.E0,-1.E0));
#996=DIRECTION('',(-1.E0,0.E0,0.E0));
#997=AXIS2_PLACEMENT_3D('',#994,#995,#996);
#998=CYLINDRICAL_SURFACE('',#997,7.5E0);
#999=ORIENTED_EDGE('',*,*,#984,.F.);
#1001=ORIENTED_EDGE('',*,*,#1000,.F.);
#1002=ORIENTED_EDGE('',*,*,#987,.T.);
#1003=ORIENTED_EDGE('',*,*,#970,.F.);
#1004=EDGE_LOOP('',(#999,#1001,#1002,#1003));
#1005=FACE_OUTER_BOUND('',#1004,.F.);
#1006=ADVANCED_FACE('',(#1005),#998,.T.);
#1007=CARTESIAN_POINT('',(0.E0,0.E0,-1.35E1));
#1008=DIRECTION('',(0.E0,0.E0,-1.E0));
#1009=DIRECTION('',(-1.E0,0.E0,0.E0));
#1010=AXIS2_PLACEMENT_3D('',#1007,#1008,#1009);
#1011=PLANE('',#1010);
#1012=ORIENTED_EDGE('',*,*,#1000,.T.);
#1013=ORIENTED_EDGE('',*,*,#989,.T.);
#1014=EDGE_LOOP('',(#1012,#1013));
#1015=FACE_OUTER_BOUND('',#1014,.F.);
#1017=ORIENTED_EDGE('',*,*,#1016,.T.);
#1019=ORIENTED_EDGE('',*,*,#1018,.T.);
#1020=EDGE_LOOP('',(#1017,#1019));
#1021=FACE_BOUND('',#1020,.F.);
#1022=ADVANCED_FACE('',(#1015,#1021),#1011,.T.);
#1023=CARTESIAN_POINT('',(0.E0,0.E0,1.925E1));
#1024=DIRECTION('',(0.E0,0.E0,-1.E0));
#1025=DIRECTION('',(-1.E0,0.E0,0.E0));
#1026=AXIS2_PLACEMENT_3D('',#1023,#1024,#1025);
#1027=CYLINDRICAL_SURFACE('',#1026,7.1E0);
#1029=ORIENTED_EDGE('',*,*,#1028,.F.);
#1031=ORIENTED_EDGE('',*,*,#1030,.F.);
#1033=ORIENTED_EDGE('',*,*,#1032,.T.);
#1034=ORIENTED_EDGE('',*,*,#1016,.F.);
#1036=ORIENTED_EDGE('',*,*,#1035,.F.);
#1037=EDGE_LOOP('',(#1029,#1031,#1033,#1034,#1036));
#1038=FACE_OUTER_BOUND('',#1037,.F.);
#1039=ADVANCED_FACE('',(#1038),#1027,.T.);
#1040=CARTESIAN_POINT('',(0.E0,0.E0,-1.55E1));
#1041=DIRECTION('',(0.E0,0.E0,-1.E0));
#1042=DIRECTION('',(9.999607102373E-1,8.864422242093E-3,0.E0));
#1043=AXIS2_PLACEMENT_3D('',#1040,#1041,#1042);
#1044=TOROIDAL_SURFACE('',#1043,6.6E0,5.E-1);
#1046=ORIENTED_EDGE('',*,*,#1045,.F.);
#1048=ORIENTED_EDGE('',*,*,#1047,.F.);
#1049=ORIENTED_EDGE('',*,*,#1030,.T.);
#1050=ORIENTED_EDGE('',*,*,#1028,.T.);
#1052=ORIENTED_EDGE('',*,*,#1051,.T.);
#1053=EDGE_LOOP('',(#1046,#1048,#1049,#1050,#1052));
#1054=FACE_OUTER_BOUND('',#1053,.F.);
#1055=ADVANCED_FACE('',(#1054),#1044,.T.);
#1056=CARTESIAN_POINT('',(0.E0,0.E0,-1.6E1));
#1057=DIRECTION('',(0.E0,0.E0,-1.E0));
#1058=DIRECTION('',(-1.E0,0.E0,0.E0));
#1059=AXIS2_PLACEMENT_3D('',#1056,#1057,#1058);
#1060=PLANE('',#1059);
#1061=ORIENTED_EDGE('',*,*,#1045,.T.);
#1063=ORIENTED_EDGE('',*,*,#1062,.T.);
#1064=EDGE_LOOP('',(#1061,#1063));
#1065=FACE_OUTER_BOUND('',#1064,.F.);
#1067=ORIENTED_EDGE('',*,*,#1066,.T.);
#1069=ORIENTED_EDGE('',*,*,#1068,.T.);
#1070=EDGE_LOOP('',(#1067,#1069));
#1071=FACE_BOUND('',#1070,.F.);
#1072=ADVANCED_FACE('',(#1065,#1071),#1060,.T.);
#1073=CARTESIAN_POINT('',(0.E0,0.E0,-1.55E1));
#1074=DIRECTION('',(0.E0,0.E0,-1.E0));
#1075=DIRECTION('',(-9.999607102373E-1,-8.864422242093E-3,0.E0));
#1076=AXIS2_PLACEMENT_3D('',#1073,#1074,#1075);
#1077=TOROIDAL_SURFACE('',#1076,6.6E0,5.E-1);
#1078=ORIENTED_EDGE('',*,*,#1062,.F.);
#1079=ORIENTED_EDGE('',*,*,#1051,.F.);
#1081=ORIENTED_EDGE('',*,*,#1080,.T.);
#1083=ORIENTED_EDGE('',*,*,#1082,.T.);
#1084=ORIENTED_EDGE('',*,*,#1047,.T.);
#1085=EDGE_LOOP('',(#1078,#1079,#1081,#1083,#1084));
#1086=FACE_OUTER_BOUND('',#1085,.F.);
#1087=ADVANCED_FACE('',(#1086),#1077,.T.);
#1088=CARTESIAN_POINT('',(0.E0,0.E0,1.925E1));
#1089=DIRECTION('',(0.E0,0.E0,-1.E0));
#1090=DIRECTION('',(-1.E0,0.E0,0.E0));
#1091=AXIS2_PLACEMENT_3D('',#1088,#1089,#1090);
#1092=CYLINDRICAL_SURFACE('',#1091,7.1E0);
#1093=ORIENTED_EDGE('',*,*,#1082,.F.);
#1094=ORIENTED_EDGE('',*,*,#1080,.F.);
#1095=ORIENTED_EDGE('',*,*,#1035,.T.);
#1096=ORIENTED_EDGE('',*,*,#1018,.F.);
#1097=ORIENTED_EDGE('',*,*,#1032,.F.);
#1098=EDGE_LOOP('',(#1093,#1094,#1095,#1096,#1097));
#1099=FACE_OUTER_BOUND('',#1098,.F.);
#1100=ADVANCED_FACE('',(#1099),#1092,.T.);
#1101=CARTESIAN_POINT('',(0.E0,0.E0,-1.75E1));
#1102=DIRECTION('',(0.E0,0.E0,-1.E0));
#1103=DIRECTION('',(0.E0,-1.E0,0.E0));
#1104=AXIS2_PLACEMENT_3D('',#1101,#1102,#1103);
#1107=DIRECTION('',(0.E0,0.E0,1.E0));
#1108=VECTOR('',#1107,1.E0);
#1109=SURFACE_OF_LINEAR_EXTRUSION('',#1106,#1108);
#1111=ORIENTED_EDGE('',*,*,#1110,.F.);
#1112=ORIENTED_EDGE('',*,*,#1066,.F.);
#1114=ORIENTED_EDGE('',*,*,#1113,.T.);
#1116=ORIENTED_EDGE('',*,*,#1115,.F.);
#1117=EDGE_LOOP('',(#1111,#1112,#1114,#1116));
#1118=FACE_OUTER_BOUND('',#1117,.F.);
#1119=ADVANCED_FACE('',(#1118),#1109,.F.);
#1120=CARTESIAN_POINT('',(0.E0,0.E0,-1.75E1));
#1121=DIRECTION('',(0.E0,0.E0,-1.E0));
#1122=DIRECTION('',(0.E0,-1.E0,0.E0));
#1123=AXIS2_PLACEMENT_3D('',#1120,#1121,#1122);
#1126=DIRECTION('',(0.E0,0.E0,1.E0));
#1127=VECTOR('',#1126,1.E0);
#1128=SURFACE_OF_LINEAR_EXTRUSION('',#1125,#1127);
#1129=ORIENTED_EDGE('',*,*,#1110,.T.);
#1131=ORIENTED_EDGE('',*,*,#1130,.F.);
#1132=ORIENTED_EDGE('',*,*,#1113,.F.);
#1133=ORIENTED_EDGE('',*,*,#1068,.F.);
#1134=EDGE_LOOP('',(#1129,#1131,#1132,#1133));
#1135=FACE_OUTER_BOUND('',#1134,.F.);
#1136=ADVANCED_FACE('',(#1135),#1128,.F.);
#1137=CARTESIAN_POINT('',(0.E0,0.E0,-1.75E1));
#1138=DIRECTION('',(0.E0,0.E0,-1.E0));
#1139=DIRECTION('',(-1.E0,0.E0,0.E0));
#1140=AXIS2_PLACEMENT_3D('',#1137,#1138,#1139);
#1141=PLANE('',#1140);
#1142=ORIENTED_EDGE('',*,*,#1115,.T.);
#1143=ORIENTED_EDGE('',*,*,#1130,.T.);
#1144=EDGE_LOOP('',(#1142,#1143));
#1145=FACE_OUTER_BOUND('',#1144,.F.);
#1147=ORIENTED_EDGE('',*,*,#1146,.T.);
#1149=ORIENTED_EDGE('',*,*,#1148,.T.);
#1150=EDGE_LOOP('',(#1147,#1149));
#1151=FACE_BOUND('',#1150,.F.);
#1152=ADVANCED_FACE('',(#1145,#1151),#1141,.T.);
#1153=CARTESIAN_POINT('',(0.E0,0.E0,1.925E1));
#1154=DIRECTION('',(0.E0,0.E0,-1.E0));
#1155=DIRECTION('',(-1.E0,0.E0,0.E0));
#1156=AXIS2_PLACEMENT_3D('',#1153,#1154,#1155);
#1157=CYLINDRICAL_SURFACE('',#1156,3.25E0);
#1159=ORIENTED_EDGE('',*,*,#1158,.T.);
#1160=ORIENTED_EDGE('',*,*,#1146,.F.);
#1162=ORIENTED_EDGE('',*,*,#1161,.F.);
#1163=ORIENTED_EDGE('',*,*,#622,.F.);
#1164=EDGE_LOOP('',(#1159,#1160,#1162,#1163));
#1165=FACE_OUTER_BOUND('',#1164,.F.);
#1166=ADVANCED_FACE('',(#1165),#1157,.F.);
#1167=CARTESIAN_POINT('',(0.E0,0.E0,1.925E1));
#1168=DIRECTION('',(0.E0,0.E0,-1.E0));
#1169=DIRECTION('',(-1.E0,0.E0,0.E0));
#1170=AXIS2_PLACEMENT_3D('',#1167,#1168,#1169);
#1171=CYLINDRICAL_SURFACE('',#1170,3.25E0);
#1172=ORIENTED_EDGE('',*,*,#1158,.F.);
#1173=ORIENTED_EDGE('',*,*,#620,.F.);
#1174=ORIENTED_EDGE('',*,*,#1161,.T.);
#1175=ORIENTED_EDGE('',*,*,#1148,.F.);
#1176=EDGE_LOOP('',(#1172,#1173,#1174,#1175));
#1177=FACE_OUTER_BOUND('',#1176,.F.);
#1178=ADVANCED_FACE('',(#1177),#1171,.F.);
#1179=CARTESIAN_POINT('',(0.E0,0.E0,1.75E1));
#1180=DIRECTION('',(0.E0,0.E0,1.E0));
#1181=DIRECTION('',(0.E0,-1.E0,0.E0));
#1182=AXIS2_PLACEMENT_3D('',#1179,#1180,#1181);
#1185=DIRECTION('',(0.E0,0.E0,1.E0));
#1186=VECTOR('',#1185,1.E0);
#1187=SURFACE_OF_LINEAR_EXTRUSION('',#1184,#1186);
#1188=ORIENTED_EDGE('',*,*,#662,.F.);
#1189=ORIENTED_EDGE('',*,*,#641,.T.);
#1190=ORIENTED_EDGE('',*,*,#616,.F.);
#1191=ORIENTED_EDGE('',*,*,#638,.F.);
#1192=EDGE_LOOP('',(#1188,#1189,#1190,#1191));
#1193=FACE_OUTER_BOUND('',#1192,.F.);
#1194=ADVANCED_FACE('',(#1193),#1187,.T.);
#1195=CLOSED_SHELL('',(#626,#645,#666,#684,#700,#716,#730,#746,#761,#774,#790,
#805,#818,#833,#846,#862,#877,#890,#906,#921,#934,#949,#962,#978,#993,#1006,
#1022,#1039,#1055,#1072,#1087,#1100,#1119,#1136,#1152,#1166,#1178,#1194));
#1196=MANIFOLD_SOLID_BREP('',#1195);
#1198=DIMENSIONAL_EXPONENTS(0.E0,0.E0,0.E0,0.E0,0.E0,0.E0,0.E0);
#1200=PLANE_ANGLE_MEASURE_WITH_UNIT(PLANE_ANGLE_MEASURE(1.745329251994E-2),
#1199);
#1201=(CONVERSION_BASED_UNIT('DEGREE',#1200)NAMED_UNIT(*)PLANE_ANGLE_UNIT());
#1203=UNCERTAINTY_MEASURE_WITH_UNIT(LENGTH_MEASURE(4.092512678881E-3),#1197,
'closure',
'Maximum model space distance between geometric entities at asserted connectivities');
#1204=(GEOMETRIC_REPRESENTATION_CONTEXT(3)GLOBAL_UNCERTAINTY_ASSIGNED_CONTEXT((
#1203))GLOBAL_UNIT_ASSIGNED_CONTEXT((#1197,#1201,#1202))REPRESENTATION_CONTEXT(
'ID1','3'));
#1206=APPLICATION_CONTEXT(
'CONFIGURATION CONTROLLED 3D DESIGNS OF MECHANICAL PARTS AND ASSEMBLIES');
#1207=APPLICATION_PROTOCOL_DEFINITION('international standard',
'config_control_design',1994,#1206);
#1208=DESIGN_CONTEXT('',#1206,'design');
#1209=MECHANICAL_CONTEXT('',#1206,'mechanical');
#1210=PRODUCT('ERFEN-ZT_1_1_1','ERFEN-ZT_1_1_1','NOT SPECIFIED',(#1209));
#1211=PRODUCT_DEFINITION_FORMATION_WITH_SPECIFIED_SOURCE('1','LAST_VERSION',
#1210,.MADE.);
#1215=PRODUCT_CATEGORY('part','');
#1216=PRODUCT_RELATED_PRODUCT_CATEGORY('detail','',(#1210));
#1217=PRODUCT_CATEGORY_RELATIONSHIP('','',#1215,#1216);
#1218=SECURITY_CLASSIFICATION_LEVEL('unclassified');
#1219=SECURITY_CLASSIFICATION('','',#1218);
#1220=CC_DESIGN_SECURITY_CLASSIFICATION(#1219,(#1211));
#1221=APPROVAL_STATUS('approved');
#1222=APPROVAL(#1221,'');
#1223=CC_DESIGN_APPROVAL(#1222,(#1219,#1211,#1212));
#1224=CALENDAR_DATE(126,30,6);
#1225=COORDINATED_UNIVERSAL_TIME_OFFSET(8,0,.AHEAD.);
#1226=LOCAL_TIME(15,27,2.9E1,#1225);
#1227=DATE_AND_TIME(#1224,#1226);
#1228=APPROVAL_DATE_TIME(#1227,#1222);
#1229=DATE_TIME_ROLE('creation_date');
#1230=CC_DESIGN_DATE_AND_TIME_ASSIGNMENT(#1227,#1229,(#1212));
#1231=DATE_TIME_ROLE('classification_date');
#1232=CC_DESIGN_DATE_AND_TIME_ASSIGNMENT(#1227,#1231,(#1219));
#1233=PERSON('UNSPECIFIED','UNSPECIFIED',$,$,$,$);
#1234=ORGANIZATION('UNSPECIFIED','UNSPECIFIED','UNSPECIFIED');
#1235=PERSON_AND_ORGANIZATION(#1233,#1234);
#1236=APPROVAL_ROLE('approver');
#1237=APPROVAL_PERSON_ORGANIZATION(#1235,#1222,#1236);
#1238=PERSON_AND_ORGANIZATION_ROLE('creator');
#1239=CC_DESIGN_PERSON_AND_ORGANIZATION_ASSIGNMENT(#1235,#1238,(#1211,#1212));
#1240=PERSON_AND_ORGANIZATION_ROLE('design_supplier');
#1241=CC_DESIGN_PERSON_AND_ORGANIZATION_ASSIGNMENT(#1235,#1240,(#1211));
#1242=PERSON_AND_ORGANIZATION_ROLE('classification_officer');
#1243=CC_DESIGN_PERSON_AND_ORGANIZATION_ASSIGNMENT(#1235,#1242,(#1219));
#1244=PERSON_AND_ORGANIZATION_ROLE('design_owner');
#1245=CC_DESIGN_PERSON_AND_ORGANIZATION_ASSIGNMENT(#1235,#1244,(#1210));
#20=B_SPLINE_CURVE_WITH_KNOTS('',3,(#1,#2,#3,#4,#5,#6,#7,#8,#9,#10,#11,#12,#13,
#14,#15,#16,#17,#18,#19),.UNSPECIFIED.,.F.,.F.,(4,1,1,1,1,1,1,1,1,1,1,1,1,1,1,1,
4),(0.E0,1.25E-1,1.875E-1,2.5E-1,3.125E-1,3.75E-1,4.375E-1,4.6875E-1,5.E-1,
5.3125E-1,5.625E-1,6.25E-1,6.875E-1,7.5E-1,8.125E-1,8.75E-1,1.E0),
.UNSPECIFIED.);
#40=B_SPLINE_CURVE_WITH_KNOTS('',3,(#21,#22,#23,#24,#25,#26,#27,#28,#29,#30,#31,
#32,#33,#34,#35,#36,#37,#38,#39),.UNSPECIFIED.,.F.,.F.,(4,1,1,1,1,1,1,1,1,1,1,1,
1,1,1,1,4),(0.E0,1.25E-1,1.875E-1,2.5E-1,3.125E-1,3.75E-1,4.375E-1,4.6875E-1,
5.E-1,5.3125E-1,5.625E-1,6.25E-1,6.875E-1,7.5E-1,8.125E-1,8.75E-1,1.E0),
.UNSPECIFIED.);
#45=CIRCLE('',#44,3.25E0);
#50=CIRCLE('',#49,3.25E0);
#59=CIRCLE('',#58,6.6E0);
#64=CIRCLE('',#63,6.6E0);
#84=B_SPLINE_CURVE_WITH_KNOTS('',3,(#65,#66,#67,#68,#69,#70,#71,#72,#73,#74,#75,
#76,#77,#78,#79,#80,#81,#82,#83),.UNSPECIFIED.,.F.,.F.,(4,1,1,1,1,1,1,1,1,1,1,1,
1,1,1,1,4),(0.E0,1.25E-1,1.875E-1,2.5E-1,3.125E-1,3.75E-1,4.375E-1,4.6875E-1,
5.E-1,5.3125E-1,5.625E-1,6.25E-1,6.875E-1,7.5E-1,8.125E-1,8.75E-1,1.E0),
.UNSPECIFIED.);
#104=B_SPLINE_CURVE_WITH_KNOTS('',3,(#85,#86,#87,#88,#89,#90,#91,#92,#93,#94,
#95,#96,#97,#98,#99,#100,#101,#102,#103),.UNSPECIFIED.,.F.,.F.,(4,1,1,1,1,1,1,1,
1,1,1,1,1,1,1,1,4),(0.E0,1.25E-1,1.875E-1,2.5E-1,3.125E-1,3.75E-1,4.375E-1,
4.6875E-1,5.E-1,5.3125E-1,5.625E-1,6.25E-1,6.875E-1,7.5E-1,8.125E-1,8.75E-1,
1.E0),.UNSPECIFIED.);
#109=CIRCLE('',#108,7.1E0);
#114=CIRCLE('',#113,7.1E0);
#119=CIRCLE('',#118,6.6E0);
#124=CIRCLE('',#123,5.E-1);
#137=CIRCLE('',#136,7.1E0);
#142=CIRCLE('',#141,7.1E0);
#147=CIRCLE('',#146,6.6E0);
#152=CIRCLE('',#151,5.E-1);
#157=CIRCLE('',#156,7.5E0);
#162=CIRCLE('',#161,7.5E0);
#167=CIRCLE('',#166,7.1E0);
#172=CIRCLE('',#171,7.1E0);
#185=CIRCLE('',#184,7.5E0);
#190=CIRCLE('',#189,7.5E0);
#195=CIRCLE('',#194,7.1E0);
#200=CIRCLE('',#199,7.1E0);
#217=CIRCLE('',#216,7.1E0);
#226=CIRCLE('',#225,7.1E0);
#231=CIRCLE('',#230,6.E0);
#236=CIRCLE('',#235,6.E0);
#241=CIRCLE('',#240,4.75E0);
#246=CIRCLE('',#245,4.75E0);
#259=CIRCLE('',#258,6.E0);
#264=CIRCLE('',#263,6.E0);
#269=CIRCLE('',#268,4.75E0);
#274=CIRCLE('',#273,4.75E0);
#283=CIRCLE('',#282,7.1E0);
#288=CIRCLE('',#287,7.1E0);
#305=CIRCLE('',#304,7.5E0);
#310=CIRCLE('',#309,7.5E0);
#315=CIRCLE('',#314,7.1E0);
#320=CIRCLE('',#319,7.1E0);
#333=CIRCLE('',#332,7.5E0);
#338=CIRCLE('',#337,7.5E0);
#343=CIRCLE('',#342,7.1E0);
#348=CIRCLE('',#347,7.1E0);
#357=CIRCLE('',#356,7.1E0);
#362=CIRCLE('',#361,7.1E0);
#367=CIRCLE('',#366,5.E-1);
#372=CIRCLE('',#371,6.6E0);
#377=CIRCLE('',#376,6.6E0);
#397=B_SPLINE_CURVE_WITH_KNOTS('',3,(#378,#379,#380,#381,#382,#383,#384,#385,
#386,#387,#388,#389,#390,#391,#392,#393,#394,#395,#396),.UNSPECIFIED.,.F.,.F.,
(4,1,1,1,1,1,1,1,1,1,1,1,1,1,1,1,4),(0.E0,1.25E-1,1.875E-1,2.5E-1,3.125E-1,
3.75E-1,4.375E-1,4.6875E-1,5.E-1,5.3125E-1,5.625E-1,6.25E-1,6.875E-1,7.5E-1,
8.125E-1,8.75E-1,1.E0),.UNSPECIFIED.);
#417=B_SPLINE_CURVE_WITH_KNOTS('',3,(#398,#399,#400,#401,#402,#403,#404,#405,
#406,#407,#408,#409,#410,#411,#412,#413,#414,#415,#416),.UNSPECIFIED.,.F.,.F.,
(4,1,1,1,1,1,1,1,1,1,1,1,1,1,1,1,4),(0.E0,1.25E-1,1.875E-1,2.5E-1,3.125E-1,
3.75E-1,4.375E-1,4.6875E-1,5.E-1,5.3125E-1,5.625E-1,6.25E-1,6.875E-1,7.5E-1,
8.125E-1,8.75E-1,1.E0),.UNSPECIFIED.);
#422=CIRCLE('',#421,7.1E0);
#427=CIRCLE('',#426,7.1E0);
#432=CIRCLE('',#431,5.E-1);
#464=B_SPLINE_CURVE_WITH_KNOTS('',3,(#445,#446,#447,#448,#449,#450,#451,#452,
#453,#454,#455,#456,#457,#458,#459,#460,#461,#462,#463),.UNSPECIFIED.,.F.,.F.,
(4,1,1,1,1,1,1,1,1,1,1,1,1,1,1,1,4),(0.E0,1.25E-1,1.875E-1,2.5E-1,3.125E-1,
3.75E-1,4.375E-1,4.6875E-1,5.E-1,5.3125E-1,5.625E-1,6.25E-1,6.875E-1,7.5E-1,
8.125E-1,8.75E-1,1.E0),.UNSPECIFIED.);
#484=B_SPLINE_CURVE_WITH_KNOTS('',3,(#465,#466,#467,#468,#469,#470,#471,#472,
#473,#474,#475,#476,#477,#478,#479,#480,#481,#482,#483),.UNSPECIFIED.,.F.,.F.,
(4,1,1,1,1,1,1,1,1,1,1,1,1,1,1,1,4),(0.E0,1.25E-1,1.875E-1,2.5E-1,3.125E-1,
3.75E-1,4.375E-1,4.6875E-1,5.E-1,5.3125E-1,5.625E-1,6.25E-1,6.875E-1,7.5E-1,
8.125E-1,8.75E-1,1.E0),.UNSPECIFIED.);
#489=CIRCLE('',#488,3.25E0);
#494=CIRCLE('',#493,3.25E0);
#614=EDGE_CURVE('',#507,#508,#20,.T.);
#616=EDGE_CURVE('',#508,#507,#40,.T.);
#620=EDGE_CURVE('',#511,#512,#45,.T.);
#622=EDGE_CURVE('',#512,#511,#50,.T.);
#631=ELLIPSE('',#630,6.E0,4.8E0);
#632=TRIMMED_CURVE('',#631,(PARAMETER_VALUE(0.E0)),(PARAMETER_VALUE(1.8E2)),.T.,
.UNSPECIFIED.);
#636=EDGE_CURVE('',#513,#514,#84,.T.);
#638=EDGE_CURVE('',#513,#508,#54,.T.);
#641=EDGE_CURVE('',#514,#507,#506,.T.);
#651=EDGE_CURVE('',#517,#518,#59,.T.);
#653=EDGE_CURVE('',#520,#518,#119,.T.);
#655=EDGE_CURVE('',#520,#522,#64,.T.);
#657=EDGE_CURVE('',#517,#522,#147,.T.);
#662=EDGE_CURVE('',#514,#513,#104,.T.);
#672=EDGE_CURVE('',#525,#526,#109,.T.);
#674=EDGE_CURVE('',#526,#528,#114,.T.);
#676=EDGE_CURVE('',#520,#528,#152,.T.);
#680=EDGE_CURVE('',#517,#525,#124,.T.);
#692=EDGE_CURVE('',#530,#525,#132,.T.);
#694=EDGE_CURVE('',#532,#530,#172,.T.);
#696=EDGE_CURVE('',#532,#528,#128,.T.);
#706=EDGE_CURVE('',#534,#525,#142,.T.);
#708=EDGE_CURVE('',#528,#534,#137,.T.);
#711=EDGE_CURVE('',#530,#532,#167,.T.);
#736=EDGE_CURVE('',#537,#538,#157,.T.);
#738=EDGE_CURVE('',#538,#537,#162,.T.);
#752=EDGE_CURVE('',#540,#538,#176,.T.);
#755=EDGE_CURVE('',#542,#537,#180,.T.);
#757=EDGE_CURVE('',#540,#542,#190,.T.);
#768=EDGE_CURVE('',#542,#540,#185,.T.);
#784=EDGE_CURVE('',#545,#546,#195,.T.);
#786=EDGE_CURVE('',#546,#545,#200,.T.);
#796=EDGE_CURVE('',#548,#546,#204,.T.);
#799=EDGE_CURVE('',#550,#545,#208,.T.);
#801=EDGE_CURVE('',#548,#550,#226,.T.);
#812=EDGE_CURVE('',#550,#548,#217,.T.);
#824=EDGE_CURVE('',#552,#548,#221,.T.);
#826=EDGE_CURVE('',#554,#552,#231,.T.);
#828=EDGE_CURVE('',#554,#550,#212,.T.);
#842=EDGE_CURVE('',#552,#554,#236,.T.);
#856=EDGE_CURVE('',#557,#558,#241,.T.);
#858=EDGE_CURVE('',#558,#557,#246,.T.);
#868=EDGE_CURVE('',#560,#558,#250,.T.);
#871=EDGE_CURVE('',#562,#557,#254,.T.);
#873=EDGE_CURVE('',#560,#562,#274,.T.);
#884=EDGE_CURVE('',#562,#560,#269,.T.);
#896=EDGE_CURVE('',#565,#566,#259,.T.);
#898=EDGE_CURVE('',#566,#565,#264,.T.);
#912=EDGE_CURVE('',#568,#566,#278,.T.);
#915=EDGE_CURVE('',#570,#565,#292,.T.);
#917=EDGE_CURVE('',#570,#568,#283,.T.);
#928=EDGE_CURVE('',#568,#570,#288,.T.);
#940=EDGE_CURVE('',#572,#568,#300,.T.);
#942=EDGE_CURVE('',#574,#572,#315,.T.);
#944=EDGE_CURVE('',#574,#570,#296,.T.);
#958=EDGE_CURVE('',#572,#574,#320,.T.);
#968=EDGE_CURVE('',#577,#578,#305,.T.);
#970=EDGE_CURVE('',#578,#577,#310,.T.);
#984=EDGE_CURVE('',#580,#578,#324,.T.);
#987=EDGE_CURVE('',#582,#577,#328,.T.);
#989=EDGE_CURVE('',#580,#582,#338,.T.);
#1000=EDGE_CURVE('',#582,#580,#333,.T.);
#1016=EDGE_CURVE('',#585,#586,#343,.T.);
#1018=EDGE_CURVE('',#586,#585,#348,.T.);
#1028=EDGE_CURVE('',#589,#590,#362,.T.);
#1030=EDGE_CURVE('',#592,#589,#357,.T.);
#1032=EDGE_CURVE('',#592,#586,#352,.T.);
#1035=EDGE_CURVE('',#590,#585,#436,.T.);
#1045=EDGE_CURVE('',#595,#596,#372,.T.);
#1047=EDGE_CURVE('',#592,#595,#432,.T.);
#1051=EDGE_CURVE('',#590,#596,#367,.T.);
#1062=EDGE_CURVE('',#596,#595,#377,.T.);
#1066=EDGE_CURVE('',#597,#598,#397,.T.);
#1068=EDGE_CURVE('',#598,#597,#417,.T.);
#1080=EDGE_CURVE('',#590,#600,#422,.T.);
#1082=EDGE_CURVE('',#600,#592,#427,.T.);
#1105=ELLIPSE('',#1104,6.E0,4.8E0);
#1106=TRIMMED_CURVE('',#1105,(PARAMETER_VALUE(1.8E2)),(PARAMETER_VALUE(3.6E2)),
.T.,.UNSPECIFIED.);
#1110=EDGE_CURVE('',#598,#602,#444,.T.);
#1113=EDGE_CURVE('',#597,#604,#440,.T.);
#1115=EDGE_CURVE('',#602,#604,#464,.T.);
#1124=ELLIPSE('',#1123,6.E0,4.8E0);
#1125=TRIMMED_CURVE('',#1124,(PARAMETER_VALUE(0.E0)),(PARAMETER_VALUE(1.8E2)),
.T.,.UNSPECIFIED.);
#1130=EDGE_CURVE('',#604,#602,#484,.T.);
#1146=EDGE_CURVE('',#607,#608,#489,.T.);
#1148=EDGE_CURVE('',#608,#607,#494,.T.);
#1158=EDGE_CURVE('',#512,#608,#498,.T.);
#1161=EDGE_CURVE('',#511,#607,#502,.T.);
#1183=ELLIPSE('',#1182,6.E0,4.8E0);
#1184=TRIMMED_CURVE('',#1183,(PARAMETER_VALUE(1.8E2)),(PARAMETER_VALUE(3.6E2)),
.T.,.UNSPECIFIED.);
#1197=(LENGTH_UNIT()NAMED_UNIT(*)SI_UNIT(.MILLI.,.METRE.));
#1199=(NAMED_UNIT(*)PLANE_ANGLE_UNIT()SI_UNIT($,.RADIAN.));
#1202=(NAMED_UNIT(*)SI_UNIT($,.STERADIAN.)SOLID_ANGLE_UNIT());
#1205=ADVANCED_BREP_SHAPE_REPRESENTATION('',(#1196),#1204);
#1212=PRODUCT_DEFINITION('design','',#1211,#1208);
#1213=PRODUCT_DEFINITION_SHAPE('','SHAPE FOR ERFEN-ZT_1_1_1.',#1212);
#1214=SHAPE_DEFINITION_REPRESENTATION(#1213,#1205);
ENDSEC;
END-ISO-10303-21;
