ISO-10303-21;
HEADER;
FILE_DESCRIPTION((''),'2;1');
FILE_NAME('20001','2026-07-03T17:10:10',('Administrator'),(''),
'CREO PARAMETRIC BY PTC INC, 2019010','CREO PARAMETRIC BY PTC INC, 2019010','');
FILE_SCHEMA(('CONFIG_CONTROL_DESIGN'));
ENDSEC;
DATA;
#2=CARTESIAN_POINT('',(0.E0,3.5E0,0.E0));
#3=DIRECTION('',(0.E0,-1.E0,0.E0));
#4=DIRECTION('',(-9.030051945279E-1,0.E0,4.296296296296E-1));
#5=AXIS2_PLACEMENT_3D('',#2,#3,#4);
#7=DIRECTION('',(1.E0,0.E0,0.E0));
#8=VECTOR('',#7,1.628218028151E0);
#9=CARTESIAN_POINT('',(-7.723503091215E0,3.5E0,2.9E0));
#10=LINE('',#9,#8);
#11=CARTESIAN_POINT('',(0.E0,3.5E0,0.E0));
#12=DIRECTION('',(0.E0,1.E0,0.E0));
#13=DIRECTION('',(-9.361821928745E-1,0.E0,-3.515151515152E-1));
#14=AXIS2_PLACEMENT_3D('',#11,#12,#13);
#16=DIRECTION('',(-1.E0,0.E0,0.E0));
#17=VECTOR('',#16,1.628218028151E0);
#18=CARTESIAN_POINT('',(-6.095285063063E0,3.5E0,-2.9E0));
#19=LINE('',#18,#17);
#20=DIRECTION('',(0.E0,-1.E0,0.E0));
#21=VECTOR('',#20,2.1E0);
#22=CARTESIAN_POINT('',(-6.095285063063E0,3.5E0,2.9E0));
#23=LINE('',#22,#21);
#24=DIRECTION('',(0.E0,1.E0,0.E0));
#25=VECTOR('',#24,2.1E0);
#26=CARTESIAN_POINT('',(-6.095285063063E0,1.4E0,-2.9E0));
#27=LINE('',#26,#25);
#28=DIRECTION('',(1.E0,0.E0,0.E0));
#29=VECTOR('',#28,1.239730607876E-1);
#30=CARTESIAN_POINT('',(-7.723503091215E0,0.E0,2.9E0));
#31=LINE('',#30,#29);
#32=DIRECTION('',(7.071067811865E-1,0.E0,7.071067811866E-1));
#33=VECTOR('',#32,8.564697483489E-1);
#34=CARTESIAN_POINT('',(3.680755481515E0,0.E0,3.187429572096E0));
#35=LINE('',#34,#33);
#36=CARTESIAN_POINT('',(2.973648700328E0,0.E0,3.894536353282E0));
#37=DIRECTION('',(0.E0,-1.E0,0.E0));
#38=DIRECTION('',(0.E0,0.E0,-1.E0));
#39=AXIS2_PLACEMENT_3D('',#36,#37,#38);
#41=CARTESIAN_POINT('',(2.973648700328E0,0.E0,3.894536353282E0));
#42=DIRECTION('',(0.E0,-1.E0,0.E0));
#43=DIRECTION('',(-6.068670816996E-1,0.E0,-7.948033374046E-1));
#44=AXIS2_PLACEMENT_3D('',#41,#42,#43);
#46=CARTESIAN_POINT('',(0.E0,0.E0,0.E0));
#47=DIRECTION('',(0.E0,1.E0,0.E0));
#48=DIRECTION('',(0.E0,0.E0,1.E0));
#49=AXIS2_PLACEMENT_3D('',#46,#47,#48);
#51=CARTESIAN_POINT('',(0.E0,0.E0,0.E0));
#52=DIRECTION('',(0.E0,1.E0,0.E0));
#53=DIRECTION('',(0.E0,0.E0,-1.E0));
#54=AXIS2_PLACEMENT_3D('',#51,#52,#53);
#56=CARTESIAN_POINT('',(0.E0,0.E0,0.E0));
#57=DIRECTION('',(0.E0,1.E0,0.E0));
#58=DIRECTION('',(6.068670816997E-1,0.E0,-7.948033374045E-1));
#59=AXIS2_PLACEMENT_3D('',#56,#57,#58);
#61=CARTESIAN_POINT('',(2.973648700328E0,0.E0,-3.894536353282E0));
#62=DIRECTION('',(0.E0,-1.E0,0.E0));
#63=DIRECTION('',(7.071067811865E-1,0.E0,7.071067811866E-1));
#64=AXIS2_PLACEMENT_3D('',#61,#62,#63);
#66=DIRECTION('',(-7.071067811865E-1,0.E0,7.071067811866E-1));
#67=VECTOR('',#66,8.564697483489E-1);
#68=CARTESIAN_POINT('',(4.286371048453E0,0.E0,-3.793045139034E0));
#69=LINE('',#68,#67);
#70=CARTESIAN_POINT('',(3.579264267267E0,0.E0,-4.500151920221E0));
#71=DIRECTION('',(0.E0,-1.E0,0.E0));
#72=DIRECTION('',(6.224807421334E-1,0.E0,-7.826351165601E-1));
#73=AXIS2_PLACEMENT_3D('',#70,#71,#72);
#75=CARTESIAN_POINT('',(0.E0,0.E0,0.E0));
#76=DIRECTION('',(0.E0,-1.E0,0.E0));
#77=DIRECTION('',(0.E0,0.E0,-1.E0));
#78=AXIS2_PLACEMENT_3D('',#75,#76,#77);
#80=CARTESIAN_POINT('',(0.E0,0.E0,0.E0));
#81=DIRECTION('',(0.E0,-1.E0,0.E0));
#82=DIRECTION('',(-7.871946724558E-1,0.E0,-6.167045870247E-1));
#83=AXIS2_PLACEMENT_3D('',#80,#81,#82);
#85=DIRECTION('',(8.753292245254E-1,0.E0,-4.835274022139E-1));
#86=VECTOR('',#85,2.611549948638E0);
#87=CARTESIAN_POINT('',(-7.599530030427E0,0.E0,-2.9E0));
#88=LINE('',#87,#86);
#89=CARTESIAN_POINT('',(0.E0,0.E0,0.E0));
#90=DIRECTION('',(0.E0,-1.E0,0.E0));
#91=DIRECTION('',(-9.361821928745E-1,0.E0,3.515151515152E-1));
#92=AXIS2_PLACEMENT_3D('',#89,#90,#91);
#94=DIRECTION('',(-8.753292245254E-1,0.E0,-4.835274022139E-1));
#95=VECTOR('',#94,2.611549948638E0);
#96=CARTESIAN_POINT('',(-5.313564039076E0,0.E0,4.162755962417E0));
#97=LINE('',#96,#95);
#98=CARTESIAN_POINT('',(0.E0,0.E0,0.E0));
#99=DIRECTION('',(0.E0,-1.E0,0.E0));
#100=DIRECTION('',(6.224807421334E-1,0.E0,7.826351165601E-1));
#101=AXIS2_PLACEMENT_3D('',#98,#99,#100);
#103=CARTESIAN_POINT('',(3.579264267267E0,0.E0,4.500151920221E0));
#104=DIRECTION('',(0.E0,-1.E0,0.E0));
#105=DIRECTION('',(7.071067811866E-1,0.E0,-7.071067811865E-1));
#106=AXIS2_PLACEMENT_3D('',#103,#104,#105);
#108=CARTESIAN_POINT('',(3.460416070970E0,1.4E0,5.795517286297E0));
#109=CARTESIAN_POINT('',(3.719320016563E0,1.293581397157E0,5.640929640379E0));
#110=CARTESIAN_POINT('',(3.966397138003E0,1.185994192664E0,5.469974545426E0));
#111=CARTESIAN_POINT('',(4.201745009400E0,1.077248027763E0,5.282787036781E0));
#113=CARTESIAN_POINT('',(2.366781618629E0,9.876613970263E-1,3.099733015878E0));
#114=CARTESIAN_POINT('',(2.209322239899E0,1.059128409866E0,3.219960132648E0));
#115=CARTESIAN_POINT('',(1.879080837910E0,1.199296728241E0,3.434345511092E0));
#116=CARTESIAN_POINT('',(1.518823192275E0,1.334047173474E0,3.597663392365E0));
#117=CARTESIAN_POINT('',(1.330813973126E0,1.4E0,3.665915188453E0));
#119=CARTESIAN_POINT('',(2.973648700328E0,7.786639449341E-1,2.894536353282E0));
#120=CARTESIAN_POINT('',(2.916462591854E0,7.933816946800E-1,2.894536353282E0));
#121=CARTESIAN_POINT('',(2.805845164732E0,8.243492921187E-1,2.904244140062E0));
#122=CARTESIAN_POINT('',(2.649658544191E0,8.747747852310E-1,2.943986772891E0));
#123=CARTESIAN_POINT('',(2.502674106207E0,9.289551209985E-1,3.007521103868E0));
#124=CARTESIAN_POINT('',(2.410929717220E0,9.676236402770E-1,3.066024013293E0));
#125=CARTESIAN_POINT('',(2.366781618629E0,9.876613970263E-1,3.099733015878E0));
#127=DIRECTION('',(-7.071067811865E-1,0.E0,-7.071067811866E-1));
#128=VECTOR('',#127,8.564697483489E-1);
#129=CARTESIAN_POINT('',(4.286371048453E0,6.720595314676E-1,3.793045139034E0));
#130=LINE('',#129,#128);
#131=DIRECTION('',(0.E0,-1.E0,0.E0));
#132=VECTOR('',#131,1.4E0);
#133=CARTESIAN_POINT('',(-5.313564039076E0,1.4E0,4.162755962417E0));
#134=LINE('',#133,#132);
#135=CARTESIAN_POINT('',(0.E0,1.4E0,0.E0));
#136=DIRECTION('',(0.E0,1.E0,0.E0));
#137=DIRECTION('',(-9.030051945279E-1,0.E0,-4.296296296296E-1));
#138=AXIS2_PLACEMENT_3D('',#135,#136,#137);
#140=DIRECTION('',(1.E0,0.E0,0.E0));
#141=VECTOR('',#140,1.504244967364E0);
#142=CARTESIAN_POINT('',(-7.599530030427E0,1.4E0,-2.9E0));
#143=LINE('',#142,#141);
#144=DIRECTION('',(-8.753292245254E-1,0.E0,4.835274022139E-1));
#145=VECTOR('',#144,2.611549948638E0);
#146=CARTESIAN_POINT('',(-5.313564039076E0,1.4E0,-4.162755962417E0));
#147=LINE('',#146,#145);
#148=CARTESIAN_POINT('',(0.E0,1.4E0,0.E0));
#149=DIRECTION('',(0.E0,1.E0,0.E0));
#150=DIRECTION('',(0.E0,0.E0,-1.E0));
#151=AXIS2_PLACEMENT_3D('',#148,#149,#150);
#153=CARTESIAN_POINT('',(0.E0,1.4E0,0.E0));
#154=DIRECTION('',(0.E0,1.E0,0.E0));
#155=DIRECTION('',(5.126542327363E-1,0.E0,-8.585951535255E-1));
#156=AXIS2_PLACEMENT_3D('',#153,#154,#155);
#158=DIRECTION('',(7.071067811865E-1,0.E0,-7.071067811866E-1));
#159=VECTOR('',#158,3.011712169229E0);
#160=CARTESIAN_POINT('',(1.330813973126E0,1.4E0,-3.665915188453E0));
#161=LINE('',#160,#159);
#162=CARTESIAN_POINT('',(0.E0,1.4E0,0.E0));
#163=DIRECTION('',(0.E0,-1.E0,0.E0));
#164=DIRECTION('',(0.E0,0.E0,-1.E0));
#165=AXIS2_PLACEMENT_3D('',#162,#163,#164);
#167=CARTESIAN_POINT('',(0.E0,1.4E0,0.E0));
#168=DIRECTION('',(0.E0,-1.E0,0.E0));
#169=DIRECTION('',(0.E0,0.E0,1.E0));
#170=AXIS2_PLACEMENT_3D('',#167,#168,#169);
#172=CARTESIAN_POINT('',(0.E0,1.4E0,0.E0));
#173=DIRECTION('',(0.E0,-1.E0,0.E0));
#174=DIRECTION('',(3.412343520836E-1,0.E0,9.399782534495E-1));
#175=AXIS2_PLACEMENT_3D('',#172,#173,#174);
#177=DIRECTION('',(-7.071067811865E-1,0.E0,-7.071067811866E-1));
#178=VECTOR('',#177,3.011712169229E0);
#179=CARTESIAN_POINT('',(3.460416070970E0,1.4E0,5.795517286297E0));
#180=LINE('',#179,#178);
#181=CARTESIAN_POINT('',(0.E0,1.4E0,0.E0));
#182=DIRECTION('',(0.E0,1.E0,0.E0));
#183=DIRECTION('',(-7.871946724558E-1,0.E0,6.167045870247E-1));
#184=AXIS2_PLACEMENT_3D('',#181,#182,#183);
#186=DIRECTION('',(8.753292245254E-1,0.E0,4.835274022139E-1));
#187=VECTOR('',#186,2.611549948638E0);
#188=CARTESIAN_POINT('',(-7.599530030427E0,1.4E0,2.9E0));
#189=LINE('',#188,#187);
#190=DIRECTION('',(-1.E0,0.E0,0.E0));
#191=VECTOR('',#190,1.504244967364E0);
#192=CARTESIAN_POINT('',(-6.095285063063E0,1.4E0,2.9E0));
#193=LINE('',#192,#191);
#194=DIRECTION('',(-1.E0,0.E0,0.E0));
#195=VECTOR('',#194,1.239730607876E-1);
#196=CARTESIAN_POINT('',(-7.599530030427E0,0.E0,-2.9E0));
#197=LINE('',#196,#195);
#198=DIRECTION('',(0.E0,-1.E0,0.E0));
#199=VECTOR('',#198,3.5E0);
#200=CARTESIAN_POINT('',(-7.723503091215E0,3.5E0,-2.9E0));
#201=LINE('',#200,#199);
#202=DIRECTION('',(0.E0,1.E0,0.E0));
#203=VECTOR('',#202,3.5E0);
#204=CARTESIAN_POINT('',(-7.723503091215E0,0.E0,2.9E0));
#205=LINE('',#204,#203);
#206=DIRECTION('',(0.E0,1.E0,0.E0));
#207=VECTOR('',#206,1.4E0);
#208=CARTESIAN_POINT('',(-7.599530030427E0,0.E0,-2.9E0));
#209=LINE('',#208,#207);
#210=DIRECTION('',(0.E0,1.E0,0.E0));
#211=VECTOR('',#210,1.4E0);
#212=CARTESIAN_POINT('',(-5.313564039076E0,0.E0,-4.162755962417E0));
#213=LINE('',#212,#211);
#214=DIRECTION('',(0.E0,1.E0,0.E0));
#215=VECTOR('',#214,1.4E0);
#216=CARTESIAN_POINT('',(0.E0,0.E0,-6.75E0));
#217=LINE('',#216,#215);
#218=DIRECTION('',(0.E0,-1.E0,0.E0));
#219=VECTOR('',#218,6.720595314676E-1);
#220=CARTESIAN_POINT('',(4.286371048453E0,6.720595314676E-1,-3.793045139034E0));
#221=LINE('',#220,#219);
#222=CARTESIAN_POINT('',(4.201745009400E0,1.077248027763E0,-5.282787036781E0));
#223=CARTESIAN_POINT('',(4.237193934886E0,1.060868297309E0,-5.254592194795E0));
#224=CARTESIAN_POINT('',(4.299359515195E0,1.030166654338E0,-5.197465932563E0));
#225=CARTESIAN_POINT('',(4.399074197051E0,9.745644061265E-1,-5.081136976460E0));
#226=CARTESIAN_POINT('',(4.488058058501E0,9.134649931924E-1,-4.932717857420E0));
#227=CARTESIAN_POINT('',(4.553366717142E0,8.499188457544E-1,-4.751116700140E0));
#228=CARTESIAN_POINT('',(4.582821245355E0,7.948219637598E-1,-4.566491200852E0));
#229=CARTESIAN_POINT('',(4.577908677744E0,7.478239175661E-1,-4.378966792835E0));
#230=CARTESIAN_POINT('',(4.543428848638E0,7.158195484007E-1,-4.220133352726E0));
#231=CARTESIAN_POINT('',(4.493888520200E0,6.953902408139E-1,-4.091214544568E0));
#232=CARTESIAN_POINT('',(4.443876333792E0,6.830980839743E-1,-3.993440939020E0));
#233=CARTESIAN_POINT('',(4.378106221370E0,6.745193877079E-1,-3.894338132149E0));
#234=CARTESIAN_POINT('',(4.320428874297E0,6.720595314676E-1,-3.827102964878E0));
#235=CARTESIAN_POINT('',(4.286371048453E0,6.720595314676E-1,-3.793045139034E0));
#237=DIRECTION('',(0.E0,1.E0,0.E0));
#238=VECTOR('',#237,1.077248027763E0);
#239=CARTESIAN_POINT('',(4.201745009400E0,0.E0,-5.282787036781E0));
#240=LINE('',#239,#238);
#241=CARTESIAN_POINT('',(3.680755481515E0,6.720595314676E-1,-3.187429572096E0));
#242=CARTESIAN_POINT('',(3.631144554292E0,6.720595314676E-1,-3.137818644873E0));
#243=CARTESIAN_POINT('',(3.526383935006E0,6.773420483062E-1,-3.053583349510E0));
#244=CARTESIAN_POINT('',(3.355707082578E0,6.981755147810E-1,-2.963855344175E0));
#245=CARTESIAN_POINT('',(3.172439213127E0,7.310174815922E-1,-2.908195587988E0));
#246=CARTESIAN_POINT('',(3.041594941072E0,7.611769049148E-1,-2.894536353282E0));
#247=CARTESIAN_POINT('',(2.973648700328E0,7.786639449341E-1,-2.894536353282E0));
#249=DIRECTION('',(0.E0,1.E0,0.E0));
#250=VECTOR('',#249,6.720595314676E-1);
#251=CARTESIAN_POINT('',(3.680755481515E0,0.E0,-3.187429572096E0));
#252=LINE('',#251,#250);
#253=DIRECTION('',(6.115064608321E-14,-1.E0,4.496371035530E-14));
#254=VECTOR('',#253,9.876613970263E-1);
#255=CARTESIAN_POINT('',(2.366781618629E0,9.876613970263E-1,-3.099733015878E0));
#256=LINE('',#255,#254);
#257=DIRECTION('',(7.071067811865E-1,0.E0,-7.071067811866E-1));
#258=VECTOR('',#257,8.564697483489E-1);
#259=CARTESIAN_POINT('',(3.680755481515E0,6.720595314676E-1,-3.187429572096E0));
#260=LINE('',#259,#258);
#261=CARTESIAN_POINT('',(2.366781618628E0,9.876613970263E-1,-3.099733015878E0));
#262=CARTESIAN_POINT('',(2.410929717220E0,9.676236402771E-1,-3.066024013293E0));
#263=CARTESIAN_POINT('',(2.502674106206E0,9.289551209985E-1,-3.007521103868E0));
#264=CARTESIAN_POINT('',(2.649658544191E0,8.747747852310E-1,-2.943986772891E0));
#265=CARTESIAN_POINT('',(2.805845164732E0,8.243492921187E-1,-2.904244140062E0));
#266=CARTESIAN_POINT('',(2.916462591854E0,7.933816946800E-1,-2.894536353282E0));
#267=CARTESIAN_POINT('',(2.973648700328E0,7.786639449341E-1,-2.894536353282E0));
#269=CARTESIAN_POINT('',(1.330813973126E0,1.4E0,-3.665915188453E0));
#270=CARTESIAN_POINT('',(1.518823192275E0,1.334047173474E0,-3.597663392365E0));
#271=CARTESIAN_POINT('',(1.879080837910E0,1.199296728241E0,-3.434345511092E0));
#272=CARTESIAN_POINT('',(2.209322239899E0,1.059128409866E0,-3.219960132648E0));
#273=CARTESIAN_POINT('',(2.366781618628E0,9.876613970263E-1,-3.099733015878E0));
#275=CARTESIAN_POINT('',(4.201745009400E0,1.077248027763E0,-5.282787036781E0));
#276=CARTESIAN_POINT('',(3.966397138003E0,1.185994192664E0,-5.469974545426E0));
#277=CARTESIAN_POINT('',(3.719320016563E0,1.293581397157E0,-5.640929640379E0));
#278=CARTESIAN_POINT('',(3.460416070970E0,1.4E0,-5.795517286297E0));
#280=DIRECTION('',(0.E0,1.E0,0.E0));
#281=VECTOR('',#280,1.4E0);
#282=CARTESIAN_POINT('',(0.E0,0.E0,-3.9E0));
#283=LINE('',#282,#281);
#284=DIRECTION('',(0.E0,1.E0,0.E0));
#285=VECTOR('',#284,1.4E0);
#286=CARTESIAN_POINT('',(0.E0,0.E0,3.9E0));
#287=LINE('',#286,#285);
#288=DIRECTION('',(-1.438838731370E-14,1.E0,1.124092758883E-14));
#289=VECTOR('',#288,9.876613970263E-1);
#290=CARTESIAN_POINT('',(2.366781618629E0,0.E0,3.099733015878E0));
#291=LINE('',#290,#289);
#292=DIRECTION('',(0.E0,1.E0,0.E0));
#293=VECTOR('',#292,7.786639449341E-1);
#294=CARTESIAN_POINT('',(2.973648700328E0,0.E0,2.894536353282E0));
#295=LINE('',#294,#293);
#296=DIRECTION('',(0.E0,-1.E0,0.E0));
#297=VECTOR('',#296,6.720595314676E-1);
#298=CARTESIAN_POINT('',(3.680755481515E0,6.720595314676E-1,3.187429572096E0));
#299=LINE('',#298,#297);
#300=CARTESIAN_POINT('',(2.973648700328E0,7.786639449341E-1,2.894536353282E0));
#301=CARTESIAN_POINT('',(3.041594941072E0,7.611769049148E-1,2.894536353282E0));
#302=CARTESIAN_POINT('',(3.172439213127E0,7.310174815922E-1,2.908195587988E0));
#303=CARTESIAN_POINT('',(3.355707082578E0,6.981755147810E-1,2.963855344175E0));
#304=CARTESIAN_POINT('',(3.526383935006E0,6.773420483062E-1,3.053583349510E0));
#305=CARTESIAN_POINT('',(3.631144554292E0,6.720595314676E-1,3.137818644873E0));
#306=CARTESIAN_POINT('',(3.680755481515E0,6.720595314676E-1,3.187429572096E0));
#308=DIRECTION('',(0.E0,-1.E0,0.E0));
#309=VECTOR('',#308,1.4E0);
#310=CARTESIAN_POINT('',(-7.599530030427E0,1.4E0,2.9E0));
#311=LINE('',#310,#309);
#312=DIRECTION('',(0.E0,-1.E0,0.E0));
#313=VECTOR('',#312,1.077248027763E0);
#314=CARTESIAN_POINT('',(4.201745009400E0,1.077248027763E0,5.282787036781E0));
#315=LINE('',#314,#313);
#316=CARTESIAN_POINT('',(4.286371048453E0,6.720595314676E-1,3.793045139034E0));
#317=CARTESIAN_POINT('',(4.320428874297E0,6.720595314676E-1,3.827102964878E0));
#318=CARTESIAN_POINT('',(4.378106221370E0,6.745193877079E-1,3.894338132149E0));
#319=CARTESIAN_POINT('',(4.443876333792E0,6.830980839743E-1,3.993440939020E0));
#320=CARTESIAN_POINT('',(4.493888520200E0,6.953902408139E-1,4.091214544568E0));
#321=CARTESIAN_POINT('',(4.543428848638E0,7.158195484007E-1,4.220133352726E0));
#322=CARTESIAN_POINT('',(4.577908677744E0,7.478239175661E-1,4.378966792835E0));
#323=CARTESIAN_POINT('',(4.582821245355E0,7.948219637598E-1,4.566491200852E0));
#324=CARTESIAN_POINT('',(4.553366717142E0,8.499188457544E-1,4.751116700140E0));
#325=CARTESIAN_POINT('',(4.488058058501E0,9.134649931925E-1,4.932717857420E0));
#326=CARTESIAN_POINT('',(4.399074197051E0,9.745644061265E-1,5.081136976460E0));
#327=CARTESIAN_POINT('',(4.299359515195E0,1.030166654338E0,5.197465932563E0));
#328=CARTESIAN_POINT('',(4.237193934886E0,1.060868297309E0,5.254592194795E0));
#329=CARTESIAN_POINT('',(4.201745009400E0,1.077248027763E0,5.282787036781E0));
#331=DIRECTION('',(0.E0,1.E0,0.E0));
#332=VECTOR('',#331,6.720595314676E-1);
#333=CARTESIAN_POINT('',(4.286371048453E0,0.E0,3.793045139034E0));
#334=LINE('',#333,#332);
#335=CARTESIAN_POINT('',(1.330813973126E0,1.4E0,-3.665915188453E0));
#336=CARTESIAN_POINT('',(3.460416070970E0,1.4E0,-5.795517286297E0));
#337=VERTEX_POINT('',#335);
#338=VERTEX_POINT('',#336);
#339=CARTESIAN_POINT('',(0.E0,0.E0,3.9E0));
#340=CARTESIAN_POINT('',(0.E0,1.4E0,3.9E0));
#341=VERTEX_POINT('',#339);
#342=VERTEX_POINT('',#340);
#343=CARTESIAN_POINT('',(-7.723503091215E0,3.5E0,-2.9E0));
#344=CARTESIAN_POINT('',(-7.723503091215E0,0.E0,-2.9E0));
#345=VERTEX_POINT('',#343);
#346=VERTEX_POINT('',#344);
#347=CARTESIAN_POINT('',(3.680755481515E0,0.E0,-3.187429572096E0));
#348=CARTESIAN_POINT('',(3.680755481515E0,6.720595314676E-1,-3.187429572096E0));
#349=VERTEX_POINT('',#347);
#350=VERTEX_POINT('',#348);
#351=CARTESIAN_POINT('',(4.286371048453E0,6.720595314676E-1,3.793045139034E0));
#352=CARTESIAN_POINT('',(3.680755481515E0,6.720595314676E-1,3.187429572096E0));
#353=VERTEX_POINT('',#351);
#354=VERTEX_POINT('',#352);
#355=CARTESIAN_POINT('',(2.973648700328E0,0.E0,2.894536353282E0));
#356=CARTESIAN_POINT('',(2.973648700328E0,7.786639449341E-1,2.894536353282E0));
#357=VERTEX_POINT('',#355);
#358=VERTEX_POINT('',#356);
#359=CARTESIAN_POINT('',(-5.313564039076E0,1.4E0,4.162755962417E0));
#360=CARTESIAN_POINT('',(3.460416070970E0,1.4E0,5.795517286297E0));
#361=VERTEX_POINT('',#359);
#362=VERTEX_POINT('',#360);
#363=CARTESIAN_POINT('',(-6.095285063063E0,1.4E0,-2.9E0));
#364=CARTESIAN_POINT('',(-6.095285063063E0,1.4E0,2.9E0));
#365=VERTEX_POINT('',#363);
#366=VERTEX_POINT('',#364);
#367=CARTESIAN_POINT('',(-7.599530030427E0,1.4E0,2.9E0));
#368=VERTEX_POINT('',#367);
#369=CARTESIAN_POINT('',(0.E0,0.E0,-3.9E0));
#370=VERTEX_POINT('',#369);
#371=CARTESIAN_POINT('',(2.366781618629E0,0.E0,-3.099733015878E0));
#372=VERTEX_POINT('',#371);
#373=CARTESIAN_POINT('',(3.680755481515E0,0.E0,3.187429572096E0));
#374=VERTEX_POINT('',#373);
#375=CARTESIAN_POINT('',(-5.313564039076E0,1.4E0,-4.162755962417E0));
#376=CARTESIAN_POINT('',(-7.599530030427E0,1.4E0,-2.9E0));
#377=VERTEX_POINT('',#375);
#378=VERTEX_POINT('',#376);
#379=VERTEX_POINT('',#275);
#380=VERTEX_POINT('',#273);
#381=CARTESIAN_POINT('',(1.330813973126E0,1.4E0,3.665915188453E0));
#382=VERTEX_POINT('',#381);
#383=CARTESIAN_POINT('',(-5.313564039076E0,0.E0,4.162755962417E0));
#384=CARTESIAN_POINT('',(-7.599530030427E0,0.E0,2.9E0));
#385=VERTEX_POINT('',#383);
#386=VERTEX_POINT('',#384);
#387=CARTESIAN_POINT('',(0.E0,1.4E0,-3.9E0));
#388=VERTEX_POINT('',#387);
#389=VERTEX_POINT('',#125);
#390=CARTESIAN_POINT('',(2.366781618629E0,0.E0,3.099733015878E0));
#391=VERTEX_POINT('',#390);
#392=CARTESIAN_POINT('',(4.201745009400E0,0.E0,-5.282787036781E0));
#393=VERTEX_POINT('',#392);
#394=VERTEX_POINT('',#111);
#395=CARTESIAN_POINT('',(-7.723503091215E0,0.E0,2.9E0));
#396=VERTEX_POINT('',#395);
#397=CARTESIAN_POINT('',(-6.095285063063E0,3.5E0,-2.9E0));
#398=VERTEX_POINT('',#397);
#399=CARTESIAN_POINT('',(0.E0,1.4E0,-6.75E0));
#400=VERTEX_POINT('',#399);
#401=CARTESIAN_POINT('',(-7.723503091215E0,3.5E0,2.9E0));
#402=VERTEX_POINT('',#401);
#403=CARTESIAN_POINT('',(-5.313564039076E0,0.E0,-4.162755962417E0));
#404=VERTEX_POINT('',#403);
#405=CARTESIAN_POINT('',(4.286371048453E0,0.E0,3.793045139034E0));
#406=VERTEX_POINT('',#405);
#407=CARTESIAN_POINT('',(-7.599530030427E0,0.E0,-2.9E0));
#408=VERTEX_POINT('',#407);
#409=CARTESIAN_POINT('',(-2.186702554887E-14,0.E0,-6.75E0));
#410=VERTEX_POINT('',#409);
#411=CARTESIAN_POINT('',(4.286371048453E0,6.720595314676E-1,-3.793045139034E0));
#412=CARTESIAN_POINT('',(4.286371048453E0,0.E0,-3.793045139034E0));
#413=VERTEX_POINT('',#411);
#414=VERTEX_POINT('',#412);
#415=CARTESIAN_POINT('',(-6.095285063063E0,3.5E0,2.9E0));
#416=VERTEX_POINT('',#415);
#417=CARTESIAN_POINT('',(4.201745009400E0,0.E0,5.282787036781E0));
#418=VERTEX_POINT('',#417);
#419=VERTEX_POINT('',#267);
#420=CARTESIAN_POINT('',(0.E0,3.5E0,0.E0));
#421=DIRECTION('',(0.E0,-1.E0,0.E0));
#422=DIRECTION('',(0.E0,0.E0,-1.E0));
#423=AXIS2_PLACEMENT_3D('',#420,#421,#422);
#424=PLANE('',#423);
#426=ORIENTED_EDGE('',*,*,#425,.F.);
#428=ORIENTED_EDGE('',*,*,#427,.F.);
#430=ORIENTED_EDGE('',*,*,#429,.F.);
#432=ORIENTED_EDGE('',*,*,#431,.F.);
#433=EDGE_LOOP('',(#426,#428,#430,#432));
#434=FACE_OUTER_BOUND('',#433,.F.);
#435=ADVANCED_FACE('',(#434),#424,.F.);
#436=CARTESIAN_POINT('',(0.E0,3.5E0,0.E0));
#437=DIRECTION('',(0.E0,-1.E0,0.E0));
#438=DIRECTION('',(0.E0,0.E0,-1.E0));
#439=AXIS2_PLACEMENT_3D('',#436,#437,#438);
#440=CYLINDRICAL_SURFACE('',#439,6.75E0);
#442=ORIENTED_EDGE('',*,*,#441,.F.);
#443=ORIENTED_EDGE('',*,*,#425,.T.);
#445=ORIENTED_EDGE('',*,*,#444,.F.);
#447=ORIENTED_EDGE('',*,*,#446,.T.);
#448=EDGE_LOOP('',(#442,#443,#445,#447));
#449=FACE_OUTER_BOUND('',#448,.F.);
#450=ADVANCED_FACE('',(#449),#440,.F.);
#451=CARTESIAN_POINT('',(-7.723503091215E0,3.5E0,2.9E0));
#452=DIRECTION('',(0.E0,0.E0,1.E0));
#453=DIRECTION('',(1.E0,0.E0,0.E0));
#454=AXIS2_PLACEMENT_3D('',#451,#452,#453);
#455=PLANE('',#454);
#457=ORIENTED_EDGE('',*,*,#456,.F.);
#459=ORIENTED_EDGE('',*,*,#458,.T.);
#460=ORIENTED_EDGE('',*,*,#427,.T.);
#461=ORIENTED_EDGE('',*,*,#441,.T.);
#463=ORIENTED_EDGE('',*,*,#462,.T.);
#465=ORIENTED_EDGE('',*,*,#464,.T.);
#466=EDGE_LOOP('',(#457,#459,#460,#461,#463,#465));
#467=FACE_OUTER_BOUND('',#466,.F.);
#468=ADVANCED_FACE('',(#467),#455,.T.);
#469=CARTESIAN_POINT('',(0.E0,0.E0,0.E0));
#470=DIRECTION('',(0.E0,1.E0,0.E0));
#471=DIRECTION('',(0.E0,0.E0,1.E0));
#472=AXIS2_PLACEMENT_3D('',#469,#470,#471);
#473=PLANE('',#472);
#475=ORIENTED_EDGE('',*,*,#474,.F.);
#477=ORIENTED_EDGE('',*,*,#476,.F.);
#479=ORIENTED_EDGE('',*,*,#478,.F.);
#481=ORIENTED_EDGE('',*,*,#480,.F.);
#483=ORIENTED_EDGE('',*,*,#482,.F.);
#485=ORIENTED_EDGE('',*,*,#484,.F.);
#487=ORIENTED_EDGE('',*,*,#486,.F.);
#489=ORIENTED_EDGE('',*,*,#488,.F.);
#491=ORIENTED_EDGE('',*,*,#490,.F.);
#493=ORIENTED_EDGE('',*,*,#492,.F.);
#495=ORIENTED_EDGE('',*,*,#494,.F.);
#497=ORIENTED_EDGE('',*,*,#496,.F.);
#499=ORIENTED_EDGE('',*,*,#498,.T.);
#501=ORIENTED_EDGE('',*,*,#500,.F.);
#502=ORIENTED_EDGE('',*,*,#456,.T.);
#504=ORIENTED_EDGE('',*,*,#503,.F.);
#506=ORIENTED_EDGE('',*,*,#505,.F.);
#508=ORIENTED_EDGE('',*,*,#507,.F.);
#509=EDGE_LOOP('',(#475,#477,#479,#481,#483,#485,#487,#489,#491,#493,#495,#497,
#499,#501,#502,#504,#506,#508));
#510=FACE_OUTER_BOUND('',#509,.F.);
#511=ADVANCED_FACE('',(#510),#473,.F.);
#512=CARTESIAN_POINT('',(2.993325909419E0,-1.3E0,2.5E0));
#513=DIRECTION('',(-7.071067811866E-1,0.E0,7.071067811865E-1));
#514=DIRECTION('',(7.071067811865E-1,0.E0,7.071067811866E-1));
#515=AXIS2_PLACEMENT_3D('',#512,#513,#514);
#516=PLANE('',#515);
#518=ORIENTED_EDGE('',*,*,#517,.T.);
#520=ORIENTED_EDGE('',*,*,#519,.T.);
#521=ORIENTED_EDGE('',*,*,#474,.T.);
#523=ORIENTED_EDGE('',*,*,#522,.T.);
#524=EDGE_LOOP('',(#518,#520,#521,#523));
#525=FACE_OUTER_BOUND('',#524,.F.);
#526=ADVANCED_FACE('',(#525),#516,.F.);
#527=CARTESIAN_POINT('',(2.993325909419E0,6.720595314676E-1,2.5E0));
#528=DIRECTION('',(2.418447626480E-1,9.396926207859E-1,-2.418447626480E-1));
#529=DIRECTION('',(-7.071067811865E-1,0.E0,-7.071067811866E-1));
#530=AXIS2_PLACEMENT_3D('',#527,#528,#529);
#531=PLANE('',#530);
#533=ORIENTED_EDGE('',*,*,#532,.F.);
#535=ORIENTED_EDGE('',*,*,#534,.T.);
#537=ORIENTED_EDGE('',*,*,#536,.F.);
#539=ORIENTED_EDGE('',*,*,#538,.F.);
#541=ORIENTED_EDGE('',*,*,#540,.T.);
#542=ORIENTED_EDGE('',*,*,#517,.F.);
#544=ORIENTED_EDGE('',*,*,#543,.T.);
#545=EDGE_LOOP('',(#533,#535,#537,#539,#541,#542,#544));
#546=FACE_OUTER_BOUND('',#545,.F.);
#547=ADVANCED_FACE('',(#546),#531,.T.);
#548=CARTESIAN_POINT('',(0.E0,1.4E0,0.E0));
#549=DIRECTION('',(0.E0,-1.E0,0.E0));
#550=DIRECTION('',(0.E0,0.E0,-1.E0));
#551=AXIS2_PLACEMENT_3D('',#548,#549,#550);
#552=CYLINDRICAL_SURFACE('',#551,6.75E0);
#554=ORIENTED_EDGE('',*,*,#553,.T.);
#555=ORIENTED_EDGE('',*,*,#532,.T.);
#557=ORIENTED_EDGE('',*,*,#556,.T.);
#558=ORIENTED_EDGE('',*,*,#505,.T.);
#560=ORIENTED_EDGE('',*,*,#559,.F.);
#561=EDGE_LOOP('',(#554,#555,#557,#558,#560));
#562=FACE_OUTER_BOUND('',#561,.F.);
#563=ADVANCED_FACE('',(#562),#552,.T.);
#564=CARTESIAN_POINT('',(0.E0,1.4E0,0.E0));
#565=DIRECTION('',(0.E0,1.E0,0.E0));
#566=DIRECTION('',(0.E0,0.E0,1.E0));
#567=AXIS2_PLACEMENT_3D('',#564,#565,#566);
#568=PLANE('',#567);
#569=ORIENTED_EDGE('',*,*,#446,.F.);
#571=ORIENTED_EDGE('',*,*,#570,.F.);
#573=ORIENTED_EDGE('',*,*,#572,.F.);
#575=ORIENTED_EDGE('',*,*,#574,.F.);
#577=ORIENTED_EDGE('',*,*,#576,.F.);
#579=ORIENTED_EDGE('',*,*,#578,.F.);
#581=ORIENTED_EDGE('',*,*,#580,.F.);
#583=ORIENTED_EDGE('',*,*,#582,.F.);
#585=ORIENTED_EDGE('',*,*,#584,.F.);
#586=ORIENTED_EDGE('',*,*,#534,.F.);
#587=ORIENTED_EDGE('',*,*,#553,.F.);
#589=ORIENTED_EDGE('',*,*,#588,.F.);
#590=ORIENTED_EDGE('',*,*,#462,.F.);
#591=EDGE_LOOP('',(#569,#571,#573,#575,#577,#579,#581,#583,#585,#586,#587,#589,
#590));
#592=FACE_OUTER_BOUND('',#591,.F.);
#593=ADVANCED_FACE('',(#592),#568,.T.);
#594=CARTESIAN_POINT('',(-7.723503091215E0,3.5E0,-2.9E0));
#595=DIRECTION('',(0.E0,0.E0,-1.E0));
#596=DIRECTION('',(-1.E0,0.E0,0.E0));
#597=AXIS2_PLACEMENT_3D('',#594,#595,#596);
#598=PLANE('',#597);
#599=ORIENTED_EDGE('',*,*,#444,.T.);
#600=ORIENTED_EDGE('',*,*,#431,.T.);
#602=ORIENTED_EDGE('',*,*,#601,.T.);
#603=ORIENTED_EDGE('',*,*,#498,.F.);
#605=ORIENTED_EDGE('',*,*,#604,.T.);
#606=ORIENTED_EDGE('',*,*,#570,.T.);
#607=EDGE_LOOP('',(#599,#600,#602,#603,#605,#606));
#608=FACE_OUTER_BOUND('',#607,.F.);
#609=ADVANCED_FACE('',(#608),#598,.T.);
#610=CARTESIAN_POINT('',(0.E0,3.5E0,0.E0));
#611=DIRECTION('',(0.E0,-1.E0,0.E0));
#612=DIRECTION('',(0.E0,0.E0,-1.E0));
#613=AXIS2_PLACEMENT_3D('',#610,#611,#612);
#614=CYLINDRICAL_SURFACE('',#613,8.25E0);
#615=ORIENTED_EDGE('',*,*,#500,.T.);
#616=ORIENTED_EDGE('',*,*,#601,.F.);
#617=ORIENTED_EDGE('',*,*,#429,.T.);
#618=ORIENTED_EDGE('',*,*,#458,.F.);
#619=EDGE_LOOP('',(#615,#616,#617,#618));
#620=FACE_OUTER_BOUND('',#619,.F.);
#621=ADVANCED_FACE('',(#620),#614,.T.);
#622=CARTESIAN_POINT('',(-5.313564039076E0,1.4E0,-4.162755962417E0));
#623=DIRECTION('',(-4.835274022139E-1,0.E0,-8.753292245254E-1));
#624=DIRECTION('',(0.E0,-1.E0,0.E0));
#625=AXIS2_PLACEMENT_3D('',#622,#623,#624);
#626=PLANE('',#625);
#627=ORIENTED_EDGE('',*,*,#496,.T.);
#629=ORIENTED_EDGE('',*,*,#628,.T.);
#630=ORIENTED_EDGE('',*,*,#572,.T.);
#631=ORIENTED_EDGE('',*,*,#604,.F.);
#632=EDGE_LOOP('',(#627,#629,#630,#631));
#633=FACE_OUTER_BOUND('',#632,.F.);
#634=ADVANCED_FACE('',(#633),#626,.T.);
#635=CARTESIAN_POINT('',(0.E0,1.4E0,0.E0));
#636=DIRECTION('',(0.E0,-1.E0,0.E0));
#637=DIRECTION('',(0.E0,0.E0,-1.E0));
#638=AXIS2_PLACEMENT_3D('',#635,#636,#637);
#639=CYLINDRICAL_SURFACE('',#638,6.75E0);
#640=ORIENTED_EDGE('',*,*,#574,.T.);
#641=ORIENTED_EDGE('',*,*,#628,.F.);
#642=ORIENTED_EDGE('',*,*,#494,.T.);
#644=ORIENTED_EDGE('',*,*,#643,.T.);
#645=EDGE_LOOP('',(#640,#641,#642,#644));
#646=FACE_OUTER_BOUND('',#645,.F.);
#647=ADVANCED_FACE('',(#646),#639,.T.);
#648=CARTESIAN_POINT('',(0.E0,1.4E0,0.E0));
#649=DIRECTION('',(0.E0,-1.E0,0.E0));
#650=DIRECTION('',(0.E0,0.E0,-1.E0));
#651=AXIS2_PLACEMENT_3D('',#648,#649,#650);
#652=CYLINDRICAL_SURFACE('',#651,6.75E0);
#653=ORIENTED_EDGE('',*,*,#643,.F.);
#654=ORIENTED_EDGE('',*,*,#492,.T.);
#656=ORIENTED_EDGE('',*,*,#655,.T.);
#658=ORIENTED_EDGE('',*,*,#657,.T.);
#659=ORIENTED_EDGE('',*,*,#576,.T.);
#660=EDGE_LOOP('',(#653,#654,#656,#658,#659));
#661=FACE_OUTER_BOUND('',#660,.F.);
#662=ADVANCED_FACE('',(#661),#652,.T.);
#663=CARTESIAN_POINT('',(3.579264267267E0,1.4E0,-4.500151920221E0));
#664=DIRECTION('',(0.E0,-1.E0,0.E0));
#665=DIRECTION('',(0.E0,0.E0,-1.E0));
#666=AXIS2_PLACEMENT_3D('',#663,#664,#665);
#667=CYLINDRICAL_SURFACE('',#666,1.E0);
#668=ORIENTED_EDGE('',*,*,#490,.T.);
#670=ORIENTED_EDGE('',*,*,#669,.F.);
#672=ORIENTED_EDGE('',*,*,#671,.F.);
#673=ORIENTED_EDGE('',*,*,#655,.F.);
#674=EDGE_LOOP('',(#668,#670,#672,#673));
#675=FACE_OUTER_BOUND('',#674,.F.);
#676=ADVANCED_FACE('',(#675),#667,.T.);
#677=CARTESIAN_POINT('',(2.993325909419E0,-1.3E0,-2.5E0));
#678=DIRECTION('',(-7.071067811866E-1,0.E0,-7.071067811865E-1));
#679=DIRECTION('',(-7.071067811865E-1,0.E0,7.071067811866E-1));
#680=AXIS2_PLACEMENT_3D('',#677,#678,#679);
#681=PLANE('',#680);
#682=ORIENTED_EDGE('',*,*,#488,.T.);
#684=ORIENTED_EDGE('',*,*,#683,.T.);
#686=ORIENTED_EDGE('',*,*,#685,.T.);
#687=ORIENTED_EDGE('',*,*,#669,.T.);
#688=EDGE_LOOP('',(#682,#684,#686,#687));
#689=FACE_OUTER_BOUND('',#688,.F.);
#690=ADVANCED_FACE('',(#689),#681,.F.);
#691=CARTESIAN_POINT('',(2.973648700328E0,1.4E0,-3.894536353282E0));
#692=DIRECTION('',(0.E0,-1.E0,0.E0));
#693=DIRECTION('',(0.E0,0.E0,-1.E0));
#694=AXIS2_PLACEMENT_3D('',#691,#692,#693);
#695=CYLINDRICAL_SURFACE('',#694,1.E0);
#697=ORIENTED_EDGE('',*,*,#696,.F.);
#698=ORIENTED_EDGE('',*,*,#683,.F.);
#699=ORIENTED_EDGE('',*,*,#486,.T.);
#701=ORIENTED_EDGE('',*,*,#700,.F.);
#703=ORIENTED_EDGE('',*,*,#702,.T.);
#704=EDGE_LOOP('',(#697,#698,#699,#701,#703));
#705=FACE_OUTER_BOUND('',#704,.F.);
#706=ADVANCED_FACE('',(#705),#695,.T.);
#707=CARTESIAN_POINT('',(2.993325909419E0,6.720595314676E-1,-2.5E0));
#708=DIRECTION('',(2.418447626480E-1,9.396926207859E-1,2.418447626480E-1));
#709=DIRECTION('',(7.071067811865E-1,0.E0,-7.071067811866E-1));
#710=AXIS2_PLACEMENT_3D('',#707,#708,#709);
#711=PLANE('',#710);
#712=ORIENTED_EDGE('',*,*,#685,.F.);
#713=ORIENTED_EDGE('',*,*,#696,.T.);
#714=ORIENTED_EDGE('',*,*,#702,.F.);
#716=ORIENTED_EDGE('',*,*,#715,.F.);
#717=ORIENTED_EDGE('',*,*,#578,.T.);
#718=ORIENTED_EDGE('',*,*,#657,.F.);
#719=ORIENTED_EDGE('',*,*,#671,.T.);
#720=EDGE_LOOP('',(#712,#713,#714,#716,#717,#718,#719));
#721=FACE_OUTER_BOUND('',#720,.F.);
#722=ADVANCED_FACE('',(#721),#711,.T.);
#723=CARTESIAN_POINT('',(0.E0,1.4E0,0.E0));
#724=DIRECTION('',(0.E0,-1.E0,0.E0));
#725=DIRECTION('',(0.E0,0.E0,-1.E0));
#726=AXIS2_PLACEMENT_3D('',#723,#724,#725);
#727=CYLINDRICAL_SURFACE('',#726,3.9E0);
#728=ORIENTED_EDGE('',*,*,#580,.T.);
#729=ORIENTED_EDGE('',*,*,#715,.T.);
#730=ORIENTED_EDGE('',*,*,#700,.T.);
#731=ORIENTED_EDGE('',*,*,#484,.T.);
#733=ORIENTED_EDGE('',*,*,#732,.T.);
#734=EDGE_LOOP('',(#728,#729,#730,#731,#733));
#735=FACE_OUTER_BOUND('',#734,.F.);
#736=ADVANCED_FACE('',(#735),#727,.F.);
#737=CARTESIAN_POINT('',(0.E0,1.4E0,0.E0));
#738=DIRECTION('',(0.E0,-1.E0,0.E0));
#739=DIRECTION('',(0.E0,0.E0,-1.E0));
#740=AXIS2_PLACEMENT_3D('',#737,#738,#739);
#741=CYLINDRICAL_SURFACE('',#740,3.9E0);
#742=ORIENTED_EDGE('',*,*,#582,.T.);
#743=ORIENTED_EDGE('',*,*,#732,.F.);
#744=ORIENTED_EDGE('',*,*,#482,.T.);
#746=ORIENTED_EDGE('',*,*,#745,.T.);
#747=EDGE_LOOP('',(#742,#743,#744,#746));
#748=FACE_OUTER_BOUND('',#747,.F.);
#749=ADVANCED_FACE('',(#748),#741,.F.);
#750=CARTESIAN_POINT('',(0.E0,1.4E0,0.E0));
#751=DIRECTION('',(0.E0,-1.E0,0.E0));
#752=DIRECTION('',(0.E0,0.E0,-1.E0));
#753=AXIS2_PLACEMENT_3D('',#750,#751,#752);
#754=CYLINDRICAL_SURFACE('',#753,3.9E0);
#755=ORIENTED_EDGE('',*,*,#745,.F.);
#756=ORIENTED_EDGE('',*,*,#480,.T.);
#758=ORIENTED_EDGE('',*,*,#757,.T.);
#759=ORIENTED_EDGE('',*,*,#536,.T.);
#760=ORIENTED_EDGE('',*,*,#584,.T.);
#761=EDGE_LOOP('',(#755,#756,#758,#759,#760));
#762=FACE_OUTER_BOUND('',#761,.F.);
#763=ADVANCED_FACE('',(#762),#754,.F.);
#764=CARTESIAN_POINT('',(2.973648700328E0,1.4E0,3.894536353282E0));
#765=DIRECTION('',(0.E0,-1.E0,0.E0));
#766=DIRECTION('',(0.E0,0.E0,-1.E0));
#767=AXIS2_PLACEMENT_3D('',#764,#765,#766);
#768=CYLINDRICAL_SURFACE('',#767,1.E0);
#769=ORIENTED_EDGE('',*,*,#538,.T.);
#770=ORIENTED_EDGE('',*,*,#757,.F.);
#771=ORIENTED_EDGE('',*,*,#478,.T.);
#773=ORIENTED_EDGE('',*,*,#772,.T.);
#774=EDGE_LOOP('',(#769,#770,#771,#773));
#775=FACE_OUTER_BOUND('',#774,.F.);
#776=ADVANCED_FACE('',(#775),#768,.T.);
#777=CARTESIAN_POINT('',(2.973648700328E0,1.4E0,3.894536353282E0));
#778=DIRECTION('',(0.E0,-1.E0,0.E0));
#779=DIRECTION('',(0.E0,0.E0,-1.E0));
#780=AXIS2_PLACEMENT_3D('',#777,#778,#779);
#781=CYLINDRICAL_SURFACE('',#780,1.E0);
#782=ORIENTED_EDGE('',*,*,#772,.F.);
#783=ORIENTED_EDGE('',*,*,#476,.T.);
#784=ORIENTED_EDGE('',*,*,#519,.F.);
#785=ORIENTED_EDGE('',*,*,#540,.F.);
#786=EDGE_LOOP('',(#782,#783,#784,#785));
#787=FACE_OUTER_BOUND('',#786,.F.);
#788=ADVANCED_FACE('',(#787),#781,.T.);
#789=CARTESIAN_POINT('',(-5.313564039076E0,1.4E0,4.162755962417E0));
#790=DIRECTION('',(4.835274022139E-1,0.E0,-8.753292245254E-1));
#791=DIRECTION('',(0.E0,-1.E0,0.E0));
#792=AXIS2_PLACEMENT_3D('',#789,#790,#791);
#793=PLANE('',#792);
#794=ORIENTED_EDGE('',*,*,#588,.T.);
#795=ORIENTED_EDGE('',*,*,#559,.T.);
#796=ORIENTED_EDGE('',*,*,#503,.T.);
#797=ORIENTED_EDGE('',*,*,#464,.F.);
#798=EDGE_LOOP('',(#794,#795,#796,#797));
#799=FACE_OUTER_BOUND('',#798,.F.);
#800=ADVANCED_FACE('',(#799),#793,.F.);
#801=CARTESIAN_POINT('',(3.579264267267E0,1.4E0,4.500151920221E0));
#802=DIRECTION('',(0.E0,-1.E0,0.E0));
#803=DIRECTION('',(0.E0,0.E0,-1.E0));
#804=AXIS2_PLACEMENT_3D('',#801,#802,#803);
#805=CYLINDRICAL_SURFACE('',#804,1.E0);
#806=ORIENTED_EDGE('',*,*,#507,.T.);
#807=ORIENTED_EDGE('',*,*,#556,.F.);
#808=ORIENTED_EDGE('',*,*,#543,.F.);
#809=ORIENTED_EDGE('',*,*,#522,.F.);
#810=EDGE_LOOP('',(#806,#807,#808,#809));
#811=FACE_OUTER_BOUND('',#810,.F.);
#812=ADVANCED_FACE('',(#811),#805,.T.);
#813=CLOSED_SHELL('',(#435,#450,#468,#511,#526,#547,#563,#593,#609,#621,#634,
#647,#662,#676,#690,#706,#722,#736,#749,#763,#776,#788,#800,#812));
#814=MANIFOLD_SOLID_BREP('',#813);
#816=DIMENSIONAL_EXPONENTS(0.E0,0.E0,0.E0,0.E0,0.E0,0.E0,0.E0);
#818=PLANE_ANGLE_MEASURE_WITH_UNIT(PLANE_ANGLE_MEASURE(1.745329251994E-2),#817);
#819=(CONVERSION_BASED_UNIT('DEGREE',#818)NAMED_UNIT(*)PLANE_ANGLE_UNIT());
#821=UNCERTAINTY_MEASURE_WITH_UNIT(LENGTH_MEASURE(1.576239931475E-4),#815,
'closure',
'Maximum model space distance between geometric entities at asserted connectivities');
#822=(GEOMETRIC_REPRESENTATION_CONTEXT(3)GLOBAL_UNCERTAINTY_ASSIGNED_CONTEXT((
#821))GLOBAL_UNIT_ASSIGNED_CONTEXT((#815,#819,#820))REPRESENTATION_CONTEXT
('ID1','3'));
#824=APPLICATION_CONTEXT(
'CONFIGURATION CONTROLLED 3D DESIGNS OF MECHANICAL PARTS AND ASSEMBLIES');
#825=APPLICATION_PROTOCOL_DEFINITION('international standard',
'config_control_design',1994,#824);
#826=DESIGN_CONTEXT('',#824,'design');
#827=MECHANICAL_CONTEXT('',#824,'mechanical');
#828=PRODUCT('20001','20001','NOT SPECIFIED',(#827));
#829=PRODUCT_DEFINITION_FORMATION_WITH_SPECIFIED_SOURCE('1','LAST_VERSION',#828,
.MADE.);
#833=PRODUCT_CATEGORY('part','');
#834=PRODUCT_RELATED_PRODUCT_CATEGORY('detail','',(#828));
#835=PRODUCT_CATEGORY_RELATIONSHIP('','',#833,#834);
#836=SECURITY_CLASSIFICATION_LEVEL('unclassified');
#837=SECURITY_CLASSIFICATION('','',#836);
#838=CC_DESIGN_SECURITY_CLASSIFICATION(#837,(#829));
#839=APPROVAL_STATUS('approved');
#840=APPROVAL(#839,'');
#841=CC_DESIGN_APPROVAL(#840,(#837,#829,#830));
#842=CALENDAR_DATE(126,3,7);
#843=COORDINATED_UNIVERSAL_TIME_OFFSET(8,0,.AHEAD.);
#844=LOCAL_TIME(17,10,1.E1,#843);
#845=DATE_AND_TIME(#842,#844);
#846=APPROVAL_DATE_TIME(#845,#840);
#847=DATE_TIME_ROLE('creation_date');
#848=CC_DESIGN_DATE_AND_TIME_ASSIGNMENT(#845,#847,(#830));
#849=DATE_TIME_ROLE('classification_date');
#850=CC_DESIGN_DATE_AND_TIME_ASSIGNMENT(#845,#849,(#837));
#851=PERSON('UNSPECIFIED','UNSPECIFIED',$,$,$,$);
#852=ORGANIZATION('UNSPECIFIED','UNSPECIFIED','UNSPECIFIED');
#853=PERSON_AND_ORGANIZATION(#851,#852);
#854=APPROVAL_ROLE('approver');
#855=APPROVAL_PERSON_ORGANIZATION(#853,#840,#854);
#856=PERSON_AND_ORGANIZATION_ROLE('creator');
#857=CC_DESIGN_PERSON_AND_ORGANIZATION_ASSIGNMENT(#853,#856,(#829,#830));
#858=PERSON_AND_ORGANIZATION_ROLE('design_supplier');
#859=CC_DESIGN_PERSON_AND_ORGANIZATION_ASSIGNMENT(#853,#858,(#829));
#860=PERSON_AND_ORGANIZATION_ROLE('classification_officer');
#861=CC_DESIGN_PERSON_AND_ORGANIZATION_ASSIGNMENT(#853,#860,(#837));
#862=PERSON_AND_ORGANIZATION_ROLE('design_owner');
#863=CC_DESIGN_PERSON_AND_ORGANIZATION_ASSIGNMENT(#853,#862,(#828));
#6=CIRCLE('',#5,6.75E0);
#15=CIRCLE('',#14,8.25E0);
#40=CIRCLE('',#39,1.E0);
#45=CIRCLE('',#44,1.E0);
#50=CIRCLE('',#49,3.9E0);
#55=CIRCLE('',#54,3.9E0);
#60=CIRCLE('',#59,3.9E0);
#65=CIRCLE('',#64,1.E0);
#74=CIRCLE('',#73,1.E0);
#79=CIRCLE('',#78,6.75E0);
#84=CIRCLE('',#83,6.75E0);
#93=CIRCLE('',#92,8.25E0);
#102=CIRCLE('',#101,6.75E0);
#107=CIRCLE('',#106,1.E0);
#112=B_SPLINE_CURVE_WITH_KNOTS('',3,(#108,#109,#110,#111),.UNSPECIFIED.,.F.,.F.,
(4,4),(0.E0,1.E0),.UNSPECIFIED.);
#118=B_SPLINE_CURVE_WITH_KNOTS('',3,(#113,#114,#115,#116,#117),.UNSPECIFIED.,
.F.,.F.,(4,1,4),(0.E0,5.E-1,1.E0),.UNSPECIFIED.);
#126=B_SPLINE_CURVE_WITH_KNOTS('',3,(#119,#120,#121,#122,#123,#124,#125),
.UNSPECIFIED.,.F.,.F.,(4,1,1,1,4),(0.E0,2.5E-1,5.E-1,7.5E-1,1.E0),
.UNSPECIFIED.);
#139=CIRCLE('',#138,6.75E0);
#152=CIRCLE('',#151,6.75E0);
#157=CIRCLE('',#156,6.75E0);
#166=CIRCLE('',#165,3.9E0);
#171=CIRCLE('',#170,3.9E0);
#176=CIRCLE('',#175,3.9E0);
#185=CIRCLE('',#184,6.75E0);
#236=B_SPLINE_CURVE_WITH_KNOTS('',3,(#222,#223,#224,#225,#226,#227,#228,#229,
#230,#231,#232,#233,#234,#235),.UNSPECIFIED.,.F.,.F.,(4,1,1,1,1,1,1,1,1,1,1,4),(
0.E0,6.25E-2,1.25E-1,2.5E-1,3.75E-1,5.E-1,6.25E-1,7.5E-1,8.125E-1,8.75E-1,
9.375E-1,1.E0),.UNSPECIFIED.);
#248=B_SPLINE_CURVE_WITH_KNOTS('',3,(#241,#242,#243,#244,#245,#246,#247),
.UNSPECIFIED.,.F.,.F.,(4,1,1,1,4),(0.E0,2.5E-1,5.E-1,7.5E-1,1.E0),
.UNSPECIFIED.);
#268=B_SPLINE_CURVE_WITH_KNOTS('',3,(#261,#262,#263,#264,#265,#266,#267),
.UNSPECIFIED.,.F.,.F.,(4,1,1,1,4),(0.E0,2.5E-1,5.E-1,7.5E-1,1.E0),
.UNSPECIFIED.);
#274=B_SPLINE_CURVE_WITH_KNOTS('',3,(#269,#270,#271,#272,#273),.UNSPECIFIED.,
.F.,.F.,(4,1,4),(0.E0,5.E-1,1.E0),.UNSPECIFIED.);
#279=B_SPLINE_CURVE_WITH_KNOTS('',3,(#275,#276,#277,#278),.UNSPECIFIED.,.F.,.F.,
(4,4),(0.E0,1.E0),.UNSPECIFIED.);
#307=B_SPLINE_CURVE_WITH_KNOTS('',3,(#300,#301,#302,#303,#304,#305,#306),
.UNSPECIFIED.,.F.,.F.,(4,1,1,1,4),(0.E0,2.5E-1,5.E-1,7.5E-1,1.E0),
.UNSPECIFIED.);
#330=B_SPLINE_CURVE_WITH_KNOTS('',3,(#316,#317,#318,#319,#320,#321,#322,#323,
#324,#325,#326,#327,#328,#329),.UNSPECIFIED.,.F.,.F.,(4,1,1,1,1,1,1,1,1,1,1,4),(
0.E0,6.25E-2,1.25E-1,1.875E-1,2.5E-1,3.75E-1,5.E-1,6.25E-1,7.5E-1,8.75E-1,
9.375E-1,1.E0),.UNSPECIFIED.);
#425=EDGE_CURVE('',#416,#398,#6,.T.);
#427=EDGE_CURVE('',#402,#416,#10,.T.);
#429=EDGE_CURVE('',#345,#402,#15,.T.);
#431=EDGE_CURVE('',#398,#345,#19,.T.);
#441=EDGE_CURVE('',#416,#366,#23,.T.);
#444=EDGE_CURVE('',#365,#398,#27,.T.);
#446=EDGE_CURVE('',#365,#366,#139,.T.);
#456=EDGE_CURVE('',#396,#386,#31,.T.);
#458=EDGE_CURVE('',#396,#402,#205,.T.);
#462=EDGE_CURVE('',#366,#368,#193,.T.);
#464=EDGE_CURVE('',#368,#386,#311,.T.);
#474=EDGE_CURVE('',#374,#406,#35,.T.);
#476=EDGE_CURVE('',#357,#374,#40,.T.);
#478=EDGE_CURVE('',#391,#357,#45,.T.);
#480=EDGE_CURVE('',#341,#391,#50,.T.);
#482=EDGE_CURVE('',#370,#341,#55,.T.);
#484=EDGE_CURVE('',#372,#370,#60,.T.);
#486=EDGE_CURVE('',#349,#372,#65,.T.);
#488=EDGE_CURVE('',#414,#349,#69,.T.);
#490=EDGE_CURVE('',#393,#414,#74,.T.);
#492=EDGE_CURVE('',#410,#393,#79,.T.);
#494=EDGE_CURVE('',#404,#410,#84,.T.);
#496=EDGE_CURVE('',#408,#404,#88,.T.);
#498=EDGE_CURVE('',#408,#346,#197,.T.);
#500=EDGE_CURVE('',#396,#346,#93,.T.);
#503=EDGE_CURVE('',#385,#386,#97,.T.);
#505=EDGE_CURVE('',#418,#385,#102,.T.);
#507=EDGE_CURVE('',#406,#418,#107,.T.);
#517=EDGE_CURVE('',#353,#354,#130,.T.);
#519=EDGE_CURVE('',#354,#374,#299,.T.);
#522=EDGE_CURVE('',#406,#353,#334,.T.);
#532=EDGE_CURVE('',#362,#394,#112,.T.);
#534=EDGE_CURVE('',#362,#382,#180,.T.);
#536=EDGE_CURVE('',#389,#382,#118,.T.);
#538=EDGE_CURVE('',#358,#389,#126,.T.);
#540=EDGE_CURVE('',#358,#354,#307,.T.);
#543=EDGE_CURVE('',#353,#394,#330,.T.);
#553=EDGE_CURVE('',#361,#362,#185,.T.);
#556=EDGE_CURVE('',#394,#418,#315,.T.);
#559=EDGE_CURVE('',#361,#385,#134,.T.);
#570=EDGE_CURVE('',#378,#365,#143,.T.);
#572=EDGE_CURVE('',#377,#378,#147,.T.);
#574=EDGE_CURVE('',#400,#377,#152,.T.);
#576=EDGE_CURVE('',#338,#400,#157,.T.);
#578=EDGE_CURVE('',#337,#338,#161,.T.);
#580=EDGE_CURVE('',#388,#337,#166,.T.);
#582=EDGE_CURVE('',#342,#388,#171,.T.);
#584=EDGE_CURVE('',#382,#342,#176,.T.);
#588=EDGE_CURVE('',#368,#361,#189,.T.);
#601=EDGE_CURVE('',#345,#346,#201,.T.);
#604=EDGE_CURVE('',#408,#378,#209,.T.);
#628=EDGE_CURVE('',#404,#377,#213,.T.);
#643=EDGE_CURVE('',#410,#400,#217,.T.);
#655=EDGE_CURVE('',#393,#379,#240,.T.);
#657=EDGE_CURVE('',#379,#338,#279,.T.);
#669=EDGE_CURVE('',#413,#414,#221,.T.);
#671=EDGE_CURVE('',#379,#413,#236,.T.);
#683=EDGE_CURVE('',#349,#350,#252,.T.);
#685=EDGE_CURVE('',#350,#413,#260,.T.);
#696=EDGE_CURVE('',#350,#419,#248,.T.);
#700=EDGE_CURVE('',#380,#372,#256,.T.);
#702=EDGE_CURVE('',#380,#419,#268,.T.);
#715=EDGE_CURVE('',#337,#380,#274,.T.);
#732=EDGE_CURVE('',#370,#388,#283,.T.);
#745=EDGE_CURVE('',#341,#342,#287,.T.);
#757=EDGE_CURVE('',#391,#389,#291,.T.);
#772=EDGE_CURVE('',#357,#358,#295,.T.);
#815=(LENGTH_UNIT()NAMED_UNIT(*)SI_UNIT(.MILLI.,.METRE.));
#817=(NAMED_UNIT(*)PLANE_ANGLE_UNIT()SI_UNIT($,.RADIAN.));
#820=(NAMED_UNIT(*)SI_UNIT($,.STERADIAN.)SOLID_ANGLE_UNIT());
#823=ADVANCED_BREP_SHAPE_REPRESENTATION('',(#814),#822);
#830=PRODUCT_DEFINITION('design','',#829,#826);
#831=PRODUCT_DEFINITION_SHAPE('','SHAPE FOR 20001.',#830);
#832=SHAPE_DEFINITION_REPRESENTATION(#831,#823);
ENDSEC;
END-ISO-10303-21;
