ISO-10303-21;
HEADER;
FILE_DESCRIPTION((''),'2;1');
FILE_NAME('2_50001','2026-07-03T17:09:33',('Administrator'),(''),
'CREO PARAMETRIC BY PTC INC, 2019010','CREO PARAMETRIC BY PTC INC, 2019010','');
FILE_SCHEMA(('CONFIG_CONTROL_DESIGN'));
ENDSEC;
DATA;
#2=DIRECTION('',(-1.E0,0.E0,0.E0));
#3=VECTOR('',#2,3.574328150750E-3);
#4=CARTESIAN_POINT('',(-8.724970796897E0,0.E0,-3.75E0));
#5=LINE('',#4,#3);
#6=DIRECTION('',(0.E0,-1.E0,0.E0));
#7=VECTOR('',#6,2.3E0);
#8=CARTESIAN_POINT('',(-7.066647012551E0,4.E0,3.75E0));
#9=LINE('',#8,#7);
#10=DIRECTION('',(0.E0,1.E0,0.E0));
#11=VECTOR('',#10,2.3E0);
#12=CARTESIAN_POINT('',(-7.066647012551E0,1.7E0,-3.75E0));
#13=LINE('',#12,#11);
#14=DIRECTION('',(1.E0,0.E0,-4.969764287106E-13));
#15=VECTOR('',#14,3.574328150751E-3);
#16=CARTESIAN_POINT('',(-8.728545125048E0,0.E0,3.75E0));
#17=LINE('',#16,#15);
#18=DIRECTION('',(7.071067811865E-1,0.E0,7.071067811866E-1));
#19=VECTOR('',#18,1.228721742109E0);
#20=CARTESIAN_POINT('',(4.426004739158E0,0.E0,3.711085493737E0));
#21=LINE('',#20,#19);
#22=CARTESIAN_POINT('',(3.718897957972E0,0.E0,4.418192274924E0));
#23=DIRECTION('',(0.E0,-1.E0,0.E0));
#24=DIRECTION('',(0.E0,0.E0,-1.E0));
#25=AXIS2_PLACEMENT_3D('',#22,#23,#24);
#27=CARTESIAN_POINT('',(3.718897957972E0,0.E0,4.418192274924E0));
#28=DIRECTION('',(0.E0,-1.E0,0.E0));
#29=DIRECTION('',(-6.439650143675E-1,0.E0,-7.650549393806E-1));
#30=AXIS2_PLACEMENT_3D('',#27,#28,#29);
#32=CARTESIAN_POINT('',(0.E0,0.E0,0.E0));
#33=DIRECTION('',(0.E0,1.E0,0.E0));
#34=DIRECTION('',(0.E0,0.E0,1.E0));
#35=AXIS2_PLACEMENT_3D('',#32,#33,#34);
#37=CARTESIAN_POINT('',(0.E0,0.E0,0.E0));
#38=DIRECTION('',(0.E0,1.E0,0.E0));
#39=DIRECTION('',(0.E0,0.E0,-1.E0));
#40=AXIS2_PLACEMENT_3D('',#37,#38,#39);
#42=CARTESIAN_POINT('',(0.E0,0.E0,0.E0));
#43=DIRECTION('',(0.E0,1.E0,0.E0));
#44=DIRECTION('',(6.439650143674E-1,0.E0,-7.650549393807E-1));
#45=AXIS2_PLACEMENT_3D('',#42,#43,#44);
#47=CARTESIAN_POINT('',(3.718897957972E0,0.E0,-4.418192274924E0));
#48=DIRECTION('',(0.E0,-1.E0,0.E0));
#49=DIRECTION('',(7.071067811866E-1,0.E0,7.071067811865E-1));
#50=AXIS2_PLACEMENT_3D('',#47,#48,#49);
#52=DIRECTION('',(-7.071067811865E-1,0.E0,7.071067811866E-1));
#53=VECTOR('',#52,1.228721742109E0);
#54=CARTESIAN_POINT('',(5.294842215195E0,0.E0,-4.579922969774E0));
#55=LINE('',#54,#53);
#56=CARTESIAN_POINT('',(4.587735434009E0,0.E0,-5.287029750961E0));
#57=DIRECTION('',(0.E0,-1.E0,0.E0));
#58=DIRECTION('',(6.553907762869E-1,0.E0,-7.552899644229E-1));
#59=AXIS2_PLACEMENT_3D('',#56,#57,#58);
#61=CARTESIAN_POINT('',(0.E0,0.E0,0.E0));
#62=DIRECTION('',(0.E0,-1.E0,0.E0));
#63=DIRECTION('',(0.E0,0.E0,-1.E0));
#64=AXIS2_PLACEMENT_3D('',#61,#62,#63);
#66=CARTESIAN_POINT('',(0.E0,0.E0,0.E0));
#67=DIRECTION('',(0.E0,-1.E0,0.E0));
#68=DIRECTION('',(-7.793730961092E-1,0.E0,-6.265601144832E-1));
#69=AXIS2_PLACEMENT_3D('',#66,#67,#68);
#71=DIRECTION('',(8.919075010691E-1,0.E0,-4.522178783913E-1));
#72=VECTOR('',#71,2.791753657234E0);
#73=CARTESIAN_POINT('',(-8.724970796897E0,0.E0,-3.75E0));
#74=LINE('',#73,#72);
#75=CARTESIAN_POINT('',(0.E0,0.E0,0.E0));
#76=DIRECTION('',(0.E0,-1.E0,0.E0));
#77=DIRECTION('',(-9.187942236893E-1,0.E0,3.947368421053E-1));
#78=AXIS2_PLACEMENT_3D('',#75,#76,#77);
#80=DIRECTION('',(-8.919075010691E-1,0.E0,-4.522178783913E-1));
#81=VECTOR('',#80,2.791753657234E0);
#82=CARTESIAN_POINT('',(-6.234984768874E0,0.E0,5.012480915865E0));
#83=LINE('',#82,#81);
#84=CARTESIAN_POINT('',(0.E0,0.E0,0.E0));
#85=DIRECTION('',(0.E0,-1.E0,0.E0));
#86=DIRECTION('',(6.553907762869E-1,0.E0,7.552899644229E-1));
#87=AXIS2_PLACEMENT_3D('',#84,#85,#86);
#89=CARTESIAN_POINT('',(4.587735434009E0,0.E0,5.287029750961E0));
#90=DIRECTION('',(0.E0,-1.E0,0.E0));
#91=DIRECTION('',(7.071067811866E-1,0.E0,-7.071067811865E-1));
#92=AXIS2_PLACEMENT_3D('',#89,#90,#91);
#94=CARTESIAN_POINT('',(4.500517972977E0,1.7E0,6.614025852302E0));
#95=CARTESIAN_POINT('',(4.759582829415E0,1.556453764645E0,6.437745010859E0));
#96=CARTESIAN_POINT('',(5.007088047953E0,1.411995340035E0,6.247138052363E0));
#97=CARTESIAN_POINT('',(5.243126210295E0,1.266632031939E0,6.042319715384E0));
#99=CARTESIAN_POINT('',(3.074932943604E0,1.193765444761E0,3.653137335543E0));
#100=CARTESIAN_POINT('',(2.933249940466E0,1.279805330254E0,3.772395303115E0));
#101=CARTESIAN_POINT('',(2.637393800661E0,1.450214193594E0,3.993353591443E0));
#102=CARTESIAN_POINT('',(2.316762742253E0,1.617308712790E0,4.179485248835E0));
#103=CARTESIAN_POINT('',(2.150048768801E0,1.7E0,4.263556648126E0));
#105=DIRECTION('',(-7.071067811865E-1,0.E0,-7.071067811866E-1));
#106=VECTOR('',#105,1.228721742109E0);
#107=CARTESIAN_POINT('',(5.294842215195E0,7.673846836900E-1,4.579922969774E0));
#108=LINE('',#107,#106);
#109=DIRECTION('',(0.E0,-1.E0,0.E0));
#110=VECTOR('',#109,1.7E0);
#111=CARTESIAN_POINT('',(-6.234984768874E0,1.7E0,5.012480915865E0));
#112=LINE('',#111,#110);
#113=CARTESIAN_POINT('',(0.E0,1.7E0,0.E0));
#114=DIRECTION('',(0.E0,1.E0,0.E0));
#115=DIRECTION('',(-8.833308765689E-1,0.E0,-4.6875E-1));
#116=AXIS2_PLACEMENT_3D('',#113,#114,#115);
#118=DIRECTION('',(1.E0,0.E0,0.E0));
#119=VECTOR('',#118,1.658323784346E0);
#120=CARTESIAN_POINT('',(-8.724970796897E0,1.7E0,-3.75E0));
#121=LINE('',#120,#119);
#122=DIRECTION('',(-8.919075010691E-1,0.E0,4.522178783913E-1));
#123=VECTOR('',#122,2.791753657234E0);
#124=CARTESIAN_POINT('',(-6.234984768874E0,1.7E0,-5.012480915865E0));
#125=LINE('',#124,#123);
#126=CARTESIAN_POINT('',(0.E0,1.7E0,0.E0));
#127=DIRECTION('',(0.E0,1.E0,0.E0));
#128=DIRECTION('',(0.E0,0.E0,-1.E0));
#129=AXIS2_PLACEMENT_3D('',#126,#127,#128);
#131=CARTESIAN_POINT('',(0.E0,1.7E0,0.E0));
#132=DIRECTION('',(0.E0,1.E0,0.E0));
#133=DIRECTION('',(5.625647466221E-1,0.E0,-8.267532315377E-1));
#134=AXIS2_PLACEMENT_3D('',#131,#132,#133);
#136=DIRECTION('',(7.071067811865E-1,0.E0,-7.071067811866E-1));
#137=VECTOR('',#136,3.324065426486E0);
#138=CARTESIAN_POINT('',(2.150048768801E0,1.7E0,-4.263556648126E0));
#139=LINE('',#138,#137);
#140=CARTESIAN_POINT('',(0.E0,1.7E0,0.E0));
#141=DIRECTION('',(0.E0,-1.E0,0.E0));
#142=DIRECTION('',(0.E0,0.E0,-1.E0));
#143=AXIS2_PLACEMENT_3D('',#140,#141,#142);
#145=CARTESIAN_POINT('',(0.E0,1.7E0,0.E0));
#146=DIRECTION('',(0.E0,-1.E0,0.E0));
#147=DIRECTION('',(0.E0,0.E0,1.E0));
#148=AXIS2_PLACEMENT_3D('',#145,#146,#147);
#150=CARTESIAN_POINT('',(0.E0,1.7E0,0.E0));
#151=DIRECTION('',(0.E0,-1.E0,0.E0));
#152=DIRECTION('',(4.502719934661E-1,0.E0,8.928914446337E-1));
#153=AXIS2_PLACEMENT_3D('',#150,#151,#152);
#155=DIRECTION('',(-7.071067811865E-1,0.E0,-7.071067811866E-1));
#156=VECTOR('',#155,3.324065426486E0);
#157=CARTESIAN_POINT('',(4.500517972977E0,1.7E0,6.614025852302E0));
#158=LINE('',#157,#156);
#159=CARTESIAN_POINT('',(0.E0,1.7E0,0.E0));
#160=DIRECTION('',(0.E0,1.E0,0.E0));
#161=DIRECTION('',(-7.793730961092E-1,0.E0,6.265601144832E-1));
#162=AXIS2_PLACEMENT_3D('',#159,#160,#161);
#164=DIRECTION('',(8.919075010691E-1,0.E0,4.522178783913E-1));
#165=VECTOR('',#164,2.791753657234E0);
#166=CARTESIAN_POINT('',(-8.724970796897E0,1.7E0,3.75E0));
#167=LINE('',#166,#165);
#168=DIRECTION('',(-1.E0,0.E0,0.E0));
#169=VECTOR('',#168,1.658323784346E0);
#170=CARTESIAN_POINT('',(-7.066647012551E0,1.7E0,3.75E0));
#171=LINE('',#170,#169);
#172=DIRECTION('',(0.E0,1.E0,0.E0));
#173=VECTOR('',#172,1.7E0);
#174=CARTESIAN_POINT('',(-8.724970796897E0,0.E0,-3.75E0));
#175=LINE('',#174,#173);
#176=DIRECTION('',(0.E0,1.E0,0.E0));
#177=VECTOR('',#176,1.7E0);
#178=CARTESIAN_POINT('',(-6.234984768874E0,0.E0,-5.012480915865E0));
#179=LINE('',#178,#177);
#180=DIRECTION('',(0.E0,1.E0,0.E0));
#181=VECTOR('',#180,1.7E0);
#182=CARTESIAN_POINT('',(0.E0,0.E0,-8.E0));
#183=LINE('',#182,#181);
#184=DIRECTION('',(0.E0,-1.E0,0.E0));
#185=VECTOR('',#184,7.673846836900E-1);
#186=CARTESIAN_POINT('',(5.294842215195E0,7.673846836900E-1,-4.579922969774E0));
#187=LINE('',#186,#185);
#188=CARTESIAN_POINT('',(5.243126210296E0,1.266632031939E0,-6.042319715384E0));
#189=CARTESIAN_POINT('',(5.275328521185E0,1.246800347126E0,-6.014376675589E0));
#190=CARTESIAN_POINT('',(5.332266264508E0,1.209399407002E0,-5.957885192852E0));
#191=CARTESIAN_POINT('',(5.424208479232E0,1.141243206297E0,-5.843123911053E0));
#192=CARTESIAN_POINT('',(5.506558146888E0,1.065918968667E0,-5.697030925949E0));
#193=CARTESIAN_POINT('',(5.566371960362E0,9.873484560662E-1,-5.518556813887E0));
#194=CARTESIAN_POINT('',(5.591996423936E0,9.191371577268E-1,-5.337310681339E0));
#195=CARTESIAN_POINT('',(5.584599820193E0,8.609310894515E-1,-5.153387250880E0));
#196=CARTESIAN_POINT('',(5.541806826507E0,8.134499629662E-1,-4.966593934965E0));
#197=CARTESIAN_POINT('',(5.471180244592E0,7.844768186135E-1,-4.808097868233E0));
#198=CARTESIAN_POINT('',(5.384673860871E0,7.703897146141E-1,-4.678868245504E0));
#199=CARTESIAN_POINT('',(5.328092012353E0,7.673846836900E-1,-4.613172766932E0));
#200=CARTESIAN_POINT('',(5.294842215195E0,7.673846836900E-1,-4.579922969774E0));
#202=DIRECTION('',(0.E0,1.E0,0.E0));
#203=VECTOR('',#202,1.266632031939E0);
#204=CARTESIAN_POINT('',(5.243126210295E0,0.E0,-6.042319715384E0));
#205=LINE('',#204,#203);
#206=CARTESIAN_POINT('',(4.426004739158E0,7.673846836900E-1,-3.711085493737E0));
#207=CARTESIAN_POINT('',(4.375896606059E0,7.673846836900E-1,-3.660977360638E0));
#208=CARTESIAN_POINT('',(4.270338402381E0,7.742800493320E-1,-3.576331358245E0));
#209=CARTESIAN_POINT('',(4.099163646188E0,8.011936616863E-1,-3.486779957230E0));
#210=CARTESIAN_POINT('',(3.916195063845E0,8.433307288114E-1,-3.431604283207E0));
#211=CARTESIAN_POINT('',(3.786197483433E0,8.817724087392E-1,-3.418192274924E0));
#212=CARTESIAN_POINT('',(3.718897957972E0,9.039630346444E-1,-3.418192274924E0));
#214=DIRECTION('',(0.E0,1.E0,0.E0));
#215=VECTOR('',#214,7.673846836900E-1);
#216=CARTESIAN_POINT('',(4.426004739158E0,0.E0,-3.711085493737E0));
#217=LINE('',#216,#215);
#218=DIRECTION('',(-4.352482958899E-14,-1.E0,-3.422465232638E-14));
#219=VECTOR('',#218,1.193765444761E0);
#220=CARTESIAN_POINT('',(3.074932943604E0,1.193765444761E0,-3.653137335543E0));
#221=LINE('',#220,#219);
#222=CARTESIAN_POINT('',(3.718897957972E0,9.039630346444E-1,-3.418192274924E0));
#223=CARTESIAN_POINT('',(3.656656104698E0,9.244859978032E-1,-3.418192274924E0));
#224=CARTESIAN_POINT('',(3.537196116240E0,9.676561958314E-1,-3.429658464654E0));
#225=CARTESIAN_POINT('',(3.370609447853E0,1.037740785550E0,-3.475623693194E0));
#226=CARTESIAN_POINT('',(3.215741497869E0,1.112780617888E0,-3.548335854226E0));
#227=CARTESIAN_POINT('',(3.120405209333E0,1.166151486490E0,-3.614862243460E0));
#228=CARTESIAN_POINT('',(3.074932943604E0,1.193765444761E0,-3.653137335543E0));
#230=DIRECTION('',(7.071067811865E-1,0.E0,-7.071067811866E-1));
#231=VECTOR('',#230,1.228721742109E0);
#232=CARTESIAN_POINT('',(4.426004739158E0,7.673846836900E-1,-3.711085493737E0));
#233=LINE('',#232,#231);
#234=CARTESIAN_POINT('',(2.150048768801E0,1.7E0,-4.263556648126E0));
#235=CARTESIAN_POINT('',(2.316762742253E0,1.617308712790E0,-4.179485248835E0));
#236=CARTESIAN_POINT('',(2.637393800661E0,1.450214193594E0,-3.993353591443E0));
#237=CARTESIAN_POINT('',(2.933249940466E0,1.279805330254E0,-3.772395303115E0));
#238=CARTESIAN_POINT('',(3.074932943604E0,1.193765444761E0,-3.653137335543E0));
#240=CARTESIAN_POINT('',(5.243126210296E0,1.266632031939E0,-6.042319715384E0));
#241=CARTESIAN_POINT('',(5.007088047954E0,1.411995340035E0,-6.247138052363E0));
#242=CARTESIAN_POINT('',(4.759582829415E0,1.556453764645E0,-6.437745010859E0));
#243=CARTESIAN_POINT('',(4.500517972977E0,1.7E0,-6.614025852302E0));
#245=DIRECTION('',(0.E0,1.E0,0.E0));
#246=VECTOR('',#245,1.7E0);
#247=CARTESIAN_POINT('',(0.E0,0.E0,-4.775E0));
#248=LINE('',#247,#246);
#249=DIRECTION('',(0.E0,1.E0,0.E0));
#250=VECTOR('',#249,1.7E0);
#251=CARTESIAN_POINT('',(0.E0,0.E0,4.775E0));
#252=LINE('',#251,#250);
#253=CARTESIAN_POINT('',(3.074932943604E0,1.193765444761E0,3.653137335543E0));
#254=CARTESIAN_POINT('',(3.120405209333E0,1.166151486491E0,3.614862243460E0));
#255=CARTESIAN_POINT('',(3.215741497869E0,1.112780617888E0,3.548335854226E0));
#256=CARTESIAN_POINT('',(3.370609447853E0,1.037740785550E0,3.475623693194E0));
#257=CARTESIAN_POINT('',(3.537196116240E0,9.676561958314E-1,3.429658464654E0));
#258=CARTESIAN_POINT('',(3.656656104698E0,9.244859978032E-1,3.418192274924E0));
#259=CARTESIAN_POINT('',(3.718897957972E0,9.039630346444E-1,3.418192274924E0));
#261=DIRECTION('',(3.943275159344E-14,1.E0,-3.087658851184E-14));
#262=VECTOR('',#261,1.193765444761E0);
#263=CARTESIAN_POINT('',(3.074932943604E0,0.E0,3.653137335543E0));
#264=LINE('',#263,#262);
#265=DIRECTION('',(0.E0,1.E0,0.E0));
#266=VECTOR('',#265,9.039630346444E-1);
#267=CARTESIAN_POINT('',(3.718897957972E0,0.E0,3.418192274924E0));
#268=LINE('',#267,#266);
#269=DIRECTION('',(0.E0,-1.E0,0.E0));
#270=VECTOR('',#269,7.673846836900E-1);
#271=CARTESIAN_POINT('',(4.426004739158E0,7.673846836900E-1,3.711085493737E0));
#272=LINE('',#271,#270);
#273=CARTESIAN_POINT('',(3.718897957972E0,9.039630346444E-1,3.418192274924E0));
#274=CARTESIAN_POINT('',(3.786197483433E0,8.817724087392E-1,3.418192274924E0));
#275=CARTESIAN_POINT('',(3.916195063845E0,8.433307288114E-1,3.431604283207E0));
#276=CARTESIAN_POINT('',(4.099163646188E0,8.011936616863E-1,3.486779957230E0));
#277=CARTESIAN_POINT('',(4.270338402381E0,7.742800493320E-1,3.576331358245E0));
#278=CARTESIAN_POINT('',(4.375896606059E0,7.673846836900E-1,3.660977360638E0));
#279=CARTESIAN_POINT('',(4.426004739158E0,7.673846836900E-1,3.711085493737E0));
#281=DIRECTION('',(0.E0,-1.E0,0.E0));
#282=VECTOR('',#281,1.7E0);
#283=CARTESIAN_POINT('',(-8.724970796897E0,1.7E0,3.75E0));
#284=LINE('',#283,#282);
#285=DIRECTION('',(0.E0,-1.E0,0.E0));
#286=VECTOR('',#285,1.266632031939E0);
#287=CARTESIAN_POINT('',(5.243126210295E0,1.266632031939E0,6.042319715384E0));
#288=LINE('',#287,#286);
#289=CARTESIAN_POINT('',(5.294842215195E0,7.673846836900E-1,4.579922969774E0));
#290=CARTESIAN_POINT('',(5.328092012353E0,7.673846836900E-1,4.613172766932E0));
#291=CARTESIAN_POINT('',(5.384673860871E0,7.703897146141E-1,4.678868245504E0));
#292=CARTESIAN_POINT('',(5.471180244592E0,7.844768186135E-1,4.808097868233E0));
#293=CARTESIAN_POINT('',(5.541806826507E0,8.134499629662E-1,4.966593934965E0));
#294=CARTESIAN_POINT('',(5.584599820193E0,8.609310894515E-1,5.153387250880E0));
#295=CARTESIAN_POINT('',(5.591996423936E0,9.191371577268E-1,5.337310681339E0));
#296=CARTESIAN_POINT('',(5.566371960362E0,9.873484560662E-1,5.518556813887E0));
#297=CARTESIAN_POINT('',(5.506558146888E0,1.065918968667E0,5.697030925949E0));
#298=CARTESIAN_POINT('',(5.424208479232E0,1.141243206297E0,5.843123911053E0));
#299=CARTESIAN_POINT('',(5.332266264508E0,1.209399407002E0,5.957885192852E0));
#300=CARTESIAN_POINT('',(5.275328521185E0,1.246800347126E0,6.014376675589E0));
#301=CARTESIAN_POINT('',(5.243126210295E0,1.266632031939E0,6.042319715384E0));
#303=DIRECTION('',(0.E0,1.E0,0.E0));
#304=VECTOR('',#303,7.673846836900E-1);
#305=CARTESIAN_POINT('',(5.294842215195E0,0.E0,4.579922969774E0));
#306=LINE('',#305,#304);
#307=DIRECTION('',(0.E0,-1.E0,0.E0));
#308=VECTOR('',#307,4.E0);
#309=CARTESIAN_POINT('',(-8.728545125048E0,4.E0,-3.75E0));
#310=LINE('',#309,#308);
#311=DIRECTION('',(0.E0,1.E0,0.E0));
#312=VECTOR('',#311,4.E0);
#313=CARTESIAN_POINT('',(-8.728545125048E0,0.E0,3.75E0));
#314=LINE('',#313,#312);
#315=CARTESIAN_POINT('',(0.E0,4.E0,0.E0));
#316=DIRECTION('',(0.E0,-1.E0,0.E0));
#317=DIRECTION('',(-8.833308765689E-1,0.E0,4.6875E-1));
#318=AXIS2_PLACEMENT_3D('',#315,#316,#317);
#320=DIRECTION('',(1.E0,0.E0,0.E0));
#321=VECTOR('',#320,1.661898112497E0);
#322=CARTESIAN_POINT('',(-8.728545125048E0,4.E0,3.75E0));
#323=LINE('',#322,#321);
#324=CARTESIAN_POINT('',(0.E0,4.E0,0.E0));
#325=DIRECTION('',(0.E0,1.E0,0.E0));
#326=DIRECTION('',(-9.187942236893E-1,0.E0,-3.947368421053E-1));
#327=AXIS2_PLACEMENT_3D('',#324,#325,#326);
#329=DIRECTION('',(-1.E0,0.E0,0.E0));
#330=VECTOR('',#329,1.661898112497E0);
#331=CARTESIAN_POINT('',(-7.066647012551E0,4.E0,-3.75E0));
#332=LINE('',#331,#330);
#333=CARTESIAN_POINT('',(-8.728545125048E0,4.E0,-3.75E0));
#334=CARTESIAN_POINT('',(-8.728545125048E0,0.E0,-3.75E0));
#335=VERTEX_POINT('',#333);
#336=VERTEX_POINT('',#334);
#337=CARTESIAN_POINT('',(-8.728545125048E0,4.E0,3.75E0));
#338=CARTESIAN_POINT('',(-7.066647012551E0,4.E0,3.75E0));
#339=VERTEX_POINT('',#337);
#340=VERTEX_POINT('',#338);
#341=CARTESIAN_POINT('',(-6.234984768874E0,1.7E0,-5.012480915865E0));
#342=CARTESIAN_POINT('',(-8.724970796897E0,1.7E0,-3.75E0));
#343=VERTEX_POINT('',#341);
#344=VERTEX_POINT('',#342);
#345=VERTEX_POINT('',#188);
#346=VERTEX_POINT('',#200);
#347=CARTESIAN_POINT('',(5.243126210295E0,0.E0,6.042319715384E0));
#348=CARTESIAN_POINT('',(-6.234984768874E0,0.E0,5.012480915865E0));
#349=VERTEX_POINT('',#347);
#350=VERTEX_POINT('',#348);
#351=CARTESIAN_POINT('',(5.294842215195E0,0.E0,4.579922969774E0));
#352=VERTEX_POINT('',#351);
#353=VERTEX_POINT('',#243);
#354=CARTESIAN_POINT('',(-8.724970796897E0,0.E0,-3.75E0));
#355=VERTEX_POINT('',#354);
#356=VERTEX_POINT('',#234);
#357=VERTEX_POINT('',#238);
#358=CARTESIAN_POINT('',(-6.234984768874E0,0.E0,-5.012480915865E0));
#359=CARTESIAN_POINT('',(0.E0,0.E0,-8.E0));
#360=VERTEX_POINT('',#358);
#361=VERTEX_POINT('',#359);
#362=CARTESIAN_POINT('',(-7.066647012551E0,4.E0,-3.75E0));
#363=VERTEX_POINT('',#362);
#364=CARTESIAN_POINT('',(2.150048768801E0,1.7E0,4.263556648126E0));
#365=CARTESIAN_POINT('',(0.E0,1.7E0,4.775E0));
#366=VERTEX_POINT('',#364);
#367=VERTEX_POINT('',#365);
#368=CARTESIAN_POINT('',(5.243126210295E0,0.E0,-6.042319715384E0));
#369=VERTEX_POINT('',#368);
#370=CARTESIAN_POINT('',(-8.728545125048E0,0.E0,3.75E0));
#371=CARTESIAN_POINT('',(-8.724970796897E0,0.E0,3.75E0));
#372=VERTEX_POINT('',#370);
#373=VERTEX_POINT('',#371);
#374=CARTESIAN_POINT('',(3.074932943604E0,0.E0,3.653137335543E0));
#375=CARTESIAN_POINT('',(3.074932943604E0,1.193765444761E0,3.653137335543E0));
#376=VERTEX_POINT('',#374);
#377=VERTEX_POINT('',#375);
#378=CARTESIAN_POINT('',(-6.234984768874E0,1.7E0,5.012480915865E0));
#379=VERTEX_POINT('',#378);
#380=CARTESIAN_POINT('',(0.E0,1.7E0,-8.E0));
#381=VERTEX_POINT('',#380);
#382=CARTESIAN_POINT('',(4.426004739158E0,0.E0,-3.711085493737E0));
#383=CARTESIAN_POINT('',(4.426004739158E0,7.673846836900E-1,-3.711085493737E0));
#384=VERTEX_POINT('',#382);
#385=VERTEX_POINT('',#383);
#386=CARTESIAN_POINT('',(5.243126210295E0,1.266632031939E0,6.042319715384E0));
#387=VERTEX_POINT('',#386);
#388=CARTESIAN_POINT('',(4.426004739158E0,7.673846836900E-1,3.711085493737E0));
#389=CARTESIAN_POINT('',(4.426004739158E0,0.E0,3.711085493737E0));
#390=VERTEX_POINT('',#388);
#391=VERTEX_POINT('',#389);
#392=CARTESIAN_POINT('',(5.294842215195E0,7.673846836900E-1,4.579922969774E0));
#393=VERTEX_POINT('',#392);
#394=CARTESIAN_POINT('',(5.294842215195E0,0.E0,-4.579922969774E0));
#395=VERTEX_POINT('',#394);
#396=CARTESIAN_POINT('',(3.718897957972E0,0.E0,3.418192274924E0));
#397=VERTEX_POINT('',#396);
#398=VERTEX_POINT('',#259);
#399=CARTESIAN_POINT('',(-8.724970796897E0,1.7E0,3.75E0));
#400=VERTEX_POINT('',#399);
#401=CARTESIAN_POINT('',(0.E0,1.7E0,-4.775E0));
#402=VERTEX_POINT('',#401);
#403=VERTEX_POINT('',#222);
#404=CARTESIAN_POINT('',(-7.066647012551E0,1.7E0,-3.75E0));
#405=CARTESIAN_POINT('',(-7.066647012551E0,1.7E0,3.75E0));
#406=VERTEX_POINT('',#404);
#407=VERTEX_POINT('',#405);
#408=CARTESIAN_POINT('',(3.074932943604E0,0.E0,-3.653137335543E0));
#409=CARTESIAN_POINT('',(0.E0,0.E0,-4.775E0));
#410=VERTEX_POINT('',#408);
#411=VERTEX_POINT('',#409);
#412=CARTESIAN_POINT('',(0.E0,0.E0,4.775E0));
#413=VERTEX_POINT('',#412);
#414=CARTESIAN_POINT('',(4.500517972977E0,1.7E0,6.614025852302E0));
#415=VERTEX_POINT('',#414);
#416=CARTESIAN_POINT('',(-8.728545125048E0,4.E0,-3.75E0));
#417=DIRECTION('',(0.E0,0.E0,-1.E0));
#418=DIRECTION('',(-1.E0,0.E0,0.E0));
#419=AXIS2_PLACEMENT_3D('',#416,#417,#418);
#420=PLANE('',#419);
#422=ORIENTED_EDGE('',*,*,#421,.T.);
#424=ORIENTED_EDGE('',*,*,#423,.T.);
#426=ORIENTED_EDGE('',*,*,#425,.T.);
#428=ORIENTED_EDGE('',*,*,#427,.F.);
#430=ORIENTED_EDGE('',*,*,#429,.T.);
#432=ORIENTED_EDGE('',*,*,#431,.T.);
#433=EDGE_LOOP('',(#422,#424,#426,#428,#430,#432));
#434=FACE_OUTER_BOUND('',#433,.F.);
#435=ADVANCED_FACE('',(#434),#420,.T.);
#436=CARTESIAN_POINT('',(0.E0,4.E0,0.E0));
#437=DIRECTION('',(0.E0,-1.E0,0.E0));
#438=DIRECTION('',(0.E0,0.E0,-1.E0));
#439=AXIS2_PLACEMENT_3D('',#436,#437,#438);
#440=CYLINDRICAL_SURFACE('',#439,8.E0);
#442=ORIENTED_EDGE('',*,*,#441,.F.);
#444=ORIENTED_EDGE('',*,*,#443,.T.);
#445=ORIENTED_EDGE('',*,*,#421,.F.);
#447=ORIENTED_EDGE('',*,*,#446,.T.);
#448=EDGE_LOOP('',(#442,#444,#445,#447));
#449=FACE_OUTER_BOUND('',#448,.F.);
#450=ADVANCED_FACE('',(#449),#440,.F.);
#451=CARTESIAN_POINT('',(-8.728545125048E0,4.E0,3.75E0));
#452=DIRECTION('',(0.E0,0.E0,1.E0));
#453=DIRECTION('',(1.E0,0.E0,0.E0));
#454=AXIS2_PLACEMENT_3D('',#451,#452,#453);
#455=PLANE('',#454);
#457=ORIENTED_EDGE('',*,*,#456,.F.);
#459=ORIENTED_EDGE('',*,*,#458,.T.);
#461=ORIENTED_EDGE('',*,*,#460,.T.);
#462=ORIENTED_EDGE('',*,*,#441,.T.);
#464=ORIENTED_EDGE('',*,*,#463,.T.);
#466=ORIENTED_EDGE('',*,*,#465,.T.);
#467=EDGE_LOOP('',(#457,#459,#461,#462,#464,#466));
#468=FACE_OUTER_BOUND('',#467,.F.);
#469=ADVANCED_FACE('',(#468),#455,.T.);
#470=CARTESIAN_POINT('',(0.E0,0.E0,0.E0));
#471=DIRECTION('',(0.E0,1.E0,0.E0));
#472=DIRECTION('',(0.E0,0.E0,1.E0));
#473=AXIS2_PLACEMENT_3D('',#470,#471,#472);
#474=PLANE('',#473);
#476=ORIENTED_EDGE('',*,*,#475,.F.);
#478=ORIENTED_EDGE('',*,*,#477,.F.);
#480=ORIENTED_EDGE('',*,*,#479,.F.);
#482=ORIENTED_EDGE('',*,*,#481,.F.);
#484=ORIENTED_EDGE('',*,*,#483,.F.);
#486=ORIENTED_EDGE('',*,*,#485,.F.);
#488=ORIENTED_EDGE('',*,*,#487,.F.);
#490=ORIENTED_EDGE('',*,*,#489,.F.);
#492=ORIENTED_EDGE('',*,*,#491,.F.);
#494=ORIENTED_EDGE('',*,*,#493,.F.);
#496=ORIENTED_EDGE('',*,*,#495,.F.);
#498=ORIENTED_EDGE('',*,*,#497,.F.);
#499=ORIENTED_EDGE('',*,*,#427,.T.);
#501=ORIENTED_EDGE('',*,*,#500,.F.);
#502=ORIENTED_EDGE('',*,*,#456,.T.);
#504=ORIENTED_EDGE('',*,*,#503,.F.);
#506=ORIENTED_EDGE('',*,*,#505,.F.);
#508=ORIENTED_EDGE('',*,*,#507,.F.);
#509=EDGE_LOOP('',(#476,#478,#480,#482,#484,#486,#488,#490,#492,#494,#496,#498,
#499,#501,#502,#504,#506,#508));
#510=FACE_OUTER_BOUND('',#509,.F.);
#511=ADVANCED_FACE('',(#510),#474,.F.);
#512=CARTESIAN_POINT('',(3.714919245421E0,-1.E0,3.E0));
#513=DIRECTION('',(-7.071067811866E-1,0.E0,7.071067811865E-1));
#514=DIRECTION('',(7.071067811865E-1,0.E0,7.071067811866E-1));
#515=AXIS2_PLACEMENT_3D('',#512,#513,#514);
#516=PLANE('',#515);
#518=ORIENTED_EDGE('',*,*,#517,.T.);
#520=ORIENTED_EDGE('',*,*,#519,.T.);
#521=ORIENTED_EDGE('',*,*,#475,.T.);
#523=ORIENTED_EDGE('',*,*,#522,.T.);
#524=EDGE_LOOP('',(#518,#520,#521,#523));
#525=FACE_OUTER_BOUND('',#524,.F.);
#526=ADVANCED_FACE('',(#525),#516,.F.);
#527=CARTESIAN_POINT('',(3.714919245421E0,7.673846836900E-1,3.E0));
#528=DIRECTION('',(2.988362387301E-1,9.063077870367E-1,-2.988362387301E-1));
#529=DIRECTION('',(-7.071067811865E-1,0.E0,-7.071067811866E-1));
#530=AXIS2_PLACEMENT_3D('',#527,#528,#529);
#531=PLANE('',#530);
#533=ORIENTED_EDGE('',*,*,#532,.F.);
#535=ORIENTED_EDGE('',*,*,#534,.T.);
#537=ORIENTED_EDGE('',*,*,#536,.F.);
#539=ORIENTED_EDGE('',*,*,#538,.T.);
#541=ORIENTED_EDGE('',*,*,#540,.T.);
#542=ORIENTED_EDGE('',*,*,#517,.F.);
#544=ORIENTED_EDGE('',*,*,#543,.T.);
#545=EDGE_LOOP('',(#533,#535,#537,#539,#541,#542,#544));
#546=FACE_OUTER_BOUND('',#545,.F.);
#547=ADVANCED_FACE('',(#546),#531,.T.);
#548=CARTESIAN_POINT('',(0.E0,1.7E0,0.E0));
#549=DIRECTION('',(0.E0,-1.E0,0.E0));
#550=DIRECTION('',(0.E0,0.E0,-1.E0));
#551=AXIS2_PLACEMENT_3D('',#548,#549,#550);
#552=CYLINDRICAL_SURFACE('',#551,8.E0);
#554=ORIENTED_EDGE('',*,*,#553,.T.);
#555=ORIENTED_EDGE('',*,*,#532,.T.);
#557=ORIENTED_EDGE('',*,*,#556,.T.);
#558=ORIENTED_EDGE('',*,*,#505,.T.);
#560=ORIENTED_EDGE('',*,*,#559,.F.);
#561=EDGE_LOOP('',(#554,#555,#557,#558,#560));
#562=FACE_OUTER_BOUND('',#561,.F.);
#563=ADVANCED_FACE('',(#562),#552,.T.);
#564=CARTESIAN_POINT('',(0.E0,1.7E0,0.E0));
#565=DIRECTION('',(0.E0,1.E0,0.E0));
#566=DIRECTION('',(0.E0,0.E0,1.E0));
#567=AXIS2_PLACEMENT_3D('',#564,#565,#566);
#568=PLANE('',#567);
#569=ORIENTED_EDGE('',*,*,#446,.F.);
#570=ORIENTED_EDGE('',*,*,#431,.F.);
#572=ORIENTED_EDGE('',*,*,#571,.F.);
#574=ORIENTED_EDGE('',*,*,#573,.F.);
#576=ORIENTED_EDGE('',*,*,#575,.F.);
#578=ORIENTED_EDGE('',*,*,#577,.F.);
#580=ORIENTED_EDGE('',*,*,#579,.F.);
#582=ORIENTED_EDGE('',*,*,#581,.F.);
#584=ORIENTED_EDGE('',*,*,#583,.F.);
#585=ORIENTED_EDGE('',*,*,#534,.F.);
#586=ORIENTED_EDGE('',*,*,#553,.F.);
#588=ORIENTED_EDGE('',*,*,#587,.F.);
#589=ORIENTED_EDGE('',*,*,#463,.F.);
#590=EDGE_LOOP('',(#569,#570,#572,#574,#576,#578,#580,#582,#584,#585,#586,#588,
#589));
#591=FACE_OUTER_BOUND('',#590,.F.);
#592=ADVANCED_FACE('',(#591),#568,.T.);
#593=CARTESIAN_POINT('',(-6.234984768874E0,1.7E0,-5.012480915865E0));
#594=DIRECTION('',(-4.522178783913E-1,0.E0,-8.919075010691E-1));
#595=DIRECTION('',(0.E0,-1.E0,0.E0));
#596=AXIS2_PLACEMENT_3D('',#593,#594,#595);
#597=PLANE('',#596);
#598=ORIENTED_EDGE('',*,*,#497,.T.);
#600=ORIENTED_EDGE('',*,*,#599,.T.);
#601=ORIENTED_EDGE('',*,*,#571,.T.);
#602=ORIENTED_EDGE('',*,*,#429,.F.);
#603=EDGE_LOOP('',(#598,#600,#601,#602));
#604=FACE_OUTER_BOUND('',#603,.F.);
#605=ADVANCED_FACE('',(#604),#597,.T.);
#606=CARTESIAN_POINT('',(0.E0,1.7E0,0.E0));
#607=DIRECTION('',(0.E0,-1.E0,0.E0));
#608=DIRECTION('',(0.E0,0.E0,-1.E0));
#609=AXIS2_PLACEMENT_3D('',#606,#607,#608);
#610=CYLINDRICAL_SURFACE('',#609,8.E0);
#611=ORIENTED_EDGE('',*,*,#573,.T.);
#612=ORIENTED_EDGE('',*,*,#599,.F.);
#613=ORIENTED_EDGE('',*,*,#495,.T.);
#615=ORIENTED_EDGE('',*,*,#614,.T.);
#616=EDGE_LOOP('',(#611,#612,#613,#615));
#617=FACE_OUTER_BOUND('',#616,.F.);
#618=ADVANCED_FACE('',(#617),#610,.T.);
#619=CARTESIAN_POINT('',(0.E0,1.7E0,0.E0));
#620=DIRECTION('',(0.E0,-1.E0,0.E0));
#621=DIRECTION('',(0.E0,0.E0,-1.E0));
#622=AXIS2_PLACEMENT_3D('',#619,#620,#621);
#623=CYLINDRICAL_SURFACE('',#622,8.E0);
#624=ORIENTED_EDGE('',*,*,#614,.F.);
#625=ORIENTED_EDGE('',*,*,#493,.T.);
#627=ORIENTED_EDGE('',*,*,#626,.T.);
#629=ORIENTED_EDGE('',*,*,#628,.T.);
#630=ORIENTED_EDGE('',*,*,#575,.T.);
#631=EDGE_LOOP('',(#624,#625,#627,#629,#630));
#632=FACE_OUTER_BOUND('',#631,.F.);
#633=ADVANCED_FACE('',(#632),#623,.T.);
#634=CARTESIAN_POINT('',(4.587735434009E0,1.7E0,-5.287029750961E0));
#635=DIRECTION('',(0.E0,-1.E0,0.E0));
#636=DIRECTION('',(0.E0,0.E0,-1.E0));
#637=AXIS2_PLACEMENT_3D('',#634,#635,#636);
#638=CYLINDRICAL_SURFACE('',#637,1.E0);
#639=ORIENTED_EDGE('',*,*,#491,.T.);
#641=ORIENTED_EDGE('',*,*,#640,.F.);
#643=ORIENTED_EDGE('',*,*,#642,.F.);
#644=ORIENTED_EDGE('',*,*,#626,.F.);
#645=EDGE_LOOP('',(#639,#641,#643,#644));
#646=FACE_OUTER_BOUND('',#645,.F.);
#647=ADVANCED_FACE('',(#646),#638,.T.);
#648=CARTESIAN_POINT('',(3.714919245421E0,-1.E0,-3.E0));
#649=DIRECTION('',(-7.071067811866E-1,0.E0,-7.071067811865E-1));
#650=DIRECTION('',(-7.071067811865E-1,0.E0,7.071067811866E-1));
#651=AXIS2_PLACEMENT_3D('',#648,#649,#650);
#652=PLANE('',#651);
#653=ORIENTED_EDGE('',*,*,#489,.T.);
#655=ORIENTED_EDGE('',*,*,#654,.T.);
#657=ORIENTED_EDGE('',*,*,#656,.T.);
#658=ORIENTED_EDGE('',*,*,#640,.T.);
#659=EDGE_LOOP('',(#653,#655,#657,#658));
#660=FACE_OUTER_BOUND('',#659,.F.);
#661=ADVANCED_FACE('',(#660),#652,.F.);
#662=CARTESIAN_POINT('',(3.718897957972E0,1.7E0,-4.418192274924E0));
#663=DIRECTION('',(0.E0,-1.E0,0.E0));
#664=DIRECTION('',(0.E0,0.E0,-1.E0));
#665=AXIS2_PLACEMENT_3D('',#662,#663,#664);
#666=CYLINDRICAL_SURFACE('',#665,1.E0);
#668=ORIENTED_EDGE('',*,*,#667,.F.);
#669=ORIENTED_EDGE('',*,*,#654,.F.);
#670=ORIENTED_EDGE('',*,*,#487,.T.);
#672=ORIENTED_EDGE('',*,*,#671,.F.);
#674=ORIENTED_EDGE('',*,*,#673,.F.);
#675=EDGE_LOOP('',(#668,#669,#670,#672,#674));
#676=FACE_OUTER_BOUND('',#675,.F.);
#677=ADVANCED_FACE('',(#676),#666,.T.);
#678=CARTESIAN_POINT('',(3.714919245421E0,7.673846836900E-1,-3.E0));
#679=DIRECTION('',(2.988362387301E-1,9.063077870367E-1,2.988362387301E-1));
#680=DIRECTION('',(7.071067811865E-1,0.E0,-7.071067811866E-1));
#681=AXIS2_PLACEMENT_3D('',#678,#679,#680);
#682=PLANE('',#681);
#683=ORIENTED_EDGE('',*,*,#656,.F.);
#684=ORIENTED_EDGE('',*,*,#667,.T.);
#685=ORIENTED_EDGE('',*,*,#673,.T.);
#687=ORIENTED_EDGE('',*,*,#686,.F.);
#688=ORIENTED_EDGE('',*,*,#577,.T.);
#689=ORIENTED_EDGE('',*,*,#628,.F.);
#690=ORIENTED_EDGE('',*,*,#642,.T.);
#691=EDGE_LOOP('',(#683,#684,#685,#687,#688,#689,#690));
#692=FACE_OUTER_BOUND('',#691,.F.);
#693=ADVANCED_FACE('',(#692),#682,.T.);
#694=CARTESIAN_POINT('',(0.E0,1.7E0,0.E0));
#695=DIRECTION('',(0.E0,-1.E0,0.E0));
#696=DIRECTION('',(0.E0,0.E0,-1.E0));
#697=AXIS2_PLACEMENT_3D('',#694,#695,#696);
#698=CYLINDRICAL_SURFACE('',#697,4.775E0);
#699=ORIENTED_EDGE('',*,*,#579,.T.);
#700=ORIENTED_EDGE('',*,*,#686,.T.);
#701=ORIENTED_EDGE('',*,*,#671,.T.);
#702=ORIENTED_EDGE('',*,*,#485,.T.);
#704=ORIENTED_EDGE('',*,*,#703,.T.);
#705=EDGE_LOOP('',(#699,#700,#701,#702,#704));
#706=FACE_OUTER_BOUND('',#705,.F.);
#707=ADVANCED_FACE('',(#706),#698,.F.);
#708=CARTESIAN_POINT('',(0.E0,1.7E0,0.E0));
#709=DIRECTION('',(0.E0,-1.E0,0.E0));
#710=DIRECTION('',(0.E0,0.E0,-1.E0));
#711=AXIS2_PLACEMENT_3D('',#708,#709,#710);
#712=CYLINDRICAL_SURFACE('',#711,4.775E0);
#713=ORIENTED_EDGE('',*,*,#581,.T.);
#714=ORIENTED_EDGE('',*,*,#703,.F.);
#715=ORIENTED_EDGE('',*,*,#483,.T.);
#717=ORIENTED_EDGE('',*,*,#716,.T.);
#718=EDGE_LOOP('',(#713,#714,#715,#717));
#719=FACE_OUTER_BOUND('',#718,.F.);
#720=ADVANCED_FACE('',(#719),#712,.F.);
#721=CARTESIAN_POINT('',(0.E0,1.7E0,0.E0));
#722=DIRECTION('',(0.E0,-1.E0,0.E0));
#723=DIRECTION('',(0.E0,0.E0,-1.E0));
#724=AXIS2_PLACEMENT_3D('',#721,#722,#723);
#725=CYLINDRICAL_SURFACE('',#724,4.775E0);
#726=ORIENTED_EDGE('',*,*,#716,.F.);
#727=ORIENTED_EDGE('',*,*,#481,.T.);
#729=ORIENTED_EDGE('',*,*,#728,.T.);
#730=ORIENTED_EDGE('',*,*,#536,.T.);
#731=ORIENTED_EDGE('',*,*,#583,.T.);
#732=EDGE_LOOP('',(#726,#727,#729,#730,#731));
#733=FACE_OUTER_BOUND('',#732,.F.);
#734=ADVANCED_FACE('',(#733),#725,.F.);
#735=CARTESIAN_POINT('',(3.718897957972E0,1.7E0,4.418192274924E0));
#736=DIRECTION('',(0.E0,-1.E0,0.E0));
#737=DIRECTION('',(0.E0,0.E0,-1.E0));
#738=AXIS2_PLACEMENT_3D('',#735,#736,#737);
#739=CYLINDRICAL_SURFACE('',#738,1.E0);
#740=ORIENTED_EDGE('',*,*,#538,.F.);
#741=ORIENTED_EDGE('',*,*,#728,.F.);
#742=ORIENTED_EDGE('',*,*,#479,.T.);
#744=ORIENTED_EDGE('',*,*,#743,.T.);
#745=EDGE_LOOP('',(#740,#741,#742,#744));
#746=FACE_OUTER_BOUND('',#745,.F.);
#747=ADVANCED_FACE('',(#746),#739,.T.);
#748=CARTESIAN_POINT('',(3.718897957972E0,1.7E0,4.418192274924E0));
#749=DIRECTION('',(0.E0,-1.E0,0.E0));
#750=DIRECTION('',(0.E0,0.E0,-1.E0));
#751=AXIS2_PLACEMENT_3D('',#748,#749,#750);
#752=CYLINDRICAL_SURFACE('',#751,1.E0);
#753=ORIENTED_EDGE('',*,*,#743,.F.);
#754=ORIENTED_EDGE('',*,*,#477,.T.);
#755=ORIENTED_EDGE('',*,*,#519,.F.);
#756=ORIENTED_EDGE('',*,*,#540,.F.);
#757=EDGE_LOOP('',(#753,#754,#755,#756));
#758=FACE_OUTER_BOUND('',#757,.F.);
#759=ADVANCED_FACE('',(#758),#752,.T.);
#760=CARTESIAN_POINT('',(-6.234984768874E0,1.7E0,5.012480915865E0));
#761=DIRECTION('',(4.522178783913E-1,0.E0,-8.919075010691E-1));
#762=DIRECTION('',(0.E0,-1.E0,0.E0));
#763=AXIS2_PLACEMENT_3D('',#760,#761,#762);
#764=PLANE('',#763);
#765=ORIENTED_EDGE('',*,*,#587,.T.);
#766=ORIENTED_EDGE('',*,*,#559,.T.);
#767=ORIENTED_EDGE('',*,*,#503,.T.);
#768=ORIENTED_EDGE('',*,*,#465,.F.);
#769=EDGE_LOOP('',(#765,#766,#767,#768));
#770=FACE_OUTER_BOUND('',#769,.F.);
#771=ADVANCED_FACE('',(#770),#764,.F.);
#772=CARTESIAN_POINT('',(4.587735434009E0,1.7E0,5.287029750961E0));
#773=DIRECTION('',(0.E0,-1.E0,0.E0));
#774=DIRECTION('',(0.E0,0.E0,-1.E0));
#775=AXIS2_PLACEMENT_3D('',#772,#773,#774);
#776=CYLINDRICAL_SURFACE('',#775,1.E0);
#777=ORIENTED_EDGE('',*,*,#507,.T.);
#778=ORIENTED_EDGE('',*,*,#556,.F.);
#779=ORIENTED_EDGE('',*,*,#543,.F.);
#780=ORIENTED_EDGE('',*,*,#522,.F.);
#781=EDGE_LOOP('',(#777,#778,#779,#780));
#782=FACE_OUTER_BOUND('',#781,.F.);
#783=ADVANCED_FACE('',(#782),#776,.T.);
#784=CARTESIAN_POINT('',(0.E0,4.E0,0.E0));
#785=DIRECTION('',(0.E0,-1.E0,0.E0));
#786=DIRECTION('',(0.E0,0.E0,-1.E0));
#787=AXIS2_PLACEMENT_3D('',#784,#785,#786);
#788=CYLINDRICAL_SURFACE('',#787,9.5E0);
#789=ORIENTED_EDGE('',*,*,#500,.T.);
#790=ORIENTED_EDGE('',*,*,#425,.F.);
#792=ORIENTED_EDGE('',*,*,#791,.T.);
#793=ORIENTED_EDGE('',*,*,#458,.F.);
#794=EDGE_LOOP('',(#789,#790,#792,#793));
#795=FACE_OUTER_BOUND('',#794,.F.);
#796=ADVANCED_FACE('',(#795),#788,.T.);
#797=CARTESIAN_POINT('',(0.E0,4.E0,0.E0));
#798=DIRECTION('',(0.E0,-1.E0,0.E0));
#799=DIRECTION('',(0.E0,0.E0,-1.E0));
#800=AXIS2_PLACEMENT_3D('',#797,#798,#799);
#801=PLANE('',#800);
#802=ORIENTED_EDGE('',*,*,#443,.F.);
#803=ORIENTED_EDGE('',*,*,#460,.F.);
#804=ORIENTED_EDGE('',*,*,#791,.F.);
#805=ORIENTED_EDGE('',*,*,#423,.F.);
#806=EDGE_LOOP('',(#802,#803,#804,#805));
#807=FACE_OUTER_BOUND('',#806,.F.);
#808=ADVANCED_FACE('',(#807),#801,.F.);
#809=CLOSED_SHELL('',(#435,#450,#469,#511,#526,#547,#563,#592,#605,#618,#633,
#647,#661,#677,#693,#707,#720,#734,#747,#759,#771,#783,#796,#808));
#810=MANIFOLD_SOLID_BREP('',#809);
#812=DIMENSIONAL_EXPONENTS(0.E0,0.E0,0.E0,0.E0,0.E0,0.E0,0.E0);
#814=PLANE_ANGLE_MEASURE_WITH_UNIT(PLANE_ANGLE_MEASURE(1.745329251994E-2),#813);
#815=(CONVERSION_BASED_UNIT('DEGREE',#814)NAMED_UNIT(*)PLANE_ANGLE_UNIT());
#817=UNCERTAINTY_MEASURE_WITH_UNIT(LENGTH_MEASURE(1.860700701876E-4),#811,
'closure',
'Maximum model space distance between geometric entities at asserted connectivities');
#818=(GEOMETRIC_REPRESENTATION_CONTEXT(3)GLOBAL_UNCERTAINTY_ASSIGNED_CONTEXT((
#817))GLOBAL_UNIT_ASSIGNED_CONTEXT((#811,#815,#816))REPRESENTATION_CONTEXT
('ID1','3'));
#820=APPLICATION_CONTEXT(
'CONFIGURATION CONTROLLED 3D DESIGNS OF MECHANICAL PARTS AND ASSEMBLIES');
#821=APPLICATION_PROTOCOL_DEFINITION('international standard',
'config_control_design',1994,#820);
#822=DESIGN_CONTEXT('',#820,'design');
#823=MECHANICAL_CONTEXT('',#820,'mechanical');
#824=PRODUCT('2_50001','2_50001','NOT SPECIFIED',(#823));
#825=PRODUCT_DEFINITION_FORMATION_WITH_SPECIFIED_SOURCE('1','LAST_VERSION',#824,
.MADE.);
#829=PRODUCT_CATEGORY('part','');
#830=PRODUCT_RELATED_PRODUCT_CATEGORY('detail','',(#824));
#831=PRODUCT_CATEGORY_RELATIONSHIP('','',#829,#830);
#832=SECURITY_CLASSIFICATION_LEVEL('unclassified');
#833=SECURITY_CLASSIFICATION('','',#832);
#834=CC_DESIGN_SECURITY_CLASSIFICATION(#833,(#825));
#835=APPROVAL_STATUS('approved');
#836=APPROVAL(#835,'');
#837=CC_DESIGN_APPROVAL(#836,(#833,#825,#826));
#838=CALENDAR_DATE(126,3,7);
#839=COORDINATED_UNIVERSAL_TIME_OFFSET(8,0,.AHEAD.);
#840=LOCAL_TIME(17,9,3.3E1,#839);
#841=DATE_AND_TIME(#838,#840);
#842=APPROVAL_DATE_TIME(#841,#836);
#843=DATE_TIME_ROLE('creation_date');
#844=CC_DESIGN_DATE_AND_TIME_ASSIGNMENT(#841,#843,(#826));
#845=DATE_TIME_ROLE('classification_date');
#846=CC_DESIGN_DATE_AND_TIME_ASSIGNMENT(#841,#845,(#833));
#847=PERSON('UNSPECIFIED','UNSPECIFIED',$,$,$,$);
#848=ORGANIZATION('UNSPECIFIED','UNSPECIFIED','UNSPECIFIED');
#849=PERSON_AND_ORGANIZATION(#847,#848);
#850=APPROVAL_ROLE('approver');
#851=APPROVAL_PERSON_ORGANIZATION(#849,#836,#850);
#852=PERSON_AND_ORGANIZATION_ROLE('creator');
#853=CC_DESIGN_PERSON_AND_ORGANIZATION_ASSIGNMENT(#849,#852,(#825,#826));
#854=PERSON_AND_ORGANIZATION_ROLE('design_supplier');
#855=CC_DESIGN_PERSON_AND_ORGANIZATION_ASSIGNMENT(#849,#854,(#825));
#856=PERSON_AND_ORGANIZATION_ROLE('classification_officer');
#857=CC_DESIGN_PERSON_AND_ORGANIZATION_ASSIGNMENT(#849,#856,(#833));
#858=PERSON_AND_ORGANIZATION_ROLE('design_owner');
#859=CC_DESIGN_PERSON_AND_ORGANIZATION_ASSIGNMENT(#849,#858,(#824));
#26=CIRCLE('',#25,1.E0);
#31=CIRCLE('',#30,1.E0);
#36=CIRCLE('',#35,4.775E0);
#41=CIRCLE('',#40,4.775E0);
#46=CIRCLE('',#45,4.775E0);
#51=CIRCLE('',#50,1.E0);
#60=CIRCLE('',#59,1.E0);
#65=CIRCLE('',#64,8.E0);
#70=CIRCLE('',#69,8.E0);
#79=CIRCLE('',#78,9.5E0);
#88=CIRCLE('',#87,8.E0);
#93=CIRCLE('',#92,1.E0);
#98=B_SPLINE_CURVE_WITH_KNOTS('',3,(#94,#95,#96,#97),.UNSPECIFIED.,.F.,.F.,(4,
4),(0.E0,1.E0),.UNSPECIFIED.);
#104=B_SPLINE_CURVE_WITH_KNOTS('',3,(#99,#100,#101,#102,#103),.UNSPECIFIED.,.F.,
.F.,(4,1,4),(0.E0,5.E-1,1.E0),.UNSPECIFIED.);
#117=CIRCLE('',#116,8.E0);
#130=CIRCLE('',#129,8.E0);
#135=CIRCLE('',#134,8.E0);
#144=CIRCLE('',#143,4.775E0);
#149=CIRCLE('',#148,4.775E0);
#154=CIRCLE('',#153,4.775E0);
#163=CIRCLE('',#162,8.E0);
#201=B_SPLINE_CURVE_WITH_KNOTS('',3,(#188,#189,#190,#191,#192,#193,#194,#195,
#196,#197,#198,#199,#200),.UNSPECIFIED.,.F.,.F.,(4,1,1,1,1,1,1,1,1,1,4),(0.E0,
6.25E-2,1.25E-1,2.5E-1,3.75E-1,5.E-1,6.25E-1,7.5E-1,8.75E-1,9.375E-1,1.E0),
.UNSPECIFIED.);
#213=B_SPLINE_CURVE_WITH_KNOTS('',3,(#206,#207,#208,#209,#210,#211,#212),
.UNSPECIFIED.,.F.,.F.,(4,1,1,1,4),(0.E0,2.5E-1,5.E-1,7.5E-1,1.E0),
.UNSPECIFIED.);
#229=B_SPLINE_CURVE_WITH_KNOTS('',3,(#222,#223,#224,#225,#226,#227,#228),
.UNSPECIFIED.,.F.,.F.,(4,1,1,1,4),(0.E0,2.5E-1,5.E-1,7.5E-1,1.E0),
.UNSPECIFIED.);
#239=B_SPLINE_CURVE_WITH_KNOTS('',3,(#234,#235,#236,#237,#238),.UNSPECIFIED.,
.F.,.F.,(4,1,4),(0.E0,5.E-1,1.E0),.UNSPECIFIED.);
#244=B_SPLINE_CURVE_WITH_KNOTS('',3,(#240,#241,#242,#243),.UNSPECIFIED.,.F.,.F.,
(4,4),(0.E0,1.E0),.UNSPECIFIED.);
#260=B_SPLINE_CURVE_WITH_KNOTS('',3,(#253,#254,#255,#256,#257,#258,#259),
.UNSPECIFIED.,.F.,.F.,(4,1,1,1,4),(0.E0,2.5E-1,5.E-1,7.5E-1,1.E0),
.UNSPECIFIED.);
#280=B_SPLINE_CURVE_WITH_KNOTS('',3,(#273,#274,#275,#276,#277,#278,#279),
.UNSPECIFIED.,.F.,.F.,(4,1,1,1,4),(0.E0,2.5E-1,5.E-1,7.5E-1,1.E0),
.UNSPECIFIED.);
#302=B_SPLINE_CURVE_WITH_KNOTS('',3,(#289,#290,#291,#292,#293,#294,#295,#296,
#297,#298,#299,#300,#301),.UNSPECIFIED.,.F.,.F.,(4,1,1,1,1,1,1,1,1,1,4),(0.E0,
6.25E-2,1.25E-1,2.5E-1,3.75E-1,5.E-1,6.25E-1,7.5E-1,8.75E-1,9.375E-1,1.E0),
.UNSPECIFIED.);
#319=CIRCLE('',#318,8.E0);
#328=CIRCLE('',#327,9.5E0);
#421=EDGE_CURVE('',#406,#363,#13,.T.);
#423=EDGE_CURVE('',#363,#335,#332,.T.);
#425=EDGE_CURVE('',#335,#336,#310,.T.);
#427=EDGE_CURVE('',#355,#336,#5,.T.);
#429=EDGE_CURVE('',#355,#344,#175,.T.);
#431=EDGE_CURVE('',#344,#406,#121,.T.);
#441=EDGE_CURVE('',#340,#407,#9,.T.);
#443=EDGE_CURVE('',#340,#363,#319,.T.);
#446=EDGE_CURVE('',#406,#407,#117,.T.);
#456=EDGE_CURVE('',#372,#373,#17,.T.);
#458=EDGE_CURVE('',#372,#339,#314,.T.);
#460=EDGE_CURVE('',#339,#340,#323,.T.);
#463=EDGE_CURVE('',#407,#400,#171,.T.);
#465=EDGE_CURVE('',#400,#373,#284,.T.);
#475=EDGE_CURVE('',#391,#352,#21,.T.);
#477=EDGE_CURVE('',#397,#391,#26,.T.);
#479=EDGE_CURVE('',#376,#397,#31,.T.);
#481=EDGE_CURVE('',#413,#376,#36,.T.);
#483=EDGE_CURVE('',#411,#413,#41,.T.);
#485=EDGE_CURVE('',#410,#411,#46,.T.);
#487=EDGE_CURVE('',#384,#410,#51,.T.);
#489=EDGE_CURVE('',#395,#384,#55,.T.);
#491=EDGE_CURVE('',#369,#395,#60,.T.);
#493=EDGE_CURVE('',#361,#369,#65,.T.);
#495=EDGE_CURVE('',#360,#361,#70,.T.);
#497=EDGE_CURVE('',#355,#360,#74,.T.);
#500=EDGE_CURVE('',#372,#336,#79,.T.);
#503=EDGE_CURVE('',#350,#373,#83,.T.);
#505=EDGE_CURVE('',#349,#350,#88,.T.);
#507=EDGE_CURVE('',#352,#349,#93,.T.);
#517=EDGE_CURVE('',#393,#390,#108,.T.);
#519=EDGE_CURVE('',#390,#391,#272,.T.);
#522=EDGE_CURVE('',#352,#393,#306,.T.);
#532=EDGE_CURVE('',#415,#387,#98,.T.);
#534=EDGE_CURVE('',#415,#366,#158,.T.);
#536=EDGE_CURVE('',#377,#366,#104,.T.);
#538=EDGE_CURVE('',#377,#398,#260,.T.);
#540=EDGE_CURVE('',#398,#390,#280,.T.);
#543=EDGE_CURVE('',#393,#387,#302,.T.);
#553=EDGE_CURVE('',#379,#415,#163,.T.);
#556=EDGE_CURVE('',#387,#349,#288,.T.);
#559=EDGE_CURVE('',#379,#350,#112,.T.);
#571=EDGE_CURVE('',#343,#344,#125,.T.);
#573=EDGE_CURVE('',#381,#343,#130,.T.);
#575=EDGE_CURVE('',#353,#381,#135,.T.);
#577=EDGE_CURVE('',#356,#353,#139,.T.);
#579=EDGE_CURVE('',#402,#356,#144,.T.);
#581=EDGE_CURVE('',#367,#402,#149,.T.);
#583=EDGE_CURVE('',#366,#367,#154,.T.);
#587=EDGE_CURVE('',#400,#379,#167,.T.);
#599=EDGE_CURVE('',#360,#343,#179,.T.);
#614=EDGE_CURVE('',#361,#381,#183,.T.);
#626=EDGE_CURVE('',#369,#345,#205,.T.);
#628=EDGE_CURVE('',#345,#353,#244,.T.);
#640=EDGE_CURVE('',#346,#395,#187,.T.);
#642=EDGE_CURVE('',#345,#346,#201,.T.);
#654=EDGE_CURVE('',#384,#385,#217,.T.);
#656=EDGE_CURVE('',#385,#346,#233,.T.);
#667=EDGE_CURVE('',#385,#403,#213,.T.);
#671=EDGE_CURVE('',#357,#410,#221,.T.);
#673=EDGE_CURVE('',#403,#357,#229,.T.);
#686=EDGE_CURVE('',#356,#357,#239,.T.);
#703=EDGE_CURVE('',#411,#402,#248,.T.);
#716=EDGE_CURVE('',#413,#367,#252,.T.);
#728=EDGE_CURVE('',#376,#377,#264,.T.);
#743=EDGE_CURVE('',#397,#398,#268,.T.);
#791=EDGE_CURVE('',#335,#339,#328,.T.);
#811=(LENGTH_UNIT()NAMED_UNIT(*)SI_UNIT(.MILLI.,.METRE.));
#813=(NAMED_UNIT(*)PLANE_ANGLE_UNIT()SI_UNIT($,.RADIAN.));
#816=(NAMED_UNIT(*)SI_UNIT($,.STERADIAN.)SOLID_ANGLE_UNIT());
#819=ADVANCED_BREP_SHAPE_REPRESENTATION('',(#810),#818);
#826=PRODUCT_DEFINITION('design','',#825,#822);
#827=PRODUCT_DEFINITION_SHAPE('','SHAPE FOR 2_50001.',#826);
#828=SHAPE_DEFINITION_REPRESENTATION(#827,#819);
ENDSEC;
END-ISO-10303-21;
