ISO-10303-21;
HEADER;
FILE_DESCRIPTION((''),'2;1');
FILE_NAME('FTY-04-009','2026-06-30T15:28:12',('Administrator'),(''),
'CREO PARAMETRIC BY PTC INC, 2019010','CREO PARAMETRIC BY PTC INC, 2019010','');
FILE_SCHEMA(('CONFIG_CONTROL_DESIGN'));
ENDSEC;
DATA;
#2=CARTESIAN_POINT('',(2.5E1,-1.57E2,2.9E1));
#3=DIRECTION('',(0.E0,0.E0,-1.E0));
#4=DIRECTION('',(0.E0,-1.E0,0.E0));
#5=AXIS2_PLACEMENT_3D('',#2,#3,#4);
#7=CARTESIAN_POINT('',(2.5E1,-1.57E2,2.9E1));
#8=DIRECTION('',(0.E0,0.E0,-1.E0));
#9=DIRECTION('',(0.E0,1.E0,0.E0));
#10=AXIS2_PLACEMENT_3D('',#7,#8,#9);
#12=CARTESIAN_POINT('',(2.5E1,-1.57E2,2.9E1));
#13=DIRECTION('',(0.E0,0.E0,-1.E0));
#14=DIRECTION('',(1.E0,0.E0,0.E0));
#15=AXIS2_PLACEMENT_3D('',#12,#13,#14);
#17=CARTESIAN_POINT('',(2.5E1,-1.57E2,2.9E1));
#18=DIRECTION('',(0.E0,0.E0,-1.E0));
#19=DIRECTION('',(-1.E0,0.E0,0.E0));
#20=AXIS2_PLACEMENT_3D('',#17,#18,#19);
#22=DIRECTION('',(0.E0,0.E0,1.E0));
#23=VECTOR('',#22,2.43E1);
#24=CARTESIAN_POINT('',(2.5E1,-1.603E2,2.9E1));
#25=LINE('',#24,#23);
#26=DIRECTION('',(0.E0,0.E0,1.E0));
#27=VECTOR('',#26,1.77E1);
#28=CARTESIAN_POINT('',(2.5E1,-1.537E2,2.9E1));
#29=LINE('',#28,#27);
#30=CARTESIAN_POINT('',(2.5E1,-1.537E2,4.67E1));
#31=CARTESIAN_POINT('',(2.515676506810E1,-1.536996815114E2,4.67E1));
#32=CARTESIAN_POINT('',(2.547343607276E1,-1.537225009050E2,4.672235325042E1));
#33=CARTESIAN_POINT('',(2.594729346902E1,-1.538263826366E2,4.682642169477E1));
#34=CARTESIAN_POINT('',(2.641037986122E1,-1.540020664242E2,4.700205784594E1));
#35=CARTESIAN_POINT('',(2.687169180500E1,-1.542639589862E2,4.726395424094E1));
#36=CARTESIAN_POINT('',(2.730921080997E1,-1.546185703522E2,4.761859791170E1));
#37=CARTESIAN_POINT('',(2.770751876981E1,-1.550787889361E2,4.807868344354E1));
#38=CARTESIAN_POINT('',(2.803314301877E1,-1.556429406238E2,4.864333503452E1));
#39=CARTESIAN_POINT('',(2.824926430961E1,-1.562986579183E2,4.929718576807E1));
#40=CARTESIAN_POINT('',(2.83E1,-1.567601254667E2,4.976329754348E1));
#41=CARTESIAN_POINT('',(2.83E1,-1.57E2,5.E1));
#43=DIRECTION('',(0.E0,1.E0,0.E0));
#44=VECTOR('',#43,1.77E1);
#45=CARTESIAN_POINT('',(2.5E1,-1.537E2,4.67E1));
#46=LINE('',#45,#44);
#47=CARTESIAN_POINT('',(2.83E1,-1.57E2,5.E1));
#48=CARTESIAN_POINT('',(2.83E1,-1.572398745333E2,5.023670245652E1));
#49=CARTESIAN_POINT('',(2.824926430961E1,-1.577013420817E2,5.070281423193E1));
#50=CARTESIAN_POINT('',(2.803314301877E1,-1.583570593762E2,5.135666496548E1));
#51=CARTESIAN_POINT('',(2.770751876981E1,-1.589212110639E2,5.192131655646E1));
#52=CARTESIAN_POINT('',(2.730921080997E1,-1.593814296478E2,5.238140208830E1));
#53=CARTESIAN_POINT('',(2.687169180500E1,-1.597360410138E2,5.273604575906E1));
#54=CARTESIAN_POINT('',(2.641037986122E1,-1.599979335758E2,5.299794215406E1));
#55=CARTESIAN_POINT('',(2.594729346902E1,-1.601736173634E2,5.317357830523E1));
#56=CARTESIAN_POINT('',(2.547343607276E1,-1.602774990950E2,5.327764674958E1));
#57=CARTESIAN_POINT('',(2.515676506810E1,-1.603003184886E2,5.33E1));
#58=CARTESIAN_POINT('',(2.5E1,-1.603E2,5.33E1));
#60=CARTESIAN_POINT('',(2.5E1,-1.603E2,5.33E1));
#61=CARTESIAN_POINT('',(2.484323493190E1,-1.603003184886E2,5.33E1));
#62=CARTESIAN_POINT('',(2.452656392724E1,-1.602774990950E2,5.327764674958E1));
#63=CARTESIAN_POINT('',(2.405270653098E1,-1.601736173634E2,5.317357830523E1));
#64=CARTESIAN_POINT('',(2.358962013878E1,-1.599979335758E2,5.299794215406E1));
#65=CARTESIAN_POINT('',(2.312830819500E1,-1.597360410138E2,5.273604575906E1));
#66=CARTESIAN_POINT('',(2.269078919003E1,-1.593814296478E2,5.238140208830E1));
#67=CARTESIAN_POINT('',(2.229248123019E1,-1.589212110639E2,5.192131655646E1));
#68=CARTESIAN_POINT('',(2.196685698123E1,-1.583570593762E2,5.135666496548E1));
#69=CARTESIAN_POINT('',(2.175073569039E1,-1.577013420817E2,5.070281423193E1));
#70=CARTESIAN_POINT('',(2.17E1,-1.572398745333E2,5.023670245652E1));
#71=CARTESIAN_POINT('',(2.17E1,-1.57E2,5.E1));
#73=DIRECTION('',(0.E0,1.E0,0.E0));
#74=VECTOR('',#73,2.43E1);
#75=CARTESIAN_POINT('',(2.5E1,-1.603E2,5.33E1));
#76=LINE('',#75,#74);
#77=CARTESIAN_POINT('',(2.17E1,-1.57E2,5.E1));
#78=CARTESIAN_POINT('',(2.17E1,-1.567601254667E2,4.976329754348E1));
#79=CARTESIAN_POINT('',(2.175073569039E1,-1.562986579183E2,4.929718576807E1));
#80=CARTESIAN_POINT('',(2.196685698123E1,-1.556429406238E2,4.864333503452E1));
#81=CARTESIAN_POINT('',(2.229248123019E1,-1.550787889361E2,4.807868344354E1));
#82=CARTESIAN_POINT('',(2.269078919003E1,-1.546185703522E2,4.761859791170E1));
#83=CARTESIAN_POINT('',(2.312830819500E1,-1.542639589862E2,4.726395424094E1));
#84=CARTESIAN_POINT('',(2.358962013878E1,-1.540020664242E2,4.700205784594E1));
#85=CARTESIAN_POINT('',(2.405270653098E1,-1.538263826366E2,4.682642169477E1));
#86=CARTESIAN_POINT('',(2.452656392724E1,-1.537225009050E2,4.672235325042E1));
#87=CARTESIAN_POINT('',(2.484323493190E1,-1.536996815114E2,4.67E1));
#88=CARTESIAN_POINT('',(2.5E1,-1.537E2,4.67E1));
#90=CARTESIAN_POINT('',(2.5E1,-1.36E2,5.E1));
#91=DIRECTION('',(0.E0,-1.E0,0.E0));
#92=DIRECTION('',(0.E0,0.E0,1.E0));
#93=AXIS2_PLACEMENT_3D('',#90,#91,#92);
#95=CARTESIAN_POINT('',(2.5E1,-1.36E2,5.E1));
#96=DIRECTION('',(0.E0,-1.E0,0.E0));
#97=DIRECTION('',(0.E0,0.E0,-1.E0));
#98=AXIS2_PLACEMENT_3D('',#95,#96,#97);
#100=CARTESIAN_POINT('',(2.5E1,-1.36E2,5.E1));
#101=DIRECTION('',(0.E0,1.E0,0.E0));
#102=DIRECTION('',(-1.E0,0.E0,0.E0));
#103=AXIS2_PLACEMENT_3D('',#100,#101,#102);
#105=CARTESIAN_POINT('',(2.5E1,-1.36E2,5.E1));
#106=DIRECTION('',(0.E0,1.E0,0.E0));
#107=DIRECTION('',(1.E0,0.E0,0.E0));
#108=AXIS2_PLACEMENT_3D('',#105,#106,#107);
#110=DIRECTION('',(0.E0,-1.E0,0.E0));
#111=VECTOR('',#110,1.5E0);
#112=CARTESIAN_POINT('',(2.95E1,-1.36E2,5.E1));
#113=LINE('',#112,#111);
#114=DIRECTION('',(0.E0,-1.E0,0.E0));
#115=VECTOR('',#114,1.5E0);
#116=CARTESIAN_POINT('',(2.05E1,-1.36E2,5.E1));
#117=LINE('',#116,#115);
#118=CARTESIAN_POINT('',(2.5E1,-1.375E2,5.E1));
#119=DIRECTION('',(0.E0,-1.E0,0.E0));
#120=DIRECTION('',(1.E0,0.E0,0.E0));
#121=AXIS2_PLACEMENT_3D('',#118,#119,#120);
#123=CARTESIAN_POINT('',(2.5E1,-1.375E2,5.E1));
#124=DIRECTION('',(0.E0,-1.E0,0.E0));
#125=DIRECTION('',(-1.E0,0.E0,0.E0));
#126=AXIS2_PLACEMENT_3D('',#123,#124,#125);
#128=CARTESIAN_POINT('',(2.5E1,-1.375E2,5.E1));
#129=DIRECTION('',(0.E0,-1.E0,0.E0));
#130=DIRECTION('',(0.E0,0.E0,1.E0));
#131=AXIS2_PLACEMENT_3D('',#128,#129,#130);
#133=CARTESIAN_POINT('',(2.5E1,-1.375E2,5.E1));
#134=DIRECTION('',(0.E0,-1.E0,0.E0));
#135=DIRECTION('',(0.E0,0.E0,-1.E0));
#136=AXIS2_PLACEMENT_3D('',#133,#134,#135);
#138=DIRECTION('',(1.914759155108E-10,7.071067811865E-1,-7.071067811866E-1));
#139=VECTOR('',#138,7.071067812257E-1);
#140=CARTESIAN_POINT('',(2.500000000057E1,-1.379999999999E2,5.699999999988E1));
#141=LINE('',#140,#139);
#142=DIRECTION('',(2.843059121295E-10,-1.E0,-5.818279191433E-11));
#143=VECTOR('',#142,2.000000000116E0);
#144=CARTESIAN_POINT('',(2.499999999943E1,-1.379999999999E2,4.300000000012E1));
#145=LINE('',#144,#143);
#146=CARTESIAN_POINT('',(2.5E1,-1.38E2,5.E1));
#147=DIRECTION('',(0.E0,-1.E0,0.E0));
#148=DIRECTION('',(0.E0,0.E0,1.E0));
#149=AXIS2_PLACEMENT_3D('',#146,#147,#148);
#151=DIRECTION('',(-2.843059121295E-10,-1.E0,5.817923920065E-11));
#152=VECTOR('',#151,2.000000000116E0);
#153=CARTESIAN_POINT('',(2.500000000057E1,-1.379999999999E2,5.699999999988E1));
#154=LINE('',#153,#152);
#155=CARTESIAN_POINT('',(2.5E1,-1.38E2,5.E1));
#156=DIRECTION('',(0.E0,-1.E0,0.E0));
#157=DIRECTION('',(0.E0,0.E0,-1.E0));
#158=AXIS2_PLACEMENT_3D('',#155,#156,#157);
#160=CARTESIAN_POINT('',(2.5E1,-1.4E2,5.E1));
#161=DIRECTION('',(0.E0,-1.E0,0.E0));
#162=DIRECTION('',(0.E0,0.E0,-1.E0));
#163=AXIS2_PLACEMENT_3D('',#160,#161,#162);
#165=CARTESIAN_POINT('',(2.5E1,-1.4E2,5.E1));
#166=DIRECTION('',(0.E0,1.E0,0.E0));
#167=DIRECTION('',(0.E0,0.E0,-1.E0));
#168=AXIS2_PLACEMENT_3D('',#165,#166,#167);
#170=DIRECTION('',(0.E0,-1.E0,0.E0));
#171=VECTOR('',#170,4.5E0);
#172=CARTESIAN_POINT('',(2.5E1,-1.4E2,4.25E1));
#173=LINE('',#172,#171);
#174=CARTESIAN_POINT('',(2.5E1,-1.4E2,5.E1));
#175=DIRECTION('',(0.E0,1.E0,0.E0));
#176=DIRECTION('',(0.E0,0.E0,-1.E0));
#177=AXIS2_PLACEMENT_3D('',#174,#175,#176);
#179=DIRECTION('',(0.E0,-1.E0,0.E0));
#180=VECTOR('',#179,4.5E0);
#181=CARTESIAN_POINT('',(2.5E1,-1.4E2,5.75E1));
#182=LINE('',#181,#180);
#183=CARTESIAN_POINT('',(2.5E1,-1.4E2,5.E1));
#184=DIRECTION('',(0.E0,-1.E0,0.E0));
#185=DIRECTION('',(0.E0,0.E0,-1.E0));
#186=AXIS2_PLACEMENT_3D('',#183,#184,#185);
#188=CARTESIAN_POINT('',(2.5E1,-1.445E2,5.E1));
#189=DIRECTION('',(0.E0,-1.E0,0.E0));
#190=DIRECTION('',(0.E0,0.E0,-1.E0));
#191=AXIS2_PLACEMENT_3D('',#188,#189,#190);
#193=CARTESIAN_POINT('',(2.5E1,-1.445E2,5.E1));
#194=DIRECTION('',(0.E0,1.E0,0.E0));
#195=DIRECTION('',(0.E0,0.E0,-1.E0));
#196=AXIS2_PLACEMENT_3D('',#193,#194,#195);
#198=DIRECTION('',(0.E0,-1.E0,0.E0));
#199=VECTOR('',#198,4.E0);
#200=CARTESIAN_POINT('',(2.5E1,-1.445E2,4.3E1));
#201=LINE('',#200,#199);
#202=CARTESIAN_POINT('',(2.5E1,-1.445E2,5.E1));
#203=DIRECTION('',(0.E0,1.E0,0.E0));
#204=DIRECTION('',(0.E0,0.E0,-1.E0));
#205=AXIS2_PLACEMENT_3D('',#202,#203,#204);
#207=DIRECTION('',(0.E0,-1.E0,0.E0));
#208=VECTOR('',#207,4.E0);
#209=CARTESIAN_POINT('',(2.5E1,-1.445E2,5.7E1));
#210=LINE('',#209,#208);
#211=CARTESIAN_POINT('',(2.5E1,-1.445E2,5.E1));
#212=DIRECTION('',(0.E0,-1.E0,0.E0));
#213=DIRECTION('',(0.E0,0.E0,-1.E0));
#214=AXIS2_PLACEMENT_3D('',#211,#212,#213);
#216=CARTESIAN_POINT('',(2.5E1,-1.485E2,5.E1));
#217=DIRECTION('',(0.E0,-1.E0,0.E0));
#218=DIRECTION('',(0.E0,0.E0,-1.E0));
#219=AXIS2_PLACEMENT_3D('',#216,#217,#218);
#221=DIRECTION('',(0.E0,-8.E-1,6.E-1));
#222=VECTOR('',#221,1.25E0);
#223=CARTESIAN_POINT('',(2.5E1,-1.485E2,4.3E1));
#224=LINE('',#223,#222);
#225=CARTESIAN_POINT('',(2.5E1,-1.485E2,5.E1));
#226=DIRECTION('',(0.E0,1.E0,0.E0));
#227=DIRECTION('',(0.E0,0.E0,-1.E0));
#228=AXIS2_PLACEMENT_3D('',#225,#226,#227);
#230=DIRECTION('',(0.E0,-8.E-1,-6.E-1));
#231=VECTOR('',#230,1.25E0);
#232=CARTESIAN_POINT('',(2.5E1,-1.485E2,5.7E1));
#233=LINE('',#232,#231);
#234=CARTESIAN_POINT('',(2.5E1,-1.495E2,5.E1));
#235=DIRECTION('',(0.E0,-1.E0,0.E0));
#236=DIRECTION('',(0.E0,0.E0,-1.E0));
#237=AXIS2_PLACEMENT_3D('',#234,#235,#236);
#239=CARTESIAN_POINT('',(2.5E1,-1.495E2,5.E1));
#240=DIRECTION('',(0.E0,1.E0,0.E0));
#241=DIRECTION('',(0.E0,0.E0,-1.E0));
#242=AXIS2_PLACEMENT_3D('',#239,#240,#241);
#244=CARTESIAN_POINT('',(2.5E1,-1.495E2,5.E1));
#245=DIRECTION('',(0.E0,1.E0,0.E0));
#246=DIRECTION('',(0.E0,0.E0,1.E0));
#247=AXIS2_PLACEMENT_3D('',#244,#245,#246);
#249=CARTESIAN_POINT('',(3.E1,-1.57E2,5.E1));
#250=CARTESIAN_POINT('',(3.E1,-1.566735422554E2,4.967713759104E1));
#251=CARTESIAN_POINT('',(2.993767528734E1,-1.560413509424E2,4.903968233680E1));
#252=CARTESIAN_POINT('',(2.966945749791E1,-1.551335932328E2,4.813404034883E1));
#253=CARTESIAN_POINT('',(2.925824151987E1,-1.543312945890E2,4.733117473031E1));
#254=CARTESIAN_POINT('',(2.874482132744E1,-1.536529394299E2,4.665297174866E1));
#255=CARTESIAN_POINT('',(2.816536360433E1,-1.531042411029E2,4.610423168662E1));
#256=CARTESIAN_POINT('',(2.755373424226E1,-1.526810527094E2,4.568105805589E1));
#257=CARTESIAN_POINT('',(2.691966576657E1,-1.523662960746E2,4.536628410507E1));
#258=CARTESIAN_POINT('',(2.628701420551E1,-1.521535254775E2,4.515356800912E1));
#259=CARTESIAN_POINT('',(2.564276818404E1,-1.520273904398E2,4.502723228282E1));
#260=CARTESIAN_POINT('',(2.521305339997E1,-1.519996593214E2,4.5E1));
#261=CARTESIAN_POINT('',(2.5E1,-1.52E2,4.5E1));
#263=CARTESIAN_POINT('',(2.5E1,-1.57E2,5.E1));
#264=DIRECTION('',(0.E0,1.E0,0.E0));
#265=DIRECTION('',(0.E0,0.E0,1.E0));
#266=AXIS2_PLACEMENT_3D('',#263,#264,#265);
#268=DIRECTION('',(0.E0,1.E0,0.E0));
#269=VECTOR('',#268,7.5E0);
#270=CARTESIAN_POINT('',(2.5E1,-1.57E2,5.5E1));
#271=LINE('',#270,#269);
#272=CARTESIAN_POINT('',(2.5E1,-1.495E2,5.E1));
#273=DIRECTION('',(0.E0,1.E0,0.E0));
#274=DIRECTION('',(0.E0,0.E0,-1.E0));
#275=AXIS2_PLACEMENT_3D('',#272,#273,#274);
#277=CARTESIAN_POINT('',(2.5E1,-1.57E2,5.E1));
#278=DIRECTION('',(0.E0,1.E0,0.E0));
#279=DIRECTION('',(-1.E0,0.E0,0.E0));
#280=AXIS2_PLACEMENT_3D('',#277,#278,#279);
#282=CARTESIAN_POINT('',(2.5E1,-1.52E2,4.5E1));
#283=CARTESIAN_POINT('',(2.478694660003E1,-1.519996593214E2,4.5E1));
#284=CARTESIAN_POINT('',(2.435723181596E1,-1.520273904398E2,4.502723228282E1));
#285=CARTESIAN_POINT('',(2.371298579449E1,-1.521535254775E2,4.515356800912E1));
#286=CARTESIAN_POINT('',(2.308033423343E1,-1.523662960746E2,4.536628410507E1));
#287=CARTESIAN_POINT('',(2.244626575774E1,-1.526810527094E2,4.568105805589E1));
#288=CARTESIAN_POINT('',(2.183463639567E1,-1.531042411029E2,4.610423168662E1));
#289=CARTESIAN_POINT('',(2.125517867256E1,-1.536529394299E2,4.665297174866E1));
#290=CARTESIAN_POINT('',(2.074175848013E1,-1.543312945890E2,4.733117473031E1));
#291=CARTESIAN_POINT('',(2.033054250209E1,-1.551335932328E2,4.813404034883E1));
#292=CARTESIAN_POINT('',(2.006232471266E1,-1.560413509424E2,4.903968233680E1));
#293=CARTESIAN_POINT('',(2.E1,-1.566735422554E2,4.967713759104E1));
#294=CARTESIAN_POINT('',(2.E1,-1.57E2,5.E1));
#296=DIRECTION('',(0.E0,1.E0,0.E0));
#297=VECTOR('',#296,2.5E0);
#298=CARTESIAN_POINT('',(2.5E1,-1.52E2,4.5E1));
#299=LINE('',#298,#297);
#300=CARTESIAN_POINT('',(2.5E1,-1.57E2,4.25E1));
#301=DIRECTION('',(0.E0,0.E0,1.E0));
#302=DIRECTION('',(0.E0,-1.E0,0.E0));
#303=AXIS2_PLACEMENT_3D('',#300,#301,#302);
#305=DIRECTION('',(0.E0,0.E0,1.E0));
#306=VECTOR('',#305,7.5E0);
#307=CARTESIAN_POINT('',(2.5E1,-1.62E2,4.25E1));
#308=LINE('',#307,#306);
#309=CARTESIAN_POINT('',(2.5E1,-1.57E2,5.E1));
#310=DIRECTION('',(0.E0,0.E0,1.E0));
#311=DIRECTION('',(0.E0,-1.E0,0.E0));
#312=AXIS2_PLACEMENT_3D('',#309,#310,#311);
#314=CARTESIAN_POINT('',(2.5E1,-1.57E2,4.25E1));
#315=DIRECTION('',(0.E0,0.E0,1.E0));
#316=DIRECTION('',(0.E0,-1.E0,0.E0));
#317=AXIS2_PLACEMENT_3D('',#314,#315,#316);
#319=CARTESIAN_POINT('',(2.5E1,-1.57E2,4.25E1));
#320=DIRECTION('',(0.E0,0.E0,-1.E0));
#321=DIRECTION('',(0.E0,-1.E0,0.E0));
#322=AXIS2_PLACEMENT_3D('',#319,#320,#321);
#324=DIRECTION('',(0.E0,6.E-1,8.E-1));
#325=VECTOR('',#324,1.25E0);
#326=CARTESIAN_POINT('',(2.5E1,-1.64E2,4.15E1));
#327=LINE('',#326,#325);
#328=DIRECTION('',(0.E0,-6.E-1,8.E-1));
#329=VECTOR('',#328,1.25E0);
#330=CARTESIAN_POINT('',(2.5E1,-1.5E2,4.15E1));
#331=LINE('',#330,#329);
#332=CARTESIAN_POINT('',(2.5E1,-1.57E2,4.15E1));
#333=DIRECTION('',(0.E0,0.E0,1.E0));
#334=DIRECTION('',(0.E0,-1.E0,0.E0));
#335=AXIS2_PLACEMENT_3D('',#332,#333,#334);
#337=CARTESIAN_POINT('',(2.5E1,-1.57E2,4.15E1));
#338=DIRECTION('',(0.E0,0.E0,-1.E0));
#339=DIRECTION('',(0.E0,-1.E0,0.E0));
#340=AXIS2_PLACEMENT_3D('',#337,#338,#339);
#342=CARTESIAN_POINT('',(2.5E1,-1.57E2,3.75E1));
#343=DIRECTION('',(0.E0,0.E0,-1.E0));
#344=DIRECTION('',(0.E0,-1.E0,0.E0));
#345=AXIS2_PLACEMENT_3D('',#342,#343,#344);
#347=DIRECTION('',(0.E0,0.E0,1.E0));
#348=VECTOR('',#347,4.E0);
#349=CARTESIAN_POINT('',(2.5E1,-1.64E2,3.75E1));
#350=LINE('',#349,#348);
#351=DIRECTION('',(0.E0,0.E0,1.E0));
#352=VECTOR('',#351,4.E0);
#353=CARTESIAN_POINT('',(2.5E1,-1.5E2,3.75E1));
#354=LINE('',#353,#352);
#355=CARTESIAN_POINT('',(2.5E1,-1.57E2,3.75E1));
#356=DIRECTION('',(0.E0,0.E0,1.E0));
#357=DIRECTION('',(0.E0,-1.E0,0.E0));
#358=AXIS2_PLACEMENT_3D('',#355,#356,#357);
#360=CARTESIAN_POINT('',(2.5E1,-1.57E2,3.75E1));
#361=DIRECTION('',(0.E0,0.E0,1.E0));
#362=DIRECTION('',(0.E0,-1.E0,0.E0));
#363=AXIS2_PLACEMENT_3D('',#360,#361,#362);
#365=CARTESIAN_POINT('',(2.5E1,-1.57E2,3.75E1));
#366=DIRECTION('',(0.E0,0.E0,-1.E0));
#367=DIRECTION('',(0.E0,-1.E0,0.E0));
#368=AXIS2_PLACEMENT_3D('',#365,#366,#367);
#370=DIRECTION('',(0.E0,0.E0,1.E0));
#371=VECTOR('',#370,4.5E0);
#372=CARTESIAN_POINT('',(2.5E1,-1.645E2,3.3E1));
#373=LINE('',#372,#371);
#374=DIRECTION('',(0.E0,0.E0,1.E0));
#375=VECTOR('',#374,4.5E0);
#376=CARTESIAN_POINT('',(2.5E1,-1.495E2,3.3E1));
#377=LINE('',#376,#375);
#378=CARTESIAN_POINT('',(2.5E1,-1.57E2,3.3E1));
#379=DIRECTION('',(0.E0,0.E0,1.E0));
#380=DIRECTION('',(0.E0,-1.E0,0.E0));
#381=AXIS2_PLACEMENT_3D('',#378,#379,#380);
#383=CARTESIAN_POINT('',(2.5E1,-1.57E2,3.3E1));
#384=DIRECTION('',(0.E0,0.E0,-1.E0));
#385=DIRECTION('',(0.E0,-1.E0,0.E0));
#386=AXIS2_PLACEMENT_3D('',#383,#384,#385);
#388=CARTESIAN_POINT('',(2.5E1,-1.57E2,3.3E1));
#389=DIRECTION('',(0.E0,0.E0,1.E0));
#390=DIRECTION('',(0.E0,-1.E0,0.E0));
#391=AXIS2_PLACEMENT_3D('',#388,#389,#390);
#393=CARTESIAN_POINT('',(2.5E1,-1.57E2,3.3E1));
#394=DIRECTION('',(0.E0,0.E0,-1.E0));
#395=DIRECTION('',(0.E0,-1.E0,0.E0));
#396=AXIS2_PLACEMENT_3D('',#393,#394,#395);
#398=CARTESIAN_POINT('',(2.5E1,-1.57E2,3.1E1));
#399=DIRECTION('',(0.E0,0.E0,1.E0));
#400=DIRECTION('',(0.E0,-1.E0,0.E0));
#401=AXIS2_PLACEMENT_3D('',#398,#399,#400);
#403=DIRECTION('',(-2.843059121295E-10,-5.817923920065E-11,1.E0));
#404=VECTOR('',#403,2.000000000116E0);
#405=CARTESIAN_POINT('',(2.500000000057E1,-1.639999999999E2,3.099999999988E1));
#406=LINE('',#405,#404);
#407=DIRECTION('',(2.843076884863E-10,5.817923920065E-11,1.E0));
#408=VECTOR('',#407,2.000000000116E0);
#409=CARTESIAN_POINT('',(2.499999999943E1,-1.500000000001E2,3.099999999988E1));
#410=LINE('',#409,#408);
#411=DIRECTION('',(1.915362070612E-10,7.071067811866E-1,-7.071067811865E-1));
#412=VECTOR('',#411,7.071067812257E-1);
#413=CARTESIAN_POINT('',(2.500000000057E1,-1.639999999999E2,3.099999999988E1));
#414=LINE('',#413,#412);
#415=DIRECTION('',(-1.914457697356E-10,-7.071067811865E-1,-7.071067811866E-1));
#416=VECTOR('',#415,7.071067812257E-1);
#417=CARTESIAN_POINT('',(2.499999999943E1,-1.500000000001E2,3.099999999988E1));
#418=LINE('',#417,#416);
#419=CARTESIAN_POINT('',(2.5E1,-1.57E2,3.1E1));
#420=DIRECTION('',(0.E0,0.E0,1.E0));
#421=DIRECTION('',(0.E0,1.E0,0.E0));
#422=AXIS2_PLACEMENT_3D('',#419,#420,#421);
#424=CARTESIAN_POINT('',(2.5E1,-1.57E2,3.05E1));
#425=DIRECTION('',(0.E0,0.E0,1.E0));
#426=DIRECTION('',(-1.E0,0.E0,0.E0));
#427=AXIS2_PLACEMENT_3D('',#424,#425,#426);
#429=CARTESIAN_POINT('',(2.5E1,-1.57E2,3.05E1));
#430=DIRECTION('',(0.E0,0.E0,1.E0));
#431=DIRECTION('',(1.E0,0.E0,0.E0));
#432=AXIS2_PLACEMENT_3D('',#429,#430,#431);
#434=CARTESIAN_POINT('',(2.5E1,-1.57E2,3.05E1));
#435=DIRECTION('',(0.E0,0.E0,1.E0));
#436=DIRECTION('',(0.E0,1.E0,0.E0));
#437=AXIS2_PLACEMENT_3D('',#434,#435,#436);
#439=CARTESIAN_POINT('',(2.5E1,-1.57E2,3.05E1));
#440=DIRECTION('',(0.E0,0.E0,1.E0));
#441=DIRECTION('',(2.295599607840E-14,-1.E0,0.E0));
#442=AXIS2_PLACEMENT_3D('',#439,#440,#441);
#444=DIRECTION('',(0.E0,0.E0,1.E0));
#445=VECTOR('',#444,1.5E0);
#446=CARTESIAN_POINT('',(2.05E1,-1.57E2,2.9E1));
#447=LINE('',#446,#445);
#448=DIRECTION('',(0.E0,0.E0,1.E0));
#449=VECTOR('',#448,1.5E0);
#450=CARTESIAN_POINT('',(2.95E1,-1.57E2,2.9E1));
#451=LINE('',#450,#449);
#452=CARTESIAN_POINT('',(2.5E1,-1.57E2,4.25E1));
#453=DIRECTION('',(0.E0,0.E0,1.E0));
#454=DIRECTION('',(0.E0,1.E0,0.E0));
#455=AXIS2_PLACEMENT_3D('',#452,#453,#454);
#457=DIRECTION('',(0.E0,0.E0,1.E0));
#458=VECTOR('',#457,2.5E0);
#459=CARTESIAN_POINT('',(2.5E1,-1.52E2,4.25E1));
#460=LINE('',#459,#458);
#461=CARTESIAN_POINT('',(2.5E1,-1.57E2,5.E1));
#462=DIRECTION('',(0.E0,0.E0,1.E0));
#463=DIRECTION('',(-1.E0,0.E0,0.E0));
#464=AXIS2_PLACEMENT_3D('',#461,#462,#463);
#466=DIRECTION('',(-1.914809398067E-10,7.071067811865E-1,7.071067811865E-1));
#467=VECTOR('',#466,7.071067812257E-1);
#468=CARTESIAN_POINT('',(2.499999999943E1,-1.379999999999E2,4.300000000012E1));
#469=LINE('',#468,#467);
#470=CARTESIAN_POINT('',(2.5E1,-1.603E2,2.9E1));
#471=CARTESIAN_POINT('',(2.5E1,-1.537E2,2.9E1));
#472=VERTEX_POINT('',#470);
#473=VERTEX_POINT('',#471);
#474=CARTESIAN_POINT('',(2.5E1,-1.603E2,5.33E1));
#475=VERTEX_POINT('',#474);
#476=CARTESIAN_POINT('',(2.5E1,-1.537E2,4.67E1));
#477=VERTEX_POINT('',#476);
#478=CARTESIAN_POINT('',(2.5E1,-1.36E2,5.33E1));
#479=CARTESIAN_POINT('',(2.5E1,-1.36E2,4.67E1));
#480=VERTEX_POINT('',#478);
#481=VERTEX_POINT('',#479);
#482=VERTEX_POINT('',#71);
#483=VERTEX_POINT('',#41);
#484=CARTESIAN_POINT('',(2.5E1,-1.62E2,5.E1));
#485=CARTESIAN_POINT('',(3.E1,-1.57E2,5.E1));
#486=VERTEX_POINT('',#484);
#487=VERTEX_POINT('',#485);
#488=CARTESIAN_POINT('',(2.5E1,-1.57E2,5.5E1));
#489=VERTEX_POINT('',#488);
#490=CARTESIAN_POINT('',(2.E1,-1.57E2,5.E1));
#491=VERTEX_POINT('',#490);
#492=VERTEX_POINT('',#261);
#493=CARTESIAN_POINT('',(2.5E1,-1.4E2,4.25E1));
#494=CARTESIAN_POINT('',(2.5E1,-1.445E2,4.25E1));
#495=VERTEX_POINT('',#493);
#496=VERTEX_POINT('',#494);
#497=CARTESIAN_POINT('',(2.5E1,-1.445E2,4.3E1));
#498=CARTESIAN_POINT('',(2.5E1,-1.485E2,4.3E1));
#499=VERTEX_POINT('',#497);
#500=VERTEX_POINT('',#498);
#501=CARTESIAN_POINT('',(2.5E1,-1.495E2,4.375E1));
#502=VERTEX_POINT('',#501);
#503=CARTESIAN_POINT('',(2.5E1,-1.4E2,5.75E1));
#504=CARTESIAN_POINT('',(2.5E1,-1.445E2,5.75E1));
#505=VERTEX_POINT('',#503);
#506=VERTEX_POINT('',#504);
#507=CARTESIAN_POINT('',(2.5E1,-1.445E2,5.7E1));
#508=CARTESIAN_POINT('',(2.5E1,-1.485E2,5.7E1));
#509=VERTEX_POINT('',#507);
#510=VERTEX_POINT('',#508);
#511=CARTESIAN_POINT('',(2.5E1,-1.495E2,5.625E1));
#512=VERTEX_POINT('',#511);
#513=CARTESIAN_POINT('',(2.5E1,-1.4E2,4.3E1));
#514=CARTESIAN_POINT('',(2.5E1,-1.4E2,5.7E1));
#515=VERTEX_POINT('',#513);
#516=VERTEX_POINT('',#514);
#517=CARTESIAN_POINT('',(2.5E1,-1.495E2,5.5E1));
#518=CARTESIAN_POINT('',(2.5E1,-1.495E2,4.5E1));
#519=VERTEX_POINT('',#517);
#520=VERTEX_POINT('',#518);
#521=CARTESIAN_POINT('',(2.5E1,-1.645E2,3.3E1));
#522=CARTESIAN_POINT('',(2.5E1,-1.645E2,3.75E1));
#523=VERTEX_POINT('',#521);
#524=VERTEX_POINT('',#522);
#525=CARTESIAN_POINT('',(2.5E1,-1.64E2,3.75E1));
#526=CARTESIAN_POINT('',(2.5E1,-1.64E2,4.15E1));
#527=VERTEX_POINT('',#525);
#528=VERTEX_POINT('',#526);
#529=CARTESIAN_POINT('',(2.5E1,-1.6325E2,4.25E1));
#530=VERTEX_POINT('',#529);
#531=CARTESIAN_POINT('',(2.5E1,-1.495E2,3.3E1));
#532=CARTESIAN_POINT('',(2.5E1,-1.495E2,3.75E1));
#533=VERTEX_POINT('',#531);
#534=VERTEX_POINT('',#532);
#535=CARTESIAN_POINT('',(2.5E1,-1.5E2,3.75E1));
#536=CARTESIAN_POINT('',(2.5E1,-1.5E2,4.15E1));
#537=VERTEX_POINT('',#535);
#538=VERTEX_POINT('',#536);
#539=CARTESIAN_POINT('',(2.5E1,-1.5075E2,4.25E1));
#540=VERTEX_POINT('',#539);
#541=CARTESIAN_POINT('',(2.5E1,-1.64E2,3.3E1));
#542=CARTESIAN_POINT('',(2.5E1,-1.5E2,3.3E1));
#543=VERTEX_POINT('',#541);
#544=VERTEX_POINT('',#542);
#545=CARTESIAN_POINT('',(2.5E1,-1.62E2,4.25E1));
#546=CARTESIAN_POINT('',(2.5E1,-1.52E2,4.25E1));
#547=VERTEX_POINT('',#545);
#548=VERTEX_POINT('',#546);
#549=CARTESIAN_POINT('',(2.05E1,-1.57E2,3.05E1));
#550=CARTESIAN_POINT('',(2.95E1,-1.57E2,3.05E1));
#551=VERTEX_POINT('',#549);
#552=VERTEX_POINT('',#550);
#553=CARTESIAN_POINT('',(2.95E1,-1.57E2,2.9E1));
#554=CARTESIAN_POINT('',(2.05E1,-1.57E2,2.9E1));
#555=VERTEX_POINT('',#553);
#556=VERTEX_POINT('',#554);
#557=CARTESIAN_POINT('',(2.95E1,-1.375E2,5.E1));
#558=CARTESIAN_POINT('',(2.05E1,-1.375E2,5.E1));
#559=VERTEX_POINT('',#557);
#560=VERTEX_POINT('',#558);
#561=CARTESIAN_POINT('',(2.05E1,-1.36E2,5.E1));
#562=CARTESIAN_POINT('',(2.95E1,-1.36E2,5.E1));
#563=VERTEX_POINT('',#561);
#564=VERTEX_POINT('',#562);
#565=CARTESIAN_POINT('',(2.5E1,-1.5E2,3.1E1));
#566=CARTESIAN_POINT('',(2.5E1,-1.64E2,3.1E1));
#567=VERTEX_POINT('',#565);
#568=VERTEX_POINT('',#566);
#569=CARTESIAN_POINT('',(2.5E1,-1.505E2,3.05E1));
#570=CARTESIAN_POINT('',(2.5E1,-1.635E2,3.05E1));
#571=VERTEX_POINT('',#569);
#572=VERTEX_POINT('',#570);
#573=CARTESIAN_POINT('',(2.499999999943E1,-1.379999999999E2,4.300000000012E1));
#574=VERTEX_POINT('',#573);
#575=CARTESIAN_POINT('',(2.500000000057E1,-1.379999999999E2,5.699999999988E1));
#576=VERTEX_POINT('',#575);
#577=CARTESIAN_POINT('',(2.5E1,-1.375E2,5.65E1));
#578=CARTESIAN_POINT('',(2.5E1,-1.375E2,4.35E1));
#579=VERTEX_POINT('',#577);
#580=VERTEX_POINT('',#578);
#581=CARTESIAN_POINT('',(2.5E1,-1.57E2,2.9E1));
#582=DIRECTION('',(0.E0,0.E0,1.E0));
#583=DIRECTION('',(0.E0,-1.E0,0.E0));
#584=AXIS2_PLACEMENT_3D('',#581,#582,#583);
#585=PLANE('',#584);
#587=ORIENTED_EDGE('',*,*,#586,.F.);
#589=ORIENTED_EDGE('',*,*,#588,.F.);
#590=EDGE_LOOP('',(#587,#589));
#591=FACE_OUTER_BOUND('',#590,.F.);
#593=ORIENTED_EDGE('',*,*,#592,.T.);
#595=ORIENTED_EDGE('',*,*,#594,.T.);
#596=EDGE_LOOP('',(#593,#595));
#597=FACE_BOUND('',#596,.F.);
#598=ADVANCED_FACE('',(#591,#597),#585,.F.);
#599=CARTESIAN_POINT('',(2.5E1,-1.57E2,2.9E1));
#600=DIRECTION('',(0.E0,0.E0,1.E0));
#601=DIRECTION('',(0.E0,-1.E0,0.E0));
#602=AXIS2_PLACEMENT_3D('',#599,#600,#601);
#603=CYLINDRICAL_SURFACE('',#602,3.3E0);
#604=ORIENTED_EDGE('',*,*,#592,.F.);
#606=ORIENTED_EDGE('',*,*,#605,.T.);
#608=ORIENTED_EDGE('',*,*,#607,.T.);
#610=ORIENTED_EDGE('',*,*,#609,.T.);
#612=ORIENTED_EDGE('',*,*,#611,.F.);
#613=EDGE_LOOP('',(#604,#606,#608,#610,#612));
#614=FACE_OUTER_BOUND('',#613,.F.);
#615=ADVANCED_FACE('',(#614),#603,.F.);
#616=CARTESIAN_POINT('',(2.5E1,-1.57E2,2.9E1));
#617=DIRECTION('',(0.E0,0.E0,1.E0));
#618=DIRECTION('',(0.E0,-1.E0,0.E0));
#619=AXIS2_PLACEMENT_3D('',#616,#617,#618);
#620=CYLINDRICAL_SURFACE('',#619,3.3E0);
#621=ORIENTED_EDGE('',*,*,#594,.F.);
#622=ORIENTED_EDGE('',*,*,#611,.T.);
#624=ORIENTED_EDGE('',*,*,#623,.T.);
#626=ORIENTED_EDGE('',*,*,#625,.T.);
#627=ORIENTED_EDGE('',*,*,#605,.F.);
#628=EDGE_LOOP('',(#621,#622,#624,#626,#627));
#629=FACE_OUTER_BOUND('',#628,.F.);
#630=ADVANCED_FACE('',(#629),#620,.F.);
#631=CARTESIAN_POINT('',(2.5E1,-1.57E2,5.E1));
#632=DIRECTION('',(0.E0,1.E0,0.E0));
#633=DIRECTION('',(0.E0,0.E0,1.E0));
#634=AXIS2_PLACEMENT_3D('',#631,#632,#633);
#635=CYLINDRICAL_SURFACE('',#634,3.3E0);
#636=ORIENTED_EDGE('',*,*,#623,.F.);
#638=ORIENTED_EDGE('',*,*,#637,.T.);
#640=ORIENTED_EDGE('',*,*,#639,.T.);
#642=ORIENTED_EDGE('',*,*,#641,.F.);
#643=ORIENTED_EDGE('',*,*,#625,.F.);
#644=EDGE_LOOP('',(#636,#638,#640,#642,#643));
#645=FACE_OUTER_BOUND('',#644,.F.);
#646=ADVANCED_FACE('',(#645),#635,.F.);
#647=CARTESIAN_POINT('',(2.5E1,-1.57E2,5.E1));
#648=DIRECTION('',(0.E0,1.E0,0.E0));
#649=DIRECTION('',(0.E0,0.E0,1.E0));
#650=AXIS2_PLACEMENT_3D('',#647,#648,#649);
#651=CYLINDRICAL_SURFACE('',#650,3.3E0);
#652=ORIENTED_EDGE('',*,*,#607,.F.);
#653=ORIENTED_EDGE('',*,*,#641,.T.);
#655=ORIENTED_EDGE('',*,*,#654,.T.);
#656=ORIENTED_EDGE('',*,*,#637,.F.);
#657=ORIENTED_EDGE('',*,*,#609,.F.);
#658=EDGE_LOOP('',(#652,#653,#655,#656,#657));
#659=FACE_OUTER_BOUND('',#658,.F.);
#660=ADVANCED_FACE('',(#659),#651,.F.);
#661=CARTESIAN_POINT('',(2.5E1,-1.36E2,5.E1));
#662=DIRECTION('',(0.E0,1.E0,0.E0));
#663=DIRECTION('',(0.E0,0.E0,1.E0));
#664=AXIS2_PLACEMENT_3D('',#661,#662,#663);
#665=PLANE('',#664);
#667=ORIENTED_EDGE('',*,*,#666,.F.);
#669=ORIENTED_EDGE('',*,*,#668,.F.);
#670=EDGE_LOOP('',(#667,#669));
#671=FACE_OUTER_BOUND('',#670,.F.);
#672=ORIENTED_EDGE('',*,*,#654,.F.);
#673=ORIENTED_EDGE('',*,*,#639,.F.);
#674=EDGE_LOOP('',(#672,#673));
#675=FACE_BOUND('',#674,.F.);
#676=ADVANCED_FACE('',(#671,#675),#665,.T.);
#677=CARTESIAN_POINT('',(2.5E1,-1.36E2,5.E1));
#678=DIRECTION('',(0.E0,1.E0,0.E0));
#679=DIRECTION('',(1.E0,0.E0,0.E0));
#680=AXIS2_PLACEMENT_3D('',#677,#678,#679);
#681=CYLINDRICAL_SURFACE('',#680,4.5E0);
#682=ORIENTED_EDGE('',*,*,#666,.T.);
#684=ORIENTED_EDGE('',*,*,#683,.T.);
#686=ORIENTED_EDGE('',*,*,#685,.T.);
#688=ORIENTED_EDGE('',*,*,#687,.F.);
#689=EDGE_LOOP('',(#682,#684,#686,#688));
#690=FACE_OUTER_BOUND('',#689,.F.);
#691=ADVANCED_FACE('',(#690),#681,.T.);
#692=CARTESIAN_POINT('',(2.5E1,-1.36E2,5.E1));
#693=DIRECTION('',(0.E0,1.E0,0.E0));
#694=DIRECTION('',(1.E0,0.E0,0.E0));
#695=AXIS2_PLACEMENT_3D('',#692,#693,#694);
#696=CYLINDRICAL_SURFACE('',#695,4.5E0);
#697=ORIENTED_EDGE('',*,*,#668,.T.);
#698=ORIENTED_EDGE('',*,*,#687,.T.);
#700=ORIENTED_EDGE('',*,*,#699,.T.);
#701=ORIENTED_EDGE('',*,*,#683,.F.);
#702=EDGE_LOOP('',(#697,#698,#700,#701));
#703=FACE_OUTER_BOUND('',#702,.F.);
#704=ADVANCED_FACE('',(#703),#696,.T.);
#705=CARTESIAN_POINT('',(2.5E1,-1.375E2,5.E1));
#706=DIRECTION('',(0.E0,-1.E0,0.E0));
#707=DIRECTION('',(0.E0,0.E0,-1.E0));
#708=AXIS2_PLACEMENT_3D('',#705,#706,#707);
#709=PLANE('',#708);
#711=ORIENTED_EDGE('',*,*,#710,.T.);
#713=ORIENTED_EDGE('',*,*,#712,.T.);
#714=EDGE_LOOP('',(#711,#713));
#715=FACE_OUTER_BOUND('',#714,.F.);
#716=ORIENTED_EDGE('',*,*,#685,.F.);
#717=ORIENTED_EDGE('',*,*,#699,.F.);
#718=EDGE_LOOP('',(#716,#717));
#719=FACE_BOUND('',#718,.F.);
#720=ADVANCED_FACE('',(#715,#719),#709,.F.);
#721=CARTESIAN_POINT('',(2.5E1,-1.377499999999E2,5.E1));
#722=DIRECTION('',(0.E0,-1.E0,0.E0));
#723=DIRECTION('',(0.E0,0.E0,-1.E0));
#724=AXIS2_PLACEMENT_3D('',#721,#722,#723);
#725=CONICAL_SURFACE('',#724,6.749999999884E0,4.5E1);
#727=ORIENTED_EDGE('',*,*,#726,.T.);
#729=ORIENTED_EDGE('',*,*,#728,.T.);
#730=ORIENTED_EDGE('',*,*,#710,.F.);
#732=ORIENTED_EDGE('',*,*,#731,.F.);
#733=EDGE_LOOP('',(#727,#729,#730,#732));
#734=FACE_OUTER_BOUND('',#733,.F.);
#735=ADVANCED_FACE('',(#734),#725,.T.);
#736=CARTESIAN_POINT('',(2.5E1,-1.369E2,5.E1));
#737=DIRECTION('',(0.E0,-1.E0,0.E0));
#738=DIRECTION('',(0.E0,0.E0,-1.E0));
#739=AXIS2_PLACEMENT_3D('',#736,#737,#738);
#740=CYLINDRICAL_SURFACE('',#739,7.E0);
#742=ORIENTED_EDGE('',*,*,#741,.F.);
#743=ORIENTED_EDGE('',*,*,#726,.F.);
#745=ORIENTED_EDGE('',*,*,#744,.T.);
#747=ORIENTED_EDGE('',*,*,#746,.F.);
#748=EDGE_LOOP('',(#742,#743,#745,#747));
#749=FACE_OUTER_BOUND('',#748,.F.);
#750=ADVANCED_FACE('',(#749),#740,.T.);
#751=CARTESIAN_POINT('',(2.5E1,-1.369E2,5.E1));
#752=DIRECTION('',(0.E0,-1.E0,0.E0));
#753=DIRECTION('',(0.E0,0.E0,-1.E0));
#754=AXIS2_PLACEMENT_3D('',#751,#752,#753);
#755=CYLINDRICAL_SURFACE('',#754,7.E0);
#756=ORIENTED_EDGE('',*,*,#741,.T.);
#758=ORIENTED_EDGE('',*,*,#757,.T.);
#759=ORIENTED_EDGE('',*,*,#744,.F.);
#761=ORIENTED_EDGE('',*,*,#760,.F.);
#762=EDGE_LOOP('',(#756,#758,#759,#761));
#763=FACE_OUTER_BOUND('',#762,.F.);
#764=ADVANCED_FACE('',(#763),#755,.T.);
#765=CARTESIAN_POINT('',(2.5E1,-1.4E2,5.E1));
#766=DIRECTION('',(0.E0,-1.E0,0.E0));
#767=DIRECTION('',(0.E0,0.E0,-1.E0));
#768=AXIS2_PLACEMENT_3D('',#765,#766,#767);
#769=PLANE('',#768);
#771=ORIENTED_EDGE('',*,*,#770,.F.);
#773=ORIENTED_EDGE('',*,*,#772,.T.);
#774=EDGE_LOOP('',(#771,#773));
#775=FACE_OUTER_BOUND('',#774,.F.);
#776=ORIENTED_EDGE('',*,*,#757,.F.);
#777=ORIENTED_EDGE('',*,*,#746,.T.);
#778=EDGE_LOOP('',(#776,#777));
#779=FACE_BOUND('',#778,.F.);
#780=ADVANCED_FACE('',(#775,#779),#769,.F.);
#781=CARTESIAN_POINT('',(2.5E1,-1.369E2,5.E1));
#782=DIRECTION('',(0.E0,-1.E0,0.E0));
#783=DIRECTION('',(0.E0,0.E0,-1.E0));
#784=AXIS2_PLACEMENT_3D('',#781,#782,#783);
#785=CYLINDRICAL_SURFACE('',#784,7.5E0);
#787=ORIENTED_EDGE('',*,*,#786,.F.);
#788=ORIENTED_EDGE('',*,*,#770,.T.);
#790=ORIENTED_EDGE('',*,*,#789,.T.);
#792=ORIENTED_EDGE('',*,*,#791,.F.);
#793=EDGE_LOOP('',(#787,#788,#790,#792));
#794=FACE_OUTER_BOUND('',#793,.F.);
#795=ADVANCED_FACE('',(#794),#785,.T.);
#796=CARTESIAN_POINT('',(2.5E1,-1.369E2,5.E1));
#797=DIRECTION('',(0.E0,-1.E0,0.E0));
#798=DIRECTION('',(0.E0,0.E0,-1.E0));
#799=AXIS2_PLACEMENT_3D('',#796,#797,#798);
#800=CYLINDRICAL_SURFACE('',#799,7.5E0);
#801=ORIENTED_EDGE('',*,*,#786,.T.);
#803=ORIENTED_EDGE('',*,*,#802,.T.);
#804=ORIENTED_EDGE('',*,*,#789,.F.);
#805=ORIENTED_EDGE('',*,*,#772,.F.);
#806=EDGE_LOOP('',(#801,#803,#804,#805));
#807=FACE_OUTER_BOUND('',#806,.F.);
#808=ADVANCED_FACE('',(#807),#800,.T.);
#809=CARTESIAN_POINT('',(2.5E1,-1.445E2,5.E1));
#810=DIRECTION('',(0.E0,-1.E0,0.E0));
#811=DIRECTION('',(0.E0,0.E0,-1.E0));
#812=AXIS2_PLACEMENT_3D('',#809,#810,#811);
#813=PLANE('',#812);
#814=ORIENTED_EDGE('',*,*,#802,.F.);
#815=ORIENTED_EDGE('',*,*,#791,.T.);
#816=EDGE_LOOP('',(#814,#815));
#817=FACE_OUTER_BOUND('',#816,.F.);
#819=ORIENTED_EDGE('',*,*,#818,.F.);
#821=ORIENTED_EDGE('',*,*,#820,.T.);
#822=EDGE_LOOP('',(#819,#821));
#823=FACE_BOUND('',#822,.F.);
#824=ADVANCED_FACE('',(#817,#823),#813,.T.);
#825=CARTESIAN_POINT('',(2.5E1,-1.369E2,5.E1));
#826=DIRECTION('',(0.E0,-1.E0,0.E0));
#827=DIRECTION('',(0.E0,0.E0,-1.E0));
#828=AXIS2_PLACEMENT_3D('',#825,#826,#827);
#829=CYLINDRICAL_SURFACE('',#828,7.E0);
#831=ORIENTED_EDGE('',*,*,#830,.F.);
#832=ORIENTED_EDGE('',*,*,#818,.T.);
#834=ORIENTED_EDGE('',*,*,#833,.T.);
#836=ORIENTED_EDGE('',*,*,#835,.F.);
#837=EDGE_LOOP('',(#831,#832,#834,#836));
#838=FACE_OUTER_BOUND('',#837,.F.);
#839=ADVANCED_FACE('',(#838),#829,.T.);
#840=CARTESIAN_POINT('',(2.5E1,-1.369E2,5.E1));
#841=DIRECTION('',(0.E0,-1.E0,0.E0));
#842=DIRECTION('',(0.E0,0.E0,-1.E0));
#843=AXIS2_PLACEMENT_3D('',#840,#841,#842);
#844=CYLINDRICAL_SURFACE('',#843,7.E0);
#845=ORIENTED_EDGE('',*,*,#830,.T.);
#847=ORIENTED_EDGE('',*,*,#846,.T.);
#848=ORIENTED_EDGE('',*,*,#833,.F.);
#849=ORIENTED_EDGE('',*,*,#820,.F.);
#850=EDGE_LOOP('',(#845,#847,#848,#849));
#851=FACE_OUTER_BOUND('',#850,.F.);
#852=ADVANCED_FACE('',(#851),#844,.T.);
#853=CARTESIAN_POINT('',(2.5E1,-1.49E2,5.E1));
#854=DIRECTION('',(0.E0,1.E0,0.E0));
#855=DIRECTION('',(0.E0,0.E0,1.E0));
#856=AXIS2_PLACEMENT_3D('',#853,#854,#855);
#857=CONICAL_SURFACE('',#856,6.625E0,3.686989764584E1);
#859=ORIENTED_EDGE('',*,*,#858,.T.);
#861=ORIENTED_EDGE('',*,*,#860,.T.);
#863=ORIENTED_EDGE('',*,*,#862,.F.);
#864=ORIENTED_EDGE('',*,*,#846,.F.);
#865=EDGE_LOOP('',(#859,#861,#863,#864));
#866=FACE_OUTER_BOUND('',#865,.F.);
#867=ADVANCED_FACE('',(#866),#857,.T.);
#868=CARTESIAN_POINT('',(2.5E1,-1.49E2,5.E1));
#869=DIRECTION('',(0.E0,1.E0,0.E0));
#870=DIRECTION('',(0.E0,0.E0,1.E0));
#871=AXIS2_PLACEMENT_3D('',#868,#869,#870);
#872=CONICAL_SURFACE('',#871,6.625E0,3.686989764584E1);
#873=ORIENTED_EDGE('',*,*,#858,.F.);
#874=ORIENTED_EDGE('',*,*,#835,.T.);
#875=ORIENTED_EDGE('',*,*,#862,.T.);
#877=ORIENTED_EDGE('',*,*,#876,.F.);
#878=EDGE_LOOP('',(#873,#874,#875,#877));
#879=FACE_OUTER_BOUND('',#878,.F.);
#880=ADVANCED_FACE('',(#879),#872,.T.);
#881=CARTESIAN_POINT('',(2.5E1,-1.495E2,5.E1));
#882=DIRECTION('',(0.E0,-1.E0,0.E0));
#883=DIRECTION('',(0.E0,0.E0,-1.E0));
#884=AXIS2_PLACEMENT_3D('',#881,#882,#883);
#885=PLANE('',#884);
#886=ORIENTED_EDGE('',*,*,#860,.F.);
#887=ORIENTED_EDGE('',*,*,#876,.T.);
#888=EDGE_LOOP('',(#886,#887));
#889=FACE_OUTER_BOUND('',#888,.F.);
#891=ORIENTED_EDGE('',*,*,#890,.F.);
#893=ORIENTED_EDGE('',*,*,#892,.F.);
#894=EDGE_LOOP('',(#891,#893));
#895=FACE_BOUND('',#894,.F.);
#896=ADVANCED_FACE('',(#889,#895),#885,.T.);
#897=CARTESIAN_POINT('',(2.5E1,-1.57E2,5.E1));
#898=DIRECTION('',(0.E0,1.E0,0.E0));
#899=DIRECTION('',(0.E0,0.E0,1.E0));
#900=AXIS2_PLACEMENT_3D('',#897,#898,#899);
#901=CYLINDRICAL_SURFACE('',#900,5.E0);
#902=ORIENTED_EDGE('',*,*,#890,.T.);
#904=ORIENTED_EDGE('',*,*,#903,.F.);
#906=ORIENTED_EDGE('',*,*,#905,.F.);
#908=ORIENTED_EDGE('',*,*,#907,.F.);
#910=ORIENTED_EDGE('',*,*,#909,.T.);
#911=EDGE_LOOP('',(#902,#904,#906,#908,#910));
#912=FACE_OUTER_BOUND('',#911,.F.);
#913=ADVANCED_FACE('',(#912),#901,.T.);
#914=CARTESIAN_POINT('',(2.5E1,-1.57E2,5.E1));
#915=DIRECTION('',(0.E0,1.E0,0.E0));
#916=DIRECTION('',(0.E0,0.E0,1.E0));
#917=AXIS2_PLACEMENT_3D('',#914,#915,#916);
#918=CYLINDRICAL_SURFACE('',#917,5.E0);
#919=ORIENTED_EDGE('',*,*,#892,.T.);
#920=ORIENTED_EDGE('',*,*,#909,.F.);
#922=ORIENTED_EDGE('',*,*,#921,.F.);
#924=ORIENTED_EDGE('',*,*,#923,.F.);
#925=ORIENTED_EDGE('',*,*,#903,.T.);
#926=EDGE_LOOP('',(#919,#920,#922,#924,#925));
#927=FACE_OUTER_BOUND('',#926,.F.);
#928=ADVANCED_FACE('',(#927),#918,.T.);
#929=CARTESIAN_POINT('',(2.5E1,-1.57E2,5.E1));
#930=DIRECTION('',(0.E0,7.071067811865E-1,7.071067811865E-1));
#931=DIRECTION('',(0.E0,7.071067811865E-1,-7.071067811865E-1));
#932=AXIS2_PLACEMENT_3D('',#929,#930,#931);
#933=SPHERICAL_SURFACE('',#932,5.E0);
#934=ORIENTED_EDGE('',*,*,#921,.T.);
#935=ORIENTED_EDGE('',*,*,#907,.T.);
#937=ORIENTED_EDGE('',*,*,#936,.F.);
#939=ORIENTED_EDGE('',*,*,#938,.F.);
#940=EDGE_LOOP('',(#934,#935,#937,#939));
#941=FACE_OUTER_BOUND('',#940,.F.);
#942=ADVANCED_FACE('',(#941),#933,.T.);
#943=CARTESIAN_POINT('',(2.5E1,-1.57E2,2.9E1));
#944=DIRECTION('',(0.E0,0.E0,1.E0));
#945=DIRECTION('',(0.E0,-1.E0,0.E0));
#946=AXIS2_PLACEMENT_3D('',#943,#944,#945);
#947=CYLINDRICAL_SURFACE('',#946,5.E0);
#949=ORIENTED_EDGE('',*,*,#948,.F.);
#951=ORIENTED_EDGE('',*,*,#950,.T.);
#952=ORIENTED_EDGE('',*,*,#936,.T.);
#953=ORIENTED_EDGE('',*,*,#905,.T.);
#955=ORIENTED_EDGE('',*,*,#954,.F.);
#956=EDGE_LOOP('',(#949,#951,#952,#953,#955));
#957=FACE_OUTER_BOUND('',#956,.F.);
#958=ADVANCED_FACE('',(#957),#947,.T.);
#959=CARTESIAN_POINT('',(2.5E1,-1.57E2,4.25E1));
#960=DIRECTION('',(0.E0,0.E0,-1.E0));
#961=DIRECTION('',(0.E0,1.E0,0.E0));
#962=AXIS2_PLACEMENT_3D('',#959,#960,#961);
#963=PLANE('',#962);
#965=ORIENTED_EDGE('',*,*,#964,.F.);
#967=ORIENTED_EDGE('',*,*,#966,.T.);
#968=EDGE_LOOP('',(#965,#967));
#969=FACE_OUTER_BOUND('',#968,.F.);
#970=ORIENTED_EDGE('',*,*,#948,.T.);
#972=ORIENTED_EDGE('',*,*,#971,.T.);
#973=EDGE_LOOP('',(#970,#972));
#974=FACE_BOUND('',#973,.F.);
#975=ADVANCED_FACE('',(#969,#974),#963,.F.);
#976=CARTESIAN_POINT('',(2.5E1,-1.57E2,4.2E1));
#977=DIRECTION('',(0.E0,0.E0,-1.E0));
#978=DIRECTION('',(0.E0,1.E0,0.E0));
#979=AXIS2_PLACEMENT_3D('',#976,#977,#978);
#980=CONICAL_SURFACE('',#979,6.625E0,3.686989764584E1);
#982=ORIENTED_EDGE('',*,*,#981,.T.);
#983=ORIENTED_EDGE('',*,*,#964,.T.);
#985=ORIENTED_EDGE('',*,*,#984,.F.);
#987=ORIENTED_EDGE('',*,*,#986,.F.);
#988=EDGE_LOOP('',(#982,#983,#985,#987));
#989=FACE_OUTER_BOUND('',#988,.F.);
#990=ADVANCED_FACE('',(#989),#980,.T.);
#991=CARTESIAN_POINT('',(2.5E1,-1.57E2,4.2E1));
#992=DIRECTION('',(0.E0,0.E0,-1.E0));
#993=DIRECTION('',(0.E0,1.E0,0.E0));
#994=AXIS2_PLACEMENT_3D('',#991,#992,#993);
#995=CONICAL_SURFACE('',#994,6.625E0,3.686989764584E1);
#996=ORIENTED_EDGE('',*,*,#981,.F.);
#998=ORIENTED_EDGE('',*,*,#997,.T.);
#999=ORIENTED_EDGE('',*,*,#984,.T.);
#1000=ORIENTED_EDGE('',*,*,#966,.F.);
#1001=EDGE_LOOP('',(#996,#998,#999,#1000));
#1002=FACE_OUTER_BOUND('',#1001,.F.);
#1003=ADVANCED_FACE('',(#1002),#995,.T.);
#1004=CARTESIAN_POINT('',(2.5E1,-1.57E2,4.3175E1));
#1005=DIRECTION('',(0.E0,0.E0,-1.E0));
#1006=DIRECTION('',(0.E0,1.E0,0.E0));
#1007=AXIS2_PLACEMENT_3D('',#1004,#1005,#1006);
#1008=CYLINDRICAL_SURFACE('',#1007,7.E0);
#1010=ORIENTED_EDGE('',*,*,#1009,.F.);
#1012=ORIENTED_EDGE('',*,*,#1011,.T.);
#1014=ORIENTED_EDGE('',*,*,#1013,.T.);
#1015=ORIENTED_EDGE('',*,*,#997,.F.);
#1016=EDGE_LOOP('',(#1010,#1012,#1014,#1015));
#1017=FACE_OUTER_BOUND('',#1016,.F.);
#1018=ADVANCED_FACE('',(#1017),#1008,.T.);
#1019=CARTESIAN_POINT('',(2.5E1,-1.57E2,4.3175E1));
#1020=DIRECTION('',(0.E0,0.E0,-1.E0));
#1021=DIRECTION('',(0.E0,1.E0,0.E0));
#1022=AXIS2_PLACEMENT_3D('',#1019,#1020,#1021);
#1023=CYLINDRICAL_SURFACE('',#1022,7.E0);
#1024=ORIENTED_EDGE('',*,*,#1009,.T.);
#1025=ORIENTED_EDGE('',*,*,#986,.T.);
#1026=ORIENTED_EDGE('',*,*,#1013,.F.);
#1028=ORIENTED_EDGE('',*,*,#1027,.F.);
#1029=EDGE_LOOP('',(#1024,#1025,#1026,#1028));
#1030=FACE_OUTER_BOUND('',#1029,.F.);
#1031=ADVANCED_FACE('',(#1030),#1023,.T.);
#1032=CARTESIAN_POINT('',(2.5E1,-1.57E2,3.75E1));
#1033=DIRECTION('',(0.E0,0.E0,-1.E0));
#1034=DIRECTION('',(0.E0,1.E0,0.E0));
#1035=AXIS2_PLACEMENT_3D('',#1032,#1033,#1034);
#1036=PLANE('',#1035);
#1038=ORIENTED_EDGE('',*,*,#1037,.F.);
#1040=ORIENTED_EDGE('',*,*,#1039,.T.);
#1041=EDGE_LOOP('',(#1038,#1040));
#1042=FACE_OUTER_BOUND('',#1041,.F.);
#1043=ORIENTED_EDGE('',*,*,#1011,.F.);
#1044=ORIENTED_EDGE('',*,*,#1027,.T.);
#1045=EDGE_LOOP('',(#1043,#1044));
#1046=FACE_BOUND('',#1045,.F.);
#1047=ADVANCED_FACE('',(#1042,#1046),#1036,.F.);
#1048=CARTESIAN_POINT('',(2.5E1,-1.57E2,4.3175E1));
#1049=DIRECTION('',(0.E0,0.E0,-1.E0));
#1050=DIRECTION('',(0.E0,1.E0,0.E0));
#1051=AXIS2_PLACEMENT_3D('',#1048,#1049,#1050);
#1052=CYLINDRICAL_SURFACE('',#1051,7.5E0);
#1054=ORIENTED_EDGE('',*,*,#1053,.T.);
#1055=ORIENTED_EDGE('',*,*,#1037,.T.);
#1057=ORIENTED_EDGE('',*,*,#1056,.F.);
#1059=ORIENTED_EDGE('',*,*,#1058,.F.);
#1060=EDGE_LOOP('',(#1054,#1055,#1057,#1059));
#1061=FACE_OUTER_BOUND('',#1060,.F.);
#1062=ADVANCED_FACE('',(#1061),#1052,.T.);
#1063=CARTESIAN_POINT('',(2.5E1,-1.57E2,4.3175E1));
#1064=DIRECTION('',(0.E0,0.E0,-1.E0));
#1065=DIRECTION('',(0.E0,1.E0,0.E0));
#1066=AXIS2_PLACEMENT_3D('',#1063,#1064,#1065);
#1067=CYLINDRICAL_SURFACE('',#1066,7.5E0);
#1068=ORIENTED_EDGE('',*,*,#1053,.F.);
#1070=ORIENTED_EDGE('',*,*,#1069,.T.);
#1071=ORIENTED_EDGE('',*,*,#1056,.T.);
#1072=ORIENTED_EDGE('',*,*,#1039,.F.);
#1073=EDGE_LOOP('',(#1068,#1070,#1071,#1072));
#1074=FACE_OUTER_BOUND('',#1073,.F.);
#1075=ADVANCED_FACE('',(#1074),#1067,.T.);
#1076=CARTESIAN_POINT('',(2.5E1,-1.57E2,3.3E1));
#1077=DIRECTION('',(0.E0,0.E0,-1.E0));
#1078=DIRECTION('',(0.E0,1.E0,0.E0));
#1079=AXIS2_PLACEMENT_3D('',#1076,#1077,#1078);
#1080=PLANE('',#1079);
#1081=ORIENTED_EDGE('',*,*,#1069,.F.);
#1082=ORIENTED_EDGE('',*,*,#1058,.T.);
#1083=EDGE_LOOP('',(#1081,#1082));
#1084=FACE_OUTER_BOUND('',#1083,.F.);
#1086=ORIENTED_EDGE('',*,*,#1085,.F.);
#1088=ORIENTED_EDGE('',*,*,#1087,.T.);
#1089=EDGE_LOOP('',(#1086,#1088));
#1090=FACE_BOUND('',#1089,.F.);
#1091=ADVANCED_FACE('',(#1084,#1090),#1080,.T.);
#1092=CARTESIAN_POINT('',(2.5E1,-1.57E2,4.3175E1));
#1093=DIRECTION('',(0.E0,0.E0,-1.E0));
#1094=DIRECTION('',(0.E0,1.E0,0.E0));
#1095=AXIS2_PLACEMENT_3D('',#1092,#1093,#1094);
#1096=CYLINDRICAL_SURFACE('',#1095,7.E0);
#1098=ORIENTED_EDGE('',*,*,#1097,.F.);
#1100=ORIENTED_EDGE('',*,*,#1099,.T.);
#1101=ORIENTED_EDGE('',*,*,#1085,.T.);
#1103=ORIENTED_EDGE('',*,*,#1102,.F.);
#1104=EDGE_LOOP('',(#1098,#1100,#1101,#1103));
#1105=FACE_OUTER_BOUND('',#1104,.F.);
#1106=ADVANCED_FACE('',(#1105),#1096,.T.);
#1107=CARTESIAN_POINT('',(2.5E1,-1.57E2,3.074999999988E1));
#1108=DIRECTION('',(0.E0,0.E0,1.E0));
#1109=DIRECTION('',(0.E0,-1.E0,0.E0));
#1110=AXIS2_PLACEMENT_3D('',#1107,#1108,#1109);
#1111=CONICAL_SURFACE('',#1110,6.749999999884E0,4.5E1);
#1112=ORIENTED_EDGE('',*,*,#1097,.T.);
#1114=ORIENTED_EDGE('',*,*,#1113,.T.);
#1116=ORIENTED_EDGE('',*,*,#1115,.F.);
#1118=ORIENTED_EDGE('',*,*,#1117,.F.);
#1119=EDGE_LOOP('',(#1112,#1114,#1116,#1118));
#1120=FACE_OUTER_BOUND('',#1119,.F.);
#1121=ADVANCED_FACE('',(#1120),#1111,.T.);
#1122=CARTESIAN_POINT('',(2.5E1,-1.57E2,3.074999999988E1));
#1123=DIRECTION('',(0.E0,0.E0,1.E0));
#1124=DIRECTION('',(0.E0,-1.E0,0.E0));
#1125=AXIS2_PLACEMENT_3D('',#1122,#1123,#1124);
#1126=CONICAL_SURFACE('',#1125,6.749999999884E0,4.5E1);
#1128=ORIENTED_EDGE('',*,*,#1127,.T.);
#1129=ORIENTED_EDGE('',*,*,#1117,.T.);
#1131=ORIENTED_EDGE('',*,*,#1130,.F.);
#1132=ORIENTED_EDGE('',*,*,#1113,.F.);
#1133=EDGE_LOOP('',(#1128,#1129,#1131,#1132));
#1134=FACE_OUTER_BOUND('',#1133,.F.);
#1135=ADVANCED_FACE('',(#1134),#1126,.T.);
#1136=CARTESIAN_POINT('',(2.5E1,-1.57E2,4.3175E1));
#1137=DIRECTION('',(0.E0,0.E0,-1.E0));
#1138=DIRECTION('',(0.E0,1.E0,0.E0));
#1139=AXIS2_PLACEMENT_3D('',#1136,#1137,#1138);
#1140=CYLINDRICAL_SURFACE('',#1139,7.E0);
#1141=ORIENTED_EDGE('',*,*,#1127,.F.);
#1142=ORIENTED_EDGE('',*,*,#1102,.T.);
#1143=ORIENTED_EDGE('',*,*,#1087,.F.);
#1144=ORIENTED_EDGE('',*,*,#1099,.F.);
#1145=EDGE_LOOP('',(#1141,#1142,#1143,#1144));
#1146=FACE_OUTER_BOUND('',#1145,.F.);
#1147=ADVANCED_FACE('',(#1146),#1140,.T.);
#1148=CARTESIAN_POINT('',(2.5E1,-1.57E2,3.05E1));
#1149=DIRECTION('',(0.E0,0.E0,-1.E0));
#1150=DIRECTION('',(0.E0,1.E0,0.E0));
#1151=AXIS2_PLACEMENT_3D('',#1148,#1149,#1150);
#1152=PLANE('',#1151);
#1153=ORIENTED_EDGE('',*,*,#1130,.T.);
#1154=ORIENTED_EDGE('',*,*,#1115,.T.);
#1155=EDGE_LOOP('',(#1153,#1154));
#1156=FACE_OUTER_BOUND('',#1155,.F.);
#1158=ORIENTED_EDGE('',*,*,#1157,.F.);
#1160=ORIENTED_EDGE('',*,*,#1159,.F.);
#1161=EDGE_LOOP('',(#1158,#1160));
#1162=FACE_BOUND('',#1161,.F.);
#1163=ADVANCED_FACE('',(#1156,#1162),#1152,.T.);
#1164=CARTESIAN_POINT('',(2.5E1,-1.57E2,2.9E1));
#1165=DIRECTION('',(0.E0,0.E0,-1.E0));
#1166=DIRECTION('',(-1.E0,0.E0,0.E0));
#1167=AXIS2_PLACEMENT_3D('',#1164,#1165,#1166);
#1168=CYLINDRICAL_SURFACE('',#1167,4.5E0);
#1169=ORIENTED_EDGE('',*,*,#586,.T.);
#1171=ORIENTED_EDGE('',*,*,#1170,.T.);
#1172=ORIENTED_EDGE('',*,*,#1157,.T.);
#1174=ORIENTED_EDGE('',*,*,#1173,.F.);
#1175=EDGE_LOOP('',(#1169,#1171,#1172,#1174));
#1176=FACE_OUTER_BOUND('',#1175,.F.);
#1177=ADVANCED_FACE('',(#1176),#1168,.T.);
#1178=CARTESIAN_POINT('',(2.5E1,-1.57E2,2.9E1));
#1179=DIRECTION('',(0.E0,0.E0,-1.E0));
#1180=DIRECTION('',(-1.E0,0.E0,0.E0));
#1181=AXIS2_PLACEMENT_3D('',#1178,#1179,#1180);
#1182=CYLINDRICAL_SURFACE('',#1181,4.5E0);
#1183=ORIENTED_EDGE('',*,*,#588,.T.);
#1184=ORIENTED_EDGE('',*,*,#1173,.T.);
#1185=ORIENTED_EDGE('',*,*,#1159,.T.);
#1186=ORIENTED_EDGE('',*,*,#1170,.F.);
#1187=EDGE_LOOP('',(#1183,#1184,#1185,#1186));
#1188=FACE_OUTER_BOUND('',#1187,.F.);
#1189=ADVANCED_FACE('',(#1188),#1182,.T.);
#1190=CARTESIAN_POINT('',(2.5E1,-1.57E2,2.9E1));
#1191=DIRECTION('',(0.E0,0.E0,1.E0));
#1192=DIRECTION('',(0.E0,-1.E0,0.E0));
#1193=AXIS2_PLACEMENT_3D('',#1190,#1191,#1192);
#1194=CYLINDRICAL_SURFACE('',#1193,5.E0);
#1195=ORIENTED_EDGE('',*,*,#971,.F.);
#1196=ORIENTED_EDGE('',*,*,#954,.T.);
#1197=ORIENTED_EDGE('',*,*,#923,.T.);
#1198=ORIENTED_EDGE('',*,*,#938,.T.);
#1199=ORIENTED_EDGE('',*,*,#950,.F.);
#1200=EDGE_LOOP('',(#1195,#1196,#1197,#1198,#1199));
#1201=FACE_OUTER_BOUND('',#1200,.F.);
#1202=ADVANCED_FACE('',(#1201),#1194,.T.);
#1203=CARTESIAN_POINT('',(2.5E1,-1.377499999999E2,5.E1));
#1204=DIRECTION('',(0.E0,-1.E0,0.E0));
#1205=DIRECTION('',(0.E0,0.E0,-1.E0));
#1206=AXIS2_PLACEMENT_3D('',#1203,#1204,#1205);
#1207=CONICAL_SURFACE('',#1206,6.749999999884E0,4.5E1);
#1208=ORIENTED_EDGE('',*,*,#760,.T.);
#1209=ORIENTED_EDGE('',*,*,#731,.T.);
#1210=ORIENTED_EDGE('',*,*,#712,.F.);
#1211=ORIENTED_EDGE('',*,*,#728,.F.);
#1212=EDGE_LOOP('',(#1208,#1209,#1210,#1211));
#1213=FACE_OUTER_BOUND('',#1212,.F.);
#1214=ADVANCED_FACE('',(#1213),#1207,.T.);
#1215=CLOSED_SHELL('',(#598,#615,#630,#646,#660,#676,#691,#704,#720,#735,#750,
#764,#780,#795,#808,#824,#839,#852,#867,#880,#896,#913,#928,#942,#958,#975,#990,
#1003,#1018,#1031,#1047,#1062,#1075,#1091,#1106,#1121,#1135,#1147,#1163,#1177,
#1189,#1202,#1214));
#1216=MANIFOLD_SOLID_BREP('',#1215);
#1218=DIMENSIONAL_EXPONENTS(0.E0,0.E0,0.E0,0.E0,0.E0,0.E0,0.E0);
#1220=PLANE_ANGLE_MEASURE_WITH_UNIT(PLANE_ANGLE_MEASURE(1.745329251994E-2),
#1219);
#1221=(CONVERSION_BASED_UNIT('DEGREE',#1220)NAMED_UNIT(*)PLANE_ANGLE_UNIT());
#1223=UNCERTAINTY_MEASURE_WITH_UNIT(LENGTH_MEASURE(4.300933737224E-3),#1217,
'closure',
'Maximum model space distance between geometric entities at asserted connectivities');
#1224=(GEOMETRIC_REPRESENTATION_CONTEXT(3)GLOBAL_UNCERTAINTY_ASSIGNED_CONTEXT((
#1223))GLOBAL_UNIT_ASSIGNED_CONTEXT((#1217,#1221,#1222))REPRESENTATION_CONTEXT(
'ID1','3'));
#1226=APPLICATION_CONTEXT(
'CONFIGURATION CONTROLLED 3D DESIGNS OF MECHANICAL PARTS AND ASSEMBLIES');
#1227=APPLICATION_PROTOCOL_DEFINITION('international standard',
'config_control_design',1994,#1226);
#1228=DESIGN_CONTEXT('',#1226,'design');
#1229=MECHANICAL_CONTEXT('',#1226,'mechanical');
#1230=PRODUCT('FTY-04-009','FTY-04-009','NOT SPECIFIED',(#1229));
#1231=PRODUCT_DEFINITION_FORMATION_WITH_SPECIFIED_SOURCE('1','LAST_VERSION',
#1230,.MADE.);
#1235=PRODUCT_CATEGORY('part','');
#1236=PRODUCT_RELATED_PRODUCT_CATEGORY('detail','',(#1230));
#1237=PRODUCT_CATEGORY_RELATIONSHIP('','',#1235,#1236);
#1238=SECURITY_CLASSIFICATION_LEVEL('unclassified');
#1239=SECURITY_CLASSIFICATION('','',#1238);
#1240=CC_DESIGN_SECURITY_CLASSIFICATION(#1239,(#1231));
#1241=APPROVAL_STATUS('approved');
#1242=APPROVAL(#1241,'');
#1243=CC_DESIGN_APPROVAL(#1242,(#1239,#1231,#1232));
#1244=CALENDAR_DATE(126,30,6);
#1245=COORDINATED_UNIVERSAL_TIME_OFFSET(8,0,.AHEAD.);
#1246=LOCAL_TIME(15,28,1.2E1,#1245);
#1247=DATE_AND_TIME(#1244,#1246);
#1248=APPROVAL_DATE_TIME(#1247,#1242);
#1249=DATE_TIME_ROLE('creation_date');
#1250=CC_DESIGN_DATE_AND_TIME_ASSIGNMENT(#1247,#1249,(#1232));
#1251=DATE_TIME_ROLE('classification_date');
#1252=CC_DESIGN_DATE_AND_TIME_ASSIGNMENT(#1247,#1251,(#1239));
#1253=PERSON('UNSPECIFIED','UNSPECIFIED',$,$,$,$);
#1254=ORGANIZATION('UNSPECIFIED','UNSPECIFIED','UNSPECIFIED');
#1255=PERSON_AND_ORGANIZATION(#1253,#1254);
#1256=APPROVAL_ROLE('approver');
#1257=APPROVAL_PERSON_ORGANIZATION(#1255,#1242,#1256);
#1258=PERSON_AND_ORGANIZATION_ROLE('creator');
#1259=CC_DESIGN_PERSON_AND_ORGANIZATION_ASSIGNMENT(#1255,#1258,(#1231,#1232));
#1260=PERSON_AND_ORGANIZATION_ROLE('design_supplier');
#1261=CC_DESIGN_PERSON_AND_ORGANIZATION_ASSIGNMENT(#1255,#1260,(#1231));
#1262=PERSON_AND_ORGANIZATION_ROLE('classification_officer');
#1263=CC_DESIGN_PERSON_AND_ORGANIZATION_ASSIGNMENT(#1255,#1262,(#1239));
#1264=PERSON_AND_ORGANIZATION_ROLE('design_owner');
#1265=CC_DESIGN_PERSON_AND_ORGANIZATION_ASSIGNMENT(#1255,#1264,(#1230));
#6=CIRCLE('',#5,3.3E0);
#11=CIRCLE('',#10,3.3E0);
#16=CIRCLE('',#15,4.5E0);
#21=CIRCLE('',#20,4.5E0);
#42=B_SPLINE_CURVE_WITH_KNOTS('',3,(#30,#31,#32,#33,#34,#35,#36,#37,#38,#39,#40,
#41),.UNSPECIFIED.,.F.,.F.,(4,1,1,1,1,1,1,1,1,4),(0.E0,1.111111111111E-1,
2.222222222222E-1,3.333333333333E-1,4.444444444444E-1,5.555555555556E-1,
6.666666666667E-1,7.777777777778E-1,8.888888888889E-1,1.E0),.UNSPECIFIED.);
#59=B_SPLINE_CURVE_WITH_KNOTS('',3,(#47,#48,#49,#50,#51,#52,#53,#54,#55,#56,#57,
#58),.UNSPECIFIED.,.F.,.F.,(4,1,1,1,1,1,1,1,1,4),(0.E0,1.111111111111E-1,
2.222222222222E-1,3.333333333333E-1,4.444444444444E-1,5.555555555556E-1,
6.666666666667E-1,7.777777777778E-1,8.888888888889E-1,1.E0),.UNSPECIFIED.);
#72=B_SPLINE_CURVE_WITH_KNOTS('',3,(#60,#61,#62,#63,#64,#65,#66,#67,#68,#69,#70,
#71),.UNSPECIFIED.,.F.,.F.,(4,1,1,1,1,1,1,1,1,4),(0.E0,1.111111111111E-1,
2.222222222222E-1,3.333333333333E-1,4.444444444444E-1,5.555555555556E-1,
6.666666666667E-1,7.777777777778E-1,8.888888888889E-1,1.E0),.UNSPECIFIED.);
#89=B_SPLINE_CURVE_WITH_KNOTS('',3,(#77,#78,#79,#80,#81,#82,#83,#84,#85,#86,#87,
#88),.UNSPECIFIED.,.F.,.F.,(4,1,1,1,1,1,1,1,1,4),(0.E0,1.111111111111E-1,
2.222222222222E-1,3.333333333333E-1,4.444444444444E-1,5.555555555556E-1,
6.666666666667E-1,7.777777777778E-1,8.888888888889E-1,1.E0),.UNSPECIFIED.);
#94=CIRCLE('',#93,3.3E0);
#99=CIRCLE('',#98,3.3E0);
#104=CIRCLE('',#103,4.5E0);
#109=CIRCLE('',#108,4.5E0);
#122=CIRCLE('',#121,4.5E0);
#127=CIRCLE('',#126,4.5E0);
#132=CIRCLE('',#131,6.5E0);
#137=CIRCLE('',#136,6.5E0);
#150=CIRCLE('',#149,7.E0);
#159=CIRCLE('',#158,7.E0);
#164=CIRCLE('',#163,7.E0);
#169=CIRCLE('',#168,7.E0);
#178=CIRCLE('',#177,7.5E0);
#187=CIRCLE('',#186,7.5E0);
#192=CIRCLE('',#191,7.5E0);
#197=CIRCLE('',#196,7.5E0);
#206=CIRCLE('',#205,7.E0);
#215=CIRCLE('',#214,7.E0);
#220=CIRCLE('',#219,7.E0);
#229=CIRCLE('',#228,7.E0);
#238=CIRCLE('',#237,6.25E0);
#243=CIRCLE('',#242,6.25E0);
#248=CIRCLE('',#247,5.E0);
#262=B_SPLINE_CURVE_WITH_KNOTS('',3,(#249,#250,#251,#252,#253,#254,#255,#256,
#257,#258,#259,#260,#261),.UNSPECIFIED.,.F.,.F.,(4,1,1,1,1,1,1,1,1,1,4),(0.E0,
1.E-1,2.E-1,3.E-1,4.E-1,5.E-1,6.E-1,7.E-1,8.E-1,9.E-1,1.E0),.UNSPECIFIED.);
#267=CIRCLE('',#266,5.E0);
#276=CIRCLE('',#275,5.E0);
#281=CIRCLE('',#280,5.E0);
#295=B_SPLINE_CURVE_WITH_KNOTS('',3,(#282,#283,#284,#285,#286,#287,#288,#289,
#290,#291,#292,#293,#294),.UNSPECIFIED.,.F.,.F.,(4,1,1,1,1,1,1,1,1,1,4),(0.E0,
1.E-1,2.E-1,3.E-1,4.E-1,5.E-1,6.E-1,7.E-1,8.E-1,9.E-1,1.E0),.UNSPECIFIED.);
#304=CIRCLE('',#303,5.E0);
#313=CIRCLE('',#312,5.E0);
#318=CIRCLE('',#317,6.25E0);
#323=CIRCLE('',#322,6.25E0);
#336=CIRCLE('',#335,7.E0);
#341=CIRCLE('',#340,7.E0);
#346=CIRCLE('',#345,7.E0);
#359=CIRCLE('',#358,7.E0);
#364=CIRCLE('',#363,7.5E0);
#369=CIRCLE('',#368,7.5E0);
#382=CIRCLE('',#381,7.5E0);
#387=CIRCLE('',#386,7.5E0);
#392=CIRCLE('',#391,7.E0);
#397=CIRCLE('',#396,7.E0);
#402=CIRCLE('',#401,7.E0);
#423=CIRCLE('',#422,7.E0);
#428=CIRCLE('',#427,4.5E0);
#433=CIRCLE('',#432,4.5E0);
#438=CIRCLE('',#437,6.5E0);
#443=CIRCLE('',#442,6.5E0);
#456=CIRCLE('',#455,5.E0);
#465=CIRCLE('',#464,5.E0);
#586=EDGE_CURVE('',#555,#556,#16,.T.);
#588=EDGE_CURVE('',#556,#555,#21,.T.);
#592=EDGE_CURVE('',#472,#473,#6,.T.);
#594=EDGE_CURVE('',#473,#472,#11,.T.);
#605=EDGE_CURVE('',#472,#475,#25,.T.);
#607=EDGE_CURVE('',#475,#482,#72,.T.);
#609=EDGE_CURVE('',#482,#477,#89,.T.);
#611=EDGE_CURVE('',#473,#477,#29,.T.);
#623=EDGE_CURVE('',#477,#483,#42,.T.);
#625=EDGE_CURVE('',#483,#475,#59,.T.);
#637=EDGE_CURVE('',#477,#481,#46,.T.);
#639=EDGE_CURVE('',#481,#480,#99,.T.);
#641=EDGE_CURVE('',#475,#480,#76,.T.);
#654=EDGE_CURVE('',#480,#481,#94,.T.);
#666=EDGE_CURVE('',#563,#564,#104,.T.);
#668=EDGE_CURVE('',#564,#563,#109,.T.);
#683=EDGE_CURVE('',#564,#559,#113,.T.);
#685=EDGE_CURVE('',#559,#560,#122,.T.);
#687=EDGE_CURVE('',#563,#560,#117,.T.);
#699=EDGE_CURVE('',#560,#559,#127,.T.);
#710=EDGE_CURVE('',#579,#580,#132,.T.);
#712=EDGE_CURVE('',#580,#579,#137,.T.);
#726=EDGE_CURVE('',#576,#574,#150,.T.);
#728=EDGE_CURVE('',#574,#580,#469,.T.);
#731=EDGE_CURVE('',#576,#579,#141,.T.);
#741=EDGE_CURVE('',#574,#515,#145,.T.);
#744=EDGE_CURVE('',#576,#516,#154,.T.);
#746=EDGE_CURVE('',#515,#516,#169,.T.);
#757=EDGE_CURVE('',#515,#516,#164,.T.);
#760=EDGE_CURVE('',#574,#576,#159,.T.);
#770=EDGE_CURVE('',#495,#505,#178,.T.);
#772=EDGE_CURVE('',#495,#505,#187,.T.);
#786=EDGE_CURVE('',#495,#496,#173,.T.);
#789=EDGE_CURVE('',#505,#506,#182,.T.);
#791=EDGE_CURVE('',#496,#506,#197,.T.);
#802=EDGE_CURVE('',#496,#506,#192,.T.);
#818=EDGE_CURVE('',#499,#509,#206,.T.);
#820=EDGE_CURVE('',#499,#509,#215,.T.);
#830=EDGE_CURVE('',#499,#500,#201,.T.);
#833=EDGE_CURVE('',#509,#510,#210,.T.);
#835=EDGE_CURVE('',#500,#510,#229,.T.);
#846=EDGE_CURVE('',#500,#510,#220,.T.);
#858=EDGE_CURVE('',#500,#502,#224,.T.);
#860=EDGE_CURVE('',#502,#512,#238,.T.);
#862=EDGE_CURVE('',#510,#512,#233,.T.);
#876=EDGE_CURVE('',#502,#512,#243,.T.);
#890=EDGE_CURVE('',#519,#520,#248,.T.);
#892=EDGE_CURVE('',#520,#519,#276,.T.);
#903=EDGE_CURVE('',#492,#520,#299,.T.);
#905=EDGE_CURVE('',#487,#492,#262,.T.);
#907=EDGE_CURVE('',#489,#487,#267,.T.);
#909=EDGE_CURVE('',#489,#519,#271,.T.);
#921=EDGE_CURVE('',#491,#489,#281,.T.);
#923=EDGE_CURVE('',#492,#491,#295,.T.);
#936=EDGE_CURVE('',#486,#487,#313,.T.);
#938=EDGE_CURVE('',#491,#486,#465,.T.);
#948=EDGE_CURVE('',#547,#548,#304,.T.);
#950=EDGE_CURVE('',#547,#486,#308,.T.);
#954=EDGE_CURVE('',#548,#492,#460,.T.);
#964=EDGE_CURVE('',#530,#540,#318,.T.);
#966=EDGE_CURVE('',#530,#540,#323,.T.);
#971=EDGE_CURVE('',#548,#547,#456,.T.);
#981=EDGE_CURVE('',#528,#530,#327,.T.);
#984=EDGE_CURVE('',#538,#540,#331,.T.);
#986=EDGE_CURVE('',#528,#538,#336,.T.);
#997=EDGE_CURVE('',#528,#538,#341,.T.);
#1009=EDGE_CURVE('',#527,#528,#350,.T.);
#1011=EDGE_CURVE('',#527,#537,#346,.T.);
#1013=EDGE_CURVE('',#537,#538,#354,.T.);
#1027=EDGE_CURVE('',#527,#537,#359,.T.);
#1037=EDGE_CURVE('',#524,#534,#364,.T.);
#1039=EDGE_CURVE('',#524,#534,#369,.T.);
#1053=EDGE_CURVE('',#523,#524,#373,.T.);
#1056=EDGE_CURVE('',#533,#534,#377,.T.);
#1058=EDGE_CURVE('',#523,#533,#382,.T.);
#1069=EDGE_CURVE('',#523,#533,#387,.T.);
#1085=EDGE_CURVE('',#543,#544,#392,.T.);
#1087=EDGE_CURVE('',#543,#544,#397,.T.);
#1097=EDGE_CURVE('',#568,#567,#402,.T.);
#1099=EDGE_CURVE('',#568,#543,#406,.T.);
#1102=EDGE_CURVE('',#567,#544,#410,.T.);
#1113=EDGE_CURVE('',#567,#571,#418,.T.);
#1115=EDGE_CURVE('',#572,#571,#443,.T.);
#1117=EDGE_CURVE('',#568,#572,#414,.T.);
#1127=EDGE_CURVE('',#567,#568,#423,.T.);
#1130=EDGE_CURVE('',#571,#572,#438,.T.);
#1157=EDGE_CURVE('',#551,#552,#428,.T.);
#1159=EDGE_CURVE('',#552,#551,#433,.T.);
#1170=EDGE_CURVE('',#556,#551,#447,.T.);
#1173=EDGE_CURVE('',#555,#552,#451,.T.);
#1217=(LENGTH_UNIT()NAMED_UNIT(*)SI_UNIT(.MILLI.,.METRE.));
#1219=(NAMED_UNIT(*)PLANE_ANGLE_UNIT()SI_UNIT($,.RADIAN.));
#1222=(NAMED_UNIT(*)SI_UNIT($,.STERADIAN.)SOLID_ANGLE_UNIT());
#1225=ADVANCED_BREP_SHAPE_REPRESENTATION('',(#1216),#1224);
#1232=PRODUCT_DEFINITION('design','',#1231,#1228);
#1233=PRODUCT_DEFINITION_SHAPE('','SHAPE FOR FTY-04-009.',#1232);
#1234=SHAPE_DEFINITION_REPRESENTATION(#1233,#1225);
ENDSEC;
END-ISO-10303-21;
