ISO-10303-21;
HEADER;
FILE_DESCRIPTION((''),'2;1');
FILE_NAME('23601232001','2026-07-01T14:59:55',('Administrator'),(''),
'CREO PARAMETRIC BY PTC INC, 2019010','CREO PARAMETRIC BY PTC INC, 2019010','');
FILE_SCHEMA(('CONFIG_CONTROL_DESIGN'));
ENDSEC;
DATA;
#2=CARTESIAN_POINT('',(0.E0,0.E0,-2.4E1));
#3=DIRECTION('',(0.E0,0.E0,1.E0));
#4=DIRECTION('',(1.E0,0.E0,0.E0));
#5=AXIS2_PLACEMENT_3D('',#2,#3,#4);
#7=CARTESIAN_POINT('',(0.E0,0.E0,-2.4E1));
#8=DIRECTION('',(0.E0,0.E0,1.E0));
#9=DIRECTION('',(-1.E0,0.E0,0.E0));
#10=AXIS2_PLACEMENT_3D('',#7,#8,#9);
#12=CARTESIAN_POINT('',(0.E0,0.E0,-2.4E1));
#13=DIRECTION('',(0.E0,0.E0,-1.E0));
#14=DIRECTION('',(0.E0,-1.E0,0.E0));
#15=AXIS2_PLACEMENT_3D('',#12,#13,#14);
#17=CARTESIAN_POINT('',(0.E0,0.E0,-2.4E1));
#18=DIRECTION('',(0.E0,0.E0,-1.E0));
#19=DIRECTION('',(0.E0,1.E0,0.E0));
#20=AXIS2_PLACEMENT_3D('',#17,#18,#19);
#22=CARTESIAN_POINT('',(0.E0,0.E0,-2.35E1));
#23=DIRECTION('',(0.E0,0.E0,1.E0));
#24=DIRECTION('',(1.E0,-1.475600823501E-13,0.E0));
#25=AXIS2_PLACEMENT_3D('',#22,#23,#24);
#27=CARTESIAN_POINT('',(0.E0,0.E0,-2.35E1));
#28=DIRECTION('',(0.E0,0.E0,1.E0));
#29=DIRECTION('',(-9.999743314447E-1,7.164946036602E-3,0.E0));
#30=AXIS2_PLACEMENT_3D('',#27,#28,#29);
#32=CARTESIAN_POINT('',(0.E0,0.E0,-2.4E1));
#33=DIRECTION('',(0.E0,0.E0,-1.E0));
#34=DIRECTION('',(-1.E0,0.E0,0.E0));
#35=AXIS2_PLACEMENT_3D('',#32,#33,#34);
#37=CARTESIAN_POINT('',(6.5E0,-5.420192072947E-12,-2.35E1));
#38=DIRECTION('',(-8.338755033699E-13,-1.E0,0.E0));
#39=DIRECTION('',(0.E0,0.E0,-1.E0));
#40=AXIS2_PLACEMENT_3D('',#37,#38,#39);
#42=DIRECTION('',(0.E0,1.458351668593E-12,-1.E0));
#43=VECTOR('',#42,2.E0);
#44=CARTESIAN_POINT('',(-7.E0,0.E0,-2.15E1));
#45=LINE('',#44,#43);
#46=CARTESIAN_POINT('',(0.E0,0.E0,-2.15E1));
#47=DIRECTION('',(0.E0,0.E0,-1.E0));
#48=DIRECTION('',(-1.E0,0.E0,0.E0));
#49=AXIS2_PLACEMENT_3D('',#46,#47,#48);
#51=CARTESIAN_POINT('',(0.E0,0.E0,-2.15E1));
#52=DIRECTION('',(0.E0,0.E0,-1.E0));
#53=DIRECTION('',(-9.999766390949E-1,6.835295498577E-3,0.E0));
#54=AXIS2_PLACEMENT_3D('',#51,#52,#53);
#56=CARTESIAN_POINT('',(6.5E0,0.E0,-2.15E1));
#57=DIRECTION('',(0.E0,-1.E0,0.E0));
#58=DIRECTION('',(1.E0,0.E0,0.E0));
#59=AXIS2_PLACEMENT_3D('',#56,#57,#58);
#61=CARTESIAN_POINT('',(0.E0,0.E0,-2.1E1));
#62=DIRECTION('',(0.E0,0.E0,-1.E0));
#63=DIRECTION('',(-1.E0,0.E0,0.E0));
#64=AXIS2_PLACEMENT_3D('',#61,#62,#63);
#66=CARTESIAN_POINT('',(0.E0,0.E0,-2.1E1));
#67=DIRECTION('',(0.E0,0.E0,-1.E0));
#68=DIRECTION('',(1.E0,0.E0,0.E0));
#69=AXIS2_PLACEMENT_3D('',#66,#67,#68);
#71=CARTESIAN_POINT('',(0.E0,0.E0,-2.1E1));
#72=DIRECTION('',(0.E0,0.E0,1.E0));
#73=DIRECTION('',(1.E0,0.E0,0.E0));
#74=AXIS2_PLACEMENT_3D('',#71,#72,#73);
#76=CARTESIAN_POINT('',(0.E0,0.E0,-2.1E1));
#77=DIRECTION('',(0.E0,0.E0,1.E0));
#78=DIRECTION('',(9.998950179970E-1,1.448975447406E-2,0.E0));
#79=AXIS2_PLACEMENT_3D('',#76,#77,#78);
#81=CARTESIAN_POINT('',(0.E0,0.E0,-2.1E1));
#82=DIRECTION('',(0.E0,0.E0,1.E0));
#83=DIRECTION('',(-1.E0,0.E0,0.E0));
#84=AXIS2_PLACEMENT_3D('',#81,#82,#83);
#86=CARTESIAN_POINT('',(0.E0,0.E0,-2.1E1));
#87=DIRECTION('',(0.E0,0.E0,1.E0));
#88=DIRECTION('',(-9.998950179970E-1,-1.448975447406E-2,0.E0));
#89=AXIS2_PLACEMENT_3D('',#86,#87,#88);
#91=CARTESIAN_POINT('',(0.E0,0.E0,-2.15E1));
#92=DIRECTION('',(0.E0,0.E0,-1.E0));
#93=DIRECTION('',(1.E0,-1.475600823501E-13,0.E0));
#94=AXIS2_PLACEMENT_3D('',#91,#92,#93);
#96=CARTESIAN_POINT('',(0.E0,0.E0,-2.15E1));
#97=DIRECTION('',(0.E0,0.E0,-1.E0));
#98=DIRECTION('',(9.999766390949E-1,-6.835295498576E-3,0.E0));
#99=AXIS2_PLACEMENT_3D('',#96,#97,#98);
#101=CARTESIAN_POINT('',(-6.5E0,0.E0,-2.15E1));
#102=DIRECTION('',(0.E0,1.E0,0.E0));
#103=DIRECTION('',(-1.E0,0.E0,0.E0));
#104=AXIS2_PLACEMENT_3D('',#101,#102,#103);
#106=DIRECTION('',(0.E0,-1.459685670946E-12,-1.E0));
#107=VECTOR('',#106,2.E0);
#108=CARTESIAN_POINT('',(7.E0,-5.166753939365E-13,-2.15E1));
#109=LINE('',#108,#107);
#110=CARTESIAN_POINT('',(0.E0,0.E0,-2.35E1));
#111=DIRECTION('',(0.E0,0.E0,1.E0));
#112=DIRECTION('',(-1.E0,0.E0,0.E0));
#113=AXIS2_PLACEMENT_3D('',#110,#111,#112);
#115=CARTESIAN_POINT('',(0.E0,0.E0,-2.35E1));
#116=DIRECTION('',(0.E0,0.E0,1.E0));
#117=DIRECTION('',(9.999743314447E-1,-7.164946036602E-3,0.E0));
#118=AXIS2_PLACEMENT_3D('',#115,#116,#117);
#120=CARTESIAN_POINT('',(0.E0,0.E0,-2.4E1));
#121=DIRECTION('',(0.E0,0.E0,-1.E0));
#122=DIRECTION('',(1.E0,0.E0,0.E0));
#123=AXIS2_PLACEMENT_3D('',#120,#121,#122);
#125=CARTESIAN_POINT('',(-6.5E0,5.416785076040E-12,-2.35E1));
#126=DIRECTION('',(8.333507495184E-13,1.E0,0.E0));
#127=DIRECTION('',(0.E0,0.E0,-1.E0));
#128=AXIS2_PLACEMENT_3D('',#125,#126,#127);
#130=CARTESIAN_POINT('',(0.E0,0.E0,-2.05E1));
#131=DIRECTION('',(0.E0,0.E0,1.E0));
#132=DIRECTION('',(1.E0,-4.453138566492E-14,0.E0));
#133=AXIS2_PLACEMENT_3D('',#130,#131,#132);
#135=CARTESIAN_POINT('',(0.E0,0.E0,-2.05E1));
#136=DIRECTION('',(0.E0,0.E0,1.E0));
#137=DIRECTION('',(9.998950179970E-1,1.448975447406E-2,0.E0));
#138=AXIS2_PLACEMENT_3D('',#135,#136,#137);
#140=CARTESIAN_POINT('',(3.675E0,1.025067530858E-11,-2.05E1));
#141=DIRECTION('',(-2.789298306216E-12,1.E0,0.E0));
#142=DIRECTION('',(0.E0,0.E0,-1.E0));
#143=AXIS2_PLACEMENT_3D('',#140,#141,#142);
#145=DIRECTION('',(0.E0,-4.217457000519E-13,-1.E0));
#146=VECTOR('',#145,1.05E1);
#147=CARTESIAN_POINT('',(-3.175E0,0.E0,-1.E1));
#148=LINE('',#147,#146);
#149=DIRECTION('',(0.E0,4.239837341501E-13,-1.E0));
#150=VECTOR('',#149,1.05E1);
#151=CARTESIAN_POINT('',(3.175E0,-9.425773700055E-14,-1.E1));
#152=LINE('',#151,#150);
#153=CARTESIAN_POINT('',(0.E0,0.E0,-2.05E1));
#154=DIRECTION('',(0.E0,0.E0,1.E0));
#155=DIRECTION('',(-1.E0,0.E0,0.E0));
#156=AXIS2_PLACEMENT_3D('',#153,#154,#155);
#158=CARTESIAN_POINT('',(0.E0,0.E0,-2.05E1));
#159=DIRECTION('',(0.E0,0.E0,1.E0));
#160=DIRECTION('',(-9.998950179970E-1,-1.448975447406E-2,0.E0));
#161=AXIS2_PLACEMENT_3D('',#158,#159,#160);
#163=CARTESIAN_POINT('',(-3.675E0,-1.025067530858E-11,-2.05E1));
#164=DIRECTION('',(2.789298306216E-12,-1.E0,0.E0));
#165=DIRECTION('',(0.E0,0.E0,-1.E0));
#166=AXIS2_PLACEMENT_3D('',#163,#164,#165);
#168=CARTESIAN_POINT('',(0.E0,0.E0,-1.E1));
#169=DIRECTION('',(0.E0,0.E0,-1.E0));
#170=DIRECTION('',(-1.E0,0.E0,0.E0));
#171=AXIS2_PLACEMENT_3D('',#168,#169,#170);
#173=CARTESIAN_POINT('',(0.E0,0.E0,-1.E1));
#174=DIRECTION('',(0.E0,0.E0,-1.E0));
#175=DIRECTION('',(1.E0,0.E0,0.E0));
#176=AXIS2_PLACEMENT_3D('',#173,#174,#175);
#178=CARTESIAN_POINT('',(0.E0,0.E0,-1.E1));
#179=DIRECTION('',(0.E0,0.E0,1.E0));
#180=DIRECTION('',(-1.E0,0.E0,0.E0));
#181=AXIS2_PLACEMENT_3D('',#178,#179,#180);
#183=CARTESIAN_POINT('',(0.E0,0.E0,-1.E1));
#184=DIRECTION('',(0.E0,0.E0,1.E0));
#185=DIRECTION('',(1.E0,0.E0,0.E0));
#186=AXIS2_PLACEMENT_3D('',#183,#184,#185);
#188=DIRECTION('',(0.E0,0.E0,-1.E0));
#189=VECTOR('',#188,2.E0);
#190=CARTESIAN_POINT('',(3.075E0,0.E0,-8.E0));
#191=LINE('',#190,#189);
#192=DIRECTION('',(0.E0,0.E0,-1.E0));
#193=VECTOR('',#192,2.E0);
#194=CARTESIAN_POINT('',(-3.075E0,0.E0,-8.E0));
#195=LINE('',#194,#193);
#196=CARTESIAN_POINT('',(0.E0,0.E0,-8.E0));
#197=DIRECTION('',(0.E0,0.E0,1.E0));
#198=DIRECTION('',(-1.E0,0.E0,0.E0));
#199=AXIS2_PLACEMENT_3D('',#196,#197,#198);
#201=CARTESIAN_POINT('',(0.E0,0.E0,-8.E0));
#202=DIRECTION('',(0.E0,0.E0,1.E0));
#203=DIRECTION('',(1.E0,0.E0,0.E0));
#204=AXIS2_PLACEMENT_3D('',#201,#202,#203);
#206=CARTESIAN_POINT('',(0.E0,0.E0,-8.E0));
#207=DIRECTION('',(0.E0,0.E0,-1.E0));
#208=DIRECTION('',(-1.E0,0.E0,0.E0));
#209=AXIS2_PLACEMENT_3D('',#206,#207,#208);
#211=CARTESIAN_POINT('',(0.E0,0.E0,-8.E0));
#212=DIRECTION('',(0.E0,0.E0,-1.E0));
#213=DIRECTION('',(1.E0,0.E0,0.E0));
#214=AXIS2_PLACEMENT_3D('',#211,#212,#213);
#216=CARTESIAN_POINT('',(0.E0,0.E0,-5.E-1));
#217=DIRECTION('',(0.E0,0.E0,-1.E0));
#218=DIRECTION('',(1.E0,2.192576049860E-13,0.E0));
#219=AXIS2_PLACEMENT_3D('',#216,#217,#218);
#221=CARTESIAN_POINT('',(0.E0,0.E0,-5.E-1));
#222=DIRECTION('',(0.E0,0.E0,-1.E0));
#223=DIRECTION('',(9.998864487921E-1,-1.506948976961E-2,0.E0));
#224=AXIS2_PLACEMENT_3D('',#221,#222,#223);
#226=CARTESIAN_POINT('',(-2.675E0,6.654572726195E-12,-5.E-1));
#227=DIRECTION('',(2.487690609065E-12,1.E0,0.E0));
#228=DIRECTION('',(-1.E0,2.487690609065E-12,0.E0));
#229=AXIS2_PLACEMENT_3D('',#226,#227,#228);
#231=CARTESIAN_POINT('',(0.E0,0.E0,0.E0));
#232=DIRECTION('',(0.E0,0.E0,-1.E0));
#233=DIRECTION('',(1.E0,0.E0,0.E0));
#234=AXIS2_PLACEMENT_3D('',#231,#232,#233);
#236=CARTESIAN_POINT('',(0.E0,0.E0,0.E0));
#237=DIRECTION('',(0.E0,0.E0,-1.E0));
#238=DIRECTION('',(-1.E0,0.E0,0.E0));
#239=AXIS2_PLACEMENT_3D('',#236,#237,#238);
#241=CARTESIAN_POINT('',(0.E0,0.E0,-5.E-1));
#242=DIRECTION('',(0.E0,0.E0,-1.E0));
#243=DIRECTION('',(-1.E0,0.E0,0.E0));
#244=AXIS2_PLACEMENT_3D('',#241,#242,#243);
#246=CARTESIAN_POINT('',(0.E0,0.E0,-5.E-1));
#247=DIRECTION('',(0.E0,0.E0,-1.E0));
#248=DIRECTION('',(-9.998864487921E-1,1.506948976961E-2,0.E0));
#249=AXIS2_PLACEMENT_3D('',#246,#247,#248);
#251=CARTESIAN_POINT('',(2.675E0,-6.654343742696E-12,-5.E-1));
#252=DIRECTION('',(-2.487607342339E-12,-1.E0,0.E0));
#253=DIRECTION('',(1.E0,-2.487607342339E-12,0.E0));
#254=AXIS2_PLACEMENT_3D('',#251,#252,#253);
#256=DIRECTION('',(0.E0,-5.265125471968E-13,-1.E0));
#257=VECTOR('',#256,7.5E0);
#258=CARTESIAN_POINT('',(-3.175E0,3.949103320882E-12,-5.E-1));
#259=LINE('',#258,#257);
#260=DIRECTION('',(0.E0,-5.419821922700E-13,1.E0));
#261=VECTOR('',#260,7.5E0);
#262=CARTESIAN_POINT('',(3.175E0,4.640949012302E-13,-8.E0));
#263=LINE('',#262,#261);
#264=DIRECTION('',(0.E0,0.E0,-1.E0));
#265=VECTOR('',#264,2.27E1);
#266=CARTESIAN_POINT('',(0.E0,1.9E0,-1.3E0));
#267=LINE('',#266,#265);
#268=DIRECTION('',(0.E0,0.E0,-1.E0));
#269=VECTOR('',#268,2.27E1);
#270=CARTESIAN_POINT('',(0.E0,-1.9E0,-1.3E0));
#271=LINE('',#270,#269);
#272=CARTESIAN_POINT('',(0.E0,0.E0,-1.3E0));
#273=DIRECTION('',(0.E0,0.E0,1.E0));
#274=DIRECTION('',(0.E0,1.E0,0.E0));
#275=AXIS2_PLACEMENT_3D('',#272,#273,#274);
#277=CARTESIAN_POINT('',(0.E0,0.E0,-1.3E0));
#278=DIRECTION('',(0.E0,0.E0,1.E0));
#279=DIRECTION('',(0.E0,-1.E0,0.E0));
#280=AXIS2_PLACEMENT_3D('',#277,#278,#279);
#282=CARTESIAN_POINT('',(6.5E0,-1.090808352429E-14,-2.4E1));
#283=CARTESIAN_POINT('',(-6.499833154391E0,4.657214923790E-2,-2.4E1));
#284=VERTEX_POINT('',#282);
#285=VERTEX_POINT('',#283);
#286=CARTESIAN_POINT('',(-6.5E0,1.090808352429E-14,-2.4E1));
#287=VERTEX_POINT('',#286);
#288=CARTESIAN_POINT('',(6.499833154391E0,-4.657214923790E-2,-2.4E1));
#289=VERTEX_POINT('',#288);
#290=CARTESIAN_POINT('',(0.E0,-1.9E0,-2.4E1));
#291=CARTESIAN_POINT('',(0.E0,1.9E0,-2.4E1));
#292=VERTEX_POINT('',#290);
#293=VERTEX_POINT('',#291);
#294=CARTESIAN_POINT('',(7.E0,-1.032920576451E-12,-2.35E1));
#295=CARTESIAN_POINT('',(-6.999820320113E0,5.015462225622E-2,-2.35E1));
#296=VERTEX_POINT('',#294);
#297=VERTEX_POINT('',#295);
#298=CARTESIAN_POINT('',(-7.E0,0.E0,-2.35E1));
#299=VERTEX_POINT('',#298);
#300=CARTESIAN_POINT('',(-6.999836473664E0,4.784706849004E-2,-2.15E1));
#301=CARTESIAN_POINT('',(7.E0,-1.032923746536E-12,-2.15E1));
#302=VERTEX_POINT('',#300);
#303=VERTEX_POINT('',#301);
#304=CARTESIAN_POINT('',(-7.E0,0.E0,-2.15E1));
#305=VERTEX_POINT('',#304);
#306=CARTESIAN_POINT('',(-6.5E0,0.E0,-2.1E1));
#307=CARTESIAN_POINT('',(6.5E0,0.E0,-2.1E1));
#308=VERTEX_POINT('',#306);
#309=VERTEX_POINT('',#307);
#310=CARTESIAN_POINT('',(3.674614191139E0,5.324984769217E-2,-2.1E1));
#311=CARTESIAN_POINT('',(-3.675E0,0.E0,-2.1E1));
#312=VERTEX_POINT('',#310);
#313=VERTEX_POINT('',#311);
#314=CARTESIAN_POINT('',(3.675E0,0.E0,-2.1E1));
#315=VERTEX_POINT('',#314);
#316=CARTESIAN_POINT('',(-3.674614191139E0,-5.324984769217E-2,-2.1E1));
#317=VERTEX_POINT('',#316);
#318=CARTESIAN_POINT('',(6.999836473664E0,-4.784706849003E-2,-2.15E1));
#319=VERTEX_POINT('',#318);
#320=CARTESIAN_POINT('',(6.999820320113E0,-5.015462225621E-2,-2.35E1));
#321=VERTEX_POINT('',#320);
#322=CARTESIAN_POINT('',(3.174666682141E0,4.600497045514E-2,-2.05E1));
#323=CARTESIAN_POINT('',(-3.175E0,0.E0,-2.05E1));
#324=VERTEX_POINT('',#322);
#325=VERTEX_POINT('',#323);
#326=CARTESIAN_POINT('',(3.175E0,-1.413871494861E-13,-2.05E1));
#327=VERTEX_POINT('',#326);
#328=CARTESIAN_POINT('',(3.175E0,-9.425773700055E-14,-1.E1));
#329=VERTEX_POINT('',#328);
#330=CARTESIAN_POINT('',(-3.175E0,0.E0,-1.E1));
#331=VERTEX_POINT('',#330);
#332=CARTESIAN_POINT('',(-3.174666682141E0,-4.600497045514E-2,-2.05E1));
#333=VERTEX_POINT('',#332);
#334=CARTESIAN_POINT('',(-3.075E0,0.E0,-1.E1));
#335=CARTESIAN_POINT('',(3.075E0,0.E0,-1.E1));
#336=VERTEX_POINT('',#334);
#337=VERTEX_POINT('',#335);
#338=CARTESIAN_POINT('',(-3.075E0,0.E0,-8.E0));
#339=VERTEX_POINT('',#338);
#340=CARTESIAN_POINT('',(3.075E0,0.E0,-8.E0));
#341=VERTEX_POINT('',#340);
#342=CARTESIAN_POINT('',(-3.175E0,0.E0,-8.E0));
#343=CARTESIAN_POINT('',(3.175E0,0.E0,-8.E0));
#344=VERTEX_POINT('',#342);
#345=VERTEX_POINT('',#343);
#346=CARTESIAN_POINT('',(3.174639474915E0,-4.784563001851E-2,-5.E-1));
#347=CARTESIAN_POINT('',(-3.175E0,0.E0,-5.E-1));
#348=VERTEX_POINT('',#346);
#349=VERTEX_POINT('',#347);
#350=CARTESIAN_POINT('',(3.175E0,6.961428958306E-13,-5.E-1));
#351=VERTEX_POINT('',#350);
#352=CARTESIAN_POINT('',(2.675E0,0.E0,0.E0));
#353=CARTESIAN_POINT('',(-2.675E0,0.E0,0.E0));
#354=VERTEX_POINT('',#352);
#355=VERTEX_POINT('',#353);
#356=CARTESIAN_POINT('',(-3.174639474915E0,4.784563001851E-2,-5.E-1));
#357=VERTEX_POINT('',#356);
#358=CARTESIAN_POINT('',(0.E0,-1.9E0,-1.3E0));
#359=VERTEX_POINT('',#358);
#360=CARTESIAN_POINT('',(0.E0,1.9E0,-1.3E0));
#361=VERTEX_POINT('',#360);
#362=CARTESIAN_POINT('',(0.E0,0.E0,-2.4E1));
#363=DIRECTION('',(0.E0,0.E0,1.E0));
#364=DIRECTION('',(-1.E0,0.E0,0.E0));
#365=AXIS2_PLACEMENT_3D('',#362,#363,#364);
#366=PLANE('',#365);
#368=ORIENTED_EDGE('',*,*,#367,.T.);
#370=ORIENTED_EDGE('',*,*,#369,.F.);
#372=ORIENTED_EDGE('',*,*,#371,.T.);
#374=ORIENTED_EDGE('',*,*,#373,.F.);
#375=EDGE_LOOP('',(#368,#370,#372,#374));
#376=FACE_OUTER_BOUND('',#375,.F.);
#378=ORIENTED_EDGE('',*,*,#377,.T.);
#380=ORIENTED_EDGE('',*,*,#379,.T.);
#381=EDGE_LOOP('',(#378,#380));
#382=FACE_BOUND('',#381,.F.);
#383=ADVANCED_FACE('',(#376,#382),#366,.F.);
#384=CARTESIAN_POINT('',(0.E0,0.E0,-2.35E1));
#385=DIRECTION('',(0.E0,0.E0,1.E0));
#386=DIRECTION('',(9.999743314447E-1,-7.164946036602E-3,0.E0));
#387=AXIS2_PLACEMENT_3D('',#384,#385,#386);
#388=TOROIDAL_SURFACE('',#387,6.5E0,5.E-1);
#390=ORIENTED_EDGE('',*,*,#389,.T.);
#392=ORIENTED_EDGE('',*,*,#391,.T.);
#394=ORIENTED_EDGE('',*,*,#393,.F.);
#395=ORIENTED_EDGE('',*,*,#369,.T.);
#396=ORIENTED_EDGE('',*,*,#367,.F.);
#398=ORIENTED_EDGE('',*,*,#397,.T.);
#399=EDGE_LOOP('',(#390,#392,#394,#395,#396,#398));
#400=FACE_OUTER_BOUND('',#399,.F.);
#401=ADVANCED_FACE('',(#400),#388,.T.);
#402=CARTESIAN_POINT('',(0.E0,0.E0,-2.52E1));
#403=DIRECTION('',(0.E0,0.E0,1.E0));
#404=DIRECTION('',(-1.E0,0.E0,0.E0));
#405=AXIS2_PLACEMENT_3D('',#402,#403,#404);
#406=CYLINDRICAL_SURFACE('',#405,7.E0);
#408=ORIENTED_EDGE('',*,*,#407,.F.);
#410=ORIENTED_EDGE('',*,*,#409,.F.);
#412=ORIENTED_EDGE('',*,*,#411,.T.);
#413=ORIENTED_EDGE('',*,*,#391,.F.);
#414=ORIENTED_EDGE('',*,*,#389,.F.);
#416=ORIENTED_EDGE('',*,*,#415,.F.);
#417=EDGE_LOOP('',(#408,#410,#412,#413,#414,#416));
#418=FACE_OUTER_BOUND('',#417,.F.);
#419=ADVANCED_FACE('',(#418),#406,.T.);
#420=CARTESIAN_POINT('',(0.E0,0.E0,-2.15E1));
#421=DIRECTION('',(0.E0,0.E0,1.E0));
#422=DIRECTION('',(9.999766390949E-1,-6.835295498577E-3,0.E0));
#423=AXIS2_PLACEMENT_3D('',#420,#421,#422);
#424=TOROIDAL_SURFACE('',#423,6.5E0,5.E-1);
#426=ORIENTED_EDGE('',*,*,#425,.F.);
#428=ORIENTED_EDGE('',*,*,#427,.F.);
#429=ORIENTED_EDGE('',*,*,#409,.T.);
#430=ORIENTED_EDGE('',*,*,#407,.T.);
#432=ORIENTED_EDGE('',*,*,#431,.T.);
#433=EDGE_LOOP('',(#426,#428,#429,#430,#432));
#434=FACE_OUTER_BOUND('',#433,.F.);
#435=ADVANCED_FACE('',(#434),#424,.T.);
#436=CARTESIAN_POINT('',(0.E0,0.E0,-2.1E1));
#437=DIRECTION('',(0.E0,0.E0,1.E0));
#438=DIRECTION('',(-1.E0,0.E0,0.E0));
#439=AXIS2_PLACEMENT_3D('',#436,#437,#438);
#440=PLANE('',#439);
#441=ORIENTED_EDGE('',*,*,#425,.T.);
#443=ORIENTED_EDGE('',*,*,#442,.T.);
#444=EDGE_LOOP('',(#441,#443));
#445=FACE_OUTER_BOUND('',#444,.F.);
#447=ORIENTED_EDGE('',*,*,#446,.T.);
#449=ORIENTED_EDGE('',*,*,#448,.T.);
#451=ORIENTED_EDGE('',*,*,#450,.T.);
#453=ORIENTED_EDGE('',*,*,#452,.T.);
#454=EDGE_LOOP('',(#447,#449,#451,#453));
#455=FACE_BOUND('',#454,.F.);
#456=ADVANCED_FACE('',(#445,#455),#440,.T.);
#457=CARTESIAN_POINT('',(0.E0,0.E0,-2.15E1));
#458=DIRECTION('',(0.E0,0.E0,1.E0));
#459=DIRECTION('',(-9.999766390949E-1,6.835295498576E-3,0.E0));
#460=AXIS2_PLACEMENT_3D('',#457,#458,#459);
#461=TOROIDAL_SURFACE('',#460,6.5E0,5.E-1);
#462=ORIENTED_EDGE('',*,*,#442,.F.);
#463=ORIENTED_EDGE('',*,*,#431,.F.);
#465=ORIENTED_EDGE('',*,*,#464,.T.);
#467=ORIENTED_EDGE('',*,*,#466,.T.);
#468=ORIENTED_EDGE('',*,*,#427,.T.);
#469=EDGE_LOOP('',(#462,#463,#465,#467,#468));
#470=FACE_OUTER_BOUND('',#469,.F.);
#471=ADVANCED_FACE('',(#470),#461,.T.);
#472=CARTESIAN_POINT('',(0.E0,0.E0,-2.52E1));
#473=DIRECTION('',(0.E0,0.E0,1.E0));
#474=DIRECTION('',(-1.E0,0.E0,0.E0));
#475=AXIS2_PLACEMENT_3D('',#472,#473,#474);
#476=CYLINDRICAL_SURFACE('',#475,7.E0);
#477=ORIENTED_EDGE('',*,*,#466,.F.);
#478=ORIENTED_EDGE('',*,*,#464,.F.);
#479=ORIENTED_EDGE('',*,*,#415,.T.);
#481=ORIENTED_EDGE('',*,*,#480,.F.);
#483=ORIENTED_EDGE('',*,*,#482,.F.);
#484=ORIENTED_EDGE('',*,*,#411,.F.);
#485=EDGE_LOOP('',(#477,#478,#479,#481,#483,#484));
#486=FACE_OUTER_BOUND('',#485,.F.);
#487=ADVANCED_FACE('',(#486),#476,.T.);
#488=CARTESIAN_POINT('',(0.E0,0.E0,-2.35E1));
#489=DIRECTION('',(0.E0,0.E0,1.E0));
#490=DIRECTION('',(-9.999743314447E-1,7.164946036602E-3,0.E0));
#491=AXIS2_PLACEMENT_3D('',#488,#489,#490);
#492=TOROIDAL_SURFACE('',#491,6.5E0,5.E-1);
#493=ORIENTED_EDGE('',*,*,#482,.T.);
#494=ORIENTED_EDGE('',*,*,#480,.T.);
#495=ORIENTED_EDGE('',*,*,#397,.F.);
#496=ORIENTED_EDGE('',*,*,#373,.T.);
#497=ORIENTED_EDGE('',*,*,#371,.F.);
#498=ORIENTED_EDGE('',*,*,#393,.T.);
#499=EDGE_LOOP('',(#493,#494,#495,#496,#497,#498));
#500=FACE_OUTER_BOUND('',#499,.F.);
#501=ADVANCED_FACE('',(#500),#492,.T.);
#502=CARTESIAN_POINT('',(0.E0,0.E0,-2.05E1));
#503=DIRECTION('',(0.E0,0.E0,1.E0));
#504=DIRECTION('',(-9.998950179970E-1,-1.448975447406E-2,0.E0));
#505=AXIS2_PLACEMENT_3D('',#502,#503,#504);
#506=TOROIDAL_SURFACE('',#505,3.675E0,5.E-1);
#508=ORIENTED_EDGE('',*,*,#507,.T.);
#510=ORIENTED_EDGE('',*,*,#509,.T.);
#512=ORIENTED_EDGE('',*,*,#511,.F.);
#513=ORIENTED_EDGE('',*,*,#448,.F.);
#514=ORIENTED_EDGE('',*,*,#446,.F.);
#516=ORIENTED_EDGE('',*,*,#515,.T.);
#517=EDGE_LOOP('',(#508,#510,#512,#513,#514,#516));
#518=FACE_OUTER_BOUND('',#517,.F.);
#519=ADVANCED_FACE('',(#518),#506,.F.);
#520=CARTESIAN_POINT('',(0.E0,0.E0,-2.52E1));
#521=DIRECTION('',(0.E0,0.E0,1.E0));
#522=DIRECTION('',(-1.E0,0.E0,0.E0));
#523=AXIS2_PLACEMENT_3D('',#520,#521,#522);
#524=CYLINDRICAL_SURFACE('',#523,3.175E0);
#525=ORIENTED_EDGE('',*,*,#509,.F.);
#526=ORIENTED_EDGE('',*,*,#507,.F.);
#528=ORIENTED_EDGE('',*,*,#527,.F.);
#530=ORIENTED_EDGE('',*,*,#529,.F.);
#532=ORIENTED_EDGE('',*,*,#531,.T.);
#533=EDGE_LOOP('',(#525,#526,#528,#530,#532));
#534=FACE_OUTER_BOUND('',#533,.F.);
#535=ADVANCED_FACE('',(#534),#524,.T.);
#536=CARTESIAN_POINT('',(0.E0,0.E0,-2.52E1));
#537=DIRECTION('',(0.E0,0.E0,1.E0));
#538=DIRECTION('',(-1.E0,0.E0,0.E0));
#539=AXIS2_PLACEMENT_3D('',#536,#537,#538);
#540=CYLINDRICAL_SURFACE('',#539,3.175E0);
#542=ORIENTED_EDGE('',*,*,#541,.F.);
#544=ORIENTED_EDGE('',*,*,#543,.F.);
#545=ORIENTED_EDGE('',*,*,#531,.F.);
#547=ORIENTED_EDGE('',*,*,#546,.F.);
#548=ORIENTED_EDGE('',*,*,#527,.T.);
#549=EDGE_LOOP('',(#542,#544,#545,#547,#548));
#550=FACE_OUTER_BOUND('',#549,.F.);
#551=ADVANCED_FACE('',(#550),#540,.T.);
#552=CARTESIAN_POINT('',(0.E0,0.E0,-2.05E1));
#553=DIRECTION('',(0.E0,0.E0,1.E0));
#554=DIRECTION('',(9.998950179970E-1,1.448975447406E-2,0.E0));
#555=AXIS2_PLACEMENT_3D('',#552,#553,#554);
#556=TOROIDAL_SURFACE('',#555,3.675E0,5.E-1);
#557=ORIENTED_EDGE('',*,*,#543,.T.);
#558=ORIENTED_EDGE('',*,*,#541,.T.);
#559=ORIENTED_EDGE('',*,*,#515,.F.);
#560=ORIENTED_EDGE('',*,*,#452,.F.);
#561=ORIENTED_EDGE('',*,*,#450,.F.);
#562=ORIENTED_EDGE('',*,*,#511,.T.);
#563=EDGE_LOOP('',(#557,#558,#559,#560,#561,#562));
#564=FACE_OUTER_BOUND('',#563,.F.);
#565=ADVANCED_FACE('',(#564),#556,.F.);
#566=CARTESIAN_POINT('',(0.E0,0.E0,-1.E1));
#567=DIRECTION('',(0.E0,0.E0,1.E0));
#568=DIRECTION('',(-1.E0,0.E0,0.E0));
#569=AXIS2_PLACEMENT_3D('',#566,#567,#568);
#570=PLANE('',#569);
#571=ORIENTED_EDGE('',*,*,#529,.T.);
#572=ORIENTED_EDGE('',*,*,#546,.T.);
#573=EDGE_LOOP('',(#571,#572));
#574=FACE_OUTER_BOUND('',#573,.F.);
#576=ORIENTED_EDGE('',*,*,#575,.T.);
#578=ORIENTED_EDGE('',*,*,#577,.T.);
#579=EDGE_LOOP('',(#576,#578));
#580=FACE_BOUND('',#579,.F.);
#581=ADVANCED_FACE('',(#574,#580),#570,.T.);
#582=CARTESIAN_POINT('',(0.E0,0.E0,-2.52E1));
#583=DIRECTION('',(0.E0,0.E0,1.E0));
#584=DIRECTION('',(-1.E0,0.E0,0.E0));
#585=AXIS2_PLACEMENT_3D('',#582,#583,#584);
#586=CYLINDRICAL_SURFACE('',#585,3.075E0);
#588=ORIENTED_EDGE('',*,*,#587,.F.);
#590=ORIENTED_EDGE('',*,*,#589,.F.);
#592=ORIENTED_EDGE('',*,*,#591,.T.);
#593=ORIENTED_EDGE('',*,*,#575,.F.);
#594=EDGE_LOOP('',(#588,#590,#592,#593));
#595=FACE_OUTER_BOUND('',#594,.F.);
#596=ADVANCED_FACE('',(#595),#586,.T.);
#597=CARTESIAN_POINT('',(0.E0,0.E0,-2.52E1));
#598=DIRECTION('',(0.E0,0.E0,1.E0));
#599=DIRECTION('',(-1.E0,0.E0,0.E0));
#600=AXIS2_PLACEMENT_3D('',#597,#598,#599);
#601=CYLINDRICAL_SURFACE('',#600,3.075E0);
#602=ORIENTED_EDGE('',*,*,#587,.T.);
#603=ORIENTED_EDGE('',*,*,#577,.F.);
#604=ORIENTED_EDGE('',*,*,#591,.F.);
#606=ORIENTED_EDGE('',*,*,#605,.F.);
#607=EDGE_LOOP('',(#602,#603,#604,#606));
#608=FACE_OUTER_BOUND('',#607,.F.);
#609=ADVANCED_FACE('',(#608),#601,.T.);
#610=CARTESIAN_POINT('',(0.E0,0.E0,-8.E0));
#611=DIRECTION('',(0.E0,0.E0,1.E0));
#612=DIRECTION('',(-1.E0,0.E0,0.E0));
#613=AXIS2_PLACEMENT_3D('',#610,#611,#612);
#614=PLANE('',#613);
#616=ORIENTED_EDGE('',*,*,#615,.T.);
#618=ORIENTED_EDGE('',*,*,#617,.T.);
#619=EDGE_LOOP('',(#616,#618));
#620=FACE_OUTER_BOUND('',#619,.F.);
#621=ORIENTED_EDGE('',*,*,#605,.T.);
#622=ORIENTED_EDGE('',*,*,#589,.T.);
#623=EDGE_LOOP('',(#621,#622));
#624=FACE_BOUND('',#623,.F.);
#625=ADVANCED_FACE('',(#620,#624),#614,.F.);
#626=CARTESIAN_POINT('',(0.E0,0.E0,-2.52E1));
#627=DIRECTION('',(0.E0,0.E0,1.E0));
#628=DIRECTION('',(-1.E0,0.E0,0.E0));
#629=AXIS2_PLACEMENT_3D('',#626,#627,#628);
#630=CYLINDRICAL_SURFACE('',#629,3.175E0);
#632=ORIENTED_EDGE('',*,*,#631,.F.);
#634=ORIENTED_EDGE('',*,*,#633,.F.);
#636=ORIENTED_EDGE('',*,*,#635,.F.);
#637=ORIENTED_EDGE('',*,*,#615,.F.);
#639=ORIENTED_EDGE('',*,*,#638,.F.);
#640=EDGE_LOOP('',(#632,#634,#636,#637,#639));
#641=FACE_OUTER_BOUND('',#640,.F.);
#642=ADVANCED_FACE('',(#641),#630,.T.);
#643=CARTESIAN_POINT('',(0.E0,0.E0,-5.E-1));
#644=DIRECTION('',(0.E0,0.E0,1.E0));
#645=DIRECTION('',(-9.998864487921E-1,1.506948976961E-2,0.E0));
#646=AXIS2_PLACEMENT_3D('',#643,#644,#645);
#647=TOROIDAL_SURFACE('',#646,2.675E0,5.E-1);
#649=ORIENTED_EDGE('',*,*,#648,.F.);
#651=ORIENTED_EDGE('',*,*,#650,.F.);
#652=ORIENTED_EDGE('',*,*,#633,.T.);
#653=ORIENTED_EDGE('',*,*,#631,.T.);
#655=ORIENTED_EDGE('',*,*,#654,.T.);
#656=EDGE_LOOP('',(#649,#651,#652,#653,#655));
#657=FACE_OUTER_BOUND('',#656,.F.);
#658=ADVANCED_FACE('',(#657),#647,.T.);
#659=CARTESIAN_POINT('',(0.E0,0.E0,0.E0));
#660=DIRECTION('',(0.E0,0.E0,1.E0));
#661=DIRECTION('',(-1.E0,0.E0,0.E0));
#662=AXIS2_PLACEMENT_3D('',#659,#660,#661);
#663=PLANE('',#662);
#664=ORIENTED_EDGE('',*,*,#648,.T.);
#666=ORIENTED_EDGE('',*,*,#665,.T.);
#667=EDGE_LOOP('',(#664,#666));
#668=FACE_OUTER_BOUND('',#667,.F.);
#669=ADVANCED_FACE('',(#668),#663,.T.);
#670=CARTESIAN_POINT('',(0.E0,0.E0,-5.E-1));
#671=DIRECTION('',(0.E0,0.E0,1.E0));
#672=DIRECTION('',(9.998864487921E-1,-1.506948976961E-2,0.E0));
#673=AXIS2_PLACEMENT_3D('',#670,#671,#672);
#674=TOROIDAL_SURFACE('',#673,2.675E0,5.E-1);
#675=ORIENTED_EDGE('',*,*,#665,.F.);
#676=ORIENTED_EDGE('',*,*,#654,.F.);
#678=ORIENTED_EDGE('',*,*,#677,.T.);
#680=ORIENTED_EDGE('',*,*,#679,.T.);
#681=ORIENTED_EDGE('',*,*,#650,.T.);
#682=EDGE_LOOP('',(#675,#676,#678,#680,#681));
#683=FACE_OUTER_BOUND('',#682,.F.);
#684=ADVANCED_FACE('',(#683),#674,.T.);
#685=CARTESIAN_POINT('',(0.E0,0.E0,-2.52E1));
#686=DIRECTION('',(0.E0,0.E0,1.E0));
#687=DIRECTION('',(-1.E0,0.E0,0.E0));
#688=AXIS2_PLACEMENT_3D('',#685,#686,#687);
#689=CYLINDRICAL_SURFACE('',#688,3.175E0);
#690=ORIENTED_EDGE('',*,*,#679,.F.);
#691=ORIENTED_EDGE('',*,*,#677,.F.);
#692=ORIENTED_EDGE('',*,*,#638,.T.);
#693=ORIENTED_EDGE('',*,*,#617,.F.);
#694=ORIENTED_EDGE('',*,*,#635,.T.);
#695=EDGE_LOOP('',(#690,#691,#692,#693,#694));
#696=FACE_OUTER_BOUND('',#695,.F.);
#697=ADVANCED_FACE('',(#696),#689,.T.);
#698=CARTESIAN_POINT('',(0.E0,0.E0,-2.4E1));
#699=DIRECTION('',(0.E0,0.E0,-1.E0));
#700=DIRECTION('',(0.E0,-1.E0,0.E0));
#701=AXIS2_PLACEMENT_3D('',#698,#699,#700);
#702=CYLINDRICAL_SURFACE('',#701,1.9E0);
#703=ORIENTED_EDGE('',*,*,#377,.F.);
#705=ORIENTED_EDGE('',*,*,#704,.F.);
#707=ORIENTED_EDGE('',*,*,#706,.F.);
#709=ORIENTED_EDGE('',*,*,#708,.T.);
#710=EDGE_LOOP('',(#703,#705,#707,#709));
#711=FACE_OUTER_BOUND('',#710,.F.);
#712=ADVANCED_FACE('',(#711),#702,.F.);
#713=CARTESIAN_POINT('',(0.E0,0.E0,-2.4E1));
#714=DIRECTION('',(0.E0,0.E0,-1.E0));
#715=DIRECTION('',(0.E0,-1.E0,0.E0));
#716=AXIS2_PLACEMENT_3D('',#713,#714,#715);
#717=CYLINDRICAL_SURFACE('',#716,1.9E0);
#718=ORIENTED_EDGE('',*,*,#379,.F.);
#719=ORIENTED_EDGE('',*,*,#708,.F.);
#721=ORIENTED_EDGE('',*,*,#720,.F.);
#722=ORIENTED_EDGE('',*,*,#704,.T.);
#723=EDGE_LOOP('',(#718,#719,#721,#722));
#724=FACE_OUTER_BOUND('',#723,.F.);
#725=ADVANCED_FACE('',(#724),#717,.F.);
#726=CARTESIAN_POINT('',(0.E0,0.E0,-1.3E0));
#727=DIRECTION('',(0.E0,0.E0,-1.E0));
#728=DIRECTION('',(0.E0,-1.E0,0.E0));
#729=AXIS2_PLACEMENT_3D('',#726,#727,#728);
#730=PLANE('',#729);
#731=ORIENTED_EDGE('',*,*,#706,.T.);
#732=ORIENTED_EDGE('',*,*,#720,.T.);
#733=EDGE_LOOP('',(#731,#732));
#734=FACE_OUTER_BOUND('',#733,.F.);
#735=ADVANCED_FACE('',(#734),#730,.T.);
#736=CLOSED_SHELL('',(#383,#401,#419,#435,#456,#471,#487,#501,#519,#535,#551,
#565,#581,#596,#609,#625,#642,#658,#669,#684,#697,#712,#725,#735));
#737=MANIFOLD_SOLID_BREP('',#736);
#739=DIMENSIONAL_EXPONENTS(0.E0,0.E0,0.E0,0.E0,0.E0,0.E0,0.E0);
#741=PLANE_ANGLE_MEASURE_WITH_UNIT(PLANE_ANGLE_MEASURE(1.745329251994E-2),#740);
#742=(CONVERSION_BASED_UNIT('DEGREE',#741)NAMED_UNIT(*)PLANE_ANGLE_UNIT());
#744=UNCERTAINTY_MEASURE_WITH_UNIT(LENGTH_MEASURE(3.111664395526E-3),#738,
'closure',
'Maximum model space distance between geometric entities at asserted connectivities');
#745=(GEOMETRIC_REPRESENTATION_CONTEXT(3)GLOBAL_UNCERTAINTY_ASSIGNED_CONTEXT((
#744))GLOBAL_UNIT_ASSIGNED_CONTEXT((#738,#742,#743))REPRESENTATION_CONTEXT
('ID1','3'));
#747=APPLICATION_CONTEXT(
'CONFIGURATION CONTROLLED 3D DESIGNS OF MECHANICAL PARTS AND ASSEMBLIES');
#748=APPLICATION_PROTOCOL_DEFINITION('international standard',
'config_control_design',1994,#747);
#749=DESIGN_CONTEXT('',#747,'design');
#750=MECHANICAL_CONTEXT('',#747,'mechanical');
#751=PRODUCT('23601232001','23601232001','NOT SPECIFIED',(#750));
#752=PRODUCT_DEFINITION_FORMATION_WITH_SPECIFIED_SOURCE('1','LAST_VERSION',#751,
.MADE.);
#756=PRODUCT_CATEGORY('part','');
#757=PRODUCT_RELATED_PRODUCT_CATEGORY('detail','',(#751));
#758=PRODUCT_CATEGORY_RELATIONSHIP('','',#756,#757);
#759=SECURITY_CLASSIFICATION_LEVEL('unclassified');
#760=SECURITY_CLASSIFICATION('','',#759);
#761=CC_DESIGN_SECURITY_CLASSIFICATION(#760,(#752));
#762=APPROVAL_STATUS('approved');
#763=APPROVAL(#762,'');
#764=CC_DESIGN_APPROVAL(#763,(#760,#752,#753));
#765=CALENDAR_DATE(126,1,7);
#766=COORDINATED_UNIVERSAL_TIME_OFFSET(8,0,.AHEAD.);
#767=LOCAL_TIME(14,59,5.5E1,#766);
#768=DATE_AND_TIME(#765,#767);
#769=APPROVAL_DATE_TIME(#768,#763);
#770=DATE_TIME_ROLE('creation_date');
#771=CC_DESIGN_DATE_AND_TIME_ASSIGNMENT(#768,#770,(#753));
#772=DATE_TIME_ROLE('classification_date');
#773=CC_DESIGN_DATE_AND_TIME_ASSIGNMENT(#768,#772,(#760));
#774=PERSON('UNSPECIFIED','UNSPECIFIED',$,$,$,$);
#775=ORGANIZATION('UNSPECIFIED','UNSPECIFIED','UNSPECIFIED');
#776=PERSON_AND_ORGANIZATION(#774,#775);
#777=APPROVAL_ROLE('approver');
#778=APPROVAL_PERSON_ORGANIZATION(#776,#763,#777);
#779=PERSON_AND_ORGANIZATION_ROLE('creator');
#780=CC_DESIGN_PERSON_AND_ORGANIZATION_ASSIGNMENT(#776,#779,(#752,#753));
#781=PERSON_AND_ORGANIZATION_ROLE('design_supplier');
#782=CC_DESIGN_PERSON_AND_ORGANIZATION_ASSIGNMENT(#776,#781,(#752));
#783=PERSON_AND_ORGANIZATION_ROLE('classification_officer');
#784=CC_DESIGN_PERSON_AND_ORGANIZATION_ASSIGNMENT(#776,#783,(#760));
#785=PERSON_AND_ORGANIZATION_ROLE('design_owner');
#786=CC_DESIGN_PERSON_AND_ORGANIZATION_ASSIGNMENT(#776,#785,(#751));
#6=CIRCLE('',#5,6.5E0);
#11=CIRCLE('',#10,6.5E0);
#16=CIRCLE('',#15,1.9E0);
#21=CIRCLE('',#20,1.9E0);
#26=CIRCLE('',#25,7.E0);
#31=CIRCLE('',#30,7.E0);
#36=CIRCLE('',#35,6.5E0);
#41=CIRCLE('',#40,5.E-1);
#50=CIRCLE('',#49,7.E0);
#55=CIRCLE('',#54,7.E0);
#60=CIRCLE('',#59,5.E-1);
#65=CIRCLE('',#64,6.5E0);
#70=CIRCLE('',#69,6.5E0);
#75=CIRCLE('',#74,3.675E0);
#80=CIRCLE('',#79,3.675E0);
#85=CIRCLE('',#84,3.675E0);
#90=CIRCLE('',#89,3.675E0);
#95=CIRCLE('',#94,7.E0);
#100=CIRCLE('',#99,7.E0);
#105=CIRCLE('',#104,5.E-1);
#114=CIRCLE('',#113,7.E0);
#119=CIRCLE('',#118,7.E0);
#124=CIRCLE('',#123,6.5E0);
#129=CIRCLE('',#128,5.E-1);
#134=CIRCLE('',#133,3.175E0);
#139=CIRCLE('',#138,3.175E0);
#144=CIRCLE('',#143,5.E-1);
#157=CIRCLE('',#156,3.175E0);
#162=CIRCLE('',#161,3.175E0);
#167=CIRCLE('',#166,5.E-1);
#172=CIRCLE('',#171,3.175E0);
#177=CIRCLE('',#176,3.175E0);
#182=CIRCLE('',#181,3.075E0);
#187=CIRCLE('',#186,3.075E0);
#200=CIRCLE('',#199,3.175E0);
#205=CIRCLE('',#204,3.175E0);
#210=CIRCLE('',#209,3.075E0);
#215=CIRCLE('',#214,3.075E0);
#220=CIRCLE('',#219,3.175E0);
#225=CIRCLE('',#224,3.175E0);
#230=CIRCLE('',#229,5.E-1);
#235=CIRCLE('',#234,2.675E0);
#240=CIRCLE('',#239,2.675E0);
#245=CIRCLE('',#244,3.175E0);
#250=CIRCLE('',#249,3.175E0);
#255=CIRCLE('',#254,5.E-1);
#276=CIRCLE('',#275,1.9E0);
#281=CIRCLE('',#280,1.9E0);
#367=EDGE_CURVE('',#284,#285,#6,.T.);
#369=EDGE_CURVE('',#287,#285,#36,.T.);
#371=EDGE_CURVE('',#287,#289,#11,.T.);
#373=EDGE_CURVE('',#284,#289,#124,.T.);
#377=EDGE_CURVE('',#292,#293,#16,.T.);
#379=EDGE_CURVE('',#293,#292,#21,.T.);
#389=EDGE_CURVE('',#296,#297,#26,.T.);
#391=EDGE_CURVE('',#297,#299,#31,.T.);
#393=EDGE_CURVE('',#287,#299,#129,.T.);
#397=EDGE_CURVE('',#284,#296,#41,.T.);
#407=EDGE_CURVE('',#302,#303,#55,.T.);
#409=EDGE_CURVE('',#305,#302,#50,.T.);
#411=EDGE_CURVE('',#305,#299,#45,.T.);
#415=EDGE_CURVE('',#303,#296,#109,.T.);
#425=EDGE_CURVE('',#308,#309,#65,.T.);
#427=EDGE_CURVE('',#305,#308,#105,.T.);
#431=EDGE_CURVE('',#303,#309,#60,.T.);
#442=EDGE_CURVE('',#309,#308,#70,.T.);
#446=EDGE_CURVE('',#315,#312,#75,.T.);
#448=EDGE_CURVE('',#312,#313,#80,.T.);
#450=EDGE_CURVE('',#313,#317,#85,.T.);
#452=EDGE_CURVE('',#317,#315,#90,.T.);
#464=EDGE_CURVE('',#303,#319,#95,.T.);
#466=EDGE_CURVE('',#319,#305,#100,.T.);
#480=EDGE_CURVE('',#321,#296,#119,.T.);
#482=EDGE_CURVE('',#299,#321,#114,.T.);
#507=EDGE_CURVE('',#327,#324,#134,.T.);
#509=EDGE_CURVE('',#324,#325,#139,.T.);
#511=EDGE_CURVE('',#313,#325,#167,.T.);
#515=EDGE_CURVE('',#315,#327,#144,.T.);
#527=EDGE_CURVE('',#329,#327,#152,.T.);
#529=EDGE_CURVE('',#331,#329,#172,.T.);
#531=EDGE_CURVE('',#331,#325,#148,.T.);
#541=EDGE_CURVE('',#333,#327,#162,.T.);
#543=EDGE_CURVE('',#325,#333,#157,.T.);
#546=EDGE_CURVE('',#329,#331,#177,.T.);
#575=EDGE_CURVE('',#336,#337,#182,.T.);
#577=EDGE_CURVE('',#337,#336,#187,.T.);
#587=EDGE_CURVE('',#339,#336,#195,.T.);
#589=EDGE_CURVE('',#341,#339,#215,.T.);
#591=EDGE_CURVE('',#341,#337,#191,.T.);
#605=EDGE_CURVE('',#339,#341,#210,.T.);
#615=EDGE_CURVE('',#344,#345,#200,.T.);
#617=EDGE_CURVE('',#345,#344,#205,.T.);
#631=EDGE_CURVE('',#348,#349,#225,.T.);
#633=EDGE_CURVE('',#351,#348,#220,.T.);
#635=EDGE_CURVE('',#345,#351,#263,.T.);
#638=EDGE_CURVE('',#349,#344,#259,.T.);
#648=EDGE_CURVE('',#354,#355,#235,.T.);
#650=EDGE_CURVE('',#351,#354,#255,.T.);
#654=EDGE_CURVE('',#349,#355,#230,.T.);
#665=EDGE_CURVE('',#355,#354,#240,.T.);
#677=EDGE_CURVE('',#349,#357,#245,.T.);
#679=EDGE_CURVE('',#357,#351,#250,.T.);
#704=EDGE_CURVE('',#359,#292,#271,.T.);
#706=EDGE_CURVE('',#361,#359,#276,.T.);
#708=EDGE_CURVE('',#361,#293,#267,.T.);
#720=EDGE_CURVE('',#359,#361,#281,.T.);
#738=(LENGTH_UNIT()NAMED_UNIT(*)SI_UNIT(.MILLI.,.METRE.));
#740=(NAMED_UNIT(*)PLANE_ANGLE_UNIT()SI_UNIT($,.RADIAN.));
#743=(NAMED_UNIT(*)SI_UNIT($,.STERADIAN.)SOLID_ANGLE_UNIT());
#746=ADVANCED_BREP_SHAPE_REPRESENTATION('',(#737),#745);
#753=PRODUCT_DEFINITION('design','',#752,#749);
#754=PRODUCT_DEFINITION_SHAPE('','SHAPE FOR 23601232001.',#753);
#755=SHAPE_DEFINITION_REPRESENTATION(#754,#746);
ENDSEC;
END-ISO-10303-21;
