ISO-10303-21;
HEADER;
FILE_DESCRIPTION((''),'2;1');
FILE_NAME('FTY-04-010','2026-06-30T15:26:59',('Administrator'),(''),
'CREO PARAMETRIC BY PTC INC, 2019010','CREO PARAMETRIC BY PTC INC, 2019010','');
FILE_SCHEMA(('CONFIG_CONTROL_DESIGN'));
ENDSEC;
DATA;
#2=CARTESIAN_POINT('',(2.5E1,-1.6525E2,2.5E1));
#3=CARTESIAN_POINT('',(2.414557930607E1,-1.6525E2,2.5E1));
#4=CARTESIAN_POINT('',(2.276180542150E1,-1.649830233713E2,2.5E1));
#5=CARTESIAN_POINT('',(2.100907126251E1,-1.639572214991E2,2.5E1));
#6=CARTESIAN_POINT('',(1.983646879596E1,-1.628758189056E2,2.5E1));
#7=CARTESIAN_POINT('',(1.888590857205E1,-1.615412885472E2,2.5E1));
#8=CARTESIAN_POINT('',(1.821059217784E1,-1.600459096982E2,2.5E1));
#9=CARTESIAN_POINT('',(1.789004171330E1,-1.587541189357E2,2.5E1));
#10=CARTESIAN_POINT('',(1.776891471743E1,-1.577369895233E2,2.5E1));
#11=CARTESIAN_POINT('',(1.774054264128E1,-1.57E2,2.5E1));
#12=CARTESIAN_POINT('',(1.776891471743E1,-1.562630104767E2,2.5E1));
#13=CARTESIAN_POINT('',(1.789004171330E1,-1.552458810643E2,2.5E1));
#14=CARTESIAN_POINT('',(1.821059217784E1,-1.539540903018E2,2.5E1));
#15=CARTESIAN_POINT('',(1.888590857205E1,-1.524587114528E2,2.5E1));
#16=CARTESIAN_POINT('',(1.983646879596E1,-1.511241810944E2,2.5E1));
#17=CARTESIAN_POINT('',(2.100907126251E1,-1.500427785009E2,2.5E1));
#18=CARTESIAN_POINT('',(2.276180542150E1,-1.490169766287E2,2.5E1));
#19=CARTESIAN_POINT('',(2.414557930607E1,-1.4875E2,2.5E1));
#20=CARTESIAN_POINT('',(2.5E1,-1.4875E2,2.5E1));
#22=CARTESIAN_POINT('',(2.5E1,-1.4875E2,2.5E1));
#23=CARTESIAN_POINT('',(2.585442069393E1,-1.4875E2,2.5E1));
#24=CARTESIAN_POINT('',(2.723819457850E1,-1.490169766287E2,2.5E1));
#25=CARTESIAN_POINT('',(2.899092873749E1,-1.500427785009E2,2.5E1));
#26=CARTESIAN_POINT('',(3.016353120404E1,-1.511241810944E2,2.5E1));
#27=CARTESIAN_POINT('',(3.111409142795E1,-1.524587114528E2,2.5E1));
#28=CARTESIAN_POINT('',(3.178940782216E1,-1.539540903018E2,2.5E1));
#29=CARTESIAN_POINT('',(3.210995828670E1,-1.552458810643E2,2.5E1));
#30=CARTESIAN_POINT('',(3.223108528257E1,-1.562630104767E2,2.5E1));
#31=CARTESIAN_POINT('',(3.225945735872E1,-1.57E2,2.5E1));
#32=CARTESIAN_POINT('',(3.223108528257E1,-1.577369895233E2,2.5E1));
#33=CARTESIAN_POINT('',(3.210995828670E1,-1.587541189357E2,2.5E1));
#34=CARTESIAN_POINT('',(3.178940782216E1,-1.600459096982E2,2.5E1));
#35=CARTESIAN_POINT('',(3.111409142795E1,-1.615412885472E2,2.5E1));
#36=CARTESIAN_POINT('',(3.016353120404E1,-1.628758189056E2,2.5E1));
#37=CARTESIAN_POINT('',(2.899092873749E1,-1.639572214991E2,2.5E1));
#38=CARTESIAN_POINT('',(2.723819457850E1,-1.649830233713E2,2.5E1));
#39=CARTESIAN_POINT('',(2.585442069393E1,-1.6525E2,2.5E1));
#40=CARTESIAN_POINT('',(2.5E1,-1.6525E2,2.5E1));
#42=CARTESIAN_POINT('',(2.5E1,-1.57E2,2.5E1));
#43=DIRECTION('',(0.E0,0.E0,-1.E0));
#44=DIRECTION('',(0.E0,-1.E0,0.E0));
#45=AXIS2_PLACEMENT_3D('',#42,#43,#44);
#47=CARTESIAN_POINT('',(2.5E1,-1.57E2,2.5E1));
#48=DIRECTION('',(0.E0,0.E0,-1.E0));
#49=DIRECTION('',(0.E0,1.E0,0.E0));
#50=AXIS2_PLACEMENT_3D('',#47,#48,#49);
#52=DIRECTION('',(0.E0,0.E0,1.E0));
#53=VECTOR('',#52,2.E0);
#54=CARTESIAN_POINT('',(2.5E1,-1.6525E2,2.5E1));
#55=LINE('',#54,#53);
#56=CARTESIAN_POINT('',(2.5E1,-1.57E2,2.7E1));
#57=DIRECTION('',(0.E0,0.E0,-1.E0));
#58=DIRECTION('',(0.E0,-1.E0,0.E0));
#59=AXIS2_PLACEMENT_3D('',#56,#57,#58);
#61=CARTESIAN_POINT('',(2.5E1,-1.57E2,2.7E1));
#62=DIRECTION('',(0.E0,0.E0,1.E0));
#63=DIRECTION('',(0.E0,-1.E0,0.E0));
#64=AXIS2_PLACEMENT_3D('',#61,#62,#63);
#66=CARTESIAN_POINT('',(2.5E1,-1.6525E2,2.7E1));
#67=CARTESIAN_POINT('',(2.414557930607E1,-1.6525E2,2.7E1));
#68=CARTESIAN_POINT('',(2.276180542150E1,-1.649830233713E2,2.7E1));
#69=CARTESIAN_POINT('',(2.100907126251E1,-1.639572214991E2,2.7E1));
#70=CARTESIAN_POINT('',(1.983646879596E1,-1.628758189056E2,2.7E1));
#71=CARTESIAN_POINT('',(1.888590857205E1,-1.615412885472E2,2.7E1));
#72=CARTESIAN_POINT('',(1.821059217784E1,-1.600459096982E2,2.7E1));
#73=CARTESIAN_POINT('',(1.789004171330E1,-1.587541189357E2,2.7E1));
#74=CARTESIAN_POINT('',(1.776891471743E1,-1.577369895233E2,2.7E1));
#75=CARTESIAN_POINT('',(1.774054264128E1,-1.57E2,2.7E1));
#76=CARTESIAN_POINT('',(1.776891471743E1,-1.562630104767E2,2.7E1));
#77=CARTESIAN_POINT('',(1.789004171330E1,-1.552458810643E2,2.7E1));
#78=CARTESIAN_POINT('',(1.821059217784E1,-1.539540903018E2,2.7E1));
#79=CARTESIAN_POINT('',(1.888590857205E1,-1.524587114528E2,2.7E1));
#80=CARTESIAN_POINT('',(1.983646879596E1,-1.511241810944E2,2.7E1));
#81=CARTESIAN_POINT('',(2.100907126251E1,-1.500427785009E2,2.7E1));
#82=CARTESIAN_POINT('',(2.276180542150E1,-1.490169766287E2,2.7E1));
#83=CARTESIAN_POINT('',(2.414557930607E1,-1.4875E2,2.7E1));
#84=CARTESIAN_POINT('',(2.5E1,-1.4875E2,2.7E1));
#86=CARTESIAN_POINT('',(2.5E1,-1.4875E2,2.7E1));
#87=CARTESIAN_POINT('',(2.585442069393E1,-1.4875E2,2.7E1));
#88=CARTESIAN_POINT('',(2.723819457850E1,-1.490169766287E2,2.7E1));
#89=CARTESIAN_POINT('',(2.899092873749E1,-1.500427785009E2,2.7E1));
#90=CARTESIAN_POINT('',(3.016353120404E1,-1.511241810944E2,2.7E1));
#91=CARTESIAN_POINT('',(3.111409142795E1,-1.524587114528E2,2.7E1));
#92=CARTESIAN_POINT('',(3.178940782216E1,-1.539540903018E2,2.7E1));
#93=CARTESIAN_POINT('',(3.210995828670E1,-1.552458810643E2,2.7E1));
#94=CARTESIAN_POINT('',(3.223108528257E1,-1.562630104767E2,2.7E1));
#95=CARTESIAN_POINT('',(3.225945735872E1,-1.57E2,2.7E1));
#96=CARTESIAN_POINT('',(3.223108528257E1,-1.577369895233E2,2.7E1));
#97=CARTESIAN_POINT('',(3.210995828670E1,-1.587541189357E2,2.7E1));
#98=CARTESIAN_POINT('',(3.178940782216E1,-1.600459096982E2,2.7E1));
#99=CARTESIAN_POINT('',(3.111409142795E1,-1.615412885472E2,2.7E1));
#100=CARTESIAN_POINT('',(3.016353120404E1,-1.628758189056E2,2.7E1));
#101=CARTESIAN_POINT('',(2.899092873749E1,-1.639572214991E2,2.7E1));
#102=CARTESIAN_POINT('',(2.723819457850E1,-1.649830233713E2,2.7E1));
#103=CARTESIAN_POINT('',(2.585442069393E1,-1.6525E2,2.7E1));
#104=CARTESIAN_POINT('',(2.5E1,-1.6525E2,2.7E1));
#106=CARTESIAN_POINT('',(2.5E1,-1.57E2,3.1E1));
#107=DIRECTION('',(0.E0,0.E0,-1.E0));
#108=DIRECTION('',(0.E0,-1.E0,0.E0));
#109=AXIS2_PLACEMENT_3D('',#106,#107,#108);
#111=DIRECTION('',(0.E0,0.E0,-1.E0));
#112=VECTOR('',#111,4.E0);
#113=CARTESIAN_POINT('',(2.5E1,-1.665E2,3.1E1));
#114=LINE('',#113,#112);
#115=CARTESIAN_POINT('',(2.5E1,-1.57E2,3.1E1));
#116=DIRECTION('',(0.E0,0.E0,1.E0));
#117=DIRECTION('',(0.E0,-1.E0,0.E0));
#118=AXIS2_PLACEMENT_3D('',#115,#116,#117);
#120=DIRECTION('',(0.E0,0.E0,-1.E0));
#121=VECTOR('',#120,4.E0);
#122=CARTESIAN_POINT('',(2.5E1,-1.475E2,3.1E1));
#123=LINE('',#122,#121);
#124=CARTESIAN_POINT('',(2.5E1,-1.57E2,3.1E1));
#125=DIRECTION('',(0.E0,0.E0,-1.E0));
#126=DIRECTION('',(0.E0,-1.E0,0.E0));
#127=AXIS2_PLACEMENT_3D('',#124,#125,#126);
#129=CARTESIAN_POINT('',(2.5E1,-1.57E2,3.1E1));
#130=DIRECTION('',(0.E0,0.E0,1.E0));
#131=DIRECTION('',(0.E0,-1.E0,0.E0));
#132=AXIS2_PLACEMENT_3D('',#129,#130,#131);
#134=CARTESIAN_POINT('',(2.5E1,-1.57E2,3.75E1));
#135=DIRECTION('',(0.E0,0.E0,-1.E0));
#136=DIRECTION('',(0.E0,-1.E0,0.E0));
#137=AXIS2_PLACEMENT_3D('',#134,#135,#136);
#139=DIRECTION('',(0.E0,0.E0,-1.E0));
#140=VECTOR('',#139,6.5E0);
#141=CARTESIAN_POINT('',(2.5E1,-1.67E2,3.75E1));
#142=LINE('',#141,#140);
#143=CARTESIAN_POINT('',(2.5E1,-1.57E2,3.75E1));
#144=DIRECTION('',(0.E0,0.E0,1.E0));
#145=DIRECTION('',(0.E0,-1.E0,0.E0));
#146=AXIS2_PLACEMENT_3D('',#143,#144,#145);
#148=DIRECTION('',(0.E0,0.E0,-1.E0));
#149=VECTOR('',#148,6.5E0);
#150=CARTESIAN_POINT('',(2.5E1,-1.47E2,3.75E1));
#151=LINE('',#150,#149);
#152=CARTESIAN_POINT('',(2.5E1,-1.57E2,3.75E1));
#153=DIRECTION('',(0.E0,0.E0,-1.E0));
#154=DIRECTION('',(0.E0,-1.E0,0.E0));
#155=AXIS2_PLACEMENT_3D('',#152,#153,#154);
#157=CARTESIAN_POINT('',(2.5E1,-1.57E2,3.75E1));
#158=DIRECTION('',(0.E0,0.E0,1.E0));
#159=DIRECTION('',(0.E0,-1.E0,0.E0));
#160=AXIS2_PLACEMENT_3D('',#157,#158,#159);
#162=CARTESIAN_POINT('',(2.5E1,-1.57E2,4.15E1));
#163=DIRECTION('',(0.E0,0.E0,-1.E0));
#164=DIRECTION('',(0.E0,-1.E0,0.E0));
#165=AXIS2_PLACEMENT_3D('',#162,#163,#164);
#167=DIRECTION('',(0.E0,0.E0,-1.E0));
#168=VECTOR('',#167,4.E0);
#169=CARTESIAN_POINT('',(2.5E1,-1.6575E2,4.15E1));
#170=LINE('',#169,#168);
#171=CARTESIAN_POINT('',(2.5E1,-1.57E2,4.15E1));
#172=DIRECTION('',(0.E0,0.E0,1.E0));
#173=DIRECTION('',(0.E0,-1.E0,0.E0));
#174=AXIS2_PLACEMENT_3D('',#171,#172,#173);
#176=DIRECTION('',(0.E0,0.E0,-1.E0));
#177=VECTOR('',#176,4.E0);
#178=CARTESIAN_POINT('',(2.5E1,-1.4825E2,4.15E1));
#179=LINE('',#178,#177);
#180=DIRECTION('',(0.E0,-4.228854653311E-1,-9.061831399953E-1));
#181=VECTOR('',#180,3.310589071449E0);
#182=CARTESIAN_POINT('',(2.5E1,-1.6435E2,4.45E1));
#183=LINE('',#182,#181);
#184=CARTESIAN_POINT('',(2.5E1,-1.57E2,4.45E1));
#185=DIRECTION('',(0.E0,0.E0,1.E0));
#186=DIRECTION('',(0.E0,-1.E0,0.E0));
#187=AXIS2_PLACEMENT_3D('',#184,#185,#186);
#189=DIRECTION('',(0.E0,4.228854653311E-1,-9.061831399953E-1));
#190=VECTOR('',#189,3.310589071449E0);
#191=CARTESIAN_POINT('',(2.5E1,-1.4965E2,4.45E1));
#192=LINE('',#191,#190);
#193=CARTESIAN_POINT('',(2.5E1,-1.57E2,4.45E1));
#194=DIRECTION('',(0.E0,0.E0,-1.E0));
#195=DIRECTION('',(0.E0,-1.E0,0.E0));
#196=AXIS2_PLACEMENT_3D('',#193,#194,#195);
#198=CARTESIAN_POINT('',(2.5E1,-1.57E2,4.45E1));
#199=DIRECTION('',(0.E0,0.E0,1.E0));
#200=DIRECTION('',(0.E0,-1.E0,0.E0));
#201=AXIS2_PLACEMENT_3D('',#198,#199,#200);
#203=DIRECTION('',(-1.273522142115E-9,1.738633888992E-6,9.999999999985E-1));
#204=VECTOR('',#203,6.500000001675E0);
#205=CARTESIAN_POINT('',(2.5E1,-1.6335E2,4.45E1));
#206=LINE('',#205,#204);
#207=CARTESIAN_POINT('',(2.499999999172E1,-1.633499886989E2,5.100000000167E1));
#208=CARTESIAN_POINT('',(2.536116789663E1,-1.633498670934E2,5.100017191902E1));
#209=CARTESIAN_POINT('',(2.608471407188E1,-1.632882599497E2,5.101612545238E1));
#210=CARTESIAN_POINT('',(2.714142969785E1,-1.630112457459E2,5.108696145186E1));
#211=CARTESIAN_POINT('',(2.813955738256E1,-1.625558382684E2,5.120483925164E1));
#212=CARTESIAN_POINT('',(2.904928409139E1,-1.619329625077E2,5.136745520206E1));
#213=CARTESIAN_POINT('',(2.984680037893E1,-1.611532459896E2,5.157103900925E1));
#214=CARTESIAN_POINT('',(3.050059732741E1,-1.602382265327E2,5.180750773750E1));
#215=CARTESIAN_POINT('',(3.098483596923E1,-1.592209469661E2,5.207512510937E1));
#216=CARTESIAN_POINT('',(3.128414147489E1,-1.581218489640E2,5.235392547557E1));
#217=CARTESIAN_POINT('',(3.134990772724E1,-1.573761188069E2,5.256031982871E1));
#218=CARTESIAN_POINT('',(3.135E1,-1.57E2,5.265E1));
#220=CARTESIAN_POINT('',(2.5E1,-1.57E2,4.45E1));
#221=DIRECTION('',(0.E0,0.E0,1.E0));
#222=DIRECTION('',(0.E0,1.E0,0.E0));
#223=AXIS2_PLACEMENT_3D('',#220,#221,#222);
#225=DIRECTION('',(0.E0,-1.578983857245E-14,1.E0));
#226=VECTOR('',#225,1.8E0);
#227=CARTESIAN_POINT('',(2.5E1,-1.5065E2,4.45E1));
#228=LINE('',#227,#226);
#229=CARTESIAN_POINT('',(1.865E1,-1.57E2,5.265E1));
#230=CARTESIAN_POINT('',(1.865009138767E1,-1.573761061102E2,5.256025766738E1));
#231=CARTESIAN_POINT('',(1.871586608393E1,-1.581218625942E2,5.235394473105E1));
#232=CARTESIAN_POINT('',(1.901513045713E1,-1.592208711126E2,5.207513373083E1));
#233=CARTESIAN_POINT('',(1.949944641251E1,-1.602382924408E2,5.180749952815E1));
#234=CARTESIAN_POINT('',(2.015307673870E1,-1.611530896459E2,5.157108556281E1));
#235=CARTESIAN_POINT('',(2.095063409523E1,-1.619329036162E2,5.136748657950E1));
#236=CARTESIAN_POINT('',(2.186036113769E1,-1.625557934881E2,5.120485353001E1));
#237=CARTESIAN_POINT('',(2.285854304467E1,-1.630112378642E2,5.108694280209E1));
#238=CARTESIAN_POINT('',(2.391522491052E1,-1.632882466179E2,5.101608360096E1));
#239=CARTESIAN_POINT('',(2.463880833329E1,-1.633498716445E2,5.100016588199E1));
#240=CARTESIAN_POINT('',(2.499999999172E1,-1.633499886989E2,5.100000000167E1));
#242=CARTESIAN_POINT('',(2.5E1,-1.4785E2,5.265E1));
#243=DIRECTION('',(0.E0,1.E0,0.E0));
#244=DIRECTION('',(0.E0,0.E0,-1.E0));
#245=AXIS2_PLACEMENT_3D('',#242,#243,#244);
#247=CARTESIAN_POINT('',(1.865E1,-1.57E2,5.265E1));
#248=CARTESIAN_POINT('',(1.865009138757E1,-1.569102577644E2,5.302610570368E1));
#249=CARTESIAN_POINT('',(1.871586910663E1,-1.567039780554E2,5.377186925144E1));
#250=CARTESIAN_POINT('',(1.901511896827E1,-1.564250010936E2,5.487084333934E1));
#251=CARTESIAN_POINT('',(1.949946156706E1,-1.561576491886E2,5.588832194593E1));
#252=CARTESIAN_POINT('',(2.015309454250E1,-1.559212222707E2,5.680311310794E1));
#253=CARTESIAN_POINT('',(2.095072727343E1,-1.557181995201E2,5.758298990412E1));
#254=CARTESIAN_POINT('',(2.186052848157E1,-1.555563255440E2,5.820588312265E1));
#255=CARTESIAN_POINT('',(2.285863609112E1,-1.554382744218E2,5.866127669149E1));
#256=CARTESIAN_POINT('',(2.391521014230E1,-1.553659150527E2,5.893818868603E1));
#257=CARTESIAN_POINT('',(2.463879529803E1,-1.553500255674E2,5.899998344294E1));
#258=CARTESIAN_POINT('',(2.499999999981E1,-1.5535E2,5.899999776129E1));
#260=CARTESIAN_POINT('',(2.5E1,-1.5065E2,4.63E1));
#261=CARTESIAN_POINT('',(2.472942218191E1,-1.506495673382E2,4.63E1));
#262=CARTESIAN_POINT('',(2.418368440585E1,-1.506847858586E2,4.633458499921E1));
#263=CARTESIAN_POINT('',(2.336549195816E1,-1.508449773566E2,4.649503137179E1));
#264=CARTESIAN_POINT('',(2.256202447525E1,-1.511151960152E2,4.676518081393E1));
#265=CARTESIAN_POINT('',(2.175675751087E1,-1.515149369418E2,4.716494373182E1));
#266=CARTESIAN_POINT('',(2.097998822097E1,-1.520523862019E2,4.770237424324E1));
#267=CARTESIAN_POINT('',(2.024407691274E1,-1.527492330776E2,4.839927412237E1));
#268=CARTESIAN_POINT('',(1.959203326870E1,-1.536107441298E2,4.926059190921E1));
#269=CARTESIAN_POINT('',(1.906978897708E1,-1.546296634071E2,5.028023124453E1));
#270=CARTESIAN_POINT('',(1.872915238496E1,-1.557825156977E2,5.143039656862E1));
#271=CARTESIAN_POINT('',(1.865E1,-1.565853986647E2,5.223996474094E1));
#272=CARTESIAN_POINT('',(1.865E1,-1.57E2,5.265E1));
#274=DIRECTION('',(0.E0,1.E0,0.E0));
#275=VECTOR('',#274,2.8E0);
#276=CARTESIAN_POINT('',(2.5E1,-1.5065E2,4.63E1));
#277=LINE('',#276,#275);
#278=CARTESIAN_POINT('',(2.5E1,-1.4785E2,5.265E1));
#279=DIRECTION('',(0.E0,-1.E0,0.E0));
#280=DIRECTION('',(0.E0,0.E0,-1.E0));
#281=AXIS2_PLACEMENT_3D('',#278,#279,#280);
#283=CARTESIAN_POINT('',(2.5E1,-1.4785E2,5.265E1));
#284=DIRECTION('',(0.E0,1.E0,0.E0));
#285=DIRECTION('',(0.E0,0.E0,-1.E0));
#286=AXIS2_PLACEMENT_3D('',#283,#284,#285);
#288=CARTESIAN_POINT('',(2.5E1,-1.4685E2,5.265E1));
#289=DIRECTION('',(0.E0,-1.E0,0.E0));
#290=DIRECTION('',(0.E0,0.E0,-1.E0));
#291=AXIS2_PLACEMENT_3D('',#288,#289,#290);
#293=DIRECTION('',(0.E0,-6.246950475544E-1,7.808688094430E-1));
#294=VECTOR('',#293,1.600781059358E0);
#295=CARTESIAN_POINT('',(2.5E1,-1.4685E2,4.39E1));
#296=LINE('',#295,#294);
#297=CARTESIAN_POINT('',(2.5E1,-1.4685E2,5.265E1));
#298=DIRECTION('',(0.E0,1.E0,0.E0));
#299=DIRECTION('',(0.E0,0.E0,-1.E0));
#300=AXIS2_PLACEMENT_3D('',#297,#298,#299);
#302=DIRECTION('',(0.E0,-6.246950475544E-1,-7.808688094430E-1));
#303=VECTOR('',#302,1.600781059358E0);
#304=CARTESIAN_POINT('',(2.5E1,-1.4685E2,6.14E1));
#305=LINE('',#304,#303);
#306=DIRECTION('',(0.E0,-1.E0,0.E0));
#307=VECTOR('',#306,5.E0);
#308=CARTESIAN_POINT('',(2.5E1,-1.4185E2,4.39E1));
#309=LINE('',#308,#307);
#310=CARTESIAN_POINT('',(2.5E1,-1.4185E2,5.265E1));
#311=DIRECTION('',(0.E0,1.E0,0.E0));
#312=DIRECTION('',(0.E0,0.E0,-1.E0));
#313=AXIS2_PLACEMENT_3D('',#310,#311,#312);
#315=DIRECTION('',(0.E0,-1.E0,0.E0));
#316=VECTOR('',#315,5.E0);
#317=CARTESIAN_POINT('',(2.5E1,-1.4185E2,6.14E1));
#318=LINE('',#317,#316);
#319=CARTESIAN_POINT('',(2.5E1,-1.4185E2,5.265E1));
#320=DIRECTION('',(0.E0,-1.E0,0.E0));
#321=DIRECTION('',(0.E0,0.E0,-1.E0));
#322=AXIS2_PLACEMENT_3D('',#319,#320,#321);
#324=CARTESIAN_POINT('',(2.5E1,-1.4185E2,5.265E1));
#325=DIRECTION('',(0.E0,-1.E0,0.E0));
#326=DIRECTION('',(0.E0,0.E0,-1.E0));
#327=AXIS2_PLACEMENT_3D('',#324,#325,#326);
#329=CARTESIAN_POINT('',(2.5E1,-1.4185E2,5.265E1));
#330=DIRECTION('',(0.E0,1.E0,0.E0));
#331=DIRECTION('',(0.E0,0.E0,-1.E0));
#332=AXIS2_PLACEMENT_3D('',#329,#330,#331);
#334=CARTESIAN_POINT('',(2.5E1,-1.3535E2,5.265E1));
#335=DIRECTION('',(0.E0,-1.E0,0.E0));
#336=DIRECTION('',(0.E0,0.E0,-1.E0));
#337=AXIS2_PLACEMENT_3D('',#334,#335,#336);
#339=DIRECTION('',(0.E0,-1.E0,0.E0));
#340=VECTOR('',#339,6.5E0);
#341=CARTESIAN_POINT('',(2.5E1,-1.3535E2,4.265E1));
#342=LINE('',#341,#340);
#343=CARTESIAN_POINT('',(2.5E1,-1.3535E2,5.265E1));
#344=DIRECTION('',(0.E0,1.E0,0.E0));
#345=DIRECTION('',(0.E0,0.E0,-1.E0));
#346=AXIS2_PLACEMENT_3D('',#343,#344,#345);
#348=DIRECTION('',(0.E0,-1.E0,0.E0));
#349=VECTOR('',#348,6.5E0);
#350=CARTESIAN_POINT('',(2.5E1,-1.3535E2,6.265E1));
#351=LINE('',#350,#349);
#352=CARTESIAN_POINT('',(2.5E1,-1.3535E2,5.265E1));
#353=DIRECTION('',(0.E0,-1.E0,0.E0));
#354=DIRECTION('',(0.E0,0.E0,-1.E0));
#355=AXIS2_PLACEMENT_3D('',#352,#353,#354);
#357=CARTESIAN_POINT('',(2.5E1,-1.3535E2,5.265E1));
#358=DIRECTION('',(0.E0,1.E0,0.E0));
#359=DIRECTION('',(0.E0,0.E0,-1.E0));
#360=AXIS2_PLACEMENT_3D('',#357,#358,#359);
#362=CARTESIAN_POINT('',(2.5E1,-1.3135E2,5.265E1));
#363=DIRECTION('',(0.E0,-1.E0,0.E0));
#364=DIRECTION('',(0.E0,0.E0,-1.E0));
#365=AXIS2_PLACEMENT_3D('',#362,#363,#364);
#367=DIRECTION('',(0.E0,-1.E0,0.E0));
#368=VECTOR('',#367,4.E0);
#369=CARTESIAN_POINT('',(2.5E1,-1.3135E2,4.315E1));
#370=LINE('',#369,#368);
#371=CARTESIAN_POINT('',(2.5E1,-1.3135E2,5.265E1));
#372=DIRECTION('',(0.E0,1.E0,0.E0));
#373=DIRECTION('',(0.E0,0.E0,-1.E0));
#374=AXIS2_PLACEMENT_3D('',#371,#372,#373);
#376=DIRECTION('',(0.E0,-1.E0,0.E0));
#377=VECTOR('',#376,4.E0);
#378=CARTESIAN_POINT('',(2.5E1,-1.3135E2,6.215E1));
#379=LINE('',#378,#377);
#380=CARTESIAN_POINT('',(2.5E1,-1.3135E2,6.09E1));
#381=CARTESIAN_POINT('',(2.585442069393E1,-1.3135E2,6.09E1));
#382=CARTESIAN_POINT('',(2.723819457850E1,-1.3135E2,6.063302337131E1));
#383=CARTESIAN_POINT('',(2.899092873749E1,-1.3135E2,5.960722149911E1));
#384=CARTESIAN_POINT('',(3.016353120404E1,-1.3135E2,5.852581890561E1));
#385=CARTESIAN_POINT('',(3.111409142795E1,-1.3135E2,5.719128854718E1));
#386=CARTESIAN_POINT('',(3.178940782216E1,-1.3135E2,5.569590969824E1));
#387=CARTESIAN_POINT('',(3.210995828670E1,-1.3135E2,5.440411893568E1));
#388=CARTESIAN_POINT('',(3.223108528257E1,-1.3135E2,5.338698952334E1));
#389=CARTESIAN_POINT('',(3.225945735872E1,-1.3135E2,5.265E1));
#390=CARTESIAN_POINT('',(3.223108528257E1,-1.3135E2,5.191301047666E1));
#391=CARTESIAN_POINT('',(3.210995828670E1,-1.3135E2,5.089588106432E1));
#392=CARTESIAN_POINT('',(3.178940782216E1,-1.3135E2,4.960409030176E1));
#393=CARTESIAN_POINT('',(3.111409142795E1,-1.3135E2,4.810871145282E1));
#394=CARTESIAN_POINT('',(3.016353120404E1,-1.3135E2,4.677418109439E1));
#395=CARTESIAN_POINT('',(2.899092873749E1,-1.3135E2,4.569277850089E1));
#396=CARTESIAN_POINT('',(2.723819457850E1,-1.3135E2,4.466697662869E1));
#397=CARTESIAN_POINT('',(2.585442069393E1,-1.3135E2,4.44E1));
#398=CARTESIAN_POINT('',(2.5E1,-1.3135E2,4.44E1));
#400=CARTESIAN_POINT('',(2.5E1,-1.3135E2,4.44E1));
#401=CARTESIAN_POINT('',(2.414557930607E1,-1.3135E2,4.44E1));
#402=CARTESIAN_POINT('',(2.276180542150E1,-1.3135E2,4.466697662869E1));
#403=CARTESIAN_POINT('',(2.100907126251E1,-1.3135E2,4.569277850089E1));
#404=CARTESIAN_POINT('',(1.983646879596E1,-1.3135E2,4.677418109439E1));
#405=CARTESIAN_POINT('',(1.888590857205E1,-1.3135E2,4.810871145282E1));
#406=CARTESIAN_POINT('',(1.821059217784E1,-1.3135E2,4.960409030176E1));
#407=CARTESIAN_POINT('',(1.789004171330E1,-1.3135E2,5.089588106432E1));
#408=CARTESIAN_POINT('',(1.776891471743E1,-1.3135E2,5.191301047666E1));
#409=CARTESIAN_POINT('',(1.774054264128E1,-1.3135E2,5.265E1));
#410=CARTESIAN_POINT('',(1.776891471743E1,-1.3135E2,5.338698952334E1));
#411=CARTESIAN_POINT('',(1.789004171330E1,-1.3135E2,5.440411893568E1));
#412=CARTESIAN_POINT('',(1.821059217784E1,-1.3135E2,5.569590969824E1));
#413=CARTESIAN_POINT('',(1.888590857205E1,-1.3135E2,5.719128854718E1));
#414=CARTESIAN_POINT('',(1.983646879596E1,-1.3135E2,5.852581890561E1));
#415=CARTESIAN_POINT('',(2.100907126251E1,-1.3135E2,5.960722149911E1));
#416=CARTESIAN_POINT('',(2.276180542150E1,-1.3135E2,6.063302337131E1));
#417=CARTESIAN_POINT('',(2.414557930607E1,-1.3135E2,6.09E1));
#418=CARTESIAN_POINT('',(2.5E1,-1.3135E2,6.09E1));
#420=DIRECTION('',(0.E0,-1.E0,0.E0));
#421=VECTOR('',#420,2.E0);
#422=CARTESIAN_POINT('',(2.5E1,-1.2935E2,6.09E1));
#423=LINE('',#422,#421);
#424=DIRECTION('',(0.E0,-1.E0,0.E0));
#425=VECTOR('',#424,2.E0);
#426=CARTESIAN_POINT('',(2.5E1,-1.2935E2,4.44E1));
#427=LINE('',#426,#425);
#428=CARTESIAN_POINT('',(2.5E1,-1.2935E2,6.09E1));
#429=CARTESIAN_POINT('',(2.585442069393E1,-1.2935E2,6.09E1));
#430=CARTESIAN_POINT('',(2.723819457850E1,-1.2935E2,6.063302337131E1));
#431=CARTESIAN_POINT('',(2.899092873749E1,-1.2935E2,5.960722149911E1));
#432=CARTESIAN_POINT('',(3.016353120404E1,-1.2935E2,5.852581890561E1));
#433=CARTESIAN_POINT('',(3.111409142795E1,-1.2935E2,5.719128854718E1));
#434=CARTESIAN_POINT('',(3.178940782216E1,-1.2935E2,5.569590969824E1));
#435=CARTESIAN_POINT('',(3.210995828670E1,-1.2935E2,5.440411893568E1));
#436=CARTESIAN_POINT('',(3.223108528257E1,-1.2935E2,5.338698952334E1));
#437=CARTESIAN_POINT('',(3.225945735872E1,-1.2935E2,5.265E1));
#438=CARTESIAN_POINT('',(3.223108528257E1,-1.2935E2,5.191301047666E1));
#439=CARTESIAN_POINT('',(3.210995828670E1,-1.2935E2,5.089588106432E1));
#440=CARTESIAN_POINT('',(3.178940782216E1,-1.2935E2,4.960409030176E1));
#441=CARTESIAN_POINT('',(3.111409142795E1,-1.2935E2,4.810871145282E1));
#442=CARTESIAN_POINT('',(3.016353120404E1,-1.2935E2,4.677418109439E1));
#443=CARTESIAN_POINT('',(2.899092873749E1,-1.2935E2,4.569277850089E1));
#444=CARTESIAN_POINT('',(2.723819457850E1,-1.2935E2,4.466697662869E1));
#445=CARTESIAN_POINT('',(2.585442069393E1,-1.2935E2,4.44E1));
#446=CARTESIAN_POINT('',(2.5E1,-1.2935E2,4.44E1));
#448=CARTESIAN_POINT('',(2.5E1,-1.2935E2,4.44E1));
#449=CARTESIAN_POINT('',(2.414557930607E1,-1.2935E2,4.44E1));
#450=CARTESIAN_POINT('',(2.276180542150E1,-1.2935E2,4.466697662869E1));
#451=CARTESIAN_POINT('',(2.100907126251E1,-1.2935E2,4.569277850089E1));
#452=CARTESIAN_POINT('',(1.983646879596E1,-1.2935E2,4.677418109439E1));
#453=CARTESIAN_POINT('',(1.888590857205E1,-1.2935E2,4.810871145282E1));
#454=CARTESIAN_POINT('',(1.821059217784E1,-1.2935E2,4.960409030176E1));
#455=CARTESIAN_POINT('',(1.789004171330E1,-1.2935E2,5.089588106432E1));
#456=CARTESIAN_POINT('',(1.776891471743E1,-1.2935E2,5.191301047666E1));
#457=CARTESIAN_POINT('',(1.774054264128E1,-1.2935E2,5.265E1));
#458=CARTESIAN_POINT('',(1.776891471743E1,-1.2935E2,5.338698952334E1));
#459=CARTESIAN_POINT('',(1.789004171330E1,-1.2935E2,5.440411893568E1));
#460=CARTESIAN_POINT('',(1.821059217784E1,-1.2935E2,5.569590969824E1));
#461=CARTESIAN_POINT('',(1.888590857205E1,-1.2935E2,5.719128854718E1));
#462=CARTESIAN_POINT('',(1.983646879596E1,-1.2935E2,5.852581890561E1));
#463=CARTESIAN_POINT('',(2.100907126251E1,-1.2935E2,5.960722149911E1));
#464=CARTESIAN_POINT('',(2.276180542150E1,-1.2935E2,6.063302337131E1));
#465=CARTESIAN_POINT('',(2.414557930607E1,-1.2935E2,6.09E1));
#466=CARTESIAN_POINT('',(2.5E1,-1.2935E2,6.09E1));
#468=CARTESIAN_POINT('',(2.5E1,-1.2935E2,5.265E1));
#469=DIRECTION('',(0.E0,-1.E0,0.E0));
#470=DIRECTION('',(0.E0,0.E0,1.E0));
#471=AXIS2_PLACEMENT_3D('',#468,#469,#470);
#473=CARTESIAN_POINT('',(2.5E1,-1.2935E2,5.265E1));
#474=DIRECTION('',(0.E0,-1.E0,0.E0));
#475=DIRECTION('',(0.E0,0.E0,-1.E0));
#476=AXIS2_PLACEMENT_3D('',#473,#474,#475);
#478=CARTESIAN_POINT('',(2.000000000001E1,-1.570000045227E2,5.264999935172E1));
#479=CARTESIAN_POINT('',(2.000007160785E1,-1.569471342629E2,5.294302943876E1));
#480=CARTESIAN_POINT('',(2.005096666945E1,-1.568214944145E2,5.352626357272E1));
#481=CARTESIAN_POINT('',(2.028309607019E1,-1.566543695688E2,5.438587509503E1));
#482=CARTESIAN_POINT('',(2.066021708686E1,-1.564924180509E2,5.518472005728E1));
#483=CARTESIAN_POINT('',(2.117049669360E1,-1.563493565879E2,5.590478713032E1));
#484=CARTESIAN_POINT('',(2.179651605697E1,-1.562256364646E2,5.652193572966E1));
#485=CARTESIAN_POINT('',(2.251281397504E1,-1.561267463505E2,5.701632503191E1));
#486=CARTESIAN_POINT('',(2.330171354069E1,-1.560543408766E2,5.737926024439E1));
#487=CARTESIAN_POINT('',(2.413885472732E1,-1.560098071916E2,5.760048674788E1));
#488=CARTESIAN_POINT('',(2.471313406267E1,-1.560000192214E2,5.764998566556E1));
#489=CARTESIAN_POINT('',(2.499999999979E1,-1.56E2,5.764999764916E1));
#491=DIRECTION('',(7.880225552767E-12,1.E0,8.821149999317E-8));
#492=VECTOR('',#491,2.665E1);
#493=CARTESIAN_POINT('',(2.499999999979E1,-1.56E2,5.764999764916E1));
#494=LINE('',#493,#492);
#495=CARTESIAN_POINT('',(2.000000000001E1,-1.570000045227E2,5.264999935172E1));
#496=CARTESIAN_POINT('',(1.999999952824E1,-1.566749747959E2,5.232496962493E1));
#497=CARTESIAN_POINT('',(2.006250956157E1,-1.560396567241E2,5.168965912393E1));
#498=CARTESIAN_POINT('',(2.033058715174E1,-1.551338125638E2,5.078381192078E1));
#499=CARTESIAN_POINT('',(2.074187655336E1,-1.543309016244E2,4.998090179675E1));
#500=CARTESIAN_POINT('',(2.125612537648E1,-1.536519479695E2,4.930194792332E1));
#501=CARTESIAN_POINT('',(2.183453132322E1,-1.531043342947E2,4.875433430704E1));
#502=CARTESIAN_POINT('',(2.244718564386E1,-1.526804919941E2,4.833049199079E1));
#503=CARTESIAN_POINT('',(2.308043864016E1,-1.523662648867E2,4.801626488760E1));
#504=CARTESIAN_POINT('',(2.371363001107E1,-1.521533869061E2,4.780338690586E1));
#505=CARTESIAN_POINT('',(2.435725365530E1,-1.520272571543E2,4.767725715439E1));
#506=CARTESIAN_POINT('',(2.478694995303E1,-1.52E2,4.765E1));
#507=CARTESIAN_POINT('',(2.5E1,-1.52E2,4.765E1));
#509=CARTESIAN_POINT('',(2.000000000001E1,-1.570000045227E2,5.264999935172E1));
#510=CARTESIAN_POINT('',(2.000007198539E1,-1.572930283949E2,5.259713022228E1));
#511=CARTESIAN_POINT('',(2.005096494636E1,-1.578762608588E2,5.247147334987E1));
#512=CARTESIAN_POINT('',(2.028310197657E1,-1.587358886494E2,5.230445765834E1));
#513=CARTESIAN_POINT('',(2.066020684470E1,-1.595347002610E2,5.214228710887E1));
#514=CARTESIAN_POINT('',(2.117048344627E1,-1.602547700427E2,5.199922493222E1));
#515=CARTESIAN_POINT('',(2.179646128828E1,-1.608718850069E2,5.187508907792E1));
#516=CARTESIAN_POINT('',(2.251272587868E1,-1.613662797488E2,5.177573589522E1));
#517=CARTESIAN_POINT('',(2.330167031143E1,-1.617292355035E2,5.170350214262E1));
#518=CARTESIAN_POINT('',(2.413886683392E1,-1.619505415872E2,5.166010021782E1));
#519=CARTESIAN_POINT('',(2.471314277693E1,-1.619998756181E2,5.165014462105E1));
#520=CARTESIAN_POINT('',(2.499999998778E1,-1.619999857991E2,5.165000000237E1));
#522=DIRECTION('',(-4.583631201931E-10,5.328658248299E-7,9.999999999999E-1));
#523=VECTOR('',#522,2.665000000238E1);
#524=CARTESIAN_POINT('',(2.5E1,-1.62E2,2.5E1));
#525=LINE('',#524,#523);
#526=CARTESIAN_POINT('',(2.499999998778E1,-1.619999857991E2,5.165000000237E1));
#527=CARTESIAN_POINT('',(2.528683631323E1,-1.619998718022E2,5.165014931549E1));
#528=CARTESIAN_POINT('',(2.586107750566E1,-1.619505530164E2,5.166013498793E1));
#529=CARTESIAN_POINT('',(2.669828891554E1,-1.617292476716E2,5.170351737695E1));
#530=CARTESIAN_POINT('',(2.748718062028E1,-1.613663318085E2,5.177572457137E1));
#531=CARTESIAN_POINT('',(2.820344089027E1,-1.608719566411E2,5.187506233714E1));
#532=CARTESIAN_POINT('',(2.882938166657E1,-1.602549444429E2,5.199918605934E1));
#533=CARTESIAN_POINT('',(2.933984388539E1,-1.595346214015E2,5.214229616643E1));
#534=CARTESIAN_POINT('',(2.971685809177E1,-1.587359815699E2,5.230444787824E1));
#535=CARTESIAN_POINT('',(2.994904767596E1,-1.578762300973E2,5.247146409058E1));
#536=CARTESIAN_POINT('',(2.999992734401E1,-1.572930260519E2,5.259717612077E1));
#537=CARTESIAN_POINT('',(2.999999999999E1,-1.570000045873E2,5.264999932335E1));
#539=DIRECTION('',(0.E0,0.E0,1.E0));
#540=VECTOR('',#539,2.265E1);
#541=CARTESIAN_POINT('',(2.5E1,-1.52E2,2.5E1));
#542=LINE('',#541,#540);
#543=CARTESIAN_POINT('',(2.499999894313E1,-1.560000009653E2,5.165000096533E1));
#544=DIRECTION('',(9.999999999995E-1,-7.085644671428E-7,7.085644688948E-7));
#545=DIRECTION('',(-7.085643551436E-7,1.608892990969E-7,9.999999999997E-1));
#546=AXIS2_PLACEMENT_3D('',#543,#544,#545);
#548=CARTESIAN_POINT('',(2.499999999979E1,-1.56E2,5.764999764916E1));
#549=CARTESIAN_POINT('',(2.528684540842E1,-1.560000195232E2,5.764998547634E1));
#550=CARTESIAN_POINT('',(2.586109041233E1,-1.560098074859E2,5.760049640492E1));
#551=CARTESIAN_POINT('',(2.669824696874E1,-1.560543396371E2,5.737927236548E1));
#552=CARTESIAN_POINT('',(2.748709211673E1,-1.561267398845E2,5.701637706500E1));
#553=CARTESIAN_POINT('',(2.820338477244E1,-1.562256234196E2,5.652200847135E1));
#554=CARTESIAN_POINT('',(2.882936745692E1,-1.563493273870E2,5.590496271350E1));
#555=CARTESIAN_POINT('',(2.933983331939E1,-1.564924311332E2,5.518464184820E1));
#556=CARTESIAN_POINT('',(2.971686397610E1,-1.566543603705E2,5.438596813475E1));
#557=CARTESIAN_POINT('',(2.994904594569E1,-1.568214852361E2,5.352623282481E1));
#558=CARTESIAN_POINT('',(2.999992772832E1,-1.569471802336E2,5.294302712370E1));
#559=CARTESIAN_POINT('',(2.999999999999E1,-1.570000045873E2,5.264999932335E1));
#561=CARTESIAN_POINT('',(2.5E1,-1.52E2,4.765E1));
#562=CARTESIAN_POINT('',(2.521304975924E1,-1.52E2,4.765E1));
#563=CARTESIAN_POINT('',(2.564274546684E1,-1.520272570798E2,4.767725707992E1));
#564=CARTESIAN_POINT('',(2.628636824898E1,-1.521533864872E2,4.780338648693E1));
#565=CARTESIAN_POINT('',(2.691955876645E1,-1.523662638638E2,4.801626386469E1));
#566=CARTESIAN_POINT('',(2.755281094722E1,-1.526804900509E2,4.833049004749E1));
#567=CARTESIAN_POINT('',(2.816546458390E1,-1.531043310456E2,4.875433105817E1));
#568=CARTESIAN_POINT('',(2.874387010712E1,-1.536519430971E2,4.930194305013E1));
#569=CARTESIAN_POINT('',(2.925811892285E1,-1.543308944156E2,4.998089459102E1));
#570=CARTESIAN_POINT('',(2.966940914966E1,-1.551338041409E2,5.078380348631E1));
#571=CARTESIAN_POINT('',(2.993748773031E1,-1.560396422853E2,5.168964472837E1));
#572=CARTESIAN_POINT('',(3.000000047619E1,-1.566749688547E2,5.232496359070E1));
#573=CARTESIAN_POINT('',(2.999999999999E1,-1.570000045873E2,5.264999932335E1));
#575=DIRECTION('',(0.E0,1.E0,0.E0));
#576=VECTOR('',#575,2.265E1);
#577=CARTESIAN_POINT('',(2.5E1,-1.52E2,4.765E1));
#578=LINE('',#577,#576);
#579=CARTESIAN_POINT('',(2.5E1,-1.4785E2,5.265E1));
#580=DIRECTION('',(0.E0,1.E0,0.E0));
#581=DIRECTION('',(0.E0,0.E0,1.E0));
#582=AXIS2_PLACEMENT_3D('',#579,#580,#581);
#584=CARTESIAN_POINT('',(3.135E1,-1.57E2,5.265E1));
#585=CARTESIAN_POINT('',(3.135E1,-1.565853986647E2,5.223996474094E1));
#586=CARTESIAN_POINT('',(3.127084761504E1,-1.557825156977E2,5.143039656862E1));
#587=CARTESIAN_POINT('',(3.093021102292E1,-1.546296634071E2,5.028023124453E1));
#588=CARTESIAN_POINT('',(3.040796673130E1,-1.536107441298E2,4.926059190921E1));
#589=CARTESIAN_POINT('',(2.975592308726E1,-1.527492330776E2,4.839927412237E1));
#590=CARTESIAN_POINT('',(2.902001177903E1,-1.520523862019E2,4.770237424324E1));
#591=CARTESIAN_POINT('',(2.824324248913E1,-1.515149369418E2,4.716494373182E1));
#592=CARTESIAN_POINT('',(2.743797552475E1,-1.511151960152E2,4.676518081393E1));
#593=CARTESIAN_POINT('',(2.663450804184E1,-1.508449773566E2,4.649503137179E1));
#594=CARTESIAN_POINT('',(2.581631559415E1,-1.506847858586E2,4.633458499921E1));
#595=CARTESIAN_POINT('',(2.527057781809E1,-1.506495673382E2,4.63E1));
#596=CARTESIAN_POINT('',(2.5E1,-1.5065E2,4.63E1));
#598=CARTESIAN_POINT('',(2.499999999981E1,-1.5535E2,5.899999776129E1));
#599=CARTESIAN_POINT('',(2.536118151458E1,-1.553500259806E2,5.899998321036E1));
#600=CARTESIAN_POINT('',(2.608473009377E1,-1.553659148757E2,5.893819987444E1));
#601=CARTESIAN_POINT('',(2.714133859550E1,-1.554382743279E2,5.866128435332E1));
#602=CARTESIAN_POINT('',(2.813938925706E1,-1.555563185798E2,5.820592798249E1));
#603=CARTESIAN_POINT('',(2.904918867296E1,-1.557181856416E2,5.758305061736E1));
#604=CARTESIAN_POINT('',(2.984678103163E1,-1.559211876283E2,5.680327133851E1));
#605=CARTESIAN_POINT('',(3.050058162824E1,-1.561576625783E2,5.588825711939E1));
#606=CARTESIAN_POINT('',(3.098484743943E1,-1.564249929801E2,5.487091933484E1));
#607=CARTESIAN_POINT('',(3.128413844001E1,-1.567039590177E2,5.377185567633E1));
#608=CARTESIAN_POINT('',(3.134990772734E1,-1.569103199244E2,5.302611840550E1));
#609=CARTESIAN_POINT('',(3.135E1,-1.57E2,5.265E1));
#611=DIRECTION('',(2.528584748991E-11,1.E0,2.984947040355E-7));
#612=VECTOR('',#611,7.500000000001E0);
#613=CARTESIAN_POINT('',(2.499999999981E1,-1.5535E2,5.899999776129E1));
#614=LINE('',#613,#612);
#615=CARTESIAN_POINT('',(2.499999861939E1,-1.553500011936E2,5.100000119363E1));
#616=DIRECTION('',(9.999999999998E-1,-4.935784363262E-7,4.935784367556E-7));
#617=DIRECTION('',(-4.935783630840E-7,1.492046784133E-7,9.999999999999E-1));
#618=AXIS2_PLACEMENT_3D('',#615,#616,#617);
#620=DIRECTION('',(0.E0,0.E0,1.E0));
#621=VECTOR('',#620,2.E0);
#622=CARTESIAN_POINT('',(2.5E1,-1.4875E2,2.5E1));
#623=LINE('',#622,#621);
#624=CARTESIAN_POINT('',(2.5E1,-1.62E2,2.5E1));
#625=CARTESIAN_POINT('',(2.5E1,-1.52E2,2.5E1));
#626=VERTEX_POINT('',#624);
#627=VERTEX_POINT('',#625);
#628=CARTESIAN_POINT('',(2.5E1,-1.52E2,4.765E1));
#629=VERTEX_POINT('',#628);
#630=CARTESIAN_POINT('',(2.5E1,-1.2935E2,5.765E1));
#631=CARTESIAN_POINT('',(2.5E1,-1.2935E2,4.765E1));
#632=VERTEX_POINT('',#630);
#633=VERTEX_POINT('',#631);
#634=VERTEX_POINT('',#207);
#635=VERTEX_POINT('',#218);
#636=VERTEX_POINT('',#598);
#637=VERTEX_POINT('',#247);
#638=VERTEX_POINT('',#596);
#639=CARTESIAN_POINT('',(2.5E1,-1.3135E2,4.315E1));
#640=CARTESIAN_POINT('',(2.5E1,-1.3535E2,4.315E1));
#641=VERTEX_POINT('',#639);
#642=VERTEX_POINT('',#640);
#643=CARTESIAN_POINT('',(2.5E1,-1.3535E2,4.265E1));
#644=CARTESIAN_POINT('',(2.5E1,-1.4185E2,4.265E1));
#645=VERTEX_POINT('',#643);
#646=VERTEX_POINT('',#644);
#647=CARTESIAN_POINT('',(2.5E1,-1.4185E2,4.39E1));
#648=CARTESIAN_POINT('',(2.5E1,-1.4685E2,4.39E1));
#649=VERTEX_POINT('',#647);
#650=VERTEX_POINT('',#648);
#651=CARTESIAN_POINT('',(2.5E1,-1.4785E2,4.515E1));
#652=VERTEX_POINT('',#651);
#653=CARTESIAN_POINT('',(2.5E1,-1.3135E2,6.215E1));
#654=CARTESIAN_POINT('',(2.5E1,-1.3535E2,6.215E1));
#655=VERTEX_POINT('',#653);
#656=VERTEX_POINT('',#654);
#657=CARTESIAN_POINT('',(2.5E1,-1.3535E2,6.265E1));
#658=CARTESIAN_POINT('',(2.5E1,-1.4185E2,6.265E1));
#659=VERTEX_POINT('',#657);
#660=VERTEX_POINT('',#658);
#661=CARTESIAN_POINT('',(2.5E1,-1.4185E2,6.14E1));
#662=CARTESIAN_POINT('',(2.5E1,-1.4685E2,6.14E1));
#663=VERTEX_POINT('',#661);
#664=VERTEX_POINT('',#662);
#665=CARTESIAN_POINT('',(2.5E1,-1.4785E2,6.015E1));
#666=VERTEX_POINT('',#665);
#667=CARTESIAN_POINT('',(2.5E1,-1.4785E2,5.9E1));
#668=CARTESIAN_POINT('',(2.5E1,-1.4785E2,4.63E1));
#669=VERTEX_POINT('',#667);
#670=VERTEX_POINT('',#668);
#671=VERTEX_POINT('',#428);
#672=VERTEX_POINT('',#446);
#673=VERTEX_POINT('',#380);
#674=VERTEX_POINT('',#398);
#675=VERTEX_POINT('',#548);
#676=VERTEX_POINT('',#559);
#677=VERTEX_POINT('',#526);
#678=VERTEX_POINT('',#509);
#679=CARTESIAN_POINT('',(2.5E1,-1.6435E2,4.45E1));
#680=CARTESIAN_POINT('',(2.5E1,-1.6575E2,4.15E1));
#681=VERTEX_POINT('',#679);
#682=VERTEX_POINT('',#680);
#683=CARTESIAN_POINT('',(2.5E1,-1.6575E2,3.75E1));
#684=VERTEX_POINT('',#683);
#685=CARTESIAN_POINT('',(2.5E1,-1.67E2,3.75E1));
#686=CARTESIAN_POINT('',(2.5E1,-1.67E2,3.1E1));
#687=VERTEX_POINT('',#685);
#688=VERTEX_POINT('',#686);
#689=CARTESIAN_POINT('',(2.5E1,-1.665E2,3.1E1));
#690=CARTESIAN_POINT('',(2.5E1,-1.665E2,2.7E1));
#691=VERTEX_POINT('',#689);
#692=VERTEX_POINT('',#690);
#693=CARTESIAN_POINT('',(2.5E1,-1.4965E2,4.45E1));
#694=CARTESIAN_POINT('',(2.5E1,-1.4825E2,4.15E1));
#695=VERTEX_POINT('',#693);
#696=VERTEX_POINT('',#694);
#697=CARTESIAN_POINT('',(2.5E1,-1.4825E2,3.75E1));
#698=VERTEX_POINT('',#697);
#699=CARTESIAN_POINT('',(2.5E1,-1.47E2,3.75E1));
#700=CARTESIAN_POINT('',(2.5E1,-1.47E2,3.1E1));
#701=VERTEX_POINT('',#699);
#702=VERTEX_POINT('',#700);
#703=CARTESIAN_POINT('',(2.5E1,-1.475E2,3.1E1));
#704=CARTESIAN_POINT('',(2.5E1,-1.475E2,2.7E1));
#705=VERTEX_POINT('',#703);
#706=VERTEX_POINT('',#704);
#707=CARTESIAN_POINT('',(2.5E1,-1.6335E2,4.45E1));
#708=CARTESIAN_POINT('',(2.5E1,-1.5065E2,4.45E1));
#709=VERTEX_POINT('',#707);
#710=VERTEX_POINT('',#708);
#711=VERTEX_POINT('',#2);
#712=VERTEX_POINT('',#20);
#713=VERTEX_POINT('',#66);
#714=VERTEX_POINT('',#84);
#715=CARTESIAN_POINT('',(2.5E1,-1.57E2,2.5E1));
#716=DIRECTION('',(0.E0,0.E0,1.E0));
#717=DIRECTION('',(0.E0,-1.E0,0.E0));
#718=AXIS2_PLACEMENT_3D('',#715,#716,#717);
#719=PLANE('',#718);
#721=ORIENTED_EDGE('',*,*,#720,.F.);
#723=ORIENTED_EDGE('',*,*,#722,.F.);
#724=EDGE_LOOP('',(#721,#723));
#725=FACE_OUTER_BOUND('',#724,.F.);
#727=ORIENTED_EDGE('',*,*,#726,.T.);
#729=ORIENTED_EDGE('',*,*,#728,.T.);
#730=EDGE_LOOP('',(#727,#729));
#731=FACE_BOUND('',#730,.F.);
#732=ADVANCED_FACE('',(#725,#731),#719,.F.);
#733=CARTESIAN_POINT('',(2.5E1,-1.57E2,2.5E1));
#734=DIRECTION('',(0.E0,0.E0,-1.E0));
#735=DIRECTION('',(0.E0,-1.E0,0.E0));
#736=AXIS2_PLACEMENT_3D('',#733,#734,#735);
#738=DIRECTION('',(0.E0,0.E0,-1.E0));
#739=VECTOR('',#738,1.E0);
#740=SURFACE_OF_LINEAR_EXTRUSION('',#737,#739);
#742=ORIENTED_EDGE('',*,*,#741,.F.);
#744=ORIENTED_EDGE('',*,*,#743,.F.);
#745=ORIENTED_EDGE('',*,*,#720,.T.);
#747=ORIENTED_EDGE('',*,*,#746,.T.);
#748=EDGE_LOOP('',(#742,#744,#745,#747));
#749=FACE_OUTER_BOUND('',#748,.F.);
#750=ADVANCED_FACE('',(#749),#740,.T.);
#751=CARTESIAN_POINT('',(2.5E1,-1.57E2,2.7E1));
#752=DIRECTION('',(0.E0,0.E0,-1.E0));
#753=DIRECTION('',(0.E0,-1.E0,0.E0));
#754=AXIS2_PLACEMENT_3D('',#751,#752,#753);
#755=PLANE('',#754);
#757=ORIENTED_EDGE('',*,*,#756,.F.);
#759=ORIENTED_EDGE('',*,*,#758,.T.);
#760=EDGE_LOOP('',(#757,#759));
#761=FACE_OUTER_BOUND('',#760,.F.);
#762=ORIENTED_EDGE('',*,*,#741,.T.);
#764=ORIENTED_EDGE('',*,*,#763,.T.);
#765=EDGE_LOOP('',(#762,#764));
#766=FACE_BOUND('',#765,.F.);
#767=ADVANCED_FACE('',(#761,#766),#755,.T.);
#768=CARTESIAN_POINT('',(2.5E1,-1.57E2,4.5475E1));
#769=DIRECTION('',(0.E0,0.E0,-1.E0));
#770=DIRECTION('',(0.E0,-1.E0,0.E0));
#771=AXIS2_PLACEMENT_3D('',#768,#769,#770);
#772=CYLINDRICAL_SURFACE('',#771,9.5E0);
#774=ORIENTED_EDGE('',*,*,#773,.T.);
#775=ORIENTED_EDGE('',*,*,#756,.T.);
#777=ORIENTED_EDGE('',*,*,#776,.F.);
#779=ORIENTED_EDGE('',*,*,#778,.F.);
#780=EDGE_LOOP('',(#774,#775,#777,#779));
#781=FACE_OUTER_BOUND('',#780,.F.);
#782=ADVANCED_FACE('',(#781),#772,.T.);
#783=CARTESIAN_POINT('',(2.5E1,-1.57E2,4.5475E1));
#784=DIRECTION('',(0.E0,0.E0,-1.E0));
#785=DIRECTION('',(0.E0,-1.E0,0.E0));
#786=AXIS2_PLACEMENT_3D('',#783,#784,#785);
#787=CYLINDRICAL_SURFACE('',#786,9.5E0);
#788=ORIENTED_EDGE('',*,*,#773,.F.);
#790=ORIENTED_EDGE('',*,*,#789,.T.);
#791=ORIENTED_EDGE('',*,*,#776,.T.);
#792=ORIENTED_EDGE('',*,*,#758,.F.);
#793=EDGE_LOOP('',(#788,#790,#791,#792));
#794=FACE_OUTER_BOUND('',#793,.F.);
#795=ADVANCED_FACE('',(#794),#787,.T.);
#796=CARTESIAN_POINT('',(2.5E1,-1.57E2,3.1E1));
#797=DIRECTION('',(0.E0,0.E0,-1.E0));
#798=DIRECTION('',(0.E0,-1.E0,0.E0));
#799=AXIS2_PLACEMENT_3D('',#796,#797,#798);
#800=PLANE('',#799);
#802=ORIENTED_EDGE('',*,*,#801,.F.);
#804=ORIENTED_EDGE('',*,*,#803,.T.);
#805=EDGE_LOOP('',(#802,#804));
#806=FACE_OUTER_BOUND('',#805,.F.);
#807=ORIENTED_EDGE('',*,*,#789,.F.);
#808=ORIENTED_EDGE('',*,*,#778,.T.);
#809=EDGE_LOOP('',(#807,#808));
#810=FACE_BOUND('',#809,.F.);
#811=ADVANCED_FACE('',(#806,#810),#800,.T.);
#812=CARTESIAN_POINT('',(2.5E1,-1.57E2,4.5475E1));
#813=DIRECTION('',(0.E0,0.E0,-1.E0));
#814=DIRECTION('',(0.E0,-1.E0,0.E0));
#815=AXIS2_PLACEMENT_3D('',#812,#813,#814);
#816=CYLINDRICAL_SURFACE('',#815,1.E1);
#818=ORIENTED_EDGE('',*,*,#817,.T.);
#819=ORIENTED_EDGE('',*,*,#801,.T.);
#821=ORIENTED_EDGE('',*,*,#820,.F.);
#823=ORIENTED_EDGE('',*,*,#822,.F.);
#824=EDGE_LOOP('',(#818,#819,#821,#823));
#825=FACE_OUTER_BOUND('',#824,.F.);
#826=ADVANCED_FACE('',(#825),#816,.T.);
#827=CARTESIAN_POINT('',(2.5E1,-1.57E2,4.5475E1));
#828=DIRECTION('',(0.E0,0.E0,-1.E0));
#829=DIRECTION('',(0.E0,-1.E0,0.E0));
#830=AXIS2_PLACEMENT_3D('',#827,#828,#829);
#831=CYLINDRICAL_SURFACE('',#830,1.E1);
#832=ORIENTED_EDGE('',*,*,#817,.F.);
#834=ORIENTED_EDGE('',*,*,#833,.T.);
#835=ORIENTED_EDGE('',*,*,#820,.T.);
#836=ORIENTED_EDGE('',*,*,#803,.F.);
#837=EDGE_LOOP('',(#832,#834,#835,#836));
#838=FACE_OUTER_BOUND('',#837,.F.);
#839=ADVANCED_FACE('',(#838),#831,.T.);
#840=CARTESIAN_POINT('',(2.5E1,-1.57E2,3.75E1));
#841=DIRECTION('',(0.E0,0.E0,-1.E0));
#842=DIRECTION('',(0.E0,-1.E0,0.E0));
#843=AXIS2_PLACEMENT_3D('',#840,#841,#842);
#844=PLANE('',#843);
#845=ORIENTED_EDGE('',*,*,#833,.F.);
#846=ORIENTED_EDGE('',*,*,#822,.T.);
#847=EDGE_LOOP('',(#845,#846));
#848=FACE_OUTER_BOUND('',#847,.F.);
#850=ORIENTED_EDGE('',*,*,#849,.F.);
#852=ORIENTED_EDGE('',*,*,#851,.T.);
#853=EDGE_LOOP('',(#850,#852));
#854=FACE_BOUND('',#853,.F.);
#855=ADVANCED_FACE('',(#848,#854),#844,.F.);
#856=CARTESIAN_POINT('',(2.5E1,-1.57E2,4.5475E1));
#857=DIRECTION('',(0.E0,0.E0,-1.E0));
#858=DIRECTION('',(0.E0,-1.E0,0.E0));
#859=AXIS2_PLACEMENT_3D('',#856,#857,#858);
#860=CYLINDRICAL_SURFACE('',#859,8.75E0);
#862=ORIENTED_EDGE('',*,*,#861,.T.);
#863=ORIENTED_EDGE('',*,*,#849,.T.);
#865=ORIENTED_EDGE('',*,*,#864,.F.);
#867=ORIENTED_EDGE('',*,*,#866,.F.);
#868=EDGE_LOOP('',(#862,#863,#865,#867));
#869=FACE_OUTER_BOUND('',#868,.F.);
#870=ADVANCED_FACE('',(#869),#860,.T.);
#871=CARTESIAN_POINT('',(2.5E1,-1.57E2,4.5475E1));
#872=DIRECTION('',(0.E0,0.E0,-1.E0));
#873=DIRECTION('',(0.E0,-1.E0,0.E0));
#874=AXIS2_PLACEMENT_3D('',#871,#872,#873);
#875=CYLINDRICAL_SURFACE('',#874,8.75E0);
#876=ORIENTED_EDGE('',*,*,#861,.F.);
#878=ORIENTED_EDGE('',*,*,#877,.T.);
#879=ORIENTED_EDGE('',*,*,#864,.T.);
#880=ORIENTED_EDGE('',*,*,#851,.F.);
#881=EDGE_LOOP('',(#876,#878,#879,#880));
#882=FACE_OUTER_BOUND('',#881,.F.);
#883=ADVANCED_FACE('',(#882),#875,.T.);
#884=CARTESIAN_POINT('',(2.5E1,-1.57E2,4.3E1));
#885=DIRECTION('',(0.E0,0.E0,-1.E0));
#886=DIRECTION('',(0.E0,-1.E0,0.E0));
#887=AXIS2_PLACEMENT_3D('',#884,#885,#886);
#888=CONICAL_SURFACE('',#887,8.05E0,2.501689347810E1);
#890=ORIENTED_EDGE('',*,*,#889,.F.);
#892=ORIENTED_EDGE('',*,*,#891,.T.);
#894=ORIENTED_EDGE('',*,*,#893,.T.);
#895=ORIENTED_EDGE('',*,*,#877,.F.);
#896=EDGE_LOOP('',(#890,#892,#894,#895));
#897=FACE_OUTER_BOUND('',#896,.F.);
#898=ADVANCED_FACE('',(#897),#888,.T.);
#899=CARTESIAN_POINT('',(2.5E1,-1.57E2,4.3E1));
#900=DIRECTION('',(0.E0,0.E0,-1.E0));
#901=DIRECTION('',(0.E0,-1.E0,0.E0));
#902=AXIS2_PLACEMENT_3D('',#899,#900,#901);
#903=CONICAL_SURFACE('',#902,8.05E0,2.501689347810E1);
#904=ORIENTED_EDGE('',*,*,#889,.T.);
#905=ORIENTED_EDGE('',*,*,#866,.T.);
#906=ORIENTED_EDGE('',*,*,#893,.F.);
#908=ORIENTED_EDGE('',*,*,#907,.F.);
#909=EDGE_LOOP('',(#904,#905,#906,#908));
#910=FACE_OUTER_BOUND('',#909,.F.);
#911=ADVANCED_FACE('',(#910),#903,.T.);
#912=CARTESIAN_POINT('',(2.5E1,-1.57E2,4.45E1));
#913=DIRECTION('',(0.E0,0.E0,-1.E0));
#914=DIRECTION('',(0.E0,-1.E0,0.E0));
#915=AXIS2_PLACEMENT_3D('',#912,#913,#914);
#916=PLANE('',#915);
#917=ORIENTED_EDGE('',*,*,#891,.F.);
#918=ORIENTED_EDGE('',*,*,#907,.T.);
#919=EDGE_LOOP('',(#917,#918));
#920=FACE_OUTER_BOUND('',#919,.F.);
#922=ORIENTED_EDGE('',*,*,#921,.T.);
#924=ORIENTED_EDGE('',*,*,#923,.T.);
#925=EDGE_LOOP('',(#922,#924));
#926=FACE_BOUND('',#925,.F.);
#927=ADVANCED_FACE('',(#920,#926),#916,.F.);
#928=CARTESIAN_POINT('',(2.5E1,-1.57E2,2.5E1));
#929=DIRECTION('',(0.E0,0.E0,1.E0));
#930=DIRECTION('',(0.E0,-1.E0,0.E0));
#931=AXIS2_PLACEMENT_3D('',#928,#929,#930);
#932=CYLINDRICAL_SURFACE('',#931,6.35E0);
#933=ORIENTED_EDGE('',*,*,#921,.F.);
#935=ORIENTED_EDGE('',*,*,#934,.T.);
#937=ORIENTED_EDGE('',*,*,#936,.T.);
#939=ORIENTED_EDGE('',*,*,#938,.T.);
#941=ORIENTED_EDGE('',*,*,#940,.F.);
#942=EDGE_LOOP('',(#933,#935,#937,#939,#941));
#943=FACE_OUTER_BOUND('',#942,.F.);
#944=ADVANCED_FACE('',(#943),#932,.T.);
#945=CARTESIAN_POINT('',(2.5E1,-1.57E2,2.5E1));
#946=DIRECTION('',(0.E0,0.E0,1.E0));
#947=DIRECTION('',(0.E0,-1.E0,0.E0));
#948=AXIS2_PLACEMENT_3D('',#945,#946,#947);
#949=CYLINDRICAL_SURFACE('',#948,6.35E0);
#950=ORIENTED_EDGE('',*,*,#923,.F.);
#951=ORIENTED_EDGE('',*,*,#940,.T.);
#953=ORIENTED_EDGE('',*,*,#952,.T.);
#955=ORIENTED_EDGE('',*,*,#954,.T.);
#956=ORIENTED_EDGE('',*,*,#934,.F.);
#957=EDGE_LOOP('',(#950,#951,#953,#955,#956));
#958=FACE_OUTER_BOUND('',#957,.F.);
#959=ADVANCED_FACE('',(#958),#949,.T.);
#960=CARTESIAN_POINT('',(2.5E1,-1.57E2,5.265E1));
#961=DIRECTION('',(0.E0,1.E0,0.E0));
#962=DIRECTION('',(0.E0,0.E0,1.E0));
#963=AXIS2_PLACEMENT_3D('',#960,#961,#962);
#964=CYLINDRICAL_SURFACE('',#963,6.35E0);
#966=ORIENTED_EDGE('',*,*,#965,.T.);
#968=ORIENTED_EDGE('',*,*,#967,.F.);
#970=ORIENTED_EDGE('',*,*,#969,.F.);
#971=ORIENTED_EDGE('',*,*,#952,.F.);
#973=ORIENTED_EDGE('',*,*,#972,.T.);
#974=EDGE_LOOP('',(#966,#968,#970,#971,#973));
#975=FACE_OUTER_BOUND('',#974,.F.);
#976=ADVANCED_FACE('',(#975),#964,.T.);
#977=CARTESIAN_POINT('',(2.5E1,-1.4785E2,5.265E1));
#978=DIRECTION('',(0.E0,-1.E0,0.E0));
#979=DIRECTION('',(0.E0,0.E0,-1.E0));
#980=AXIS2_PLACEMENT_3D('',#977,#978,#979);
#981=PLANE('',#980);
#983=ORIENTED_EDGE('',*,*,#982,.F.);
#985=ORIENTED_EDGE('',*,*,#984,.T.);
#986=EDGE_LOOP('',(#983,#985));
#987=FACE_OUTER_BOUND('',#986,.F.);
#989=ORIENTED_EDGE('',*,*,#988,.F.);
#990=ORIENTED_EDGE('',*,*,#965,.F.);
#991=EDGE_LOOP('',(#989,#990));
#992=FACE_BOUND('',#991,.F.);
#993=ADVANCED_FACE('',(#987,#992),#981,.T.);
#994=CARTESIAN_POINT('',(2.5E1,-1.4735E2,5.265E1));
#995=DIRECTION('',(0.E0,1.E0,0.E0));
#996=DIRECTION('',(0.E0,0.E0,1.E0));
#997=AXIS2_PLACEMENT_3D('',#994,#995,#996);
#998=CONICAL_SURFACE('',#997,8.125E0,5.134019174591E1);
#1000=ORIENTED_EDGE('',*,*,#999,.T.);
#1001=ORIENTED_EDGE('',*,*,#982,.T.);
#1003=ORIENTED_EDGE('',*,*,#1002,.F.);
#1005=ORIENTED_EDGE('',*,*,#1004,.F.);
#1006=EDGE_LOOP('',(#1000,#1001,#1003,#1005));
#1007=FACE_OUTER_BOUND('',#1006,.F.);
#1008=ADVANCED_FACE('',(#1007),#998,.T.);
#1009=CARTESIAN_POINT('',(2.5E1,-1.4735E2,5.265E1));
#1010=DIRECTION('',(0.E0,1.E0,0.E0));
#1011=DIRECTION('',(0.E0,0.E0,1.E0));
#1012=AXIS2_PLACEMENT_3D('',#1009,#1010,#1011);
#1013=CONICAL_SURFACE('',#1012,8.125E0,5.134019174591E1);
#1014=ORIENTED_EDGE('',*,*,#999,.F.);
#1016=ORIENTED_EDGE('',*,*,#1015,.T.);
#1017=ORIENTED_EDGE('',*,*,#1002,.T.);
#1018=ORIENTED_EDGE('',*,*,#984,.F.);
#1019=EDGE_LOOP('',(#1014,#1016,#1017,#1018));
#1020=FACE_OUTER_BOUND('',#1019,.F.);
#1021=ADVANCED_FACE('',(#1020),#1013,.T.);
#1022=CARTESIAN_POINT('',(2.5E1,-1.30525E2,5.265E1));
#1023=DIRECTION('',(0.E0,-1.E0,0.E0));
#1024=DIRECTION('',(0.E0,0.E0,-1.E0));
#1025=AXIS2_PLACEMENT_3D('',#1022,#1023,#1024);
#1026=CYLINDRICAL_SURFACE('',#1025,8.75E0);
#1028=ORIENTED_EDGE('',*,*,#1027,.F.);
#1030=ORIENTED_EDGE('',*,*,#1029,.T.);
#1032=ORIENTED_EDGE('',*,*,#1031,.T.);
#1033=ORIENTED_EDGE('',*,*,#1015,.F.);
#1034=EDGE_LOOP('',(#1028,#1030,#1032,#1033));
#1035=FACE_OUTER_BOUND('',#1034,.F.);
#1036=ADVANCED_FACE('',(#1035),#1026,.T.);
#1037=CARTESIAN_POINT('',(2.5E1,-1.30525E2,5.265E1));
#1038=DIRECTION('',(0.E0,-1.E0,0.E0));
#1039=DIRECTION('',(0.E0,0.E0,-1.E0));
#1040=AXIS2_PLACEMENT_3D('',#1037,#1038,#1039);
#1041=CYLINDRICAL_SURFACE('',#1040,8.75E0);
#1042=ORIENTED_EDGE('',*,*,#1027,.T.);
#1043=ORIENTED_EDGE('',*,*,#1004,.T.);
#1044=ORIENTED_EDGE('',*,*,#1031,.F.);
#1046=ORIENTED_EDGE('',*,*,#1045,.F.);
#1047=EDGE_LOOP('',(#1042,#1043,#1044,#1046));
#1048=FACE_OUTER_BOUND('',#1047,.F.);
#1049=ADVANCED_FACE('',(#1048),#1041,.T.);
#1050=CARTESIAN_POINT('',(2.5E1,-1.4185E2,5.265E1));
#1051=DIRECTION('',(0.E0,-1.E0,0.E0));
#1052=DIRECTION('',(0.E0,0.E0,-1.E0));
#1053=AXIS2_PLACEMENT_3D('',#1050,#1051,#1052);
#1054=PLANE('',#1053);
#1056=ORIENTED_EDGE('',*,*,#1055,.F.);
#1058=ORIENTED_EDGE('',*,*,#1057,.T.);
#1059=EDGE_LOOP('',(#1056,#1058));
#1060=FACE_OUTER_BOUND('',#1059,.F.);
#1061=ORIENTED_EDGE('',*,*,#1029,.F.);
#1062=ORIENTED_EDGE('',*,*,#1045,.T.);
#1063=EDGE_LOOP('',(#1061,#1062));
#1064=FACE_BOUND('',#1063,.F.);
#1065=ADVANCED_FACE('',(#1060,#1064),#1054,.T.);
#1066=CARTESIAN_POINT('',(2.5E1,-1.30525E2,5.265E1));
#1067=DIRECTION('',(0.E0,-1.E0,0.E0));
#1068=DIRECTION('',(0.E0,0.E0,-1.E0));
#1069=AXIS2_PLACEMENT_3D('',#1066,#1067,#1068);
#1070=CYLINDRICAL_SURFACE('',#1069,1.E1);
#1072=ORIENTED_EDGE('',*,*,#1071,.T.);
#1073=ORIENTED_EDGE('',*,*,#1055,.T.);
#1075=ORIENTED_EDGE('',*,*,#1074,.F.);
#1077=ORIENTED_EDGE('',*,*,#1076,.F.);
#1078=EDGE_LOOP('',(#1072,#1073,#1075,#1077));
#1079=FACE_OUTER_BOUND('',#1078,.F.);
#1080=ADVANCED_FACE('',(#1079),#1070,.T.);
#1081=CARTESIAN_POINT('',(2.5E1,-1.30525E2,5.265E1));
#1082=DIRECTION('',(0.E0,-1.E0,0.E0));
#1083=DIRECTION('',(0.E0,0.E0,-1.E0));
#1084=AXIS2_PLACEMENT_3D('',#1081,#1082,#1083);
#1085=CYLINDRICAL_SURFACE('',#1084,1.E1);
#1086=ORIENTED_EDGE('',*,*,#1071,.F.);
#1088=ORIENTED_EDGE('',*,*,#1087,.T.);
#1089=ORIENTED_EDGE('',*,*,#1074,.T.);
#1090=ORIENTED_EDGE('',*,*,#1057,.F.);
#1091=EDGE_LOOP('',(#1086,#1088,#1089,#1090));
#1092=FACE_OUTER_BOUND('',#1091,.F.);
#1093=ADVANCED_FACE('',(#1092),#1085,.T.);
#1094=CARTESIAN_POINT('',(2.5E1,-1.3535E2,5.265E1));
#1095=DIRECTION('',(0.E0,-1.E0,0.E0));
#1096=DIRECTION('',(0.E0,0.E0,-1.E0));
#1097=AXIS2_PLACEMENT_3D('',#1094,#1095,#1096);
#1098=PLANE('',#1097);
#1099=ORIENTED_EDGE('',*,*,#1087,.F.);
#1100=ORIENTED_EDGE('',*,*,#1076,.T.);
#1101=EDGE_LOOP('',(#1099,#1100));
#1102=FACE_OUTER_BOUND('',#1101,.F.);
#1104=ORIENTED_EDGE('',*,*,#1103,.F.);
#1106=ORIENTED_EDGE('',*,*,#1105,.T.);
#1107=EDGE_LOOP('',(#1104,#1106));
#1108=FACE_BOUND('',#1107,.F.);
#1109=ADVANCED_FACE('',(#1102,#1108),#1098,.F.);
#1110=CARTESIAN_POINT('',(2.5E1,-1.30525E2,5.265E1));
#1111=DIRECTION('',(0.E0,-1.E0,0.E0));
#1112=DIRECTION('',(0.E0,0.E0,-1.E0));
#1113=AXIS2_PLACEMENT_3D('',#1110,#1111,#1112);
#1114=CYLINDRICAL_SURFACE('',#1113,9.5E0);
#1116=ORIENTED_EDGE('',*,*,#1115,.T.);
#1117=ORIENTED_EDGE('',*,*,#1103,.T.);
#1119=ORIENTED_EDGE('',*,*,#1118,.F.);
#1121=ORIENTED_EDGE('',*,*,#1120,.F.);
#1122=EDGE_LOOP('',(#1116,#1117,#1119,#1121));
#1123=FACE_OUTER_BOUND('',#1122,.F.);
#1124=ADVANCED_FACE('',(#1123),#1114,.T.);
#1125=CARTESIAN_POINT('',(2.5E1,-1.30525E2,5.265E1));
#1126=DIRECTION('',(0.E0,-1.E0,0.E0));
#1127=DIRECTION('',(0.E0,0.E0,-1.E0));
#1128=AXIS2_PLACEMENT_3D('',#1125,#1126,#1127);
#1129=CYLINDRICAL_SURFACE('',#1128,9.5E0);
#1130=ORIENTED_EDGE('',*,*,#1115,.F.);
#1132=ORIENTED_EDGE('',*,*,#1131,.T.);
#1133=ORIENTED_EDGE('',*,*,#1118,.T.);
#1134=ORIENTED_EDGE('',*,*,#1105,.F.);
#1135=EDGE_LOOP('',(#1130,#1132,#1133,#1134));
#1136=FACE_OUTER_BOUND('',#1135,.F.);
#1137=ADVANCED_FACE('',(#1136),#1129,.T.);
#1138=CARTESIAN_POINT('',(2.5E1,-1.3135E2,5.265E1));
#1139=DIRECTION('',(0.E0,-1.E0,0.E0));
#1140=DIRECTION('',(0.E0,0.E0,-1.E0));
#1141=AXIS2_PLACEMENT_3D('',#1138,#1139,#1140);
#1142=PLANE('',#1141);
#1143=ORIENTED_EDGE('',*,*,#1131,.F.);
#1144=ORIENTED_EDGE('',*,*,#1120,.T.);
#1145=EDGE_LOOP('',(#1143,#1144));
#1146=FACE_OUTER_BOUND('',#1145,.F.);
#1148=ORIENTED_EDGE('',*,*,#1147,.T.);
#1150=ORIENTED_EDGE('',*,*,#1149,.T.);
#1151=EDGE_LOOP('',(#1148,#1150));
#1152=FACE_BOUND('',#1151,.F.);
#1153=ADVANCED_FACE('',(#1146,#1152),#1142,.F.);
#1154=CARTESIAN_POINT('',(2.5E1,-1.2935E2,5.265E1));
#1155=DIRECTION('',(0.E0,1.E0,0.E0));
#1156=DIRECTION('',(0.E0,0.E0,1.E0));
#1157=AXIS2_PLACEMENT_3D('',#1154,#1155,#1156);
#1159=DIRECTION('',(0.E0,1.E0,0.E0));
#1160=VECTOR('',#1159,1.E0);
#1161=SURFACE_OF_LINEAR_EXTRUSION('',#1158,#1160);
#1162=ORIENTED_EDGE('',*,*,#1147,.F.);
#1164=ORIENTED_EDGE('',*,*,#1163,.F.);
#1166=ORIENTED_EDGE('',*,*,#1165,.T.);
#1168=ORIENTED_EDGE('',*,*,#1167,.T.);
#1169=EDGE_LOOP('',(#1162,#1164,#1166,#1168));
#1170=FACE_OUTER_BOUND('',#1169,.F.);
#1171=ADVANCED_FACE('',(#1170),#1161,.T.);
#1172=CARTESIAN_POINT('',(2.5E1,-1.2935E2,5.265E1));
#1173=DIRECTION('',(0.E0,1.E0,0.E0));
#1174=DIRECTION('',(0.E0,0.E0,1.E0));
#1175=AXIS2_PLACEMENT_3D('',#1172,#1173,#1174);
#1177=DIRECTION('',(0.E0,1.E0,0.E0));
#1178=VECTOR('',#1177,1.E0);
#1179=SURFACE_OF_LINEAR_EXTRUSION('',#1176,#1178);
#1180=ORIENTED_EDGE('',*,*,#1149,.F.);
#1181=ORIENTED_EDGE('',*,*,#1167,.F.);
#1183=ORIENTED_EDGE('',*,*,#1182,.T.);
#1184=ORIENTED_EDGE('',*,*,#1163,.T.);
#1185=EDGE_LOOP('',(#1180,#1181,#1183,#1184));
#1186=FACE_OUTER_BOUND('',#1185,.F.);
#1187=ADVANCED_FACE('',(#1186),#1179,.T.);
#1188=CARTESIAN_POINT('',(2.5E1,-1.2935E2,5.265E1));
#1189=DIRECTION('',(0.E0,1.E0,0.E0));
#1190=DIRECTION('',(0.E0,0.E0,1.E0));
#1191=AXIS2_PLACEMENT_3D('',#1188,#1189,#1190);
#1192=PLANE('',#1191);
#1193=ORIENTED_EDGE('',*,*,#1165,.F.);
#1194=ORIENTED_EDGE('',*,*,#1182,.F.);
#1195=EDGE_LOOP('',(#1193,#1194));
#1196=FACE_OUTER_BOUND('',#1195,.F.);
#1198=ORIENTED_EDGE('',*,*,#1197,.F.);
#1200=ORIENTED_EDGE('',*,*,#1199,.F.);
#1201=EDGE_LOOP('',(#1198,#1200));
#1202=FACE_BOUND('',#1201,.F.);
#1203=ADVANCED_FACE('',(#1196,#1202),#1192,.T.);
#1204=CARTESIAN_POINT('',(2.5E1,-1.57E2,5.265E1));
#1205=DIRECTION('',(0.E0,1.E0,0.E0));
#1206=DIRECTION('',(0.E0,0.E0,1.E0));
#1207=AXIS2_PLACEMENT_3D('',#1204,#1205,#1206);
#1208=CYLINDRICAL_SURFACE('',#1207,5.E0);
#1210=ORIENTED_EDGE('',*,*,#1209,.T.);
#1212=ORIENTED_EDGE('',*,*,#1211,.T.);
#1213=ORIENTED_EDGE('',*,*,#1197,.T.);
#1215=ORIENTED_EDGE('',*,*,#1214,.F.);
#1217=ORIENTED_EDGE('',*,*,#1216,.F.);
#1218=EDGE_LOOP('',(#1210,#1212,#1213,#1215,#1217));
#1219=FACE_OUTER_BOUND('',#1218,.F.);
#1220=ADVANCED_FACE('',(#1219),#1208,.F.);
#1221=CARTESIAN_POINT('',(2.000145466835E1,-1.568819888678E2,5.270580121489E1));
#1222=CARTESIAN_POINT('',(2.000176271539E1,-1.568768073936E2,5.273173985902E1));
#1223=CARTESIAN_POINT('',(2.000806198344E1,-1.568123430723E2,5.305416965725E1));
#1224=CARTESIAN_POINT('',(2.007917191513E1,-1.566883013036E2,5.366811718703E1));
#1225=CARTESIAN_POINT('',(2.033579573379E1,-1.565128617887E2,5.451958332447E1));
#1226=CARTESIAN_POINT('',(2.073720101912E1,-1.563464002156E2,5.530963632046E1));
#1227=CARTESIAN_POINT('',(2.126728512828E1,-1.561943396081E2,5.601244716132E1));
#1228=CARTESIAN_POINT('',(2.190550850957E1,-1.560615352284E2,5.660659880255E1));
#1229=CARTESIAN_POINT('',(2.262842983387E1,-1.559522219281E2,5.707683854584E1));
#1230=CARTESIAN_POINT('',(2.341185456017E1,-1.558704623703E2,5.741344864103E1));
#1231=CARTESIAN_POINT('',(2.423288287717E1,-1.558203069137E2,5.761165449304E1));
#1232=CARTESIAN_POINT('',(2.479411824072E1,-1.558102056776E2,5.765058014088E1));
#1233=CARTESIAN_POINT('',(2.507441842920E1,-1.558112643532E2,5.764647351730E1));
#1234=CARTESIAN_POINT('',(2.507627339289E1,-1.558112716291E2,5.764644530265E1));
#1235=CARTESIAN_POINT('',(1.992582128062E1,-1.594919525192E2,5.009466096899E1));
#1236=CARTESIAN_POINT('',(1.991258379982E1,-1.594866482443E2,5.012090411692E1));
#1237=CARTESIAN_POINT('',(1.975048382307E1,-1.594213709745E2,5.044903460145E1));
#1238=CARTESIAN_POINT('',(1.950106458176E1,-1.593117986583E2,5.112015202339E1));
#1239=CARTESIAN_POINT('',(1.933560310555E1,-1.591982828816E2,5.217481879469E1));
#1240=CARTESIAN_POINT('',(1.939350486401E1,-1.591360269956E2,5.327889056538E1));
#1241=CARTESIAN_POINT('',(1.969875471131E1,-1.591292440485E2,5.438714544040E1));
#1242=CARTESIAN_POINT('',(2.027135962964E1,-1.591776636709E2,5.544765610051E1));
#1243=CARTESIAN_POINT('',(2.112428052229E1,-1.592714705170E2,5.639950639748E1));
#1244=CARTESIAN_POINT('',(2.225456230931E1,-1.593862153075E2,5.716834461911E1));
#1245=CARTESIAN_POINT('',(2.362286801644E1,-1.594815918630E2,5.766864364354E1));
#1246=CARTESIAN_POINT('',(2.463126587661E1,-1.595038391922E2,5.777260649303E1));
#1247=CARTESIAN_POINT('',(2.513332713308E1,-1.595015860112E2,5.776181772778E1));
#1248=CARTESIAN_POINT('',(2.513664958251E1,-1.595015704811E2,5.776174364330E1));
#1249=CARTESIAN_POINT('',(2.256521984041E1,-1.613384528731E2,4.828922365122E1));
#1250=CARTESIAN_POINT('',(2.254260649077E1,-1.613330617190E2,4.830171051276E1));
#1251=CARTESIAN_POINT('',(2.226261541426E1,-1.612672093033E2,4.846014620324E1));
#1252=CARTESIAN_POINT('',(2.175697806672E1,-1.611678738536E2,4.883963415553E1));
#1253=CARTESIAN_POINT('',(2.116638110380E1,-1.610981679608E2,4.957410110079E1));
#1254=CARTESIAN_POINT('',(2.077463868175E1,-1.611096356447E2,5.046638187846E1));
#1255=CARTESIAN_POINT('',(2.064166083263E1,-1.612056339189E2,5.147197306096E1));
#1256=CARTESIAN_POINT('',(2.082608031370E1,-1.613822661253E2,5.252973166512E1));
#1257=CARTESIAN_POINT('',(2.137822804820E1,-1.616197766671E2,5.355590434740E1));
#1258=CARTESIAN_POINT('',(2.232261478992E1,-1.618735446002E2,5.443742395704E1));
#1259=CARTESIAN_POINT('',(2.362105486768E1,-1.620718823258E2,5.503642739600E1));
#1260=CARTESIAN_POINT('',(2.463136787642E1,-1.621170156586E2,5.516365662208E1));
#1261=CARTESIAN_POINT('',(2.513332002142E1,-1.621124194011E2,5.515053513709E1));
#1262=CARTESIAN_POINT('',(2.513664169491E1,-1.621123877362E2,5.515044505277E1));
#1263=CARTESIAN_POINT('',(2.625430299026E1,-1.612564273535E2,4.842864282181E1));
#1264=CARTESIAN_POINT('',(2.623239920212E1,-1.612510400588E2,4.842199223383E1));
#1265=CARTESIAN_POINT('',(2.595940940162E1,-1.611852131923E2,4.834240779124E1));
#1266=CARTESIAN_POINT('',(2.542352765726E1,-1.610854229990E2,4.826547260717E1));
#1267=CARTESIAN_POINT('',(2.467298728511E1,-1.610137709769E2,4.835837163186E1));
#1268=CARTESIAN_POINT('',(2.400916623352E1,-1.610219637011E2,4.864668268731E1));
#1269=CARTESIAN_POINT('',(2.350107014592E1,-1.611133962123E2,4.910627884003E1));
#1270=CARTESIAN_POINT('',(2.321966558734E1,-1.612843329398E2,4.969391074276E1));
#1271=CARTESIAN_POINT('',(2.323004240784E1,-1.615154598542E2,5.034022340259E1));
#1272=CARTESIAN_POINT('',(2.357307380371E1,-1.617630520800E2,5.094378053588E1));
#1273=CARTESIAN_POINT('',(2.422858745004E1,-1.619568160489E2,5.137582137674E1));
#1274=CARTESIAN_POINT('',(2.479435988265E1,-1.620009327362E2,5.146986606797E1));
#1275=CARTESIAN_POINT('',(2.507440158137E1,-1.619964405632E2,5.146023313134E1));
#1276=CARTESIAN_POINT('',(2.507625470685E1,-1.619964096150E2,5.146016701239E1));
#1277=(BOUNDED_SURFACE()B_SPLINE_SURFACE(3,3,((#1221,#1222,#1223,#1224,#1225,
#1226,#1227,#1228,#1229,#1230,#1231,#1232,#1233,#1234),(#1235,#1236,#1237,#1238,
#1239,#1240,#1241,#1242,#1243,#1244,#1245,#1246,#1247,#1248),(#1249,#1250,#1251,
#1252,#1253,#1254,#1255,#1256,#1257,#1258,#1259,#1260,#1261,#1262),(#1263,#1264,
#1265,#1266,#1267,#1268,#1269,#1270,#1271,#1272,#1273,#1274,#1275,#1276)),
.UNSPECIFIED.,.F.,.F.,.F.)B_SPLINE_SURFACE_WITH_KNOTS((4,4),(4,1,1,1,1,1,1,1,1,
1,1,4),(0.E0,1.E0),(-9.914741175188E-3,0.E0,1.134233371168E-1,2.273412746732E-1,
3.405510557512E-1,4.529584199756E-1,5.643097176261E-1,6.742686185421E-1,
7.833743123184E-1,8.918679745861E-1,1.E0,1.000720374392E0),.UNSPECIFIED.)GEOMETRIC_REPRESENTATION_ITEM()RATIONAL_B_SPLINE_SURFACE(((1.187280827852E0,
1.187280827852E0,1.187280827852E0,1.187280827852E0,1.187280827852E0,
1.187280827852E0,1.187280827852E0,1.187280827852E0,1.187280827852E0,
1.187280827852E0,1.187280827852E0,1.187280827852E0,1.187280827852E0,
1.187280827852E0),(9.375730573825E-1,9.375730573825E-1,9.375730573825E-1,
9.375730573825E-1,9.375730573825E-1,9.375730573825E-1,9.375730573825E-1,
9.375730573825E-1,9.375730573825E-1,9.375730573825E-1,9.375730573825E-1,
9.375730573825E-1,9.375730573825E-1,9.375730573825E-1),(9.375730573825E-1,
9.375730573825E-1,9.375730573825E-1,9.375730573825E-1,9.375730573825E-1,
9.375730573825E-1,9.375730573825E-1,9.375730573825E-1,9.375730573825E-1,
9.375730573825E-1,9.375730573825E-1,9.375730573825E-1,9.375730573825E-1,
9.375730573825E-1),(1.187280827852E0,1.187280827852E0,1.187280827852E0,
1.187280827852E0,1.187280827852E0,1.187280827852E0,1.187280827852E0,
1.187280827852E0,1.187280827852E0,1.187280827852E0,1.187280827852E0,
1.187280827852E0,1.187280827852E0,1.187280827852E0)))REPRESENTATION_ITEM('')SURFACE());
#1279=ORIENTED_EDGE('',*,*,#1278,.T.);
#1281=ORIENTED_EDGE('',*,*,#1280,.F.);
#1282=ORIENTED_EDGE('',*,*,#1209,.F.);
#1283=EDGE_LOOP('',(#1279,#1281,#1282));
#1284=FACE_OUTER_BOUND('',#1283,.F.);
#1285=ADVANCED_FACE('',(#1284),#1277,.F.);
#1286=CARTESIAN_POINT('',(2.5E1,-1.57E2,2.5E1));
#1287=DIRECTION('',(0.E0,0.E0,1.E0));
#1288=DIRECTION('',(0.E0,-1.E0,0.E0));
#1289=AXIS2_PLACEMENT_3D('',#1286,#1287,#1288);
#1290=CYLINDRICAL_SURFACE('',#1289,5.E0);
#1291=ORIENTED_EDGE('',*,*,#1278,.F.);
#1292=ORIENTED_EDGE('',*,*,#1216,.T.);
#1294=ORIENTED_EDGE('',*,*,#1293,.F.);
#1295=ORIENTED_EDGE('',*,*,#726,.F.);
#1297=ORIENTED_EDGE('',*,*,#1296,.T.);
#1298=EDGE_LOOP('',(#1291,#1292,#1294,#1295,#1297));
#1299=FACE_OUTER_BOUND('',#1298,.F.);
#1300=ADVANCED_FACE('',(#1299),#1290,.F.);
#1301=CARTESIAN_POINT('',(2.5E1,-1.57E2,2.5E1));
#1302=DIRECTION('',(0.E0,0.E0,1.E0));
#1303=DIRECTION('',(0.E0,-1.E0,0.E0));
#1304=AXIS2_PLACEMENT_3D('',#1301,#1302,#1303);
#1305=CYLINDRICAL_SURFACE('',#1304,5.E0);
#1307=ORIENTED_EDGE('',*,*,#1306,.F.);
#1308=ORIENTED_EDGE('',*,*,#1296,.F.);
#1309=ORIENTED_EDGE('',*,*,#728,.F.);
#1310=ORIENTED_EDGE('',*,*,#1293,.T.);
#1312=ORIENTED_EDGE('',*,*,#1311,.T.);
#1313=EDGE_LOOP('',(#1307,#1308,#1309,#1310,#1312));
#1314=FACE_OUTER_BOUND('',#1313,.F.);
#1315=ADVANCED_FACE('',(#1314),#1305,.F.);
#1316=CARTESIAN_POINT('',(2.492370150747E1,-1.558112776599E2,5.764644501413E1));
#1317=CARTESIAN_POINT('',(2.492462180319E1,-1.558112740509E2,5.764645901427E1));
#1318=CARTESIAN_POINT('',(2.520407517425E1,-1.558101983163E2,5.765063266978E1));
#1319=CARTESIAN_POINT('',(2.576458057959E1,-1.558202080543E2,5.761206119247E1));
#1320=CARTESIAN_POINT('',(2.658596680556E1,-1.558702838801E2,5.741418990316E1));
#1321=CARTESIAN_POINT('',(2.736978681179E1,-1.559519965409E2,5.707780963165E1));
#1322=CARTESIAN_POINT('',(2.809311571321E1,-1.560612907729E2,5.660769413610E1));
#1323=CARTESIAN_POINT('',(2.873178689497E1,-1.561941107783E2,5.601351051404E1));
#1324=CARTESIAN_POINT('',(2.926225756548E1,-1.563462105606E2,5.531054579061E1));
#1325=CARTESIAN_POINT('',(2.966397015891E1,-1.565127332304E2,5.452021988497E1));
#1326=CARTESIAN_POINT('',(2.992077952081E1,-1.566882356423E2,5.366845782792E1));
#1327=CARTESIAN_POINT('',(2.999193777459E1,-1.568123294454E2,5.305425506215E1));
#1328=CARTESIAN_POINT('',(2.999823871260E1,-1.568768221922E2,5.273168258698E1));
#1329=CARTESIAN_POINT('',(2.999854680845E1,-1.568820089831E2,5.270571725938E1));
#1330=CARTESIAN_POINT('',(2.486330545106E1,-1.595015737631E2,5.776173899224E1));
#1331=CARTESIAN_POINT('',(2.486495379998E1,-1.595015814447E2,5.776177575694E1));
#1332=CARTESIAN_POINT('',(2.536549086818E1,-1.595038678112E2,5.777273877343E1));
#1333=CARTESIAN_POINT('',(2.637269695468E1,-1.594818167391E2,5.766970782873E1));
#1334=CARTESIAN_POINT('',(2.774204814132E1,-1.593865260899E2,5.717013103883E1));
#1335=CARTESIAN_POINT('',(2.887339569008E1,-1.592717308865E2,5.640159092096E1));
#1336=CARTESIAN_POINT('',(2.972722894905E1,-1.591778107383E2,5.544972702293E1));
#1337=CARTESIAN_POINT('',(3.030058254223E1,-1.591292727284E2,5.438891052104E1));
#1338=CARTESIAN_POINT('',(3.060631527885E1,-1.591359793834E2,5.328022242804E1));
#1339=CARTESIAN_POINT('',(3.066446706155E1,-1.591982105500E2,5.217564198132E1));
#1340=CARTESIAN_POINT('',(3.049906278498E1,-1.593117420767E2,5.112053362668E1));
#1341=CARTESIAN_POINT('',(3.024955887920E1,-1.594213535653E2,5.044912231469E1));
#1342=CARTESIAN_POINT('',(3.008738618837E1,-1.594866614E2,5.012084772268E1));
#1343=CARTESIAN_POINT('',(3.007413483640E1,-1.594919713436E2,5.009457780494E1));
#1344=CARTESIAN_POINT('',(2.486331326059E1,-1.621123877134E2,5.515044098017E1));
#1345=CARTESIAN_POINT('',(2.486496122239E1,-1.621124033829E2,5.515048568668E1));
#1346=CARTESIAN_POINT('',(2.536538477189E1,-1.621170683717E2,5.516381824629E1));
#1347=CARTESIAN_POINT('',(2.637458555739E1,-1.620723348892E2,5.503772302897E1));
#1348=CARTESIAN_POINT('',(2.767434677296E1,-1.618742002378E2,5.443952502702E1));
#1349=CARTESIAN_POINT('',(2.862004307065E1,-1.616203794769E2,5.355822578330E1));
#1350=CARTESIAN_POINT('',(2.917322753516E1,-1.613826890393E2,5.253187832779E1));
#1351=CARTESIAN_POINT('',(2.935835959706E1,-1.612058437004E2,5.147364425685E1));
#1352=CARTESIAN_POINT('',(2.922572227846E1,-1.611096874971E2,5.046751209E1));
#1353=CARTESIAN_POINT('',(2.883402559350E1,-1.610981344187E2,4.957470855715E1));
#1354=CARTESIAN_POINT('',(2.824329863919E1,-1.611678227289E2,4.883985961544E1));
#1355=CARTESIAN_POINT('',(2.773746007642E1,-1.612671882568E2,4.846018845138E1));
#1356=CARTESIAN_POINT('',(2.745734472901E1,-1.613330727506E2,4.830168426889E1));
#1357=CARTESIAN_POINT('',(2.743470801057E1,-1.613384698223E2,4.828918492565E1));
#1358=CARTESIAN_POINT('',(2.492372000858E1,-1.619964097166E2,5.146016619405E1));
#1359=CARTESIAN_POINT('',(2.492463938719E1,-1.619964250313E2,5.146019900867E1));
#1360=CARTESIAN_POINT('',(2.520382382751E1,-1.620009843565E2,5.146998621512E1));
#1361=CARTESIAN_POINT('',(2.576905476173E1,-1.619572584757E2,5.137677447057E1));
#1362=CARTESIAN_POINT('',(2.642557931272E1,-1.617636923771E2,5.094526523091E1));
#1363=CARTESIAN_POINT('',(2.676958341243E1,-1.615160474318E2,5.034175367497E1));
#1364=CARTESIAN_POINT('',(2.678066221413E1,-1.612847435811E2,4.969518338491E1));
#1365=CARTESIAN_POINT('',(2.649961966527E1,-1.611135979310E2,4.910711765433E1));
#1366=CARTESIAN_POINT('',(2.599157256592E1,-1.610220111182E2,4.864711239049E1));
#1367=CARTESIAN_POINT('',(2.532757453006E1,-1.610137356953E2,4.835849522540E1));
#1368=CARTESIAN_POINT('',(2.457677592807E1,-1.610853716159E2,4.826544167810E1));
#1369=CARTESIAN_POINT('',(2.404066620549E1,-1.611851922915E2,4.834238404004E1));
#1370=CARTESIAN_POINT('',(2.376755584882E1,-1.612510511689E2,4.842200506550E1));
#1371=CARTESIAN_POINT('',(2.374562960237E1,-1.612564443702E2,4.842866282918E1));
#1372=(BOUNDED_SURFACE()B_SPLINE_SURFACE(3,3,((#1316,#1317,#1318,#1319,#1320,
#1321,#1322,#1323,#1324,#1325,#1326,#1327,#1328,#1329),(#1330,#1331,#1332,#1333,
#1334,#1335,#1336,#1337,#1338,#1339,#1340,#1341,#1342,#1343),(#1344,#1345,#1346,
#1347,#1348,#1349,#1350,#1351,#1352,#1353,#1354,#1355,#1356,#1357),(#1358,#1359,
#1360,#1361,#1362,#1363,#1364,#1365,#1366,#1367,#1368,#1369,#1370,#1371)),
.UNSPECIFIED.,.F.,.F.,.F.)B_SPLINE_SURFACE_WITH_KNOTS((4,4),(4,1,1,1,1,1,1,1,1,
1,1,4),(0.E0,1.E0),(-3.572618236382E-4,0.E0,1.081264364167E-1,2.166186996253E-1,
3.257183834219E-1,4.356713285091E-1,5.470189953361E-1,6.594468441484E-1,
7.726503572869E-1,8.865757488020E-1,1.E0,1.009921107124E0),.UNSPECIFIED.)GEOMETRIC_REPRESENTATION_ITEM()RATIONAL_B_SPLINE_SURFACE(((1.187280571406E0,
1.187280571406E0,1.187280571406E0,1.187280571406E0,1.187280571406E0,
1.187280571406E0,1.187280571406E0,1.187280571406E0,1.187280571406E0,
1.187280571406E0,1.187280571406E0,1.187280571406E0,1.187280571406E0,
1.187280571406E0),(9.375731428648E-1,9.375731428648E-1,9.375731428648E-1,
9.375731428648E-1,9.375731428648E-1,9.375731428648E-1,9.375731428648E-1,
9.375731428648E-1,9.375731428648E-1,9.375731428648E-1,9.375731428648E-1,
9.375731428648E-1,9.375731428648E-1,9.375731428648E-1),(9.375731428648E-1,
9.375731428648E-1,9.375731428648E-1,9.375731428648E-1,9.375731428648E-1,
9.375731428648E-1,9.375731428648E-1,9.375731428648E-1,9.375731428648E-1,
9.375731428648E-1,9.375731428648E-1,9.375731428648E-1,9.375731428648E-1,
9.375731428648E-1),(1.187280571406E0,1.187280571406E0,1.187280571406E0,
1.187280571406E0,1.187280571406E0,1.187280571406E0,1.187280571406E0,
1.187280571406E0,1.187280571406E0,1.187280571406E0,1.187280571406E0,
1.187280571406E0,1.187280571406E0,1.187280571406E0)))REPRESENTATION_ITEM('')SURFACE());
#1374=ORIENTED_EDGE('',*,*,#1373,.F.);
#1375=ORIENTED_EDGE('',*,*,#1280,.T.);
#1376=ORIENTED_EDGE('',*,*,#1306,.T.);
#1377=EDGE_LOOP('',(#1374,#1375,#1376));
#1378=FACE_OUTER_BOUND('',#1377,.F.);
#1379=ADVANCED_FACE('',(#1378),#1372,.F.);
#1380=CARTESIAN_POINT('',(2.5E1,-1.57E2,5.265E1));
#1381=DIRECTION('',(0.E0,1.E0,0.E0));
#1382=DIRECTION('',(0.E0,0.E0,1.E0));
#1383=AXIS2_PLACEMENT_3D('',#1380,#1381,#1382);
#1384=CYLINDRICAL_SURFACE('',#1383,5.E0);
#1385=ORIENTED_EDGE('',*,*,#1373,.T.);
#1386=ORIENTED_EDGE('',*,*,#1311,.F.);
#1387=ORIENTED_EDGE('',*,*,#1214,.T.);
#1388=ORIENTED_EDGE('',*,*,#1199,.T.);
#1389=ORIENTED_EDGE('',*,*,#1211,.F.);
#1390=EDGE_LOOP('',(#1385,#1386,#1387,#1388,#1389));
#1391=FACE_OUTER_BOUND('',#1390,.F.);
#1392=ADVANCED_FACE('',(#1391),#1384,.F.);
#1393=CARTESIAN_POINT('',(2.5E1,-1.57E2,5.265E1));
#1394=DIRECTION('',(0.E0,1.E0,0.E0));
#1395=DIRECTION('',(0.E0,0.E0,1.E0));
#1396=AXIS2_PLACEMENT_3D('',#1393,#1394,#1395);
#1397=CYLINDRICAL_SURFACE('',#1396,6.35E0);
#1398=ORIENTED_EDGE('',*,*,#988,.T.);
#1399=ORIENTED_EDGE('',*,*,#972,.F.);
#1400=ORIENTED_EDGE('',*,*,#938,.F.);
#1402=ORIENTED_EDGE('',*,*,#1401,.F.);
#1403=ORIENTED_EDGE('',*,*,#967,.T.);
#1404=EDGE_LOOP('',(#1398,#1399,#1400,#1402,#1403));
#1405=FACE_OUTER_BOUND('',#1404,.F.);
#1406=ADVANCED_FACE('',(#1405),#1397,.T.);
#1407=CARTESIAN_POINT('',(2.490265309402E1,-1.550983474976E2,5.899528855209E1));
#1408=CARTESIAN_POINT('',(2.491063778101E1,-1.550983076089E2,5.899541071106E1));
#1409=CARTESIAN_POINT('',(2.526818451144E1,-1.550967442643E2,5.900020222960E1));
#1410=CARTESIAN_POINT('',(2.597920338282E1,-1.551132953016E2,5.894971774455E1));
#1411=CARTESIAN_POINT('',(2.701197305277E1,-1.551931852649E2,5.870051725684E1));
#1412=CARTESIAN_POINT('',(2.800003739158E1,-1.553238670310E2,5.827783918085E1));
#1413=CARTESIAN_POINT('',(2.891484052731E1,-1.554997869250E2,5.768629556793E1));
#1414=CARTESIAN_POINT('',(2.972582091286E1,-1.557151435811E2,5.693644369601E1));
#1415=CARTESIAN_POINT('',(3.040218211526E1,-1.559634358993E2,5.604640036991E1));
#1416=CARTESIAN_POINT('',(3.091654259072E1,-1.562369132089E2,5.504243415039E1));
#1417=CARTESIAN_POINT('',(3.124684304843E1,-1.565265567658E2,5.395748041883E1));
#1418=CARTESIAN_POINT('',(3.133880846513E1,-1.567314284991E2,5.317630268220E1));
#1419=CARTESIAN_POINT('',(3.134756778321E1,-1.568378594257E2,5.276664515602E1));
#1420=CARTESIAN_POINT('',(3.134800552448E1,-1.568458477136E2,5.273587553721E1));
#1421=CARTESIAN_POINT('',(2.482159108168E1,-1.600187609730E2,5.914903865365E1));
#1422=CARTESIAN_POINT('',(2.483622097748E1,-1.600188263100E2,5.914936997213E1));
#1423=CARTESIAN_POINT('',(2.549138846749E1,-1.600213593695E2,5.916239163974E1));
#1424=CARTESIAN_POINT('',(2.679760087962E1,-1.599937439267E2,5.902310032269E1));
#1425=CARTESIAN_POINT('',(2.855370403915E1,-1.598809948338E2,5.837390664314E1));
#1426=CARTESIAN_POINT('',(3.000280298097E1,-1.597515254196E2,5.737915593205E1));
#1427=CARTESIAN_POINT('',(3.109305586540E1,-1.596576354965E2,5.614838163739E1));
#1428=CARTESIAN_POINT('',(3.181982423017E1,-1.596312424689E2,5.477708665261E1));
#1429=CARTESIAN_POINT('',(3.219875566516E1,-1.596850116655E2,5.334473484440E1));
#1430=CARTESIAN_POINT('',(3.225539209683E1,-1.598185130262E2,5.191931221220E1));
#1431=CARTESIAN_POINT('',(3.202106071588E1,-1.600247729839E2,5.056094195571E1));
#1432=CARTESIAN_POINT('',(3.168475761798E1,-1.602102006899E2,4.970302557385E1));
#1433=CARTESIAN_POINT('',(3.146888610139E1,-1.603176549471E2,4.928559287765E1));
#1434=CARTESIAN_POINT('',(3.145245378692E1,-1.603257868883E2,4.925441854795E1));
#1435=CARTESIAN_POINT('',(2.482160215484E1,-1.634998744232E2,5.566729324886E1));
#1436=CARTESIAN_POINT('',(2.483622860319E1,-1.635000142057E2,5.566769745481E1));
#1437=CARTESIAN_POINT('',(2.549127876541E1,-1.635054454051E2,5.568359578033E1));
#1438=CARTESIAN_POINT('',(2.679952674169E1,-1.634465828875E2,5.551257570469E1));
#1439=CARTESIAN_POINT('',(2.846277632312E1,-1.631975447587E2,5.473280156228E1));
#1440=CARTESIAN_POINT('',(2.966630288443E1,-1.628840225657E2,5.358874677343E1));
#1441=CARTESIAN_POINT('',(3.035860227479E1,-1.625992465335E2,5.225853321338E1));
#1442=CARTESIAN_POINT('',(3.056989829394E1,-1.624018194902E2,5.088933755778E1));
#1443=CARTESIAN_POINT('',(3.036475812859E1,-1.623179667047E2,4.959201222925E1));
#1444=CARTESIAN_POINT('',(2.982011002177E1,-1.623524373315E2,4.844800499366E1));
#1445=CARTESIAN_POINT('',(2.901597375996E1,-1.624997047330E2,4.751727387977E1));
#1446=CARTESIAN_POINT('',(2.833709212168E1,-1.626713761021E2,4.704877281830E1));
#1447=CARTESIAN_POINT('',(2.796384582397E1,-1.627795543493E2,4.685758435430E1));
#1448=CARTESIAN_POINT('',(2.793571885475E1,-1.627877879229E2,4.684352501847E1));
#1449=CARTESIAN_POINT('',(2.490267932675E1,-1.633452357314E2,5.074690319404E1));
#1450=CARTESIAN_POINT('',(2.491065584662E1,-1.633453722069E2,5.074719802616E1));
#1451=CARTESIAN_POINT('',(2.526792462309E1,-1.633506746646E2,5.075880445510E1));
#1452=CARTESIAN_POINT('',(2.598376582227E1,-1.632932002106E2,5.063315335179E1));
#1453=CARTESIAN_POINT('',(2.679656188556E1,-1.630502163395E2,5.007460285347E1));
#1454=CARTESIAN_POINT('',(2.720285605102E1,-1.627448701745E2,4.929821782144E1));
#1455=CARTESIAN_POINT('',(2.717489244420E1,-1.624685737217E2,4.847109886187E1));
#1456=CARTESIAN_POINT('',(2.676469952331E1,-1.622787443844E2,4.772622037944E1));
#1457=CARTESIAN_POINT('',(2.605737321381E1,-1.622010050692E2,4.715605984444E1));
#1458=CARTESIAN_POINT('',(2.514726808174E1,-1.622398748582E2,4.681877724679E1));
#1459=CARTESIAN_POINT('',(2.412767942070E1,-1.623897628384E2,4.674691667174E1));
#1460=CARTESIAN_POINT('',(2.340806343555E1,-1.625620452942E2,4.688827842422E1));
#1461=CARTESIAN_POINT('',(2.304399599881E1,-1.626701913801E2,4.701460196364E1));
#1462=CARTESIAN_POINT('',(2.301672866468E1,-1.626784204390E2,4.702437840678E1));
#1463=(BOUNDED_SURFACE()B_SPLINE_SURFACE(3,3,((#1407,#1408,#1409,#1410,#1411,
#1412,#1413,#1414,#1415,#1416,#1417,#1418,#1419,#1420),(#1421,#1422,#1423,#1424,
#1425,#1426,#1427,#1428,#1429,#1430,#1431,#1432,#1433,#1434),(#1435,#1436,#1437,
#1438,#1439,#1440,#1441,#1442,#1443,#1444,#1445,#1446,#1447,#1448),(#1449,#1450,
#1451,#1452,#1453,#1454,#1455,#1456,#1457,#1458,#1459,#1460,#1461,#1462)),
.UNSPECIFIED.,.F.,.F.,.F.)B_SPLINE_SURFACE_WITH_KNOTS((4,4),(4,1,1,1,1,1,1,1,1,
1,1,4),(0.E0,1.E0),(-2.428098721413E-3,0.E0,1.062925532358E-1,2.131952737258E-1,
3.210913587466E-1,4.303906441310E-1,5.416656250293E-1,6.547095146411E-1,
7.690861492572E-1,8.846445077738E-1,1.E0,1.009360812360E0),.UNSPECIFIED.)GEOMETRIC_REPRESENTATION_ITEM()RATIONAL_B_SPLINE_SURFACE(((1.187282725209E0,
1.187282725209E0,1.187282725209E0,1.187282725209E0,1.187282725209E0,
1.187282725209E0,1.187282725209E0,1.187282725209E0,1.187282725209E0,
1.187282725209E0,1.187282725209E0,1.187282725209E0,1.187282725209E0,
1.187282725209E0),(9.375724249303E-1,9.375724249303E-1,9.375724249303E-1,
9.375724249303E-1,9.375724249303E-1,9.375724249303E-1,9.375724249303E-1,
9.375724249303E-1,9.375724249303E-1,9.375724249303E-1,9.375724249303E-1,
9.375724249303E-1,9.375724249303E-1,9.375724249303E-1),(9.375724249303E-1,
9.375724249303E-1,9.375724249303E-1,9.375724249303E-1,9.375724249303E-1,
9.375724249303E-1,9.375724249303E-1,9.375724249303E-1,9.375724249303E-1,
9.375724249303E-1,9.375724249303E-1,9.375724249303E-1,9.375724249303E-1,
9.375724249303E-1),(1.187282725209E0,1.187282725209E0,1.187282725209E0,
1.187282725209E0,1.187282725209E0,1.187282725209E0,1.187282725209E0,
1.187282725209E0,1.187282725209E0,1.187282725209E0,1.187282725209E0,
1.187282725209E0,1.187282725209E0,1.187282725209E0)))REPRESENTATION_ITEM('')SURFACE());
#1464=ORIENTED_EDGE('',*,*,#936,.F.);
#1466=ORIENTED_EDGE('',*,*,#1465,.F.);
#1467=ORIENTED_EDGE('',*,*,#1401,.T.);
#1468=EDGE_LOOP('',(#1464,#1466,#1467));
#1469=FACE_OUTER_BOUND('',#1468,.F.);
#1470=ADVANCED_FACE('',(#1469),#1463,.T.);
#1471=CARTESIAN_POINT('',(1.865199599671E1,-1.568458261964E2,5.273594129711E1));
#1472=CARTESIAN_POINT('',(1.865243357555E1,-1.568378430898E2,5.276669091059E1));
#1473=CARTESIAN_POINT('',(1.866118995885E1,-1.567314491266E2,5.317620575836E1));
#1474=CARTESIAN_POINT('',(1.875310720593E1,-1.565266426704E2,5.395713673036E1));
#1475=CARTESIAN_POINT('',(1.908321834926E1,-1.562370814181E2,5.504179044149E1));
#1476=CARTESIAN_POINT('',(1.959727254253E1,-1.559636804479E2,5.604549145889E1));
#1477=CARTESIAN_POINT('',(2.027324864105E1,-1.557154364592E2,5.693538530526E1));
#1478=CARTESIAN_POINT('',(2.108378766421E1,-1.555000971882E2,5.768520945135E1));
#1479=CARTESIAN_POINT('',(2.199818598658E1,-1.553241516481E2,5.827687569610E1));
#1480=CARTESIAN_POINT('',(2.298585369397E1,-1.551934101433E2,5.869977862435E1));
#1481=CARTESIAN_POINT('',(2.401826508633E1,-1.551134200688E2,5.894930856726E1));
#1482=CARTESIAN_POINT('',(2.473000776301E1,-1.550967531933E2,5.900014777840E1));
#1483=CARTESIAN_POINT('',(2.508839921373E1,-1.550982943123E2,5.899542519718E1));
#1484=CARTESIAN_POINT('',(2.509731402438E1,-1.550983388512E2,5.899528883208E1));
#1485=CARTESIAN_POINT('',(1.854750965484E1,-1.603257675447E2,4.925448256318E1));
#1486=CARTESIAN_POINT('',(1.853108812909E1,-1.603176410993E2,4.928563674693E1));
#1487=CARTESIAN_POINT('',(1.831529171764E1,-1.602102261706E2,4.970292443923E1));
#1488=CARTESIAN_POINT('',(1.797907538226E1,-1.600248496729E2,5.056055380955E1));
#1489=CARTESIAN_POINT('',(1.774469092447E1,-1.598186217147E2,5.191846840039E1));
#1490=CARTESIAN_POINT('',(1.780107657909E1,-1.596851066891E2,5.334337949449E1));
#1491=CARTESIAN_POINT('',(1.817951855292E1,-1.596312648527E2,5.477529018356E1));
#1492=CARTESIAN_POINT('',(1.890552954846E1,-1.596575364862E2,5.614627504971E1));
#1493=CARTESIAN_POINT('',(1.999485067525E1,-1.597513026389E2,5.737702864376E1));
#1494=CARTESIAN_POINT('',(2.144285260126E1,-1.598807075E2,5.837207265580E1));
#1495=CARTESIAN_POINT('',(2.319787814750E1,-1.599935271460E2,5.902199631839E1));
#1496=CARTESIAN_POINT('',(2.450529103810E1,-1.600213298358E2,5.916225135804E1));
#1497=CARTESIAN_POINT('',(2.516201462890E1,-1.600188290119E2,5.914941497586E1));
#1498=CARTESIAN_POINT('',(2.517834878763E1,-1.600187558611E2,5.914904516377E1));
#1499=CARTESIAN_POINT('',(2.206422273816E1,-1.627877714953E2,4.684355269985E1));
#1500=CARTESIAN_POINT('',(2.203611409016E1,-1.627795436399E2,4.685760307699E1));
#1501=CARTESIAN_POINT('',(2.166299763809E1,-1.626714063942E2,4.704872528109E1));
#1502=CARTESIAN_POINT('',(2.098432173092E1,-1.624997762875E2,4.751705084684E1));
#1503=CARTESIAN_POINT('',(2.018033191718E1,-1.623525053286E2,4.844738925815E1));
#1504=CARTESIAN_POINT('',(1.963564367927E1,-1.623179574158E2,4.959086667492E1));
#1505=CARTESIAN_POINT('',(1.943016055201E1,-1.624016520546E2,5.088763647530E1));
#1506=CARTESIAN_POINT('',(1.964073365136E1,-1.625988596154E2,5.225634512610E1));
#1507=CARTESIAN_POINT('',(2.033197171164E1,-1.628834425626E2,5.358637059265E1));
#1508=CARTESIAN_POINT('',(2.153414914626E1,-1.631968968994E2,5.473063739154E1));
#1509=CARTESIAN_POINT('',(2.319603427772E1,-1.634461264001E2,5.551122667653E1));
#1510=CARTESIAN_POINT('',(2.450539622658E1,-1.635053906101E2,5.568342314541E1));
#1511=CARTESIAN_POINT('',(2.516200735386E1,-1.635000301750E2,5.566775010205E1));
#1512=CARTESIAN_POINT('',(2.517833768588E1,-1.634998737606E2,5.566729895100E1));
#1513=CARTESIAN_POINT('',(2.698321833377E1,-1.626784038964E2,4.702435998392E1));
#1514=CARTESIAN_POINT('',(2.695596869116E1,-1.626701805459E2,4.701459005195E1));
#1515=CARTESIAN_POINT('',(2.659202812551E1,-1.625620753871E2,4.688831055923E1));
#1516=CARTESIAN_POINT('',(2.587264608076E1,-1.623898346356E2,4.674696653305E1));
#1517=CARTESIAN_POINT('',(2.485334123469E1,-1.622399446779E2,4.681867658532E1));
#1518=CARTESIAN_POINT('',(2.394342932068E1,-1.622010004295E2,4.715565089420E1));
#1519=CARTESIAN_POINT('',(2.323606542810E1,-1.622785853974E2,4.772539101638E1));
#1520=CARTESIAN_POINT('',(2.282551316163E1,-1.624681996106E2,4.846982272478E1));
#1521=CARTESIAN_POINT('',(2.279683809215E1,-1.627443060585E2,4.929666767816E1));
#1522=CARTESIAN_POINT('',(2.320213855912E1,-1.630495845151E2,5.007308486406E1));
#1523=CARTESIAN_POINT('',(2.401389689116E1,-1.632927543919E2,5.063216646111E1));
#1524=CARTESIAN_POINT('',(2.473025695838E1,-1.633506210124E2,5.075867609015E1));
#1525=CARTESIAN_POINT('',(2.508838197891E1,-1.633453876074E2,5.074723335450E1));
#1526=CARTESIAN_POINT('',(2.509728772391E1,-1.633452348918E2,5.074690429442E1));
#1527=(BOUNDED_SURFACE()B_SPLINE_SURFACE(3,3,((#1471,#1472,#1473,#1474,#1475,
#1476,#1477,#1478,#1479,#1480,#1481,#1482,#1483,#1484),(#1485,#1486,#1487,#1488,
#1489,#1490,#1491,#1492,#1493,#1494,#1495,#1496,#1497,#1498),(#1499,#1500,#1501,
#1502,#1503,#1504,#1505,#1506,#1507,#1508,#1509,#1510,#1511,#1512),(#1513,#1514,
#1515,#1516,#1517,#1518,#1519,#1520,#1521,#1522,#1523,#1524,#1525,#1526)),
.UNSPECIFIED.,.F.,.F.,.F.)B_SPLINE_SURFACE_WITH_KNOTS((4,4),(4,1,1,1,1,1,1,1,1,
1,1,4),(0.E0,1.E0),(-9.357590522901E-3,0.E0,1.153531278949E-1,2.309069104825E-1,
3.452872782345E-1,4.583169635554E-1,5.695954068886E-1,6.788993741470E-1,
7.868002222480E-1,8.937030104492E-1,1.E0,1.002711742223E0),.UNSPECIFIED.)GEOMETRIC_REPRESENTATION_ITEM()RATIONAL_B_SPLINE_SURFACE(((1.187283001988E0,
1.187283001988E0,1.187283001988E0,1.187283001988E0,1.187283001988E0,
1.187283001988E0,1.187283001988E0,1.187283001988E0,1.187283001988E0,
1.187283001988E0,1.187283001988E0,1.187283001988E0,1.187283001988E0,
1.187283001988E0),(9.375723326706E-1,9.375723326706E-1,9.375723326706E-1,
9.375723326706E-1,9.375723326706E-1,9.375723326706E-1,9.375723326706E-1,
9.375723326706E-1,9.375723326706E-1,9.375723326706E-1,9.375723326706E-1,
9.375723326706E-1,9.375723326706E-1,9.375723326706E-1),(9.375723326706E-1,
9.375723326706E-1,9.375723326706E-1,9.375723326706E-1,9.375723326706E-1,
9.375723326706E-1,9.375723326706E-1,9.375723326706E-1,9.375723326706E-1,
9.375723326706E-1,9.375723326706E-1,9.375723326706E-1,9.375723326706E-1,
9.375723326706E-1),(1.187283001988E0,1.187283001988E0,1.187283001988E0,
1.187283001988E0,1.187283001988E0,1.187283001988E0,1.187283001988E0,
1.187283001988E0,1.187283001988E0,1.187283001988E0,1.187283001988E0,
1.187283001988E0,1.187283001988E0,1.187283001988E0)))REPRESENTATION_ITEM('')SURFACE());
#1528=ORIENTED_EDGE('',*,*,#969,.T.);
#1529=ORIENTED_EDGE('',*,*,#1465,.T.);
#1530=ORIENTED_EDGE('',*,*,#954,.F.);
#1531=EDGE_LOOP('',(#1528,#1529,#1530));
#1532=FACE_OUTER_BOUND('',#1531,.F.);
#1533=ADVANCED_FACE('',(#1532),#1527,.T.);
#1534=CARTESIAN_POINT('',(2.5E1,-1.57E2,2.5E1));
#1535=DIRECTION('',(0.E0,0.E0,-1.E0));
#1536=DIRECTION('',(0.E0,-1.E0,0.E0));
#1537=AXIS2_PLACEMENT_3D('',#1534,#1535,#1536);
#1539=DIRECTION('',(0.E0,0.E0,-1.E0));
#1540=VECTOR('',#1539,1.E0);
#1541=SURFACE_OF_LINEAR_EXTRUSION('',#1538,#1540);
#1542=ORIENTED_EDGE('',*,*,#763,.F.);
#1543=ORIENTED_EDGE('',*,*,#746,.F.);
#1544=ORIENTED_EDGE('',*,*,#722,.T.);
#1545=ORIENTED_EDGE('',*,*,#743,.T.);
#1546=EDGE_LOOP('',(#1542,#1543,#1544,#1545));
#1547=FACE_OUTER_BOUND('',#1546,.F.);
#1548=ADVANCED_FACE('',(#1547),#1541,.T.);
#1549=CLOSED_SHELL('',(#732,#750,#767,#782,#795,#811,#826,#839,#855,#870,#883,
#898,#911,#927,#944,#959,#976,#993,#1008,#1021,#1036,#1049,#1065,#1080,#1093,
#1109,#1124,#1137,#1153,#1171,#1187,#1203,#1220,#1285,#1300,#1315,#1379,#1392,
#1406,#1470,#1533,#1548));
#1550=MANIFOLD_SOLID_BREP('',#1549);
#1552=DIMENSIONAL_EXPONENTS(0.E0,0.E0,0.E0,0.E0,0.E0,0.E0,0.E0);
#1554=PLANE_ANGLE_MEASURE_WITH_UNIT(PLANE_ANGLE_MEASURE(1.745329251994E-2),
#1553);
#1555=(CONVERSION_BASED_UNIT('DEGREE',#1554)NAMED_UNIT(*)PLANE_ANGLE_UNIT());
#1557=UNCERTAINTY_MEASURE_WITH_UNIT(LENGTH_MEASURE(5.688222993951E-3),#1551,
'closure',
'Maximum model space distance between geometric entities at asserted connectivities');
#1558=(GEOMETRIC_REPRESENTATION_CONTEXT(3)GLOBAL_UNCERTAINTY_ASSIGNED_CONTEXT((
#1557))GLOBAL_UNIT_ASSIGNED_CONTEXT((#1551,#1555,#1556))REPRESENTATION_CONTEXT(
'ID1','3'));
#1560=APPLICATION_CONTEXT(
'CONFIGURATION CONTROLLED 3D DESIGNS OF MECHANICAL PARTS AND ASSEMBLIES');
#1561=APPLICATION_PROTOCOL_DEFINITION('international standard',
'config_control_design',1994,#1560);
#1562=DESIGN_CONTEXT('',#1560,'design');
#1563=MECHANICAL_CONTEXT('',#1560,'mechanical');
#1564=PRODUCT('FTY-04-010','FTY-04-010','NOT SPECIFIED',(#1563));
#1565=PRODUCT_DEFINITION_FORMATION_WITH_SPECIFIED_SOURCE('1','LAST_VERSION',
#1564,.MADE.);
#1569=PRODUCT_CATEGORY('part','');
#1570=PRODUCT_RELATED_PRODUCT_CATEGORY('detail','',(#1564));
#1571=PRODUCT_CATEGORY_RELATIONSHIP('','',#1569,#1570);
#1572=SECURITY_CLASSIFICATION_LEVEL('unclassified');
#1573=SECURITY_CLASSIFICATION('','',#1572);
#1574=CC_DESIGN_SECURITY_CLASSIFICATION(#1573,(#1565));
#1575=APPROVAL_STATUS('approved');
#1576=APPROVAL(#1575,'');
#1577=CC_DESIGN_APPROVAL(#1576,(#1573,#1565,#1566));
#1578=CALENDAR_DATE(126,30,6);
#1579=COORDINATED_UNIVERSAL_TIME_OFFSET(8,0,.AHEAD.);
#1580=LOCAL_TIME(15,26,5.9E1,#1579);
#1581=DATE_AND_TIME(#1578,#1580);
#1582=APPROVAL_DATE_TIME(#1581,#1576);
#1583=DATE_TIME_ROLE('creation_date');
#1584=CC_DESIGN_DATE_AND_TIME_ASSIGNMENT(#1581,#1583,(#1566));
#1585=DATE_TIME_ROLE('classification_date');
#1586=CC_DESIGN_DATE_AND_TIME_ASSIGNMENT(#1581,#1585,(#1573));
#1587=PERSON('UNSPECIFIED','UNSPECIFIED',$,$,$,$);
#1588=ORGANIZATION('UNSPECIFIED','UNSPECIFIED','UNSPECIFIED');
#1589=PERSON_AND_ORGANIZATION(#1587,#1588);
#1590=APPROVAL_ROLE('approver');
#1591=APPROVAL_PERSON_ORGANIZATION(#1589,#1576,#1590);
#1592=PERSON_AND_ORGANIZATION_ROLE('creator');
#1593=CC_DESIGN_PERSON_AND_ORGANIZATION_ASSIGNMENT(#1589,#1592,(#1565,#1566));
#1594=PERSON_AND_ORGANIZATION_ROLE('design_supplier');
#1595=CC_DESIGN_PERSON_AND_ORGANIZATION_ASSIGNMENT(#1589,#1594,(#1565));
#1596=PERSON_AND_ORGANIZATION_ROLE('classification_officer');
#1597=CC_DESIGN_PERSON_AND_ORGANIZATION_ASSIGNMENT(#1589,#1596,(#1573));
#1598=PERSON_AND_ORGANIZATION_ROLE('design_owner');
#1599=CC_DESIGN_PERSON_AND_ORGANIZATION_ASSIGNMENT(#1589,#1598,(#1564));
#21=B_SPLINE_CURVE_WITH_KNOTS('',3,(#2,#3,#4,#5,#6,#7,#8,#9,#10,#11,#12,#13,#14,
#15,#16,#17,#18,#19,#20),.UNSPECIFIED.,.F.,.F.,(4,1,1,1,1,1,1,1,1,1,1,1,1,1,1,1,
4),(0.E0,1.25E-1,1.875E-1,2.5E-1,3.125E-1,3.75E-1,4.375E-1,4.6875E-1,5.E-1,
5.3125E-1,5.625E-1,6.25E-1,6.875E-1,7.5E-1,8.125E-1,8.75E-1,1.E0),
.UNSPECIFIED.);
#41=B_SPLINE_CURVE_WITH_KNOTS('',3,(#22,#23,#24,#25,#26,#27,#28,#29,#30,#31,#32,
#33,#34,#35,#36,#37,#38,#39,#40),.UNSPECIFIED.,.F.,.F.,(4,1,1,1,1,1,1,1,1,1,1,1,
1,1,1,1,4),(0.E0,1.25E-1,1.875E-1,2.5E-1,3.125E-1,3.75E-1,4.375E-1,4.6875E-1,
5.E-1,5.3125E-1,5.625E-1,6.25E-1,6.875E-1,7.5E-1,8.125E-1,8.75E-1,1.E0),
.UNSPECIFIED.);
#46=CIRCLE('',#45,5.E0);
#51=CIRCLE('',#50,5.E0);
#60=CIRCLE('',#59,9.5E0);
#65=CIRCLE('',#64,9.5E0);
#85=B_SPLINE_CURVE_WITH_KNOTS('',3,(#66,#67,#68,#69,#70,#71,#72,#73,#74,#75,#76,
#77,#78,#79,#80,#81,#82,#83,#84),.UNSPECIFIED.,.F.,.F.,(4,1,1,1,1,1,1,1,1,1,1,1,
1,1,1,1,4),(0.E0,1.25E-1,1.875E-1,2.5E-1,3.125E-1,3.75E-1,4.375E-1,4.6875E-1,
5.E-1,5.3125E-1,5.625E-1,6.25E-1,6.875E-1,7.5E-1,8.125E-1,8.75E-1,1.E0),
.UNSPECIFIED.);
#105=B_SPLINE_CURVE_WITH_KNOTS('',3,(#86,#87,#88,#89,#90,#91,#92,#93,#94,#95,
#96,#97,#98,#99,#100,#101,#102,#103,#104),.UNSPECIFIED.,.F.,.F.,(4,1,1,1,1,1,1,
1,1,1,1,1,1,1,1,1,4),(0.E0,1.25E-1,1.875E-1,2.5E-1,3.125E-1,3.75E-1,4.375E-1,
4.6875E-1,5.E-1,5.3125E-1,5.625E-1,6.25E-1,6.875E-1,7.5E-1,8.125E-1,8.75E-1,
1.E0),.UNSPECIFIED.);
#110=CIRCLE('',#109,9.5E0);
#119=CIRCLE('',#118,9.5E0);
#128=CIRCLE('',#127,1.E1);
#133=CIRCLE('',#132,1.E1);
#138=CIRCLE('',#137,1.E1);
#147=CIRCLE('',#146,1.E1);
#156=CIRCLE('',#155,8.75E0);
#161=CIRCLE('',#160,8.75E0);
#166=CIRCLE('',#165,8.75E0);
#175=CIRCLE('',#174,8.75E0);
#188=CIRCLE('',#187,7.35E0);
#197=CIRCLE('',#196,7.35E0);
#202=CIRCLE('',#201,6.35E0);
#219=B_SPLINE_CURVE_WITH_KNOTS('',3,(#207,#208,#209,#210,#211,#212,#213,#214,
#215,#216,#217,#218),.UNSPECIFIED.,.F.,.F.,(4,1,1,1,1,1,1,1,1,4),(0.E0,
1.111111111111E-1,2.222222222222E-1,3.333333333333E-1,4.444444444444E-1,
5.555555555556E-1,6.666666666667E-1,7.777777777778E-1,8.888888888889E-1,1.E0),
.UNSPECIFIED.);
#224=CIRCLE('',#223,6.35E0);
#241=B_SPLINE_CURVE_WITH_KNOTS('',3,(#229,#230,#231,#232,#233,#234,#235,#236,
#237,#238,#239,#240),.UNSPECIFIED.,.F.,.F.,(4,1,1,1,1,1,1,1,1,4),(0.E0,
1.111111111111E-1,2.222222222222E-1,3.333333333333E-1,4.444444444444E-1,
5.555555555556E-1,6.666666666667E-1,7.777777777778E-1,8.888888888889E-1,1.E0),
.UNSPECIFIED.);
#246=CIRCLE('',#245,6.35E0);
#259=B_SPLINE_CURVE_WITH_KNOTS('',3,(#247,#248,#249,#250,#251,#252,#253,#254,
#255,#256,#257,#258),.UNSPECIFIED.,.F.,.F.,(4,1,1,1,1,1,1,1,1,4),(0.E0,
1.111111111111E-1,2.222222222222E-1,3.333333333333E-1,4.444444444444E-1,
5.555555555556E-1,6.666666666667E-1,7.777777777778E-1,8.888888888889E-1,1.E0),
.UNSPECIFIED.);
#273=B_SPLINE_CURVE_WITH_KNOTS('',3,(#260,#261,#262,#263,#264,#265,#266,#267,
#268,#269,#270,#271,#272),.UNSPECIFIED.,.F.,.F.,(4,1,1,1,1,1,1,1,1,1,4),(0.E0,
1.E-1,2.E-1,3.E-1,4.E-1,5.E-1,6.E-1,7.E-1,8.E-1,9.E-1,1.E0),.UNSPECIFIED.);
#282=CIRCLE('',#281,7.5E0);
#287=CIRCLE('',#286,7.5E0);
#292=CIRCLE('',#291,8.75E0);
#301=CIRCLE('',#300,8.75E0);
#314=CIRCLE('',#313,8.75E0);
#323=CIRCLE('',#322,8.75E0);
#328=CIRCLE('',#327,1.E1);
#333=CIRCLE('',#332,1.E1);
#338=CIRCLE('',#337,1.E1);
#347=CIRCLE('',#346,1.E1);
#356=CIRCLE('',#355,9.5E0);
#361=CIRCLE('',#360,9.5E0);
#366=CIRCLE('',#365,9.5E0);
#375=CIRCLE('',#374,9.5E0);
#399=B_SPLINE_CURVE_WITH_KNOTS('',3,(#380,#381,#382,#383,#384,#385,#386,#387,
#388,#389,#390,#391,#392,#393,#394,#395,#396,#397,#398),.UNSPECIFIED.,.F.,.F.,
(4,1,1,1,1,1,1,1,1,1,1,1,1,1,1,1,4),(0.E0,1.25E-1,1.875E-1,2.5E-1,3.125E-1,
3.75E-1,4.375E-1,4.6875E-1,5.E-1,5.3125E-1,5.625E-1,6.25E-1,6.875E-1,7.5E-1,
8.125E-1,8.75E-1,1.E0),.UNSPECIFIED.);
#419=B_SPLINE_CURVE_WITH_KNOTS('',3,(#400,#401,#402,#403,#404,#405,#406,#407,
#408,#409,#410,#411,#412,#413,#414,#415,#416,#417,#418),.UNSPECIFIED.,.F.,.F.,
(4,1,1,1,1,1,1,1,1,1,1,1,1,1,1,1,4),(0.E0,1.25E-1,1.875E-1,2.5E-1,3.125E-1,
3.75E-1,4.375E-1,4.6875E-1,5.E-1,5.3125E-1,5.625E-1,6.25E-1,6.875E-1,7.5E-1,
8.125E-1,8.75E-1,1.E0),.UNSPECIFIED.);
#447=B_SPLINE_CURVE_WITH_KNOTS('',3,(#428,#429,#430,#431,#432,#433,#434,#435,
#436,#437,#438,#439,#440,#441,#442,#443,#444,#445,#446),.UNSPECIFIED.,.F.,.F.,
(4,1,1,1,1,1,1,1,1,1,1,1,1,1,1,1,4),(0.E0,1.25E-1,1.875E-1,2.5E-1,3.125E-1,
3.75E-1,4.375E-1,4.6875E-1,5.E-1,5.3125E-1,5.625E-1,6.25E-1,6.875E-1,7.5E-1,
8.125E-1,8.75E-1,1.E0),.UNSPECIFIED.);
#467=B_SPLINE_CURVE_WITH_KNOTS('',3,(#448,#449,#450,#451,#452,#453,#454,#455,
#456,#457,#458,#459,#460,#461,#462,#463,#464,#465,#466),.UNSPECIFIED.,.F.,.F.,
(4,1,1,1,1,1,1,1,1,1,1,1,1,1,1,1,4),(0.E0,1.25E-1,1.875E-1,2.5E-1,3.125E-1,
3.75E-1,4.375E-1,4.6875E-1,5.E-1,5.3125E-1,5.625E-1,6.25E-1,6.875E-1,7.5E-1,
8.125E-1,8.75E-1,1.E0),.UNSPECIFIED.);
#472=CIRCLE('',#471,5.E0);
#477=CIRCLE('',#476,5.E0);
#490=B_SPLINE_CURVE_WITH_KNOTS('',3,(#478,#479,#480,#481,#482,#483,#484,#485,
#486,#487,#488,#489),.UNSPECIFIED.,.F.,.F.,(4,1,1,1,1,1,1,1,1,4),(0.E0,
1.111111111111E-1,2.222222222222E-1,3.333333333333E-1,4.444444444444E-1,
5.555555555556E-1,6.666666666667E-1,7.777777777778E-1,8.888888888889E-1,1.E0),
.UNSPECIFIED.);
#508=B_SPLINE_CURVE_WITH_KNOTS('',3,(#495,#496,#497,#498,#499,#500,#501,#502,
#503,#504,#505,#506,#507),.UNSPECIFIED.,.F.,.F.,(4,1,1,1,1,1,1,1,1,1,4),(0.E0,
1.E-1,2.E-1,3.E-1,4.E-1,5.E-1,6.E-1,7.E-1,8.E-1,9.E-1,1.E0),.UNSPECIFIED.);
#521=B_SPLINE_CURVE_WITH_KNOTS('',3,(#509,#510,#511,#512,#513,#514,#515,#516,
#517,#518,#519,#520),.UNSPECIFIED.,.F.,.F.,(4,1,1,1,1,1,1,1,1,4),(0.E0,
1.111111111111E-1,2.222222222222E-1,3.333333333333E-1,4.444444444444E-1,
5.555555555556E-1,6.666666666667E-1,7.777777777778E-1,8.888888888889E-1,1.E0),
.UNSPECIFIED.);
#538=B_SPLINE_CURVE_WITH_KNOTS('',3,(#526,#527,#528,#529,#530,#531,#532,#533,
#534,#535,#536,#537),.UNSPECIFIED.,.F.,.F.,(4,1,1,1,1,1,1,1,1,4),(0.E0,
1.111111111111E-1,2.222222222222E-1,3.333333333333E-1,4.444444444444E-1,
5.555555555556E-1,6.666666666667E-1,7.777777777778E-1,8.888888888889E-1,1.E0),
.UNSPECIFIED.);
#547=CIRCLE('',#546,5.999994208012E0);
#560=B_SPLINE_CURVE_WITH_KNOTS('',3,(#548,#549,#550,#551,#552,#553,#554,#555,
#556,#557,#558,#559),.UNSPECIFIED.,.F.,.F.,(4,1,1,1,1,1,1,1,1,4),(0.E0,
1.111111111111E-1,2.222222222222E-1,3.333333333333E-1,4.444444444444E-1,
5.555555555556E-1,6.666666666667E-1,7.777777777778E-1,8.888888888889E-1,1.E0),
.UNSPECIFIED.);
#574=B_SPLINE_CURVE_WITH_KNOTS('',3,(#561,#562,#563,#564,#565,#566,#567,#568,
#569,#570,#571,#572,#573),.UNSPECIFIED.,.F.,.F.,(4,1,1,1,1,1,1,1,1,1,4),(0.E0,
1.E-1,2.E-1,3.E-1,4.E-1,5.E-1,6.E-1,7.E-1,8.E-1,9.E-1,1.E0),.UNSPECIFIED.);
#583=CIRCLE('',#582,6.35E0);
#597=B_SPLINE_CURVE_WITH_KNOTS('',3,(#584,#585,#586,#587,#588,#589,#590,#591,
#592,#593,#594,#595,#596),.UNSPECIFIED.,.F.,.F.,(4,1,1,1,1,1,1,1,1,1,4),(0.E0,
1.E-1,2.E-1,3.E-1,4.E-1,5.E-1,6.E-1,7.E-1,8.E-1,9.E-1,1.E0),.UNSPECIFIED.);
#610=B_SPLINE_CURVE_WITH_KNOTS('',3,(#598,#599,#600,#601,#602,#603,#604,#605,
#606,#607,#608,#609),.UNSPECIFIED.,.F.,.F.,(4,1,1,1,1,1,1,1,1,4),(0.E0,
1.111111111111E-1,2.222222222222E-1,3.333333333333E-1,4.444444444444E-1,
5.555555555556E-1,6.666666666667E-1,7.777777777778E-1,8.888888888889E-1,1.E0),
.UNSPECIFIED.);
#619=CIRCLE('',#618,7.999994212684E0);
#720=EDGE_CURVE('',#711,#712,#21,.T.);
#722=EDGE_CURVE('',#712,#711,#41,.T.);
#726=EDGE_CURVE('',#626,#627,#46,.T.);
#728=EDGE_CURVE('',#627,#626,#51,.T.);
#737=ELLIPSE('',#736,8.25E0,7.25E0);
#741=EDGE_CURVE('',#713,#714,#85,.T.);
#743=EDGE_CURVE('',#711,#713,#55,.T.);
#746=EDGE_CURVE('',#712,#714,#623,.T.);
#756=EDGE_CURVE('',#692,#706,#60,.T.);
#758=EDGE_CURVE('',#692,#706,#65,.T.);
#763=EDGE_CURVE('',#714,#713,#105,.T.);
#773=EDGE_CURVE('',#691,#692,#114,.T.);
#776=EDGE_CURVE('',#705,#706,#123,.T.);
#778=EDGE_CURVE('',#691,#705,#110,.T.);
#789=EDGE_CURVE('',#691,#705,#119,.T.);
#801=EDGE_CURVE('',#688,#702,#128,.T.);
#803=EDGE_CURVE('',#688,#702,#133,.T.);
#817=EDGE_CURVE('',#687,#688,#142,.T.);
#820=EDGE_CURVE('',#701,#702,#151,.T.);
#822=EDGE_CURVE('',#687,#701,#138,.T.);
#833=EDGE_CURVE('',#687,#701,#147,.T.);
#849=EDGE_CURVE('',#684,#698,#156,.T.);
#851=EDGE_CURVE('',#684,#698,#161,.T.);
#861=EDGE_CURVE('',#682,#684,#170,.T.);
#864=EDGE_CURVE('',#696,#698,#179,.T.);
#866=EDGE_CURVE('',#682,#696,#166,.T.);
#877=EDGE_CURVE('',#682,#696,#175,.T.);
#889=EDGE_CURVE('',#681,#682,#183,.T.);
#891=EDGE_CURVE('',#681,#695,#188,.T.);
#893=EDGE_CURVE('',#695,#696,#192,.T.);
#907=EDGE_CURVE('',#681,#695,#197,.T.);
#921=EDGE_CURVE('',#709,#710,#202,.T.);
#923=EDGE_CURVE('',#710,#709,#224,.T.);
#934=EDGE_CURVE('',#709,#634,#206,.T.);
#936=EDGE_CURVE('',#634,#635,#219,.T.);
#938=EDGE_CURVE('',#635,#638,#597,.T.);
#940=EDGE_CURVE('',#710,#638,#228,.T.);
#952=EDGE_CURVE('',#638,#637,#273,.T.);
#954=EDGE_CURVE('',#637,#634,#241,.T.);
#965=EDGE_CURVE('',#670,#669,#246,.T.);
#967=EDGE_CURVE('',#636,#669,#614,.T.);
#969=EDGE_CURVE('',#637,#636,#259,.T.);
#972=EDGE_CURVE('',#638,#670,#277,.T.);
#982=EDGE_CURVE('',#652,#666,#282,.T.);
#984=EDGE_CURVE('',#652,#666,#287,.T.);
#988=EDGE_CURVE('',#669,#670,#583,.T.);
#999=EDGE_CURVE('',#650,#652,#296,.T.);
#1002=EDGE_CURVE('',#664,#666,#305,.T.);
#1004=EDGE_CURVE('',#650,#664,#292,.T.);
#1015=EDGE_CURVE('',#650,#664,#301,.T.);
#1027=EDGE_CURVE('',#649,#650,#309,.T.);
#1029=EDGE_CURVE('',#649,#663,#314,.T.);
#1031=EDGE_CURVE('',#663,#664,#318,.T.);
#1045=EDGE_CURVE('',#649,#663,#323,.T.);
#1055=EDGE_CURVE('',#646,#660,#328,.T.);
#1057=EDGE_CURVE('',#646,#660,#333,.T.);
#1071=EDGE_CURVE('',#645,#646,#342,.T.);
#1074=EDGE_CURVE('',#659,#660,#351,.T.);
#1076=EDGE_CURVE('',#645,#659,#338,.T.);
#1087=EDGE_CURVE('',#645,#659,#347,.T.);
#1103=EDGE_CURVE('',#642,#656,#356,.T.);
#1105=EDGE_CURVE('',#642,#656,#361,.T.);
#1115=EDGE_CURVE('',#641,#642,#370,.T.);
#1118=EDGE_CURVE('',#655,#656,#379,.T.);
#1120=EDGE_CURVE('',#641,#655,#366,.T.);
#1131=EDGE_CURVE('',#641,#655,#375,.T.);
#1147=EDGE_CURVE('',#673,#674,#399,.T.);
#1149=EDGE_CURVE('',#674,#673,#419,.T.);
#1158=ELLIPSE('',#1157,8.25E0,7.25E0);
#1163=EDGE_CURVE('',#671,#673,#423,.T.);
#1165=EDGE_CURVE('',#671,#672,#447,.T.);
#1167=EDGE_CURVE('',#672,#674,#427,.T.);
#1176=ELLIPSE('',#1175,8.25E0,7.25E0);
#1182=EDGE_CURVE('',#672,#671,#467,.T.);
#1197=EDGE_CURVE('',#632,#633,#472,.T.);
#1199=EDGE_CURVE('',#633,#632,#477,.T.);
#1209=EDGE_CURVE('',#678,#675,#490,.T.);
#1211=EDGE_CURVE('',#675,#632,#494,.T.);
#1214=EDGE_CURVE('',#629,#633,#578,.T.);
#1216=EDGE_CURVE('',#678,#629,#508,.T.);
#1278=EDGE_CURVE('',#678,#677,#521,.T.);
#1280=EDGE_CURVE('',#675,#677,#547,.T.);
#1293=EDGE_CURVE('',#627,#629,#542,.T.);
#1296=EDGE_CURVE('',#626,#677,#525,.T.);
#1306=EDGE_CURVE('',#677,#676,#538,.T.);
#1311=EDGE_CURVE('',#629,#676,#574,.T.);
#1373=EDGE_CURVE('',#675,#676,#560,.T.);
#1401=EDGE_CURVE('',#636,#635,#610,.T.);
#1465=EDGE_CURVE('',#636,#634,#619,.T.);
#1538=ELLIPSE('',#1537,8.25E0,7.25E0);
#1551=(LENGTH_UNIT()NAMED_UNIT(*)SI_UNIT(.MILLI.,.METRE.));
#1553=(NAMED_UNIT(*)PLANE_ANGLE_UNIT()SI_UNIT($,.RADIAN.));
#1556=(NAMED_UNIT(*)SI_UNIT($,.STERADIAN.)SOLID_ANGLE_UNIT());
#1559=ADVANCED_BREP_SHAPE_REPRESENTATION('',(#1550),#1558);
#1566=PRODUCT_DEFINITION('design','',#1565,#1562);
#1567=PRODUCT_DEFINITION_SHAPE('','SHAPE FOR FTY-04-010.',#1566);
#1568=SHAPE_DEFINITION_REPRESENTATION(#1567,#1559);
ENDSEC;
END-ISO-10303-21;
