ISO-10303-21;
HEADER;
FILE_DESCRIPTION((''),'2;1');
FILE_NAME('FTY-04-017','2026-06-30T11:19:10',('Administrator'),(''),
'CREO PARAMETRIC BY PTC INC, 2019010','CREO PARAMETRIC BY PTC INC, 2019010','');
FILE_SCHEMA(('CONFIG_CONTROL_DESIGN'));
ENDSEC;
DATA;
#2=CARTESIAN_POINT('',(0.E0,-8.5E0,2.15E1));
#3=CARTESIAN_POINT('',(8.249579113843E-1,-8.5E0,2.15E1));
#4=CARTESIAN_POINT('',(2.161015455105E0,-8.224933170440E0,2.15E1));
#5=CARTESIAN_POINT('',(3.853310505163E0,-7.168046393026E0,2.15E1));
#6=CARTESIAN_POINT('',(4.985478403904E0,-6.053874023963E0,2.15E1));
#7=CARTESIAN_POINT('',(5.903260689056E0,-4.678903351638E0,2.15E1));
#8=CARTESIAN_POINT('',(6.555290311056E0,-3.138209992130E0,2.15E1));
#9=CARTESIAN_POINT('',(6.864787311295E0,-1.807274054938E0,2.15E1));
#10=CARTESIAN_POINT('',(6.981737514205E0,-7.593225391951E-1,2.15E1));
#11=CARTESIAN_POINT('',(7.009131242897E0,0.E0,2.15E1));
#12=CARTESIAN_POINT('',(6.981737514205E0,7.593225391951E-1,2.15E1));
#13=CARTESIAN_POINT('',(6.864787311295E0,1.807274054938E0,2.15E1));
#14=CARTESIAN_POINT('',(6.555290311056E0,3.138209992130E0,2.15E1));
#15=CARTESIAN_POINT('',(5.903260689056E0,4.678903351638E0,2.15E1));
#16=CARTESIAN_POINT('',(4.985478403904E0,6.053874023963E0,2.15E1));
#17=CARTESIAN_POINT('',(3.853310505163E0,7.168046393026E0,2.15E1));
#18=CARTESIAN_POINT('',(2.161015455105E0,8.224933170440E0,2.15E1));
#19=CARTESIAN_POINT('',(8.249579113843E-1,8.5E0,2.15E1));
#20=CARTESIAN_POINT('',(0.E0,8.5E0,2.15E1));
#22=CARTESIAN_POINT('',(0.E0,8.5E0,2.15E1));
#23=CARTESIAN_POINT('',(-8.249579113843E-1,8.5E0,2.15E1));
#24=CARTESIAN_POINT('',(-2.161015455105E0,8.224933170440E0,2.15E1));
#25=CARTESIAN_POINT('',(-3.853310505163E0,7.168046393026E0,2.15E1));
#26=CARTESIAN_POINT('',(-4.985478403904E0,6.053874023963E0,2.15E1));
#27=CARTESIAN_POINT('',(-5.903260689056E0,4.678903351638E0,2.15E1));
#28=CARTESIAN_POINT('',(-6.555290311056E0,3.138209992130E0,2.15E1));
#29=CARTESIAN_POINT('',(-6.864787311295E0,1.807274054938E0,2.15E1));
#30=CARTESIAN_POINT('',(-6.981737514205E0,7.593225391951E-1,2.15E1));
#31=CARTESIAN_POINT('',(-7.009131242897E0,0.E0,2.15E1));
#32=CARTESIAN_POINT('',(-6.981737514205E0,-7.593225391951E-1,2.15E1));
#33=CARTESIAN_POINT('',(-6.864787311295E0,-1.807274054938E0,2.15E1));
#34=CARTESIAN_POINT('',(-6.555290311056E0,-3.138209992130E0,2.15E1));
#35=CARTESIAN_POINT('',(-5.903260689056E0,-4.678903351638E0,2.15E1));
#36=CARTESIAN_POINT('',(-4.985478403904E0,-6.053874023963E0,2.15E1));
#37=CARTESIAN_POINT('',(-3.853310505163E0,-7.168046393026E0,2.15E1));
#38=CARTESIAN_POINT('',(-2.161015455105E0,-8.224933170440E0,2.15E1));
#39=CARTESIAN_POINT('',(-8.249579113843E-1,-8.5E0,2.15E1));
#40=CARTESIAN_POINT('',(0.E0,-8.5E0,2.15E1));
#42=CARTESIAN_POINT('',(0.E0,0.E0,2.15E1));
#43=DIRECTION('',(0.E0,0.E0,-1.E0));
#44=DIRECTION('',(-1.E0,0.E0,0.E0));
#45=AXIS2_PLACEMENT_3D('',#42,#43,#44);
#47=CARTESIAN_POINT('',(0.E0,0.E0,2.15E1));
#48=DIRECTION('',(0.E0,0.E0,1.E0));
#49=DIRECTION('',(-1.E0,0.E0,0.E0));
#50=AXIS2_PLACEMENT_3D('',#47,#48,#49);
#52=DIRECTION('',(0.E0,0.E0,-1.E0));
#53=VECTOR('',#52,1.5E0);
#54=CARTESIAN_POINT('',(0.E0,-8.5E0,2.15E1));
#55=LINE('',#54,#53);
#56=CARTESIAN_POINT('',(0.E0,-8.5E0,2.E1));
#57=CARTESIAN_POINT('',(8.249579113843E-1,-8.5E0,2.E1));
#58=CARTESIAN_POINT('',(2.161015455105E0,-8.224933170440E0,2.E1));
#59=CARTESIAN_POINT('',(3.853310505163E0,-7.168046393026E0,2.E1));
#60=CARTESIAN_POINT('',(4.985478403904E0,-6.053874023963E0,2.E1));
#61=CARTESIAN_POINT('',(5.903260689056E0,-4.678903351638E0,2.E1));
#62=CARTESIAN_POINT('',(6.555290311056E0,-3.138209992130E0,2.E1));
#63=CARTESIAN_POINT('',(6.864787311295E0,-1.807274054938E0,2.E1));
#64=CARTESIAN_POINT('',(6.981737514205E0,-7.593225391951E-1,2.E1));
#65=CARTESIAN_POINT('',(7.009131242897E0,0.E0,2.E1));
#66=CARTESIAN_POINT('',(6.981737514205E0,7.593225391951E-1,2.E1));
#67=CARTESIAN_POINT('',(6.864787311295E0,1.807274054938E0,2.E1));
#68=CARTESIAN_POINT('',(6.555290311056E0,3.138209992130E0,2.E1));
#69=CARTESIAN_POINT('',(5.903260689056E0,4.678903351638E0,2.E1));
#70=CARTESIAN_POINT('',(4.985478403904E0,6.053874023963E0,2.E1));
#71=CARTESIAN_POINT('',(3.853310505163E0,7.168046393026E0,2.E1));
#72=CARTESIAN_POINT('',(2.161015455105E0,8.224933170440E0,2.E1));
#73=CARTESIAN_POINT('',(8.249579113843E-1,8.5E0,2.E1));
#74=CARTESIAN_POINT('',(0.E0,8.5E0,2.E1));
#76=CARTESIAN_POINT('',(0.E0,8.5E0,2.E1));
#77=CARTESIAN_POINT('',(-8.249579113843E-1,8.5E0,2.E1));
#78=CARTESIAN_POINT('',(-2.161015455105E0,8.224933170440E0,2.E1));
#79=CARTESIAN_POINT('',(-3.853310505163E0,7.168046393026E0,2.E1));
#80=CARTESIAN_POINT('',(-4.985478403904E0,6.053874023963E0,2.E1));
#81=CARTESIAN_POINT('',(-5.903260689056E0,4.678903351638E0,2.E1));
#82=CARTESIAN_POINT('',(-6.555290311056E0,3.138209992130E0,2.E1));
#83=CARTESIAN_POINT('',(-6.864787311295E0,1.807274054938E0,2.E1));
#84=CARTESIAN_POINT('',(-6.981737514205E0,7.593225391951E-1,2.E1));
#85=CARTESIAN_POINT('',(-7.009131242897E0,0.E0,2.E1));
#86=CARTESIAN_POINT('',(-6.981737514205E0,-7.593225391951E-1,2.E1));
#87=CARTESIAN_POINT('',(-6.864787311295E0,-1.807274054938E0,2.E1));
#88=CARTESIAN_POINT('',(-6.555290311056E0,-3.138209992130E0,2.E1));
#89=CARTESIAN_POINT('',(-5.903260689056E0,-4.678903351638E0,2.E1));
#90=CARTESIAN_POINT('',(-4.985478403904E0,-6.053874023963E0,2.E1));
#91=CARTESIAN_POINT('',(-3.853310505163E0,-7.168046393026E0,2.E1));
#92=CARTESIAN_POINT('',(-2.161015455105E0,-8.224933170440E0,2.E1));
#93=CARTESIAN_POINT('',(-8.249579113843E-1,-8.5E0,2.E1));
#94=CARTESIAN_POINT('',(0.E0,-8.5E0,2.E1));
#96=DIRECTION('',(-8.320502943378E-1,0.E0,-5.547001962252E-1));
#97=VECTOR('',#96,9.013878188660E-1);
#98=CARTESIAN_POINT('',(-8.75E0,0.E0,2.E1));
#99=LINE('',#98,#97);
#100=CARTESIAN_POINT('',(0.E0,0.E0,2.E1));
#101=DIRECTION('',(0.E0,0.E0,1.E0));
#102=DIRECTION('',(-1.E0,0.E0,0.E0));
#103=AXIS2_PLACEMENT_3D('',#100,#101,#102);
#105=DIRECTION('',(8.320502943378E-1,0.E0,-5.547001962252E-1));
#106=VECTOR('',#105,9.013878188660E-1);
#107=CARTESIAN_POINT('',(8.75E0,0.E0,2.E1));
#108=LINE('',#107,#106);
#109=CARTESIAN_POINT('',(0.E0,0.E0,2.E1));
#110=DIRECTION('',(0.E0,0.E0,-1.E0));
#111=DIRECTION('',(-1.E0,0.E0,0.E0));
#112=AXIS2_PLACEMENT_3D('',#109,#110,#111);
#114=CARTESIAN_POINT('',(0.E0,0.E0,1.95E1));
#115=DIRECTION('',(0.E0,0.E0,-1.E0));
#116=DIRECTION('',(-1.E0,0.E0,0.E0));
#117=AXIS2_PLACEMENT_3D('',#114,#115,#116);
#119=DIRECTION('',(0.E0,0.E0,-1.E0));
#120=VECTOR('',#119,2.5E0);
#121=CARTESIAN_POINT('',(-9.5E0,0.E0,1.95E1));
#122=LINE('',#121,#120);
#123=CARTESIAN_POINT('',(0.E0,0.E0,1.95E1));
#124=DIRECTION('',(0.E0,0.E0,1.E0));
#125=DIRECTION('',(-1.E0,0.E0,0.E0));
#126=AXIS2_PLACEMENT_3D('',#123,#124,#125);
#128=DIRECTION('',(0.E0,0.E0,-1.E0));
#129=VECTOR('',#128,2.5E0);
#130=CARTESIAN_POINT('',(9.5E0,0.E0,1.95E1));
#131=LINE('',#130,#129);
#132=CARTESIAN_POINT('',(0.E0,0.E0,1.7E1));
#133=DIRECTION('',(0.E0,0.E0,-1.E0));
#134=DIRECTION('',(-1.E0,0.E0,0.E0));
#135=AXIS2_PLACEMENT_3D('',#132,#133,#134);
#137=CARTESIAN_POINT('',(0.E0,0.E0,1.7E1));
#138=DIRECTION('',(0.E0,0.E0,1.E0));
#139=DIRECTION('',(-1.E0,0.E0,0.E0));
#140=AXIS2_PLACEMENT_3D('',#137,#138,#139);
#142=DIRECTION('',(0.E0,0.E0,-1.E0));
#143=VECTOR('',#142,5.E0);
#144=CARTESIAN_POINT('',(-1.E1,0.E0,1.7E1));
#145=LINE('',#144,#143);
#146=CARTESIAN_POINT('',(0.E0,0.E0,1.7E1));
#147=DIRECTION('',(0.E0,0.E0,1.E0));
#148=DIRECTION('',(-1.E0,0.E0,0.E0));
#149=AXIS2_PLACEMENT_3D('',#146,#147,#148);
#151=DIRECTION('',(0.E0,0.E0,-1.E0));
#152=VECTOR('',#151,5.E0);
#153=CARTESIAN_POINT('',(1.E1,0.E0,1.7E1));
#154=LINE('',#153,#152);
#155=CARTESIAN_POINT('',(0.E0,0.E0,1.7E1));
#156=DIRECTION('',(0.E0,0.E0,-1.E0));
#157=DIRECTION('',(-1.E0,0.E0,0.E0));
#158=AXIS2_PLACEMENT_3D('',#155,#156,#157);
#160=CARTESIAN_POINT('',(0.E0,0.E0,1.2E1));
#161=DIRECTION('',(0.E0,0.E0,-1.E0));
#162=DIRECTION('',(-1.E0,0.E0,0.E0));
#163=AXIS2_PLACEMENT_3D('',#160,#161,#162);
#165=CARTESIAN_POINT('',(0.E0,0.E0,1.2E1));
#166=DIRECTION('',(0.E0,0.E0,1.E0));
#167=DIRECTION('',(-1.E0,0.E0,0.E0));
#168=AXIS2_PLACEMENT_3D('',#165,#166,#167);
#170=DIRECTION('',(0.E0,0.E0,-1.E0));
#171=VECTOR('',#170,5.E0);
#172=CARTESIAN_POINT('',(-9.5E0,0.E0,1.2E1));
#173=LINE('',#172,#171);
#174=CARTESIAN_POINT('',(0.E0,0.E0,1.2E1));
#175=DIRECTION('',(0.E0,0.E0,1.E0));
#176=DIRECTION('',(-1.E0,0.E0,0.E0));
#177=AXIS2_PLACEMENT_3D('',#174,#175,#176);
#179=DIRECTION('',(0.E0,0.E0,-1.E0));
#180=VECTOR('',#179,5.E0);
#181=CARTESIAN_POINT('',(9.5E0,0.E0,1.2E1));
#182=LINE('',#181,#180);
#183=CARTESIAN_POINT('',(0.E0,0.E0,1.2E1));
#184=DIRECTION('',(0.E0,0.E0,-1.E0));
#185=DIRECTION('',(-1.E0,0.E0,0.E0));
#186=AXIS2_PLACEMENT_3D('',#183,#184,#185);
#188=CARTESIAN_POINT('',(0.E0,0.E0,7.E0));
#189=DIRECTION('',(0.E0,0.E0,-1.E0));
#190=DIRECTION('',(-1.E0,0.E0,0.E0));
#191=AXIS2_PLACEMENT_3D('',#188,#189,#190);
#193=DIRECTION('',(7.682212795974E-1,0.E0,-6.401843996645E-1));
#194=VECTOR('',#193,1.952562418977E0);
#195=CARTESIAN_POINT('',(-9.5E0,0.E0,7.E0));
#196=LINE('',#195,#194);
#197=CARTESIAN_POINT('',(0.E0,0.E0,7.E0));
#198=DIRECTION('',(0.E0,0.E0,1.E0));
#199=DIRECTION('',(-1.E0,0.E0,0.E0));
#200=AXIS2_PLACEMENT_3D('',#197,#198,#199);
#202=DIRECTION('',(-7.682212795974E-1,0.E0,-6.401843996645E-1));
#203=VECTOR('',#202,1.952562418977E0);
#204=CARTESIAN_POINT('',(9.5E0,0.E0,7.E0));
#205=LINE('',#204,#203);
#206=CARTESIAN_POINT('',(0.E0,0.E0,5.75E0));
#207=DIRECTION('',(0.E0,0.E0,-1.E0));
#208=DIRECTION('',(-1.E0,0.E0,0.E0));
#209=AXIS2_PLACEMENT_3D('',#206,#207,#208);
#211=CARTESIAN_POINT('',(0.E0,0.E0,5.75E0));
#212=DIRECTION('',(0.E0,0.E0,1.E0));
#213=DIRECTION('',(-1.E0,0.E0,0.E0));
#214=AXIS2_PLACEMENT_3D('',#211,#212,#213);
#216=DIRECTION('',(0.E0,0.E0,-1.E0));
#217=VECTOR('',#216,1.15E1);
#218=CARTESIAN_POINT('',(-6.75E0,0.E0,5.75E0));
#219=LINE('',#218,#217);
#220=CARTESIAN_POINT('',(0.E0,0.E0,5.75E0));
#221=DIRECTION('',(0.E0,0.E0,1.E0));
#222=DIRECTION('',(-1.E0,0.E0,0.E0));
#223=AXIS2_PLACEMENT_3D('',#220,#221,#222);
#225=DIRECTION('',(0.E0,0.E0,-1.E0));
#226=VECTOR('',#225,1.15E1);
#227=CARTESIAN_POINT('',(6.75E0,0.E0,5.75E0));
#228=LINE('',#227,#226);
#229=CARTESIAN_POINT('',(0.E0,0.E0,5.75E0));
#230=DIRECTION('',(0.E0,0.E0,-1.E0));
#231=DIRECTION('',(-1.E0,0.E0,0.E0));
#232=AXIS2_PLACEMENT_3D('',#229,#230,#231);
#234=CARTESIAN_POINT('',(0.E0,0.E0,-5.75E0));
#235=DIRECTION('',(0.E0,0.E0,-1.E0));
#236=DIRECTION('',(-1.E0,0.E0,0.E0));
#237=AXIS2_PLACEMENT_3D('',#234,#235,#236);
#239=CARTESIAN_POINT('',(0.E0,0.E0,-5.75E0));
#240=DIRECTION('',(0.E0,0.E0,1.E0));
#241=DIRECTION('',(-1.E0,0.E0,0.E0));
#242=AXIS2_PLACEMENT_3D('',#239,#240,#241);
#244=DIRECTION('',(-7.682212795974E-1,0.E0,-6.401843996645E-1));
#245=VECTOR('',#244,1.952562418977E0);
#246=CARTESIAN_POINT('',(-8.E0,0.E0,-5.75E0));
#247=LINE('',#246,#245);
#248=CARTESIAN_POINT('',(0.E0,0.E0,-5.75E0));
#249=DIRECTION('',(0.E0,0.E0,1.E0));
#250=DIRECTION('',(-1.E0,0.E0,0.E0));
#251=AXIS2_PLACEMENT_3D('',#248,#249,#250);
#253=DIRECTION('',(7.682212795974E-1,0.E0,-6.401843996645E-1));
#254=VECTOR('',#253,1.952562418977E0);
#255=CARTESIAN_POINT('',(8.E0,0.E0,-5.75E0));
#256=LINE('',#255,#254);
#257=CARTESIAN_POINT('',(0.E0,0.E0,-5.75E0));
#258=DIRECTION('',(0.E0,0.E0,-1.E0));
#259=DIRECTION('',(-1.E0,0.E0,0.E0));
#260=AXIS2_PLACEMENT_3D('',#257,#258,#259);
#262=CARTESIAN_POINT('',(0.E0,0.E0,-7.E0));
#263=DIRECTION('',(0.E0,0.E0,-1.E0));
#264=DIRECTION('',(-1.E0,0.E0,0.E0));
#265=AXIS2_PLACEMENT_3D('',#262,#263,#264);
#267=DIRECTION('',(0.E0,0.E0,-1.E0));
#268=VECTOR('',#267,5.E0);
#269=CARTESIAN_POINT('',(-9.5E0,0.E0,-7.E0));
#270=LINE('',#269,#268);
#271=CARTESIAN_POINT('',(0.E0,0.E0,-7.E0));
#272=DIRECTION('',(0.E0,0.E0,1.E0));
#273=DIRECTION('',(-1.E0,0.E0,0.E0));
#274=AXIS2_PLACEMENT_3D('',#271,#272,#273);
#276=DIRECTION('',(0.E0,0.E0,-1.E0));
#277=VECTOR('',#276,5.E0);
#278=CARTESIAN_POINT('',(9.5E0,0.E0,-7.E0));
#279=LINE('',#278,#277);
#280=CARTESIAN_POINT('',(0.E0,0.E0,-1.2E1));
#281=DIRECTION('',(0.E0,0.E0,-1.E0));
#282=DIRECTION('',(-1.E0,0.E0,0.E0));
#283=AXIS2_PLACEMENT_3D('',#280,#281,#282);
#285=CARTESIAN_POINT('',(0.E0,0.E0,-1.2E1));
#286=DIRECTION('',(0.E0,0.E0,1.E0));
#287=DIRECTION('',(-1.E0,0.E0,0.E0));
#288=AXIS2_PLACEMENT_3D('',#285,#286,#287);
#290=DIRECTION('',(0.E0,0.E0,-1.E0));
#291=VECTOR('',#290,5.E0);
#292=CARTESIAN_POINT('',(-1.E1,0.E0,-1.2E1));
#293=LINE('',#292,#291);
#294=CARTESIAN_POINT('',(0.E0,0.E0,-1.2E1));
#295=DIRECTION('',(0.E0,0.E0,1.E0));
#296=DIRECTION('',(-1.E0,0.E0,0.E0));
#297=AXIS2_PLACEMENT_3D('',#294,#295,#296);
#299=DIRECTION('',(0.E0,0.E0,-1.E0));
#300=VECTOR('',#299,5.E0);
#301=CARTESIAN_POINT('',(1.E1,0.E0,-1.2E1));
#302=LINE('',#301,#300);
#303=CARTESIAN_POINT('',(0.E0,0.E0,-1.2E1));
#304=DIRECTION('',(0.E0,0.E0,-1.E0));
#305=DIRECTION('',(-1.E0,0.E0,0.E0));
#306=AXIS2_PLACEMENT_3D('',#303,#304,#305);
#308=CARTESIAN_POINT('',(0.E0,0.E0,-1.7E1));
#309=DIRECTION('',(0.E0,0.E0,-1.E0));
#310=DIRECTION('',(-1.E0,0.E0,0.E0));
#311=AXIS2_PLACEMENT_3D('',#308,#309,#310);
#313=CARTESIAN_POINT('',(0.E0,0.E0,-1.7E1));
#314=DIRECTION('',(0.E0,0.E0,1.E0));
#315=DIRECTION('',(-1.E0,0.E0,0.E0));
#316=AXIS2_PLACEMENT_3D('',#313,#314,#315);
#318=DIRECTION('',(0.E0,0.E0,-1.E0));
#319=VECTOR('',#318,2.5E0);
#320=CARTESIAN_POINT('',(-9.5E0,0.E0,-1.7E1));
#321=LINE('',#320,#319);
#322=CARTESIAN_POINT('',(0.E0,0.E0,-1.7E1));
#323=DIRECTION('',(0.E0,0.E0,1.E0));
#324=DIRECTION('',(-1.E0,0.E0,0.E0));
#325=AXIS2_PLACEMENT_3D('',#322,#323,#324);
#327=DIRECTION('',(0.E0,0.E0,-1.E0));
#328=VECTOR('',#327,2.5E0);
#329=CARTESIAN_POINT('',(9.5E0,0.E0,-1.7E1));
#330=LINE('',#329,#328);
#331=CARTESIAN_POINT('',(0.E0,0.E0,-1.7E1));
#332=DIRECTION('',(0.E0,0.E0,-1.E0));
#333=DIRECTION('',(-1.E0,0.E0,0.E0));
#334=AXIS2_PLACEMENT_3D('',#331,#332,#333);
#336=CARTESIAN_POINT('',(0.E0,0.E0,-1.95E1));
#337=DIRECTION('',(0.E0,0.E0,-1.E0));
#338=DIRECTION('',(-1.E0,0.E0,0.E0));
#339=AXIS2_PLACEMENT_3D('',#336,#337,#338);
#341=DIRECTION('',(8.320502943378E-1,0.E0,-5.547001962252E-1));
#342=VECTOR('',#341,9.013878188660E-1);
#343=CARTESIAN_POINT('',(-9.5E0,0.E0,-1.95E1));
#344=LINE('',#343,#342);
#345=CARTESIAN_POINT('',(0.E0,0.E0,-1.95E1));
#346=DIRECTION('',(0.E0,0.E0,1.E0));
#347=DIRECTION('',(-1.E0,0.E0,0.E0));
#348=AXIS2_PLACEMENT_3D('',#345,#346,#347);
#350=DIRECTION('',(-8.320502943378E-1,0.E0,-5.547001962252E-1));
#351=VECTOR('',#350,9.013878188660E-1);
#352=CARTESIAN_POINT('',(9.5E0,0.E0,-1.95E1));
#353=LINE('',#352,#351);
#354=CARTESIAN_POINT('',(0.E0,0.E0,-2.E1));
#355=DIRECTION('',(0.E0,0.E0,-1.E0));
#356=DIRECTION('',(-1.E0,0.E0,0.E0));
#357=AXIS2_PLACEMENT_3D('',#354,#355,#356);
#359=CARTESIAN_POINT('',(0.E0,0.E0,-2.E1));
#360=DIRECTION('',(0.E0,0.E0,1.E0));
#361=DIRECTION('',(-1.E0,0.E0,0.E0));
#362=AXIS2_PLACEMENT_3D('',#359,#360,#361);
#364=CARTESIAN_POINT('',(0.E0,-8.5E0,-2.E1));
#365=CARTESIAN_POINT('',(8.249579113843E-1,-8.5E0,-2.E1));
#366=CARTESIAN_POINT('',(2.161015455105E0,-8.224933170440E0,-2.E1));
#367=CARTESIAN_POINT('',(3.853310505163E0,-7.168046393026E0,-2.E1));
#368=CARTESIAN_POINT('',(4.985478403904E0,-6.053874023963E0,-2.E1));
#369=CARTESIAN_POINT('',(5.903260689056E0,-4.678903351638E0,-2.E1));
#370=CARTESIAN_POINT('',(6.555290311056E0,-3.138209992130E0,-2.E1));
#371=CARTESIAN_POINT('',(6.864787311295E0,-1.807274054938E0,-2.E1));
#372=CARTESIAN_POINT('',(6.981737514205E0,-7.593225391951E-1,-2.E1));
#373=CARTESIAN_POINT('',(7.009131242897E0,0.E0,-2.E1));
#374=CARTESIAN_POINT('',(6.981737514205E0,7.593225391951E-1,-2.E1));
#375=CARTESIAN_POINT('',(6.864787311295E0,1.807274054938E0,-2.E1));
#376=CARTESIAN_POINT('',(6.555290311056E0,3.138209992130E0,-2.E1));
#377=CARTESIAN_POINT('',(5.903260689056E0,4.678903351638E0,-2.E1));
#378=CARTESIAN_POINT('',(4.985478403904E0,6.053874023963E0,-2.E1));
#379=CARTESIAN_POINT('',(3.853310505163E0,7.168046393026E0,-2.E1));
#380=CARTESIAN_POINT('',(2.161015455105E0,8.224933170440E0,-2.E1));
#381=CARTESIAN_POINT('',(8.249579113843E-1,8.5E0,-2.E1));
#382=CARTESIAN_POINT('',(0.E0,8.5E0,-2.E1));
#384=CARTESIAN_POINT('',(0.E0,8.5E0,-2.E1));
#385=CARTESIAN_POINT('',(-8.249579113843E-1,8.5E0,-2.E1));
#386=CARTESIAN_POINT('',(-2.161015455105E0,8.224933170440E0,-2.E1));
#387=CARTESIAN_POINT('',(-3.853310505163E0,7.168046393026E0,-2.E1));
#388=CARTESIAN_POINT('',(-4.985478403904E0,6.053874023963E0,-2.E1));
#389=CARTESIAN_POINT('',(-5.903260689056E0,4.678903351638E0,-2.E1));
#390=CARTESIAN_POINT('',(-6.555290311056E0,3.138209992130E0,-2.E1));
#391=CARTESIAN_POINT('',(-6.864787311295E0,1.807274054938E0,-2.E1));
#392=CARTESIAN_POINT('',(-6.981737514205E0,7.593225391951E-1,-2.E1));
#393=CARTESIAN_POINT('',(-7.009131242897E0,0.E0,-2.E1));
#394=CARTESIAN_POINT('',(-6.981737514205E0,-7.593225391951E-1,-2.E1));
#395=CARTESIAN_POINT('',(-6.864787311295E0,-1.807274054938E0,-2.E1));
#396=CARTESIAN_POINT('',(-6.555290311056E0,-3.138209992130E0,-2.E1));
#397=CARTESIAN_POINT('',(-5.903260689056E0,-4.678903351638E0,-2.E1));
#398=CARTESIAN_POINT('',(-4.985478403904E0,-6.053874023963E0,-2.E1));
#399=CARTESIAN_POINT('',(-3.853310505163E0,-7.168046393026E0,-2.E1));
#400=CARTESIAN_POINT('',(-2.161015455105E0,-8.224933170440E0,-2.E1));
#401=CARTESIAN_POINT('',(-8.249579113843E-1,-8.5E0,-2.E1));
#402=CARTESIAN_POINT('',(0.E0,-8.5E0,-2.E1));
#404=DIRECTION('',(0.E0,0.E0,1.E0));
#405=VECTOR('',#404,1.5E0);
#406=CARTESIAN_POINT('',(0.E0,-8.5E0,-2.15E1));
#407=LINE('',#406,#405);
#408=DIRECTION('',(0.E0,0.E0,1.E0));
#409=VECTOR('',#408,1.5E0);
#410=CARTESIAN_POINT('',(0.E0,8.5E0,-2.15E1));
#411=LINE('',#410,#409);
#412=CARTESIAN_POINT('',(0.E0,-8.5E0,-2.15E1));
#413=CARTESIAN_POINT('',(8.249579113843E-1,-8.5E0,-2.15E1));
#414=CARTESIAN_POINT('',(2.161015455105E0,-8.224933170440E0,-2.15E1));
#415=CARTESIAN_POINT('',(3.853310505163E0,-7.168046393026E0,-2.15E1));
#416=CARTESIAN_POINT('',(4.985478403904E0,-6.053874023963E0,-2.15E1));
#417=CARTESIAN_POINT('',(5.903260689056E0,-4.678903351638E0,-2.15E1));
#418=CARTESIAN_POINT('',(6.555290311056E0,-3.138209992130E0,-2.15E1));
#419=CARTESIAN_POINT('',(6.864787311295E0,-1.807274054938E0,-2.15E1));
#420=CARTESIAN_POINT('',(6.981737514205E0,-7.593225391951E-1,-2.15E1));
#421=CARTESIAN_POINT('',(7.009131242897E0,0.E0,-2.15E1));
#422=CARTESIAN_POINT('',(6.981737514205E0,7.593225391951E-1,-2.15E1));
#423=CARTESIAN_POINT('',(6.864787311295E0,1.807274054938E0,-2.15E1));
#424=CARTESIAN_POINT('',(6.555290311056E0,3.138209992130E0,-2.15E1));
#425=CARTESIAN_POINT('',(5.903260689056E0,4.678903351638E0,-2.15E1));
#426=CARTESIAN_POINT('',(4.985478403904E0,6.053874023963E0,-2.15E1));
#427=CARTESIAN_POINT('',(3.853310505163E0,7.168046393026E0,-2.15E1));
#428=CARTESIAN_POINT('',(2.161015455105E0,8.224933170440E0,-2.15E1));
#429=CARTESIAN_POINT('',(8.249579113843E-1,8.5E0,-2.15E1));
#430=CARTESIAN_POINT('',(0.E0,8.5E0,-2.15E1));
#432=CARTESIAN_POINT('',(0.E0,8.5E0,-2.15E1));
#433=CARTESIAN_POINT('',(-8.249579113843E-1,8.5E0,-2.15E1));
#434=CARTESIAN_POINT('',(-2.161015455105E0,8.224933170440E0,-2.15E1));
#435=CARTESIAN_POINT('',(-3.853310505163E0,7.168046393026E0,-2.15E1));
#436=CARTESIAN_POINT('',(-4.985478403904E0,6.053874023963E0,-2.15E1));
#437=CARTESIAN_POINT('',(-5.903260689056E0,4.678903351638E0,-2.15E1));
#438=CARTESIAN_POINT('',(-6.555290311056E0,3.138209992130E0,-2.15E1));
#439=CARTESIAN_POINT('',(-6.864787311295E0,1.807274054938E0,-2.15E1));
#440=CARTESIAN_POINT('',(-6.981737514205E0,7.593225391951E-1,-2.15E1));
#441=CARTESIAN_POINT('',(-7.009131242897E0,0.E0,-2.15E1));
#442=CARTESIAN_POINT('',(-6.981737514205E0,-7.593225391951E-1,-2.15E1));
#443=CARTESIAN_POINT('',(-6.864787311295E0,-1.807274054938E0,-2.15E1));
#444=CARTESIAN_POINT('',(-6.555290311056E0,-3.138209992130E0,-2.15E1));
#445=CARTESIAN_POINT('',(-5.903260689056E0,-4.678903351638E0,-2.15E1));
#446=CARTESIAN_POINT('',(-4.985478403904E0,-6.053874023963E0,-2.15E1));
#447=CARTESIAN_POINT('',(-3.853310505163E0,-7.168046393026E0,-2.15E1));
#448=CARTESIAN_POINT('',(-2.161015455105E0,-8.224933170440E0,-2.15E1));
#449=CARTESIAN_POINT('',(-8.249579113843E-1,-8.5E0,-2.15E1));
#450=CARTESIAN_POINT('',(0.E0,-8.5E0,-2.15E1));
#452=DIRECTION('',(0.E0,0.E0,1.E0));
#453=VECTOR('',#452,4.3E1);
#454=CARTESIAN_POINT('',(-5.E0,0.E0,-2.15E1));
#455=LINE('',#454,#453);
#456=CARTESIAN_POINT('',(0.E0,0.E0,-2.15E1));
#457=DIRECTION('',(0.E0,0.E0,1.E0));
#458=DIRECTION('',(-1.E0,0.E0,0.E0));
#459=AXIS2_PLACEMENT_3D('',#456,#457,#458);
#461=DIRECTION('',(0.E0,0.E0,1.E0));
#462=VECTOR('',#461,4.3E1);
#463=CARTESIAN_POINT('',(5.E0,0.E0,-2.15E1));
#464=LINE('',#463,#462);
#465=CARTESIAN_POINT('',(0.E0,0.E0,-2.15E1));
#466=DIRECTION('',(0.E0,0.E0,-1.E0));
#467=DIRECTION('',(-1.E0,0.E0,0.E0));
#468=AXIS2_PLACEMENT_3D('',#465,#466,#467);
#470=DIRECTION('',(0.E0,0.E0,-1.E0));
#471=VECTOR('',#470,1.5E0);
#472=CARTESIAN_POINT('',(0.E0,8.5E0,2.15E1));
#473=LINE('',#472,#471);
#474=CARTESIAN_POINT('',(-8.75E0,0.E0,2.E1));
#475=CARTESIAN_POINT('',(-9.5E0,0.E0,1.95E1));
#476=VERTEX_POINT('',#474);
#477=VERTEX_POINT('',#475);
#478=CARTESIAN_POINT('',(-9.5E0,0.E0,1.7E1));
#479=VERTEX_POINT('',#478);
#480=CARTESIAN_POINT('',(-1.E1,0.E0,1.7E1));
#481=CARTESIAN_POINT('',(-1.E1,0.E0,1.2E1));
#482=VERTEX_POINT('',#480);
#483=VERTEX_POINT('',#481);
#484=CARTESIAN_POINT('',(-9.5E0,0.E0,1.2E1));
#485=CARTESIAN_POINT('',(-9.5E0,0.E0,7.E0));
#486=VERTEX_POINT('',#484);
#487=VERTEX_POINT('',#485);
#488=CARTESIAN_POINT('',(-8.E0,0.E0,5.75E0));
#489=VERTEX_POINT('',#488);
#490=CARTESIAN_POINT('',(-6.75E0,0.E0,5.75E0));
#491=CARTESIAN_POINT('',(-6.75E0,0.E0,-5.75E0));
#492=VERTEX_POINT('',#490);
#493=VERTEX_POINT('',#491);
#494=CARTESIAN_POINT('',(-8.E0,0.E0,-5.75E0));
#495=CARTESIAN_POINT('',(-9.5E0,0.E0,-7.E0));
#496=VERTEX_POINT('',#494);
#497=VERTEX_POINT('',#495);
#498=CARTESIAN_POINT('',(-9.5E0,0.E0,-1.2E1));
#499=VERTEX_POINT('',#498);
#500=CARTESIAN_POINT('',(-1.E1,0.E0,-1.2E1));
#501=CARTESIAN_POINT('',(-1.E1,0.E0,-1.7E1));
#502=VERTEX_POINT('',#500);
#503=VERTEX_POINT('',#501);
#504=CARTESIAN_POINT('',(-9.5E0,0.E0,-1.7E1));
#505=CARTESIAN_POINT('',(-9.5E0,0.E0,-1.95E1));
#506=VERTEX_POINT('',#504);
#507=VERTEX_POINT('',#505);
#508=CARTESIAN_POINT('',(-8.75E0,0.E0,-2.E1));
#509=VERTEX_POINT('',#508);
#510=CARTESIAN_POINT('',(-5.E0,0.E0,-2.15E1));
#511=CARTESIAN_POINT('',(-5.E0,0.E0,2.15E1));
#512=VERTEX_POINT('',#510);
#513=VERTEX_POINT('',#511);
#514=CARTESIAN_POINT('',(8.75E0,0.E0,2.E1));
#515=CARTESIAN_POINT('',(9.5E0,0.E0,1.95E1));
#516=VERTEX_POINT('',#514);
#517=VERTEX_POINT('',#515);
#518=CARTESIAN_POINT('',(9.5E0,0.E0,1.7E1));
#519=VERTEX_POINT('',#518);
#520=CARTESIAN_POINT('',(1.E1,0.E0,1.7E1));
#521=CARTESIAN_POINT('',(1.E1,0.E0,1.2E1));
#522=VERTEX_POINT('',#520);
#523=VERTEX_POINT('',#521);
#524=CARTESIAN_POINT('',(9.5E0,0.E0,1.2E1));
#525=CARTESIAN_POINT('',(9.5E0,0.E0,7.E0));
#526=VERTEX_POINT('',#524);
#527=VERTEX_POINT('',#525);
#528=CARTESIAN_POINT('',(8.E0,0.E0,5.75E0));
#529=VERTEX_POINT('',#528);
#530=CARTESIAN_POINT('',(6.75E0,0.E0,5.75E0));
#531=CARTESIAN_POINT('',(6.75E0,0.E0,-5.75E0));
#532=VERTEX_POINT('',#530);
#533=VERTEX_POINT('',#531);
#534=CARTESIAN_POINT('',(8.E0,0.E0,-5.75E0));
#535=CARTESIAN_POINT('',(9.5E0,0.E0,-7.E0));
#536=VERTEX_POINT('',#534);
#537=VERTEX_POINT('',#535);
#538=CARTESIAN_POINT('',(9.5E0,0.E0,-1.2E1));
#539=VERTEX_POINT('',#538);
#540=CARTESIAN_POINT('',(1.E1,0.E0,-1.2E1));
#541=CARTESIAN_POINT('',(1.E1,0.E0,-1.7E1));
#542=VERTEX_POINT('',#540);
#543=VERTEX_POINT('',#541);
#544=CARTESIAN_POINT('',(9.5E0,0.E0,-1.7E1));
#545=CARTESIAN_POINT('',(9.5E0,0.E0,-1.95E1));
#546=VERTEX_POINT('',#544);
#547=VERTEX_POINT('',#545);
#548=CARTESIAN_POINT('',(8.75E0,0.E0,-2.E1));
#549=VERTEX_POINT('',#548);
#550=CARTESIAN_POINT('',(5.E0,0.E0,-2.15E1));
#551=CARTESIAN_POINT('',(5.E0,0.E0,2.15E1));
#552=VERTEX_POINT('',#550);
#553=VERTEX_POINT('',#551);
#554=VERTEX_POINT('',#2);
#555=VERTEX_POINT('',#20);
#556=VERTEX_POINT('',#56);
#557=VERTEX_POINT('',#74);
#558=VERTEX_POINT('',#412);
#559=VERTEX_POINT('',#430);
#560=CARTESIAN_POINT('',(0.E0,-8.5E0,-2.E1));
#561=VERTEX_POINT('',#560);
#562=CARTESIAN_POINT('',(0.E0,8.5E0,-2.E1));
#563=VERTEX_POINT('',#562);
#564=CARTESIAN_POINT('',(0.E0,0.E0,2.15E1));
#565=DIRECTION('',(0.E0,0.E0,-1.E0));
#566=DIRECTION('',(-1.E0,0.E0,0.E0));
#567=AXIS2_PLACEMENT_3D('',#564,#565,#566);
#568=PLANE('',#567);
#570=ORIENTED_EDGE('',*,*,#569,.F.);
#572=ORIENTED_EDGE('',*,*,#571,.F.);
#573=EDGE_LOOP('',(#570,#572));
#574=FACE_OUTER_BOUND('',#573,.F.);
#576=ORIENTED_EDGE('',*,*,#575,.F.);
#578=ORIENTED_EDGE('',*,*,#577,.T.);
#579=EDGE_LOOP('',(#576,#578));
#580=FACE_BOUND('',#579,.F.);
#581=ADVANCED_FACE('',(#574,#580),#568,.F.);
#582=CARTESIAN_POINT('',(0.E0,0.E0,2.15E1));
#583=DIRECTION('',(0.E0,0.E0,1.E0));
#584=DIRECTION('',(0.E0,-1.E0,0.E0));
#585=AXIS2_PLACEMENT_3D('',#582,#583,#584);
#587=DIRECTION('',(0.E0,0.E0,1.E0));
#588=VECTOR('',#587,1.E0);
#589=SURFACE_OF_LINEAR_EXTRUSION('',#586,#588);
#591=ORIENTED_EDGE('',*,*,#590,.F.);
#593=ORIENTED_EDGE('',*,*,#592,.F.);
#594=ORIENTED_EDGE('',*,*,#569,.T.);
#596=ORIENTED_EDGE('',*,*,#595,.T.);
#597=EDGE_LOOP('',(#591,#593,#594,#596));
#598=FACE_OUTER_BOUND('',#597,.F.);
#599=ADVANCED_FACE('',(#598),#589,.T.);
#600=CARTESIAN_POINT('',(0.E0,0.E0,2.E1));
#601=DIRECTION('',(0.E0,0.E0,-1.E0));
#602=DIRECTION('',(-1.E0,0.E0,0.E0));
#603=AXIS2_PLACEMENT_3D('',#600,#601,#602);
#604=PLANE('',#603);
#606=ORIENTED_EDGE('',*,*,#605,.F.);
#608=ORIENTED_EDGE('',*,*,#607,.T.);
#609=EDGE_LOOP('',(#606,#608));
#610=FACE_OUTER_BOUND('',#609,.F.);
#611=ORIENTED_EDGE('',*,*,#590,.T.);
#613=ORIENTED_EDGE('',*,*,#612,.T.);
#614=EDGE_LOOP('',(#611,#613));
#615=FACE_BOUND('',#614,.F.);
#616=ADVANCED_FACE('',(#610,#615),#604,.F.);
#617=CARTESIAN_POINT('',(0.E0,0.E0,1.975E1));
#618=DIRECTION('',(0.E0,0.E0,-1.E0));
#619=DIRECTION('',(-1.E0,0.E0,0.E0));
#620=AXIS2_PLACEMENT_3D('',#617,#618,#619);
#621=CONICAL_SURFACE('',#620,9.125E0,5.630993247402E1);
#623=ORIENTED_EDGE('',*,*,#622,.F.);
#624=ORIENTED_EDGE('',*,*,#605,.T.);
#626=ORIENTED_EDGE('',*,*,#625,.T.);
#628=ORIENTED_EDGE('',*,*,#627,.F.);
#629=EDGE_LOOP('',(#623,#624,#626,#628));
#630=FACE_OUTER_BOUND('',#629,.F.);
#631=ADVANCED_FACE('',(#630),#621,.T.);
#632=CARTESIAN_POINT('',(0.E0,0.E0,1.975E1));
#633=DIRECTION('',(0.E0,0.E0,-1.E0));
#634=DIRECTION('',(-1.E0,0.E0,0.E0));
#635=AXIS2_PLACEMENT_3D('',#632,#633,#634);
#636=CONICAL_SURFACE('',#635,9.125E0,5.630993247402E1);
#637=ORIENTED_EDGE('',*,*,#622,.T.);
#639=ORIENTED_EDGE('',*,*,#638,.T.);
#640=ORIENTED_EDGE('',*,*,#625,.F.);
#641=ORIENTED_EDGE('',*,*,#607,.F.);
#642=EDGE_LOOP('',(#637,#639,#640,#641));
#643=FACE_OUTER_BOUND('',#642,.F.);
#644=ADVANCED_FACE('',(#643),#636,.T.);
#645=CARTESIAN_POINT('',(0.E0,0.E0,2.365E1));
#646=DIRECTION('',(0.E0,0.E0,-1.E0));
#647=DIRECTION('',(-1.E0,0.E0,0.E0));
#648=AXIS2_PLACEMENT_3D('',#645,#646,#647);
#649=CYLINDRICAL_SURFACE('',#648,9.5E0);
#651=ORIENTED_EDGE('',*,*,#650,.T.);
#653=ORIENTED_EDGE('',*,*,#652,.T.);
#655=ORIENTED_EDGE('',*,*,#654,.F.);
#656=ORIENTED_EDGE('',*,*,#638,.F.);
#657=EDGE_LOOP('',(#651,#653,#655,#656));
#658=FACE_OUTER_BOUND('',#657,.F.);
#659=ADVANCED_FACE('',(#658),#649,.T.);
#660=CARTESIAN_POINT('',(0.E0,0.E0,2.365E1));
#661=DIRECTION('',(0.E0,0.E0,-1.E0));
#662=DIRECTION('',(-1.E0,0.E0,0.E0));
#663=AXIS2_PLACEMENT_3D('',#660,#661,#662);
#664=CYLINDRICAL_SURFACE('',#663,9.5E0);
#665=ORIENTED_EDGE('',*,*,#650,.F.);
#666=ORIENTED_EDGE('',*,*,#627,.T.);
#667=ORIENTED_EDGE('',*,*,#654,.T.);
#669=ORIENTED_EDGE('',*,*,#668,.F.);
#670=EDGE_LOOP('',(#665,#666,#667,#669));
#671=FACE_OUTER_BOUND('',#670,.F.);
#672=ADVANCED_FACE('',(#671),#664,.T.);
#673=CARTESIAN_POINT('',(0.E0,0.E0,1.7E1));
#674=DIRECTION('',(0.E0,0.E0,-1.E0));
#675=DIRECTION('',(-1.E0,0.E0,0.E0));
#676=AXIS2_PLACEMENT_3D('',#673,#674,#675);
#677=PLANE('',#676);
#679=ORIENTED_EDGE('',*,*,#678,.F.);
#681=ORIENTED_EDGE('',*,*,#680,.T.);
#682=EDGE_LOOP('',(#679,#681));
#683=FACE_OUTER_BOUND('',#682,.F.);
#684=ORIENTED_EDGE('',*,*,#652,.F.);
#685=ORIENTED_EDGE('',*,*,#668,.T.);
#686=EDGE_LOOP('',(#684,#685));
#687=FACE_BOUND('',#686,.F.);
#688=ADVANCED_FACE('',(#683,#687),#677,.F.);
#689=CARTESIAN_POINT('',(0.E0,0.E0,2.365E1));
#690=DIRECTION('',(0.E0,0.E0,-1.E0));
#691=DIRECTION('',(-1.E0,0.E0,0.E0));
#692=AXIS2_PLACEMENT_3D('',#689,#690,#691);
#693=CYLINDRICAL_SURFACE('',#692,1.E1);
#695=ORIENTED_EDGE('',*,*,#694,.F.);
#696=ORIENTED_EDGE('',*,*,#678,.T.);
#698=ORIENTED_EDGE('',*,*,#697,.T.);
#700=ORIENTED_EDGE('',*,*,#699,.F.);
#701=EDGE_LOOP('',(#695,#696,#698,#700));
#702=FACE_OUTER_BOUND('',#701,.F.);
#703=ADVANCED_FACE('',(#702),#693,.T.);
#704=CARTESIAN_POINT('',(0.E0,0.E0,2.365E1));
#705=DIRECTION('',(0.E0,0.E0,-1.E0));
#706=DIRECTION('',(-1.E0,0.E0,0.E0));
#707=AXIS2_PLACEMENT_3D('',#704,#705,#706);
#708=CYLINDRICAL_SURFACE('',#707,1.E1);
#709=ORIENTED_EDGE('',*,*,#694,.T.);
#711=ORIENTED_EDGE('',*,*,#710,.T.);
#712=ORIENTED_EDGE('',*,*,#697,.F.);
#713=ORIENTED_EDGE('',*,*,#680,.F.);
#714=EDGE_LOOP('',(#709,#711,#712,#713));
#715=FACE_OUTER_BOUND('',#714,.F.);
#716=ADVANCED_FACE('',(#715),#708,.T.);
#717=CARTESIAN_POINT('',(0.E0,0.E0,1.2E1));
#718=DIRECTION('',(0.E0,0.E0,-1.E0));
#719=DIRECTION('',(-1.E0,0.E0,0.E0));
#720=AXIS2_PLACEMENT_3D('',#717,#718,#719);
#721=PLANE('',#720);
#722=ORIENTED_EDGE('',*,*,#710,.F.);
#723=ORIENTED_EDGE('',*,*,#699,.T.);
#724=EDGE_LOOP('',(#722,#723));
#725=FACE_OUTER_BOUND('',#724,.F.);
#727=ORIENTED_EDGE('',*,*,#726,.F.);
#729=ORIENTED_EDGE('',*,*,#728,.T.);
#730=EDGE_LOOP('',(#727,#729));
#731=FACE_BOUND('',#730,.F.);
#732=ADVANCED_FACE('',(#725,#731),#721,.T.);
#733=CARTESIAN_POINT('',(0.E0,0.E0,2.365E1));
#734=DIRECTION('',(0.E0,0.E0,-1.E0));
#735=DIRECTION('',(-1.E0,0.E0,0.E0));
#736=AXIS2_PLACEMENT_3D('',#733,#734,#735);
#737=CYLINDRICAL_SURFACE('',#736,9.5E0);
#739=ORIENTED_EDGE('',*,*,#738,.F.);
#740=ORIENTED_EDGE('',*,*,#726,.T.);
#742=ORIENTED_EDGE('',*,*,#741,.T.);
#744=ORIENTED_EDGE('',*,*,#743,.F.);
#745=EDGE_LOOP('',(#739,#740,#742,#744));
#746=FACE_OUTER_BOUND('',#745,.F.);
#747=ADVANCED_FACE('',(#746),#737,.T.);
#748=CARTESIAN_POINT('',(0.E0,0.E0,2.365E1));
#749=DIRECTION('',(0.E0,0.E0,-1.E0));
#750=DIRECTION('',(-1.E0,0.E0,0.E0));
#751=AXIS2_PLACEMENT_3D('',#748,#749,#750);
#752=CYLINDRICAL_SURFACE('',#751,9.5E0);
#753=ORIENTED_EDGE('',*,*,#738,.T.);
#755=ORIENTED_EDGE('',*,*,#754,.T.);
#756=ORIENTED_EDGE('',*,*,#741,.F.);
#757=ORIENTED_EDGE('',*,*,#728,.F.);
#758=EDGE_LOOP('',(#753,#755,#756,#757));
#759=FACE_OUTER_BOUND('',#758,.F.);
#760=ADVANCED_FACE('',(#759),#752,.T.);
#761=CARTESIAN_POINT('',(0.E0,0.E0,6.375E0));
#762=DIRECTION('',(0.E0,0.E0,1.E0));
#763=DIRECTION('',(1.E0,0.E0,0.E0));
#764=AXIS2_PLACEMENT_3D('',#761,#762,#763);
#765=CONICAL_SURFACE('',#764,8.75E0,5.019442890773E1);
#767=ORIENTED_EDGE('',*,*,#766,.T.);
#769=ORIENTED_EDGE('',*,*,#768,.T.);
#771=ORIENTED_EDGE('',*,*,#770,.F.);
#772=ORIENTED_EDGE('',*,*,#754,.F.);
#773=EDGE_LOOP('',(#767,#769,#771,#772));
#774=FACE_OUTER_BOUND('',#773,.F.);
#775=ADVANCED_FACE('',(#774),#765,.T.);
#776=CARTESIAN_POINT('',(0.E0,0.E0,6.375E0));
#777=DIRECTION('',(0.E0,0.E0,1.E0));
#778=DIRECTION('',(1.E0,0.E0,0.E0));
#779=AXIS2_PLACEMENT_3D('',#776,#777,#778);
#780=CONICAL_SURFACE('',#779,8.75E0,5.019442890773E1);
#781=ORIENTED_EDGE('',*,*,#766,.F.);
#782=ORIENTED_EDGE('',*,*,#743,.T.);
#783=ORIENTED_EDGE('',*,*,#770,.T.);
#785=ORIENTED_EDGE('',*,*,#784,.F.);
#786=EDGE_LOOP('',(#781,#782,#783,#785));
#787=FACE_OUTER_BOUND('',#786,.F.);
#788=ADVANCED_FACE('',(#787),#780,.T.);
#789=CARTESIAN_POINT('',(0.E0,0.E0,5.75E0));
#790=DIRECTION('',(0.E0,0.E0,-1.E0));
#791=DIRECTION('',(-1.E0,0.E0,0.E0));
#792=AXIS2_PLACEMENT_3D('',#789,#790,#791);
#793=PLANE('',#792);
#794=ORIENTED_EDGE('',*,*,#768,.F.);
#795=ORIENTED_EDGE('',*,*,#784,.T.);
#796=EDGE_LOOP('',(#794,#795));
#797=FACE_OUTER_BOUND('',#796,.F.);
#799=ORIENTED_EDGE('',*,*,#798,.F.);
#801=ORIENTED_EDGE('',*,*,#800,.T.);
#802=EDGE_LOOP('',(#799,#801));
#803=FACE_BOUND('',#802,.F.);
#804=ADVANCED_FACE('',(#797,#803),#793,.T.);
#805=CARTESIAN_POINT('',(0.E0,0.E0,2.365E1));
#806=DIRECTION('',(0.E0,0.E0,-1.E0));
#807=DIRECTION('',(-1.E0,0.E0,0.E0));
#808=AXIS2_PLACEMENT_3D('',#805,#806,#807);
#809=CYLINDRICAL_SURFACE('',#808,6.75E0);
#811=ORIENTED_EDGE('',*,*,#810,.F.);
#812=ORIENTED_EDGE('',*,*,#798,.T.);
#814=ORIENTED_EDGE('',*,*,#813,.T.);
#816=ORIENTED_EDGE('',*,*,#815,.F.);
#817=EDGE_LOOP('',(#811,#812,#814,#816));
#818=FACE_OUTER_BOUND('',#817,.F.);
#819=ADVANCED_FACE('',(#818),#809,.T.);
#820=CARTESIAN_POINT('',(0.E0,0.E0,2.365E1));
#821=DIRECTION('',(0.E0,0.E0,-1.E0));
#822=DIRECTION('',(-1.E0,0.E0,0.E0));
#823=AXIS2_PLACEMENT_3D('',#820,#821,#822);
#824=CYLINDRICAL_SURFACE('',#823,6.75E0);
#825=ORIENTED_EDGE('',*,*,#810,.T.);
#827=ORIENTED_EDGE('',*,*,#826,.T.);
#828=ORIENTED_EDGE('',*,*,#813,.F.);
#829=ORIENTED_EDGE('',*,*,#800,.F.);
#830=EDGE_LOOP('',(#825,#827,#828,#829));
#831=FACE_OUTER_BOUND('',#830,.F.);
#832=ADVANCED_FACE('',(#831),#824,.T.);
#833=CARTESIAN_POINT('',(0.E0,0.E0,-5.75E0));
#834=DIRECTION('',(0.E0,0.E0,-1.E0));
#835=DIRECTION('',(-1.E0,0.E0,0.E0));
#836=AXIS2_PLACEMENT_3D('',#833,#834,#835);
#837=PLANE('',#836);
#839=ORIENTED_EDGE('',*,*,#838,.F.);
#841=ORIENTED_EDGE('',*,*,#840,.T.);
#842=EDGE_LOOP('',(#839,#841));
#843=FACE_OUTER_BOUND('',#842,.F.);
#844=ORIENTED_EDGE('',*,*,#826,.F.);
#845=ORIENTED_EDGE('',*,*,#815,.T.);
#846=EDGE_LOOP('',(#844,#845));
#847=FACE_BOUND('',#846,.F.);
#848=ADVANCED_FACE('',(#843,#847),#837,.F.);
#849=CARTESIAN_POINT('',(0.E0,0.E0,-6.375E0));
#850=DIRECTION('',(0.E0,0.E0,-1.E0));
#851=DIRECTION('',(-1.E0,0.E0,0.E0));
#852=AXIS2_PLACEMENT_3D('',#849,#850,#851);
#853=CONICAL_SURFACE('',#852,8.75E0,5.019442890773E1);
#855=ORIENTED_EDGE('',*,*,#854,.F.);
#856=ORIENTED_EDGE('',*,*,#838,.T.);
#858=ORIENTED_EDGE('',*,*,#857,.T.);
#860=ORIENTED_EDGE('',*,*,#859,.F.);
#861=EDGE_LOOP('',(#855,#856,#858,#860));
#862=FACE_OUTER_BOUND('',#861,.F.);
#863=ADVANCED_FACE('',(#862),#853,.T.);
#864=CARTESIAN_POINT('',(0.E0,0.E0,-6.375E0));
#865=DIRECTION('',(0.E0,0.E0,-1.E0));
#866=DIRECTION('',(-1.E0,0.E0,0.E0));
#867=AXIS2_PLACEMENT_3D('',#864,#865,#866);
#868=CONICAL_SURFACE('',#867,8.75E0,5.019442890773E1);
#869=ORIENTED_EDGE('',*,*,#854,.T.);
#871=ORIENTED_EDGE('',*,*,#870,.T.);
#872=ORIENTED_EDGE('',*,*,#857,.F.);
#873=ORIENTED_EDGE('',*,*,#840,.F.);
#874=EDGE_LOOP('',(#869,#871,#872,#873));
#875=FACE_OUTER_BOUND('',#874,.F.);
#876=ADVANCED_FACE('',(#875),#868,.T.);
#877=CARTESIAN_POINT('',(0.E0,0.E0,2.365E1));
#878=DIRECTION('',(0.E0,0.E0,-1.E0));
#879=DIRECTION('',(-1.E0,0.E0,0.E0));
#880=AXIS2_PLACEMENT_3D('',#877,#878,#879);
#881=CYLINDRICAL_SURFACE('',#880,9.5E0);
#883=ORIENTED_EDGE('',*,*,#882,.T.);
#885=ORIENTED_EDGE('',*,*,#884,.T.);
#887=ORIENTED_EDGE('',*,*,#886,.F.);
#888=ORIENTED_EDGE('',*,*,#870,.F.);
#889=EDGE_LOOP('',(#883,#885,#887,#888));
#890=FACE_OUTER_BOUND('',#889,.F.);
#891=ADVANCED_FACE('',(#890),#881,.T.);
#892=CARTESIAN_POINT('',(0.E0,0.E0,2.365E1));
#893=DIRECTION('',(0.E0,0.E0,-1.E0));
#894=DIRECTION('',(-1.E0,0.E0,0.E0));
#895=AXIS2_PLACEMENT_3D('',#892,#893,#894);
#896=CYLINDRICAL_SURFACE('',#895,9.5E0);
#897=ORIENTED_EDGE('',*,*,#882,.F.);
#898=ORIENTED_EDGE('',*,*,#859,.T.);
#899=ORIENTED_EDGE('',*,*,#886,.T.);
#901=ORIENTED_EDGE('',*,*,#900,.F.);
#902=EDGE_LOOP('',(#897,#898,#899,#901));
#903=FACE_OUTER_BOUND('',#902,.F.);
#904=ADVANCED_FACE('',(#903),#896,.T.);
#905=CARTESIAN_POINT('',(0.E0,0.E0,-1.2E1));
#906=DIRECTION('',(0.E0,0.E0,-1.E0));
#907=DIRECTION('',(-1.E0,0.E0,0.E0));
#908=AXIS2_PLACEMENT_3D('',#905,#906,#907);
#909=PLANE('',#908);
#911=ORIENTED_EDGE('',*,*,#910,.F.);
#913=ORIENTED_EDGE('',*,*,#912,.T.);
#914=EDGE_LOOP('',(#911,#913));
#915=FACE_OUTER_BOUND('',#914,.F.);
#916=ORIENTED_EDGE('',*,*,#884,.F.);
#917=ORIENTED_EDGE('',*,*,#900,.T.);
#918=EDGE_LOOP('',(#916,#917));
#919=FACE_BOUND('',#918,.F.);
#920=ADVANCED_FACE('',(#915,#919),#909,.F.);
#921=CARTESIAN_POINT('',(0.E0,0.E0,2.365E1));
#922=DIRECTION('',(0.E0,0.E0,-1.E0));
#923=DIRECTION('',(-1.E0,0.E0,0.E0));
#924=AXIS2_PLACEMENT_3D('',#921,#922,#923);
#925=CYLINDRICAL_SURFACE('',#924,1.E1);
#927=ORIENTED_EDGE('',*,*,#926,.F.);
#928=ORIENTED_EDGE('',*,*,#910,.T.);
#930=ORIENTED_EDGE('',*,*,#929,.T.);
#932=ORIENTED_EDGE('',*,*,#931,.F.);
#933=EDGE_LOOP('',(#927,#928,#930,#932));
#934=FACE_OUTER_BOUND('',#933,.F.);
#935=ADVANCED_FACE('',(#934),#925,.T.);
#936=CARTESIAN_POINT('',(0.E0,0.E0,2.365E1));
#937=DIRECTION('',(0.E0,0.E0,-1.E0));
#938=DIRECTION('',(-1.E0,0.E0,0.E0));
#939=AXIS2_PLACEMENT_3D('',#936,#937,#938);
#940=CYLINDRICAL_SURFACE('',#939,1.E1);
#941=ORIENTED_EDGE('',*,*,#926,.T.);
#943=ORIENTED_EDGE('',*,*,#942,.T.);
#944=ORIENTED_EDGE('',*,*,#929,.F.);
#945=ORIENTED_EDGE('',*,*,#912,.F.);
#946=EDGE_LOOP('',(#941,#943,#944,#945));
#947=FACE_OUTER_BOUND('',#946,.F.);
#948=ADVANCED_FACE('',(#947),#940,.T.);
#949=CARTESIAN_POINT('',(0.E0,0.E0,-1.7E1));
#950=DIRECTION('',(0.E0,0.E0,-1.E0));
#951=DIRECTION('',(-1.E0,0.E0,0.E0));
#952=AXIS2_PLACEMENT_3D('',#949,#950,#951);
#953=PLANE('',#952);
#954=ORIENTED_EDGE('',*,*,#942,.F.);
#955=ORIENTED_EDGE('',*,*,#931,.T.);
#956=EDGE_LOOP('',(#954,#955));
#957=FACE_OUTER_BOUND('',#956,.F.);
#959=ORIENTED_EDGE('',*,*,#958,.F.);
#961=ORIENTED_EDGE('',*,*,#960,.T.);
#962=EDGE_LOOP('',(#959,#961));
#963=FACE_BOUND('',#962,.F.);
#964=ADVANCED_FACE('',(#957,#963),#953,.T.);
#965=CARTESIAN_POINT('',(0.E0,0.E0,2.365E1));
#966=DIRECTION('',(0.E0,0.E0,-1.E0));
#967=DIRECTION('',(-1.E0,0.E0,0.E0));
#968=AXIS2_PLACEMENT_3D('',#965,#966,#967);
#969=CYLINDRICAL_SURFACE('',#968,9.5E0);
#971=ORIENTED_EDGE('',*,*,#970,.F.);
#972=ORIENTED_EDGE('',*,*,#958,.T.);
#974=ORIENTED_EDGE('',*,*,#973,.T.);
#976=ORIENTED_EDGE('',*,*,#975,.F.);
#977=EDGE_LOOP('',(#971,#972,#974,#976));
#978=FACE_OUTER_BOUND('',#977,.F.);
#979=ADVANCED_FACE('',(#978),#969,.T.);
#980=CARTESIAN_POINT('',(0.E0,0.E0,2.365E1));
#981=DIRECTION('',(0.E0,0.E0,-1.E0));
#982=DIRECTION('',(-1.E0,0.E0,0.E0));
#983=AXIS2_PLACEMENT_3D('',#980,#981,#982);
#984=CYLINDRICAL_SURFACE('',#983,9.5E0);
#985=ORIENTED_EDGE('',*,*,#970,.T.);
#987=ORIENTED_EDGE('',*,*,#986,.T.);
#988=ORIENTED_EDGE('',*,*,#973,.F.);
#989=ORIENTED_EDGE('',*,*,#960,.F.);
#990=EDGE_LOOP('',(#985,#987,#988,#989));
#991=FACE_OUTER_BOUND('',#990,.F.);
#992=ADVANCED_FACE('',(#991),#984,.T.);
#993=CARTESIAN_POINT('',(0.E0,0.E0,-1.975E1));
#994=DIRECTION('',(0.E0,0.E0,1.E0));
#995=DIRECTION('',(1.E0,0.E0,0.E0));
#996=AXIS2_PLACEMENT_3D('',#993,#994,#995);
#997=CONICAL_SURFACE('',#996,9.125E0,5.630993247402E1);
#999=ORIENTED_EDGE('',*,*,#998,.T.);
#1001=ORIENTED_EDGE('',*,*,#1000,.T.);
#1003=ORIENTED_EDGE('',*,*,#1002,.F.);
#1004=ORIENTED_EDGE('',*,*,#986,.F.);
#1005=EDGE_LOOP('',(#999,#1001,#1003,#1004));
#1006=FACE_OUTER_BOUND('',#1005,.F.);
#1007=ADVANCED_FACE('',(#1006),#997,.T.);
#1008=CARTESIAN_POINT('',(0.E0,0.E0,-1.975E1));
#1009=DIRECTION('',(0.E0,0.E0,1.E0));
#1010=DIRECTION('',(1.E0,0.E0,0.E0));
#1011=AXIS2_PLACEMENT_3D('',#1008,#1009,#1010);
#1012=CONICAL_SURFACE('',#1011,9.125E0,5.630993247402E1);
#1013=ORIENTED_EDGE('',*,*,#998,.F.);
#1014=ORIENTED_EDGE('',*,*,#975,.T.);
#1015=ORIENTED_EDGE('',*,*,#1002,.T.);
#1017=ORIENTED_EDGE('',*,*,#1016,.F.);
#1018=EDGE_LOOP('',(#1013,#1014,#1015,#1017));
#1019=FACE_OUTER_BOUND('',#1018,.F.);
#1020=ADVANCED_FACE('',(#1019),#1012,.T.);
#1021=CARTESIAN_POINT('',(0.E0,0.E0,-2.E1));
#1022=DIRECTION('',(0.E0,0.E0,-1.E0));
#1023=DIRECTION('',(-1.E0,0.E0,0.E0));
#1024=AXIS2_PLACEMENT_3D('',#1021,#1022,#1023);
#1025=PLANE('',#1024);
#1026=ORIENTED_EDGE('',*,*,#1000,.F.);
#1027=ORIENTED_EDGE('',*,*,#1016,.T.);
#1028=EDGE_LOOP('',(#1026,#1027));
#1029=FACE_OUTER_BOUND('',#1028,.F.);
#1031=ORIENTED_EDGE('',*,*,#1030,.F.);
#1033=ORIENTED_EDGE('',*,*,#1032,.F.);
#1034=EDGE_LOOP('',(#1031,#1033));
#1035=FACE_BOUND('',#1034,.F.);
#1036=ADVANCED_FACE('',(#1029,#1035),#1025,.T.);
#1037=CARTESIAN_POINT('',(0.E0,0.E0,-2.15E1));
#1038=DIRECTION('',(0.E0,0.E0,-1.E0));
#1039=DIRECTION('',(0.E0,-1.E0,0.E0));
#1040=AXIS2_PLACEMENT_3D('',#1037,#1038,#1039);
#1042=DIRECTION('',(0.E0,0.E0,1.E0));
#1043=VECTOR('',#1042,1.E0);
#1044=SURFACE_OF_LINEAR_EXTRUSION('',#1041,#1043);
#1046=ORIENTED_EDGE('',*,*,#1045,.T.);
#1047=ORIENTED_EDGE('',*,*,#1030,.T.);
#1049=ORIENTED_EDGE('',*,*,#1048,.F.);
#1051=ORIENTED_EDGE('',*,*,#1050,.F.);
#1052=EDGE_LOOP('',(#1046,#1047,#1049,#1051));
#1053=FACE_OUTER_BOUND('',#1052,.F.);
#1054=ADVANCED_FACE('',(#1053),#1044,.T.);
#1055=CARTESIAN_POINT('',(0.E0,0.E0,-2.15E1));
#1056=DIRECTION('',(0.E0,0.E0,-1.E0));
#1057=DIRECTION('',(0.E0,-1.E0,0.E0));
#1058=AXIS2_PLACEMENT_3D('',#1055,#1056,#1057);
#1060=DIRECTION('',(0.E0,0.E0,1.E0));
#1061=VECTOR('',#1060,1.E0);
#1062=SURFACE_OF_LINEAR_EXTRUSION('',#1059,#1061);
#1063=ORIENTED_EDGE('',*,*,#1045,.F.);
#1065=ORIENTED_EDGE('',*,*,#1064,.F.);
#1066=ORIENTED_EDGE('',*,*,#1048,.T.);
#1067=ORIENTED_EDGE('',*,*,#1032,.T.);
#1068=EDGE_LOOP('',(#1063,#1065,#1066,#1067));
#1069=FACE_OUTER_BOUND('',#1068,.F.);
#1070=ADVANCED_FACE('',(#1069),#1062,.T.);
#1071=CARTESIAN_POINT('',(0.E0,0.E0,-2.15E1));
#1072=DIRECTION('',(0.E0,0.E0,-1.E0));
#1073=DIRECTION('',(-1.E0,0.E0,0.E0));
#1074=AXIS2_PLACEMENT_3D('',#1071,#1072,#1073);
#1075=PLANE('',#1074);
#1076=ORIENTED_EDGE('',*,*,#1050,.T.);
#1077=ORIENTED_EDGE('',*,*,#1064,.T.);
#1078=EDGE_LOOP('',(#1076,#1077));
#1079=FACE_OUTER_BOUND('',#1078,.F.);
#1081=ORIENTED_EDGE('',*,*,#1080,.F.);
#1083=ORIENTED_EDGE('',*,*,#1082,.T.);
#1084=EDGE_LOOP('',(#1081,#1083));
#1085=FACE_BOUND('',#1084,.F.);
#1086=ADVANCED_FACE('',(#1079,#1085),#1075,.T.);
#1087=CARTESIAN_POINT('',(0.E0,0.E0,2.365E1));
#1088=DIRECTION('',(0.E0,0.E0,-1.E0));
#1089=DIRECTION('',(-1.E0,0.E0,0.E0));
#1090=AXIS2_PLACEMENT_3D('',#1087,#1088,#1089);
#1091=CYLINDRICAL_SURFACE('',#1090,5.E0);
#1093=ORIENTED_EDGE('',*,*,#1092,.F.);
#1094=ORIENTED_EDGE('',*,*,#1080,.T.);
#1096=ORIENTED_EDGE('',*,*,#1095,.T.);
#1097=ORIENTED_EDGE('',*,*,#577,.F.);
#1098=EDGE_LOOP('',(#1093,#1094,#1096,#1097));
#1099=FACE_OUTER_BOUND('',#1098,.F.);
#1100=ADVANCED_FACE('',(#1099),#1091,.F.);
#1101=CARTESIAN_POINT('',(0.E0,0.E0,2.365E1));
#1102=DIRECTION('',(0.E0,0.E0,-1.E0));
#1103=DIRECTION('',(-1.E0,0.E0,0.E0));
#1104=AXIS2_PLACEMENT_3D('',#1101,#1102,#1103);
#1105=CYLINDRICAL_SURFACE('',#1104,5.E0);
#1106=ORIENTED_EDGE('',*,*,#1092,.T.);
#1107=ORIENTED_EDGE('',*,*,#575,.T.);
#1108=ORIENTED_EDGE('',*,*,#1095,.F.);
#1109=ORIENTED_EDGE('',*,*,#1082,.F.);
#1110=EDGE_LOOP('',(#1106,#1107,#1108,#1109));
#1111=FACE_OUTER_BOUND('',#1110,.F.);
#1112=ADVANCED_FACE('',(#1111),#1105,.F.);
#1113=CARTESIAN_POINT('',(0.E0,0.E0,2.15E1));
#1114=DIRECTION('',(0.E0,0.E0,1.E0));
#1115=DIRECTION('',(0.E0,-1.E0,0.E0));
#1116=AXIS2_PLACEMENT_3D('',#1113,#1114,#1115);
#1118=DIRECTION('',(0.E0,0.E0,1.E0));
#1119=VECTOR('',#1118,1.E0);
#1120=SURFACE_OF_LINEAR_EXTRUSION('',#1117,#1119);
#1121=ORIENTED_EDGE('',*,*,#612,.F.);
#1122=ORIENTED_EDGE('',*,*,#595,.F.);
#1123=ORIENTED_EDGE('',*,*,#571,.T.);
#1124=ORIENTED_EDGE('',*,*,#592,.T.);
#1125=EDGE_LOOP('',(#1121,#1122,#1123,#1124));
#1126=FACE_OUTER_BOUND('',#1125,.F.);
#1127=ADVANCED_FACE('',(#1126),#1120,.T.);
#1128=CLOSED_SHELL('',(#581,#599,#616,#631,#644,#659,#672,#688,#703,#716,#732,
#747,#760,#775,#788,#804,#819,#832,#848,#863,#876,#891,#904,#920,#935,#948,#964,
#979,#992,#1007,#1020,#1036,#1054,#1070,#1086,#1100,#1112,#1127));
#1129=MANIFOLD_SOLID_BREP('',#1128);
#1131=DIMENSIONAL_EXPONENTS(0.E0,0.E0,0.E0,0.E0,0.E0,0.E0,0.E0);
#1133=PLANE_ANGLE_MEASURE_WITH_UNIT(PLANE_ANGLE_MEASURE(1.745329251994E-2),
#1132);
#1134=(CONVERSION_BASED_UNIT('DEGREE',#1133)NAMED_UNIT(*)PLANE_ANGLE_UNIT());
#1136=UNCERTAINTY_MEASURE_WITH_UNIT(LENGTH_MEASURE(5.147416794426E-3),#1130,
'closure',
'Maximum model space distance between geometric entities at asserted connectivities');
#1137=(GEOMETRIC_REPRESENTATION_CONTEXT(3)GLOBAL_UNCERTAINTY_ASSIGNED_CONTEXT((
#1136))GLOBAL_UNIT_ASSIGNED_CONTEXT((#1130,#1134,#1135))REPRESENTATION_CONTEXT(
'ID1','3'));
#1139=APPLICATION_CONTEXT(
'CONFIGURATION CONTROLLED 3D DESIGNS OF MECHANICAL PARTS AND ASSEMBLIES');
#1140=APPLICATION_PROTOCOL_DEFINITION('international standard',
'config_control_design',1994,#1139);
#1141=DESIGN_CONTEXT('',#1139,'design');
#1142=MECHANICAL_CONTEXT('',#1139,'mechanical');
#1143=PRODUCT('FTY-04-017','FTY-04-017','NOT SPECIFIED',(#1142));
#1144=PRODUCT_DEFINITION_FORMATION_WITH_SPECIFIED_SOURCE('1','LAST_VERSION',
#1143,.MADE.);
#1148=PRODUCT_CATEGORY('part','');
#1149=PRODUCT_RELATED_PRODUCT_CATEGORY('detail','',(#1143));
#1150=PRODUCT_CATEGORY_RELATIONSHIP('','',#1148,#1149);
#1151=SECURITY_CLASSIFICATION_LEVEL('unclassified');
#1152=SECURITY_CLASSIFICATION('','',#1151);
#1153=CC_DESIGN_SECURITY_CLASSIFICATION(#1152,(#1144));
#1154=APPROVAL_STATUS('approved');
#1155=APPROVAL(#1154,'');
#1156=CC_DESIGN_APPROVAL(#1155,(#1152,#1144,#1145));
#1157=CALENDAR_DATE(126,30,6);
#1158=COORDINATED_UNIVERSAL_TIME_OFFSET(8,0,.AHEAD.);
#1159=LOCAL_TIME(11,19,1.E1,#1158);
#1160=DATE_AND_TIME(#1157,#1159);
#1161=APPROVAL_DATE_TIME(#1160,#1155);
#1162=DATE_TIME_ROLE('creation_date');
#1163=CC_DESIGN_DATE_AND_TIME_ASSIGNMENT(#1160,#1162,(#1145));
#1164=DATE_TIME_ROLE('classification_date');
#1165=CC_DESIGN_DATE_AND_TIME_ASSIGNMENT(#1160,#1164,(#1152));
#1166=PERSON('UNSPECIFIED','UNSPECIFIED',$,$,$,$);
#1167=ORGANIZATION('UNSPECIFIED','UNSPECIFIED','UNSPECIFIED');
#1168=PERSON_AND_ORGANIZATION(#1166,#1167);
#1169=APPROVAL_ROLE('approver');
#1170=APPROVAL_PERSON_ORGANIZATION(#1168,#1155,#1169);
#1171=PERSON_AND_ORGANIZATION_ROLE('creator');
#1172=CC_DESIGN_PERSON_AND_ORGANIZATION_ASSIGNMENT(#1168,#1171,(#1144,#1145));
#1173=PERSON_AND_ORGANIZATION_ROLE('design_supplier');
#1174=CC_DESIGN_PERSON_AND_ORGANIZATION_ASSIGNMENT(#1168,#1173,(#1144));
#1175=PERSON_AND_ORGANIZATION_ROLE('classification_officer');
#1176=CC_DESIGN_PERSON_AND_ORGANIZATION_ASSIGNMENT(#1168,#1175,(#1152));
#1177=PERSON_AND_ORGANIZATION_ROLE('design_owner');
#1178=CC_DESIGN_PERSON_AND_ORGANIZATION_ASSIGNMENT(#1168,#1177,(#1143));
#21=B_SPLINE_CURVE_WITH_KNOTS('',3,(#2,#3,#4,#5,#6,#7,#8,#9,#10,#11,#12,#13,#14,
#15,#16,#17,#18,#19,#20),.UNSPECIFIED.,.F.,.F.,(4,1,1,1,1,1,1,1,1,1,1,1,1,1,1,1,
4),(0.E0,1.25E-1,1.875E-1,2.5E-1,3.125E-1,3.75E-1,4.375E-1,4.6875E-1,5.E-1,
5.3125E-1,5.625E-1,6.25E-1,6.875E-1,7.5E-1,8.125E-1,8.75E-1,1.E0),
.UNSPECIFIED.);
#41=B_SPLINE_CURVE_WITH_KNOTS('',3,(#22,#23,#24,#25,#26,#27,#28,#29,#30,#31,#32,
#33,#34,#35,#36,#37,#38,#39,#40),.UNSPECIFIED.,.F.,.F.,(4,1,1,1,1,1,1,1,1,1,1,1,
1,1,1,1,4),(0.E0,1.25E-1,1.875E-1,2.5E-1,3.125E-1,3.75E-1,4.375E-1,4.6875E-1,
5.E-1,5.3125E-1,5.625E-1,6.25E-1,6.875E-1,7.5E-1,8.125E-1,8.75E-1,1.E0),
.UNSPECIFIED.);
#46=CIRCLE('',#45,5.E0);
#51=CIRCLE('',#50,5.E0);
#75=B_SPLINE_CURVE_WITH_KNOTS('',3,(#56,#57,#58,#59,#60,#61,#62,#63,#64,#65,#66,
#67,#68,#69,#70,#71,#72,#73,#74),.UNSPECIFIED.,.F.,.F.,(4,1,1,1,1,1,1,1,1,1,1,1,
1,1,1,1,4),(0.E0,1.25E-1,1.875E-1,2.5E-1,3.125E-1,3.75E-1,4.375E-1,4.6875E-1,
5.E-1,5.3125E-1,5.625E-1,6.25E-1,6.875E-1,7.5E-1,8.125E-1,8.75E-1,1.E0),
.UNSPECIFIED.);
#95=B_SPLINE_CURVE_WITH_KNOTS('',3,(#76,#77,#78,#79,#80,#81,#82,#83,#84,#85,#86,
#87,#88,#89,#90,#91,#92,#93,#94),.UNSPECIFIED.,.F.,.F.,(4,1,1,1,1,1,1,1,1,1,1,1,
1,1,1,1,4),(0.E0,1.25E-1,1.875E-1,2.5E-1,3.125E-1,3.75E-1,4.375E-1,4.6875E-1,
5.E-1,5.3125E-1,5.625E-1,6.25E-1,6.875E-1,7.5E-1,8.125E-1,8.75E-1,1.E0),
.UNSPECIFIED.);
#104=CIRCLE('',#103,8.75E0);
#113=CIRCLE('',#112,8.75E0);
#118=CIRCLE('',#117,9.5E0);
#127=CIRCLE('',#126,9.5E0);
#136=CIRCLE('',#135,9.5E0);
#141=CIRCLE('',#140,9.5E0);
#150=CIRCLE('',#149,1.E1);
#159=CIRCLE('',#158,1.E1);
#164=CIRCLE('',#163,1.E1);
#169=CIRCLE('',#168,1.E1);
#178=CIRCLE('',#177,9.5E0);
#187=CIRCLE('',#186,9.5E0);
#192=CIRCLE('',#191,9.5E0);
#201=CIRCLE('',#200,9.5E0);
#210=CIRCLE('',#209,8.E0);
#215=CIRCLE('',#214,8.E0);
#224=CIRCLE('',#223,6.75E0);
#233=CIRCLE('',#232,6.75E0);
#238=CIRCLE('',#237,6.75E0);
#243=CIRCLE('',#242,6.75E0);
#252=CIRCLE('',#251,8.E0);
#261=CIRCLE('',#260,8.E0);
#266=CIRCLE('',#265,9.5E0);
#275=CIRCLE('',#274,9.5E0);
#284=CIRCLE('',#283,9.5E0);
#289=CIRCLE('',#288,9.5E0);
#298=CIRCLE('',#297,1.E1);
#307=CIRCLE('',#306,1.E1);
#312=CIRCLE('',#311,1.E1);
#317=CIRCLE('',#316,1.E1);
#326=CIRCLE('',#325,9.5E0);
#335=CIRCLE('',#334,9.5E0);
#340=CIRCLE('',#339,9.5E0);
#349=CIRCLE('',#348,9.5E0);
#358=CIRCLE('',#357,8.75E0);
#363=CIRCLE('',#362,8.75E0);
#383=B_SPLINE_CURVE_WITH_KNOTS('',3,(#364,#365,#366,#367,#368,#369,#370,#371,
#372,#373,#374,#375,#376,#377,#378,#379,#380,#381,#382),.UNSPECIFIED.,.F.,.F.,
(4,1,1,1,1,1,1,1,1,1,1,1,1,1,1,1,4),(0.E0,1.25E-1,1.875E-1,2.5E-1,3.125E-1,
3.75E-1,4.375E-1,4.6875E-1,5.E-1,5.3125E-1,5.625E-1,6.25E-1,6.875E-1,7.5E-1,
8.125E-1,8.75E-1,1.E0),.UNSPECIFIED.);
#403=B_SPLINE_CURVE_WITH_KNOTS('',3,(#384,#385,#386,#387,#388,#389,#390,#391,
#392,#393,#394,#395,#396,#397,#398,#399,#400,#401,#402),.UNSPECIFIED.,.F.,.F.,
(4,1,1,1,1,1,1,1,1,1,1,1,1,1,1,1,4),(0.E0,1.25E-1,1.875E-1,2.5E-1,3.125E-1,
3.75E-1,4.375E-1,4.6875E-1,5.E-1,5.3125E-1,5.625E-1,6.25E-1,6.875E-1,7.5E-1,
8.125E-1,8.75E-1,1.E0),.UNSPECIFIED.);
#431=B_SPLINE_CURVE_WITH_KNOTS('',3,(#412,#413,#414,#415,#416,#417,#418,#419,
#420,#421,#422,#423,#424,#425,#426,#427,#428,#429,#430),.UNSPECIFIED.,.F.,.F.,
(4,1,1,1,1,1,1,1,1,1,1,1,1,1,1,1,4),(0.E0,1.25E-1,1.875E-1,2.5E-1,3.125E-1,
3.75E-1,4.375E-1,4.6875E-1,5.E-1,5.3125E-1,5.625E-1,6.25E-1,6.875E-1,7.5E-1,
8.125E-1,8.75E-1,1.E0),.UNSPECIFIED.);
#451=B_SPLINE_CURVE_WITH_KNOTS('',3,(#432,#433,#434,#435,#436,#437,#438,#439,
#440,#441,#442,#443,#444,#445,#446,#447,#448,#449,#450),.UNSPECIFIED.,.F.,.F.,
(4,1,1,1,1,1,1,1,1,1,1,1,1,1,1,1,4),(0.E0,1.25E-1,1.875E-1,2.5E-1,3.125E-1,
3.75E-1,4.375E-1,4.6875E-1,5.E-1,5.3125E-1,5.625E-1,6.25E-1,6.875E-1,7.5E-1,
8.125E-1,8.75E-1,1.E0),.UNSPECIFIED.);
#460=CIRCLE('',#459,5.E0);
#469=CIRCLE('',#468,5.E0);
#569=EDGE_CURVE('',#554,#555,#21,.T.);
#571=EDGE_CURVE('',#555,#554,#41,.T.);
#575=EDGE_CURVE('',#513,#553,#46,.T.);
#577=EDGE_CURVE('',#513,#553,#51,.T.);
#586=ELLIPSE('',#585,8.5E0,7.E0);
#590=EDGE_CURVE('',#556,#557,#75,.T.);
#592=EDGE_CURVE('',#554,#556,#55,.T.);
#595=EDGE_CURVE('',#555,#557,#473,.T.);
#605=EDGE_CURVE('',#476,#516,#104,.T.);
#607=EDGE_CURVE('',#476,#516,#113,.T.);
#612=EDGE_CURVE('',#557,#556,#95,.T.);
#622=EDGE_CURVE('',#476,#477,#99,.T.);
#625=EDGE_CURVE('',#516,#517,#108,.T.);
#627=EDGE_CURVE('',#477,#517,#127,.T.);
#638=EDGE_CURVE('',#477,#517,#118,.T.);
#650=EDGE_CURVE('',#477,#479,#122,.T.);
#652=EDGE_CURVE('',#479,#519,#136,.T.);
#654=EDGE_CURVE('',#517,#519,#131,.T.);
#668=EDGE_CURVE('',#479,#519,#141,.T.);
#678=EDGE_CURVE('',#482,#522,#150,.T.);
#680=EDGE_CURVE('',#482,#522,#159,.T.);
#694=EDGE_CURVE('',#482,#483,#145,.T.);
#697=EDGE_CURVE('',#522,#523,#154,.T.);
#699=EDGE_CURVE('',#483,#523,#169,.T.);
#710=EDGE_CURVE('',#483,#523,#164,.T.);
#726=EDGE_CURVE('',#486,#526,#178,.T.);
#728=EDGE_CURVE('',#486,#526,#187,.T.);
#738=EDGE_CURVE('',#486,#487,#173,.T.);
#741=EDGE_CURVE('',#526,#527,#182,.T.);
#743=EDGE_CURVE('',#487,#527,#201,.T.);
#754=EDGE_CURVE('',#487,#527,#192,.T.);
#766=EDGE_CURVE('',#487,#489,#196,.T.);
#768=EDGE_CURVE('',#489,#529,#210,.T.);
#770=EDGE_CURVE('',#527,#529,#205,.T.);
#784=EDGE_CURVE('',#489,#529,#215,.T.);
#798=EDGE_CURVE('',#492,#532,#224,.T.);
#800=EDGE_CURVE('',#492,#532,#233,.T.);
#810=EDGE_CURVE('',#492,#493,#219,.T.);
#813=EDGE_CURVE('',#532,#533,#228,.T.);
#815=EDGE_CURVE('',#493,#533,#243,.T.);
#826=EDGE_CURVE('',#493,#533,#238,.T.);
#838=EDGE_CURVE('',#496,#536,#252,.T.);
#840=EDGE_CURVE('',#496,#536,#261,.T.);
#854=EDGE_CURVE('',#496,#497,#247,.T.);
#857=EDGE_CURVE('',#536,#537,#256,.T.);
#859=EDGE_CURVE('',#497,#537,#275,.T.);
#870=EDGE_CURVE('',#497,#537,#266,.T.);
#882=EDGE_CURVE('',#497,#499,#270,.T.);
#884=EDGE_CURVE('',#499,#539,#284,.T.);
#886=EDGE_CURVE('',#537,#539,#279,.T.);
#900=EDGE_CURVE('',#499,#539,#289,.T.);
#910=EDGE_CURVE('',#502,#542,#298,.T.);
#912=EDGE_CURVE('',#502,#542,#307,.T.);
#926=EDGE_CURVE('',#502,#503,#293,.T.);
#929=EDGE_CURVE('',#542,#543,#302,.T.);
#931=EDGE_CURVE('',#503,#543,#317,.T.);
#942=EDGE_CURVE('',#503,#543,#312,.T.);
#958=EDGE_CURVE('',#506,#546,#326,.T.);
#960=EDGE_CURVE('',#506,#546,#335,.T.);
#970=EDGE_CURVE('',#506,#507,#321,.T.);
#973=EDGE_CURVE('',#546,#547,#330,.T.);
#975=EDGE_CURVE('',#507,#547,#349,.T.);
#986=EDGE_CURVE('',#507,#547,#340,.T.);
#998=EDGE_CURVE('',#507,#509,#344,.T.);
#1000=EDGE_CURVE('',#509,#549,#358,.T.);
#1002=EDGE_CURVE('',#547,#549,#353,.T.);
#1016=EDGE_CURVE('',#509,#549,#363,.T.);
#1030=EDGE_CURVE('',#561,#563,#383,.T.);
#1032=EDGE_CURVE('',#563,#561,#403,.T.);
#1041=ELLIPSE('',#1040,8.5E0,7.E0);
#1045=EDGE_CURVE('',#558,#561,#407,.T.);
#1048=EDGE_CURVE('',#559,#563,#411,.T.);
#1050=EDGE_CURVE('',#558,#559,#431,.T.);
#1059=ELLIPSE('',#1058,8.5E0,7.E0);
#1064=EDGE_CURVE('',#559,#558,#451,.T.);
#1080=EDGE_CURVE('',#512,#552,#460,.T.);
#1082=EDGE_CURVE('',#512,#552,#469,.T.);
#1092=EDGE_CURVE('',#512,#513,#455,.T.);
#1095=EDGE_CURVE('',#552,#553,#464,.T.);
#1117=ELLIPSE('',#1116,8.5E0,7.E0);
#1130=(LENGTH_UNIT()NAMED_UNIT(*)SI_UNIT(.MILLI.,.METRE.));
#1132=(NAMED_UNIT(*)PLANE_ANGLE_UNIT()SI_UNIT($,.RADIAN.));
#1135=(NAMED_UNIT(*)SI_UNIT($,.STERADIAN.)SOLID_ANGLE_UNIT());
#1138=ADVANCED_BREP_SHAPE_REPRESENTATION('',(#1129),#1137);
#1145=PRODUCT_DEFINITION('design','',#1144,#1141);
#1146=PRODUCT_DEFINITION_SHAPE('','SHAPE FOR FTY-04-017.',#1145);
#1147=SHAPE_DEFINITION_REPRESENTATION(#1146,#1138);
ENDSEC;
END-ISO-10303-21;
